999
The file was created in CADSoftTools software
999
CADEditorX 14; 
  0
SECTION
  2
HEADER
  9
$ACADVER
  1
AC1018
  9
$DWGCODEPAGE
  3
GB2312
  9
$CLAYER
  8
0
  9
$CELTYPE
  6
BYLAYER
  9
$CELTSCALE
 40
1
  9
$CELWEIGHT
370
-1
  9
$DIMALT
 70
0
  9
$DIMALTF
 40
1
  9
$DIMPOST
  1

  9
$DIMAPOST
  1

  9
$DIMSCALE
 40
1
  9
$DIMASZ
 40
2.5
  9
$DIMCLRD
 70
0
  9
$DIMCLRE
 70
0
  9
$DIMCLRT
 70
0
  9
$DIMEXE
 40
2.5
  9
$DIMEXO
 40
0.868
  9
$DIMGAP
 40
0.1
  9
$DIMLFAC
 40
1
  9
$DIMDEC
 70
2
  9
$DIMTAD
 70
0
  9
$DIMCEN
 40
0.09
  9
$DIMTIH
 70
0
  9
$DIMTIX
 70
0
  9
$DIMTOH
 70
0
  9
$DIMSE1
 70
0
  9
$DIMSE2
 70
0
  9
$DIMSD1
 70
0
  9
$DIMSD2
 70
0
  9
$DIMLWD
 70
-1
  9
$DIMLWE
 70
-1
  9
$DIMSAH
 70
0
  9
$DIMBLK
  1

  9
$DIMBLK1
  1

  9
$DIMBLK2
  1

  9
$DIMLDRBLK
  1

  9
$DIMSTYLE
  2
STANDARD
  9
$DIMTP
 40
0
  9
$DIMTM
 40
0
  9
$DIMTXT
 40
2.5
  9
$DIMLUNIT
 70
2
  9
$DIMDSEP
 70
46
  9
$DIMTXSTY
  7
STANDARD
  9
$TEXTSIZE
 40
2.5
  9
$TEXTSTYLE
  7
STANDARD_Copy
  9
$HANDSEED
  5
0000000000003722
  9
$FILLETRAD
 40
0.5
  9
$INSUNITS
 70
6
  9
$LIMMIN
 10
-60.4613034058611
 20
-630.530697884547
  9
$LIMMAX
 10
428.933120881004
 20
10.6737558562765
  9
$FILLMODE
 70
1
  9
$LTSCALE
 40
1
  9
$MEASUREMENT
 70
1
  9
$ATTMODE
 70
1
  9
$PDMODE
 70
0
  9
$PDSIZE
 40
0
  9
$TILEMODE
 70
1
  9
$UCSORG
 10
0
 20
0
 30
0
  9
$UCSXDIR
 10
1
 20
0
 30
0
  9
$UCSYDIR
 10
0
 20
1
 30
0
  9
$INSBASE
 10
0
 20
0
 30
0
  9
$XCLIPFRAME
290
1
  9
$DIMASSOC
280
2
  9
$TDCREATE
 40
2458978.43183595
  9
$TDINDWG
 40
0.14829869212963
  9
$TDUPDATE
 40
2459024.51974529
  0
ENDSEC
  0
SECTION
  2
CLASSES
  0
CLASS
  1
IMAGE
  2
AcDbRasterImage
  3
ISM
 90
2175
 91
1
280
0
281
1
  0
CLASS
  1
IMAGEDEF
  2
AcDbRasterImageDef
  3
ISM
 90
0
 91
1
280
0
281
0
  0
CLASS
  1
WIPEOUT
  2
AcDbWipeout
  3
"WipeOut"
 90
2175
 91
1
280
0
281
1
  0
CLASS
  1
WIPEOUTVARIABLES
  2
AcDbWipeoutVariables
  3
"WipeOut"
 90
0
 91
1
280
0
281
0
  0
CLASS
  1
MPOLYGON
  2
AcDbMPolygon
  3
"AcMPolygonObj15"
 90
3071
 91
1
280
0
281
1
  0
ENDSEC
  0
SECTION
  2
TABLES
  0
TABLE
  2
APPID
  5
370A
100
AcDbSymbolTable
  0
APPID
  5
2326
100
AcDbSymbolTableRecord
100
AcDbRegAppTableRecord
  2
ACAD
 70
0
  0
APPID
  5
12
100
AcDbSymbolTableRecord
100
AcDbRegAppTableRecord
  2
CSTINVENTORY
 70
0
  0
APPID
  5
2327
100
AcDbSymbolTableRecord
100
AcDbRegAppTableRecord
  2
AcDbAttr
 70
0
  0
APPID
  5
2328
100
AcDbSymbolTableRecord
100
AcDbRegAppTableRecord
  2
PE_URL
 70
0
  0
ENDTAB
  0
TABLE
  2
BLOCK_RECORD
  5
370B
100
AcDbSymbolTable
  0
BLOCK_RECORD
  5
20
100
AcDbSymbolTableRecord
100
AcDbBlockTableRecord
  2
*MODEL_SPACE
  0
BLOCK_RECORD
  5
232A
100
AcDbSymbolTableRecord
100
AcDbBlockTableRecord
  2
*PAPER_SPACE
  0
BLOCK_RECORD
  5
10
100
AcDbSymbolTableRecord
100
AcDbBlockTableRecord
  2
_CLOSEDFILLED
  0
BLOCK_RECORD
  5
15
100
AcDbSymbolTableRecord
100
AcDbBlockTableRecord
  2
ABViewer_RedLine
  0
ENDTAB
  0
TABLE
  2
STYLE
  5
3
100
AcDbSymbolTable
  0
STYLE
  5
A
100
AcDbSymbolTableRecord
100
AcDbTextStyleTableRecord
  2
STANDARD
 70
0
 40
0
 41
1
 50
0
 71
0
 42
2.5
  3
Arial.ttf
  4

1001
ACAD
1000
Arial
1071
0
  0
STYLE
  5
24B6
100
AcDbSymbolTableRecord
100
AcDbTextStyleTableRecord
  2
STANDARD_Copy
 70
0
 40
0
 41
1
 50
0
 71
0
 42
2.5
  3
arial.ttf
  4

1001
ACAD
1000
Arial
1071
0
  0
ENDTAB
  0
TABLE
  2
LTYPE
  5
1
100
AcDbSymbolTable
  0
LTYPE
  5
9
100
AcDbSymbolTableRecord
100
AcDbLinetypeTableRecord
  2
CONTINUOUS
 70
0
  3

 72
65
 73
0
 40
0
  0
LTYPE
  5
7
100
AcDbSymbolTableRecord
100
AcDbLinetypeTableRecord
  2
BYLAYER
 70
0
  3

 72
65
 73
0
 40
0
  0
LTYPE
  5
8
100
AcDbSymbolTableRecord
100
AcDbLinetypeTableRecord
  2
BYBLOCK
 70
0
  3

 72
65
 73
0
 40
0
  0
LTYPE
  5
16
100
AcDbSymbolTableRecord
100
AcDbLinetypeTableRecord
  2
CENTER
 70
0
  3
_ _ 
 72
65
 73
4
 40
2
 49
1.25
 74
0
 49
-0.25
 74
0
 49
0.25
 74
0
 49
-0.25
 74
0
  0
LTYPE
  5
17
100
AcDbSymbolTableRecord
100
AcDbLinetypeTableRecord
  2
ISO dash
 70
0
  3
_ 
 72
65
 73
2
 40
1.5
 49
1.2
 74
0
 49
-0.3
 74
0
  0
LTYPE
  5
18
100
AcDbSymbolTableRecord
100
AcDbLinetypeTableRecord
  2
ISO dot
 70
0
  3
. 
 72
65
 73
2
 40
0.3
 49
0
 74
0
 49
-0.3
 74
0
  0
LTYPE
  5
19
100
AcDbSymbolTableRecord
100
AcDbLinetypeTableRecord
  2
ISO dash dot
 70
0
  3
_ . 
 72
65
 73
4
 40
1.8
 49
1.2
 74
0
 49
-0.3
 74
0
 49
0
 74
0
 49
-0.3
 74
0
  0
LTYPE
  5
1A
100
AcDbSymbolTableRecord
100
AcDbLinetypeTableRecord
  2
ISO dash double-dot
 70
0
  3
_ . . 
 72
65
 73
6
 40
2.1
 49
1.2
 74
0
 49
-0.3
 74
0
 49
0
 74
0
 49
-0.3
 74
0
 49
0
 74
0
 49
-0.3
 74
0
  0
LTYPE
  5
1B
100
AcDbSymbolTableRecord
100
AcDbLinetypeTableRecord
  2
ISO dash triple-dot
 70
0
  3
_ . . . 
 72
65
 73
8
 40
2.4
 49
1.2
 74
0
 49
-0.3
 74
0
 49
0
 74
0
 49
-0.3
 74
0
 49
0
 74
0
 49
-0.3
 74
0
 49
0
 74
0
 49
-0.3
 74
0
  0
LTYPE
  5
1C
100
AcDbSymbolTableRecord
100
AcDbLinetypeTableRecord
  2
ISO dash long gaps
 70
0
  3
_ 
 72
65
 73
2
 40
3
 49
1.2
 74
0
 49
-1.8
 74
0
  0
ENDTAB
  0
TABLE
  2
LAYER
  5
2
100
AcDbSymbolTable
  0
LAYER
  5
E
100
AcDbSymbolTableRecord
100
AcDbLayerTableRecord
  2
0
 70
0
 62
7
  6
CONTINUOUS
290
1
370
-3
390
0
  0
ENDTAB
  0
TABLE
  2
VPORT
  5
370C
100
AcDbSymbolTable
  0
VPORT
  5
370E
100
AcDbSymbolTableRecord
100
AcDbViewportTableRecord
  2
*ACTIVE
 70
0
 10
0
 20
0
 11
1
 21
1
 12
236.418056536915
 22
-609.734853312337
 32
0
 13
0
 23
0
 14
1
 24
1
 15
1
 25
1
 16
0
 26
0
 36
1
 17
0
 27
0
 37
0
 40
642.387449499039
 41
2.44198895027624
 42
50
 43
0
 44
0
 50
0
 51
0
 71
0
 72
100
 73
1
 74
1
 75
0
 76
0
 77
0
 78
0
  0
ENDTAB
  0
TABLE
  2
VIEW
  5
370F
100
AcDbSymbolTable
  0
ENDTAB
  0
TABLE
  2
UCS
  5
3710
100
AcDbSymbolTable
  0
ENDTAB
  0
TABLE
  2
DIMSTYLE
  5
4
100
AcDbSymbolTable
 70
1
100
AcDbDimStyleTable
 71
0
  0
DIMSTYLE
105
B
100
AcDbSymbolTableRecord
100
AcDbDimStyleTableRecord
  2
STANDARD
 70
0
  3

 40
1
 41
2.5
 42
0.868
 44
2.5
 47
0
 48
0
 73
0
 74
0
 75
0
 76
0
 77
0
140
2.5
141
0.09
144
1
147
0.1
173
0
174
0
176
0
177
0
178
0
277
2
278
46
281
0
282
0
271
2
340
A
371
-1
372
-1
  0
ENDTAB
  0
ENDSEC
  0
SECTION
  2
BLOCKS
  0
BLOCK
  5
3711
100
AcDbEntity
  8
0
100
AcDbBlockBegin
  2
*MODEL_SPACE
 70
0
 10
0
 20
0
  0
ENDBLK
  5
3712
100
AcDbEntity
  8
0
100
AcDbBlockEnd
  0
BLOCK
  5
3713
100
AcDbEntity
  8
0
100
AcDbBlockBegin
  2
*PAPER_SPACE
 70
0
 10
0
 20
0
  0
ENDBLK
  5
3714
100
AcDbEntity
  8
0
100
AcDbBlockEnd
  0
BLOCK
  5
F
100
AcDbEntity
  8
0
100
AcDbBlockBegin
  2
_CLOSEDFILLED
 70
0
 10
0
 20
0
 30
0
  3
_CLOSEDFILLED
  1

  0
SOLID
  5
C
100
AcDbEntity
  8
0
100
AcDbTrace
370
-2
 62
0
  6
BYLAYER
 10
-1
 20
0.166666666666667
 30
0
 11
0
 21
0
 31
0
 12
-1
 22
0.166666666666667
 32
0
 13
-1
 23
-0.166666666666667
 33
0
  0
LINE
  5
D
100
AcDbEntity
  8
0
100
AcDbLine
370
-2
 62
0
  6
BYLAYER
 10
-1
 20
0
 30
0
 11
-2
 21
0
 31
0
  0
ENDBLK
  5
3715
100
AcDbEntity
  8
0
100
AcDbBlockEnd
  0
BLOCK
  5
14
100
AcDbEntity
  8
0
100
AcDbBlockBegin
  2
ABViewer_RedLine
 70
1
 10
0
 20
0
 30
0
  3
ABViewer_RedLine
  1

  0
ENDBLK
  5
3716
100
AcDbEntity
  8
0
100
AcDbBlockEnd
  0
ENDSEC
  0
SECTION
  2
ENTITIES
  0
LINE
  5
21
100
AcDbEntity
  8
0
100
AcDbLine
370
25
 62
7
  6
CONTINUOUS
 10
40.8664977230842
 20
0.165211020811499
 30
0
 11
40.8664977230842
 21
0.173755856276487
 31
0
  0
ARC
  5
22
100
AcDbEntity
  8
0
100
AcDbCircle
370
25
 62
7
  6
CONTINUOUS
 10
39.3664977230842
 20
0.173755856276487
 30
0
 40
1.5
100
AcDbArc
 50
0
 51
90
  0
LINE
  5
23
100
AcDbEntity
  8
0
100
AcDbLine
370
25
 62
7
  6
CONTINUOUS
 10
39.3664977230842
 20
1.67375585627649
 30
0
 11
22.3064977230842
 21
1.67375585627649
 31
0
  0
ARC
  5
24
100
AcDbEntity
  8
0
100
AcDbCircle
370
25
 62
7
  6
CONTINUOUS
 10
22.3064977230842
 20
0.173755856276487
 30
0
 40
1.50000000000011
100
AcDbArc
 50
90
 51
180
  0
LINE
  5
25
100
AcDbEntity
  8
0
100
AcDbLine
370
25
 62
7
  6
CONTINUOUS
 10
20.8064977230842
 20
0.173755856276487
 30
0
 11
20.8064977230842
 21
-0.466244143724523
 31
0
  0
LINE
  5
26
100
AcDbEntity
  8
0
100
AcDbLine
370
25
 62
7
  6
CONTINUOUS
 10
20.8064977230842
 20
-0.466244143724523
 30
0
 11
-15.3835022769158
 21
-0.466244143724523
 31
0
  0
ARC
  5
27
100
AcDbEntity
  8
0
100
AcDbCircle
370
25
 62
7
  6
CONTINUOUS
 10
-15.3835022769158
 20
-1.9662441437235
 30
0
 40
1.5
100
AcDbArc
 50
90
 51
180
  0
LINE
  5
28
100
AcDbEntity
  8
0
100
AcDbLine
370
25
 62
7
  6
CONTINUOUS
 10
-16.8835022769158
 20
-1.9662441437235
 30
0
 11
-16.8835022769158
 21
-19.5162441437245
 31
0
  0
LINE
  5
29
100
AcDbEntity
  8
0
100
AcDbLine
370
25
 62
7
  6
CONTINUOUS
 10
-16.8835022769158
 20
-19.5162441437245
 30
0
 11
-19.5435022769158
 21
-19.5162441437245
 31
0
  0
ARC
  5
2A
100
AcDbEntity
  8
0
100
AcDbCircle
370
25
 62
7
  6
CONTINUOUS
 10
-19.5435022769158
 20
-21.0162441437235
 30
0
 40
1.49999999999994
100
AcDbArc
 50
90
 51
180
  0
LINE
  5
2B
100
AcDbEntity
  8
0
100
AcDbLine
370
25
 62
7
  6
CONTINUOUS
 10
-21.0435022769158
 20
-21.0162441437235
 30
0
 11
-21.0435022769158
 21
-38.5662441437236
 31
0
  0
LINE
  5
2C
100
AcDbEntity
  8
0
100
AcDbLine
370
25
 62
7
  6
CONTINUOUS
 10
-21.0435022769158
 20
-38.5662441437236
 30
0
 11
-23.6135022769158
 21
-38.5662441437236
 31
0
  0
ARC
  5
2D
100
AcDbEntity
  8
0
100
AcDbCircle
370
25
 62
7
  6
CONTINUOUS
 10
-23.6135022769158
 20
-40.0662441437236
 30
0
 40
1.50000000000011
100
AcDbArc
 50
90
 51
180
  0
LINE
  5
2E
100
AcDbEntity
  8
0
100
AcDbLine
370
25
 62
7
  6
CONTINUOUS
 10
-25.1135022769158
 20
-40.0662441437236
 30
0
 11
-25.1135022769158
 21
-57.6162441437235
 31
0
  0
ARC
  5
2F
100
AcDbEntity
  8
0
100
AcDbCircle
370
25
 62
7
  6
CONTINUOUS
 10
117.353583480019
 20
-17.6261318321405
 30
0
 40
1.49999999999999
100
AcDbArc
 50
347.999999999998
 51
78.0000000000008
  0
LINE
  5
30
100
AcDbEntity
  8
0
100
AcDbLine
370
25
 62
7
  6
CONTINUOUS
 10
117.665451016246
 20
-16.1589104310395
 30
0
 11
40.8664977230842
 21
0.165211020811499
 31
0
  0
ARC
  5
31
100
AcDbEntity
  8
0
100
AcDbCircle
370
25
 62
7
  6
CONTINUOUS
 10
-57.1335022769158
 20
-110.240551301759
 30
0
 40
2
100
AcDbArc
 50
180
 51
270.000000000001
  0
ARC
  5
32
100
AcDbEntity
  8
0
100
AcDbCircle
370
25
 62
7
  6
CONTINUOUS
 10
-57.1335022769158
 20
8.67375585627649
 30
0
 40
2
100
AcDbArc
 50
90
 51
180
  0
ARC
  5
34
100
AcDbEntity
  8
0
100
AcDbCircle
370
25
 62
7
  6
CONTINUOUS
 10
300.165247723084
 20
8.67375585627649
 30
0
 40
2
100
AcDbArc
 50
0
 51
90
  0
ARC
  5
35
100
AcDbEntity
  8
0
100
AcDbCircle
370
25
 62
7
  6
CONTINUOUS
 10
300.165247723084
 20
-110.240551301759
 30
0
 40
2
100
AcDbArc
 50
270.000000000001
 51
0
  0
ARC
  5
36
100
AcDbEntity
  8
0
100
AcDbCircle
370
25
 62
7
  6
CONTINUOUS
 10
277.056497723084
 20
-1.9662441437235
 30
0
 40
1.49999999999994
100
AcDbArc
 50
0
 51
90
  0
LINE
  5
37
100
AcDbEntity
  8
0
100
AcDbLine
370
25
 62
7
  6
CONTINUOUS
 10
277.056497723084
 20
-0.466244143724523
 30
0
 11
221.826497723084
 21
-0.466244143724523
 31
0
  0
LINE
  5
38
100
AcDbEntity
  8
0
100
AcDbLine
370
25
 62
7
  6
CONTINUOUS
 10
221.826497723084
 20
-0.466244143724523
 30
0
 11
221.826497723084
 21
0.173755856275521
 31
0
  0
ARC
  5
39
100
AcDbEntity
  8
0
100
AcDbCircle
370
25
 62
7
  6
CONTINUOUS
 10
220.326497723084
 20
0.173755856275521
 30
0
 40
1.50000000000006
100
AcDbArc
 50
0
 51
90
  0
LINE
  5
3A
100
AcDbEntity
  8
0
100
AcDbLine
370
25
 62
7
  6
CONTINUOUS
 10
220.326497723084
 20
1.67375585627649
 30
0
 11
201.79652619007
 21
1.67375585627649
 31
0
  0
ARC
  5
3B
100
AcDbEntity
  8
0
100
AcDbCircle
370
25
 62
7
  6
CONTINUOUS
 10
201.79652619007
 20
0.173755856275521
 30
0
 40
1.50000000000006
100
AcDbArc
 50
90
 51
92.2936995235174
  0
LINE
  5
3C
100
AcDbEntity
  8
0
100
AcDbLine
370
25
 62
7
  6
CONTINUOUS
 10
201.736493314842
 20
1.67255405946848
 30
0
 11
199.148400697874
 21
1.56889057707149
 31
0
  0
LINE
  5
3D
100
AcDbEntity
  8
0
100
AcDbLine
370
25
 62
7
  6
CONTINUOUS
 10
257.892097723084
 20
-77.6762441437234
 30
0
 11
257.892097723084
 21
-95.2742441437245
 31
0
  0
ARC
  5
3E
100
AcDbEntity
  8
0
100
AcDbCircle
370
25
 62
7
  6
CONTINUOUS
 10
259.392097723084
 20
-95.2742441437245
 30
0
 40
1.50000000000011
100
AcDbArc
 50
180
 51
270.000000000001
  0
ARC
  5
3F
100
AcDbEntity
  8
0
100
AcDbCircle
370
25
 62
7
  6
CONTINUOUS
 10
285.992097723084
 20
-95.2742441437245
 30
0
 40
1.5
100
AcDbArc
 50
270.000000000001
 51
0
  0
LINE
  5
40
100
AcDbEntity
  8
0
100
AcDbLine
370
25
 62
7
  6
CONTINUOUS
 10
287.492097723084
 20
-77.6762441437234
 30
0
 11
287.492097723084
 21
-95.2742441437245
 31
0
  0
LINE
  5
41
100
AcDbEntity
  8
0
100
AcDbLine
370
25
 62
7
  6
CONTINUOUS
 10
287.492097723084
 20
-77.6762441437234
 30
0
 11
289.665247723084
 21
-77.6762441437234
 31
0
  0
ARC
  5
42
100
AcDbEntity
  8
0
100
AcDbCircle
370
25
 62
7
  6
CONTINUOUS
 10
289.665247723084
 20
-76.1762441437234
 30
0
 40
1.50000000000006
100
AcDbArc
 50
270.000000000001
 51
0
  0
CIRCLE
  5
43
100
AcDbEntity
  8
0
100
AcDbCircle
370
25
 62
7
  6
CONTINUOUS
 10
-54.6335022769158
 20
6.17375585627552
 30
0
 40
1.6
  0
CIRCLE
  5
45
100
AcDbEntity
  8
0
100
AcDbCircle
370
25
 62
7
  6
CONTINUOUS
 10
64.4660810564182
 20
-112.740551301759
 30
0
 40
1.6
  0
CIRCLE
  5
46
100
AcDbEntity
  8
0
100
AcDbCircle
370
25
 62
7
  6
CONTINUOUS
 10
178.565664389751
 20
-112.740551301759
 30
0
 40
1.6
  0
CIRCLE
  5
47
100
AcDbEntity
  8
0
100
AcDbCircle
370
25
 62
7
  6
CONTINUOUS
 10
297.665247723084
 20
-107.740551301759
 30
0
 40
1.6
  0
CIRCLE
  5
48
100
AcDbEntity
  8
0
100
AcDbCircle
370
25
 62
7
  6
CONTINUOUS
 10
297.665247723084
 20
6.17375585627552
 30
0
 40
1.6
  0
CIRCLE
  5
49
100
AcDbEntity
  8
0
100
AcDbCircle
370
25
 62
7
  6
CONTINUOUS
 10
178.565664389751
 20
6.17375585627552
 30
0
 40
1.6
  0
LINE
  5
4A
100
AcDbEntity
  8
0
100
AcDbLine
370
25
 62
7
  6
CONTINUOUS
 10
291.165247723084
 20
-76.1762441437234
 30
0
 11
291.165247723084
 21
-59.1162441437235
 31
0
  0
LINE
  5
4B
100
AcDbEntity
  8
0
100
AcDbLine
370
25
 62
7
  6
CONTINUOUS
 10
278.556497723084
 20
-19.5162441437235
 30
0
 11
278.556497723084
 21
-1.9662441437235
 31
0
  0
LINE
  5
4C
100
AcDbEntity
  8
0
100
AcDbLine
370
25
 62
7
  6
CONTINUOUS
 10
281.226497723084
 20
-19.5162441437235
 30
0
 11
278.556497723084
 21
-19.5162441437235
 31
0
  0
ARC
  5
4D
100
AcDbEntity
  8
0
100
AcDbCircle
370
25
 62
7
  6
CONTINUOUS
 10
281.226497723084
 20
-21.0162441437235
 30
0
 40
1.50000000000011
100
AcDbArc
 50
0
 51
90
  0
LINE
  5
4E
100
AcDbEntity
  8
0
100
AcDbLine
370
25
 62
7
  6
CONTINUOUS
 10
282.726497723084
 20
-38.5662441437236
 30
0
 11
282.726497723084
 21
-21.0162441437235
 31
0
  0
LINE
  5
4F
100
AcDbEntity
  8
0
100
AcDbLine
370
25
 62
7
  6
CONTINUOUS
 10
285.486497723084
 20
-38.5662441437236
 30
0
 11
282.726497723084
 21
-38.5662441437236
 31
0
  0
ARC
  5
50
100
AcDbEntity
  8
0
100
AcDbCircle
370
25
 62
7
  6
CONTINUOUS
 10
285.486497723084
 20
-40.0662441437236
 30
0
 40
1.50000000000006
100
AcDbArc
 50
0
 51
90
  0
LINE
  5
51
100
AcDbEntity
  8
0
100
AcDbLine
370
25
 62
7
  6
CONTINUOUS
 10
286.986497723084
 20
-57.6162441437235
 30
0
 11
286.986497723084
 21
-40.0662441437236
 31
0
  0
LINE
  5
52
100
AcDbEntity
  8
0
100
AcDbLine
370
25
 62
7
  6
CONTINUOUS
 10
289.665247723084
 20
-57.6162441437235
 30
0
 11
286.986497723084
 21
-57.6162441437235
 31
0
  0
ARC
  5
53
100
AcDbEntity
  8
0
100
AcDbCircle
370
25
 62
7
  6
CONTINUOUS
 10
289.665247723084
 20
-59.1162441437235
 30
0
 40
1.50000000000006
100
AcDbArc
 50
0
 51
90
  0
LINE
  5
54
100
AcDbEntity
  8
0
100
AcDbLine
370
25
 62
7
  6
CONTINUOUS
 10
259.392097723084
 20
-96.7742441437234
 30
0
 11
285.992097723084
 21
-96.7742441437234
 31
0
  0
LINE
  5
55
100
AcDbEntity
  8
0
100
AcDbLine
370
25
 62
7
  6
CONTINUOUS
 10
206.678263530699
 20
-77.6762441437234
 30
0
 11
257.892097723084
 21
-77.6762441437234
 31
0
  0
LINE
  5
56
100
AcDbEntity
  8
0
100
AcDbLine
370
25
 62
7
  6
CONTINUOUS
 10
210.246787460613
 20
-94.4648292707884
 30
0
 11
206.678263530699
 21
-77.6762441437234
 31
0
  0
ARC
  5
57
100
AcDbEntity
  8
0
100
AcDbCircle
370
25
 62
7
  6
CONTINUOUS
 10
208.779566059512
 20
-94.7766968070154
 30
0
 40
1.50000000000008
100
AcDbArc
 50
281.999999999999
 51
11.9999999999987
  0
LINE
  5
58
100
AcDbEntity
  8
0
100
AcDbLine
370
25
 62
7
  6
CONTINUOUS
 10
183.09226512366
 20
-101.77021206482
 30
0
 11
209.091433595739
 21
-96.2439182081165
 31
0
  0
ARC
  5
59
100
AcDbEntity
  8
0
100
AcDbCircle
370
25
 62
7
  6
CONTINUOUS
 10
182.780397587433
 20
-100.30299066372
 30
0
 40
1.49999999999997
100
AcDbArc
 50
192.153195163947
 51
282
  0
LINE
  5
5A
100
AcDbEntity
  8
0
100
AcDbLine
370
25
 62
7
  6
CONTINUOUS
 10
131.000863990385
 20
-111.313170525197
 30
0
 11
181.31401528886
 21
-100.61878007841
 31
0
  0
ARC
  5
5B
100
AcDbEntity
  8
0
100
AcDbCircle
370
25
 62
7
  6
CONTINUOUS
 10
130.688996454158
 20
-109.845949124097
 30
0
 40
1.49999999999999
100
AcDbArc
 50
192.000000000004
 51
282.000000000004
  0
LINE
  5
5C
100
AcDbEntity
  8
0
100
AcDbLine
370
25
 62
7
  6
CONTINUOUS
 10
121.712579364068
 20
-74.8298285239384
 30
0
 11
129.221775053057
 21
-110.157816660323
 31
0
  0
ARC
  5
5D
100
AcDbEntity
  8
0
100
AcDbCircle
370
25
 62
7
  6
CONTINUOUS
 10
123.179800765168
 20
-74.5179609877114
 30
0
 40
1.49999999999997
100
AcDbArc
 50
101.999999999999
 51
192.000000000003
  0
LINE
  5
5E
100
AcDbEntity
  8
0
100
AcDbLine
370
25
 62
7
  6
CONTINUOUS
 10
130.720434761219
 20
-71.3816388604015
 30
0
 11
122.867933228942
 21
-73.0507395866114
 31
0
  0
LINE
  5
5F
100
AcDbEntity
  8
0
100
AcDbLine
370
25
 62
7
  6
CONTINUOUS
 10
126.970995277137
 20
-53.7419129699215
 30
0
 11
130.720434761219
 21
-71.3816388604015
 31
0
  0
LINE
  5
60
100
AcDbEntity
  8
0
100
AcDbLine
370
25
 62
7
  6
CONTINUOUS
 10
123.778252947727
 20
-54.4205513017595
 30
0
 11
126.970995277137
 21
-53.7419129699215
 31
0
  0
ARC
  5
61
100
AcDbEntity
  8
0
100
AcDbCircle
370
25
 62
7
  6
CONTINUOUS
 10
123.4663854115
 20
-52.9533299006586
 30
0
 40
1.49999999999997
100
AcDbArc
 50
192
 51
282
  0
LINE
  5
62
100
AcDbEntity
  8
0
100
AcDbLine
370
25
 62
7
  6
CONTINUOUS
 10
118.452190565049
 20
-36.5779993683665
 30
0
 11
121.9991640104
 21
-53.2651974368856
 31
0
  0
ARC
  5
63
100
AcDbEntity
  8
0
100
AcDbCircle
370
25
 62
7
  6
CONTINUOUS
 10
119.919411966149
 20
-36.2661318321406
 30
0
 40
1.49999999999997
100
AcDbArc
 50
102.000000000003
 51
192
  0
LINE
  5
64
100
AcDbEntity
  8
0
100
AcDbLine
370
25
 62
7
  6
CONTINUOUS
 10
127.452511918128
 20
-33.1314111153335
 30
0
 11
119.607544429923
 21
-34.7989104310395
 31
0
  0
LINE
  5
65
100
AcDbEntity
  8
0
100
AcDbLine
370
25
 62
7
  6
CONTINUOUS
 10
123.802190565049
 20
-15.9579993683665
 30
0
 11
127.452511918128
 21
-33.1314111153335
 31
0
  0
ARC
  5
66
100
AcDbEntity
  8
0
100
AcDbCircle
370
25
 62
7
  6
CONTINUOUS
 10
125.269411966149
 20
-15.6461318321405
 30
0
 40
1.49999999999997
100
AcDbArc
 50
101.999999999999
 51
192
  0
LINE
  5
67
100
AcDbEntity
  8
0
100
AcDbLine
370
25
 62
7
  6
CONTINUOUS
 10
198.896566036875
 20
1.53731377498052
 30
0
 11
124.957544429923
 21
-14.1789104310395
 31
0
  0
ARC
  5
68
100
AcDbEntity
  8
0
100
AcDbCircle
370
25
 62
7
  6
CONTINUOUS
 10
199.208433573102
 20
0.0700923738794907
 30
0
 40
1.50000000000006
100
AcDbArc
 50
92.2936995235174
 51
101.999999999994
  0
ARC
  5
69
100
AcDbEntity
  8
0
100
AcDbCircle
370
25
 62
7
  6
CONTINUOUS
 10
-25.5035022769158
 20
-35.9362441437245
 30
0
 40
1.49999999999994
100
AcDbArc
 50
270.000000000001
 51
0
  0
LINE
  5
6A
100
AcDbEntity
  8
0
100
AcDbLine
370
25
 62
7
  6
CONTINUOUS
 10
-28.0735022769159
 20
-37.4362441437236
 30
0
 11
-25.5035022769158
 21
-37.4362441437236
 31
0
  0
LINE
  5
6B
100
AcDbEntity
  8
0
100
AcDbLine
370
25
 62
7
  6
CONTINUOUS
 10
-28.0735022769159
 20
-54.9862441437235
 30
0
 11
-28.0735022769159
 21
-37.4362441437236
 31
0
  0
ARC
  5
6C
100
AcDbEntity
  8
0
100
AcDbCircle
370
25
 62
7
  6
CONTINUOUS
 10
-29.5735022769159
 20
-54.9862441437235
 30
0
 40
1.5
100
AcDbArc
 50
270.000000000001
 51
0
  0
LINE
  5
6D
100
AcDbEntity
  8
0
100
AcDbLine
370
25
 62
7
  6
CONTINUOUS
 10
-46.6335022769158
 20
-56.4862441437235
 30
0
 11
-29.5735022769159
 21
-56.4862441437235
 31
0
  0
ARC
  5
6E
100
AcDbEntity
  8
0
100
AcDbCircle
370
25
 62
7
  6
CONTINUOUS
 10
-46.6335022769158
 20
-54.9862441437235
 30
0
 40
1.5
100
AcDbArc
 50
180
 51
270.000000000001
  0
LINE
  5
6F
100
AcDbEntity
  8
0
100
AcDbLine
370
25
 62
7
  6
CONTINUOUS
 10
-48.1335022769158
 20
-37.9262441437235
 30
0
 11
-48.1335022769158
 21
-54.9862441437235
 31
0
  0
ARC
  5
70
100
AcDbEntity
  8
0
100
AcDbCircle
370
25
 62
7
  6
CONTINUOUS
 10
-46.6335022769158
 20
-37.9262441437235
 30
0
 40
1.5
100
AcDbArc
 50
90
 51
180
  0
LINE
  5
71
100
AcDbEntity
  8
0
100
AcDbLine
370
25
 62
7
  6
CONTINUOUS
 10
-44.0635022769159
 20
-36.4262441437235
 30
0
 11
-46.6335022769158
 21
-36.4262441437235
 31
0
  0
LINE
  5
72
100
AcDbEntity
  8
0
100
AcDbLine
370
25
 62
7
  6
CONTINUOUS
 10
-44.0635022769159
 20
-18.8762441437245
 30
0
 11
-44.0635022769159
 21
-36.4262441437235
 31
0
  0
ARC
  5
73
100
AcDbEntity
  8
0
100
AcDbCircle
370
25
 62
7
  6
CONTINUOUS
 10
-42.5635022769159
 20
-18.8762441437245
 30
0
 40
1.50000000000011
100
AcDbArc
 50
90
 51
180
  0
LINE
  5
74
100
AcDbEntity
  8
0
100
AcDbLine
370
25
 62
7
  6
CONTINUOUS
 10
-39.9035022769158
 20
-17.3762441437235
 30
0
 11
-42.5635022769159
 21
-17.3762441437235
 31
0
  0
LINE
  5
75
100
AcDbEntity
  8
0
100
AcDbLine
370
25
 62
7
  6
CONTINUOUS
 10
-39.9035022769158
 20
0.173755856276487
 30
0
 11
-39.9035022769158
 21
-17.3762441437235
 31
0
  0
ARC
  5
76
100
AcDbEntity
  8
0
100
AcDbCircle
370
25
 62
7
  6
CONTINUOUS
 10
-38.4035022769158
 20
0.173755856276487
 30
0
 40
1.5
100
AcDbArc
 50
90
 51
180
  0
LINE
  5
77
100
AcDbEntity
  8
0
100
AcDbLine
370
25
 62
7
  6
CONTINUOUS
 10
-21.3435022769158
 20
1.67375585627649
 30
0
 11
-38.4035022769158
 21
1.67375585627649
 31
0
  0
ARC
  5
78
100
AcDbEntity
  8
0
100
AcDbCircle
370
25
 62
7
  6
CONTINUOUS
 10
-21.3435022769158
 20
0.173755856276487
 30
0
 40
1.49999999999994
100
AcDbArc
 50
0
 51
90
  0
LINE
  5
79
100
AcDbEntity
  8
0
100
AcDbLine
370
25
 62
7
  6
CONTINUOUS
 10
-19.8435022769158
 20
-16.8862441437235
 30
0
 11
-19.8435022769158
 21
0.173755856276487
 31
0
  0
ARC
  5
7A
100
AcDbEntity
  8
0
100
AcDbCircle
370
25
 62
7
  6
CONTINUOUS
 10
-21.3435022769158
 20
-16.8862441437235
 30
0
 40
1.5
100
AcDbArc
 50
270.000000000001
 51
0
  0
LINE
  5
7B
100
AcDbEntity
  8
0
100
AcDbLine
370
25
 62
7
  6
CONTINUOUS
 10
-24.0035022769158
 20
-18.3862441437235
 30
0
 11
-21.3435022769158
 21
-18.3862441437235
 31
0
  0
LINE
  5
7C
100
AcDbEntity
  8
0
100
AcDbLine
370
25
 62
7
  6
CONTINUOUS
 10
-24.0035022769158
 20
-35.9362441437245
 30
0
 11
-24.0035022769158
 21
-18.3862441437235
 31
0
  0
LINE
  5
7D
100
AcDbEntity
  8
0
100
AcDbLine
370
25
 62
7
  6
CONTINUOUS
 10
115.273831435769
 20
-34.6251974368856
 30
0
 11
118.82080488112
 21
-17.9379993683665
 31
0
  0
ARC
  5
7E
100
AcDbEntity
  8
0
100
AcDbCircle
370
25
 62
7
  6
CONTINUOUS
 10
113.806610034668
 20
-34.3133299006586
 30
0
 40
1.49999999999994
100
AcDbArc
 50
257.999999999997
 51
348.000000000003
  0
LINE
  5
7F
100
AcDbEntity
  8
0
100
AcDbLine
370
25
 62
7
  6
CONTINUOUS
 10
105.644138297617
 20
-34.1118538657996
 30
0
 11
113.494742498442
 21
-35.7805513017595
 31
0
  0
LINE
  5
80
100
AcDbEntity
  8
0
100
AcDbLine
370
25
 62
7
  6
CONTINUOUS
 10
101.892845038598
 20
-51.7603010816636
 30
0
 11
105.644138297617
 21
-34.1118538657996
 31
0
  0
LINE
  5
81
100
AcDbEntity
  8
0
100
AcDbLine
370
25
 62
7
  6
CONTINUOUS
 10
105.085451016246
 20
-52.4389104310395
 30
0
 11
101.892845038598
 21
-51.7603010816636
 31
0
  0
ARC
  5
82
100
AcDbEntity
  8
0
100
AcDbCircle
370
25
 62
7
  6
CONTINUOUS
 10
104.773583480019
 20
-53.9061318321405
 30
0
 40
1.50000000000003
100
AcDbArc
 50
348.000000000002
 51
78.0000000000017
  0
LINE
  5
83
100
AcDbEntity
  8
0
100
AcDbLine
370
25
 62
7
  6
CONTINUOUS
 10
102.592517211256
 20
-71.3818433880454
 30
0
 11
106.24080488112
 21
-54.2179993683665
 31
0
  0
LINE
  5
84
100
AcDbEntity
  8
0
100
AcDbLine
370
25
 62
7
  6
CONTINUOUS
 10
110.435451016246
 20
-73.0489104310394
 30
0
 11
102.592517211256
 21
-71.3818433880454
 31
0
  0
ARC
  5
85
100
AcDbEntity
  8
0
100
AcDbCircle
370
25
 62
7
  6
CONTINUOUS
 10
110.123583480019
 20
-74.5161318321405
 30
0
 40
1.50000000000009
100
AcDbArc
 50
348.000000000001
 51
77.999999999997
  0
LINE
  5
86
100
AcDbEntity
  8
0
100
AcDbLine
370
25
 62
7
  6
CONTINUOUS
 10
107.941574217171
 20
-91.9962798264155
 30
0
 11
111.59080488112
 21
-74.8279993683664
 31
0
  0
LINE
  5
87
100
AcDbEntity
  8
0
100
AcDbLine
370
25
 62
7
  6
CONTINUOUS
 10
115.575451016246
 20
-93.6189104310394
 30
0
 11
107.941574217171
 21
-91.9962798264155
 31
0
  0
ARC
  5
88
100
AcDbEntity
  8
0
100
AcDbCircle
370
25
 62
7
  6
CONTINUOUS
 10
115.263583480019
 20
-95.0861318321394
 30
0
 40
1.50000000000003
100
AcDbArc
 50
348.000000000002
 51
78.0000000000017
  0
LINE
  5
89
100
AcDbEntity
  8
0
100
AcDbLine
370
25
 62
7
  6
CONTINUOUS
 10
113.183831435769
 20
-112.085197436885
 30
0
 11
116.73080488112
 21
-95.3979993683664
 31
0
  0
ARC
  5
8A
100
AcDbEntity
  8
0
100
AcDbCircle
370
25
 62
7
  6
CONTINUOUS
 10
111.716610034668
 20
-111.773329900658
 30
0
 40
1.50000000000009
100
AcDbArc
 50
258.000000000007
 51
348.000000000001
  0
LINE
  5
8B
100
AcDbEntity
  8
0
100
AcDbLine
370
25
 62
7
  6
CONTINUOUS
 10
51.9904929997902
 20
-100.611662714121
 30
0
 11
111.404742498442
 21
-113.240551301759
 31
0
  0
LINE
  5
8C
100
AcDbEntity
  8
0
100
AcDbLine
370
25
 62
7
  6
CONTINUOUS
 10
51.9898140152621
 20
-100.614857085178
 30
0
 11
51.9904929997902
 21
-100.611662714121
 31
0
  0
ARC
  5
8D
100
AcDbEntity
  8
0
100
AcDbCircle
370
25
 62
7
  6
CONTINUOUS
 10
50.5225926141612
 20
-100.302989548951
 30
0
 40
1.50000000000011
100
AcDbArc
 50
258.000000000003
 51
347.999999999999
  0
LINE
  5
8E
100
AcDbEntity
  8
0
100
AcDbLine
370
25
 62
7
  6
CONTINUOUS
 10
24.2115618504302
 20
-96.2439182081165
 30
0
 11
50.2107250779342
 21
-101.770210950052
 31
0
  0
ARC
  5
8F
100
AcDbEntity
  8
0
100
AcDbCircle
370
25
 62
7
  6
CONTINUOUS
 10
24.5234293866572
 20
-94.7766968070154
 30
0
 40
1.49999999999999
100
AcDbArc
 50
168.000000000001
 51
257.999999999998
  0
LINE
  5
90
100
AcDbEntity
  8
0
100
AcDbLine
370
25
 62
7
  6
CONTINUOUS
 10
26.6247319154692
 20
-77.6762441437234
 30
0
 11
23.0562079855562
 21
-94.4648292707884
 31
0
  0
LINE
  5
91
100
AcDbEntity
  8
0
100
AcDbLine
370
25
 62
7
  6
CONTINUOUS
 10
0.316497723084108
 20
-77.6762441437234
 30
0
 11
26.6247319154692
 21
-77.6762441437234
 31
0
  0
LINE
  5
92
100
AcDbEntity
  8
0
100
AcDbLine
370
25
 62
7
  6
CONTINUOUS
 10
0.316497723084108
 20
-95.2262441437234
 30
0
 11
0.316497723084108
 21
-77.6762441437234
 31
0
  0
ARC
  5
93
100
AcDbEntity
  8
0
100
AcDbCircle
370
25
 62
7
  6
CONTINUOUS
 10
-1.18350227691589
 20
-95.2262441437234
 30
0
 40
1.50000000000006
100
AcDbArc
 50
270.000000000001
 51
0
  0
LINE
  5
94
100
AcDbEntity
  8
0
100
AcDbLine
370
25
 62
7
  6
CONTINUOUS
 10
-27.7835022769158
 20
-96.7262441437245
 30
0
 11
-1.18350227691589
 21
-96.7262441437245
 31
0
  0
ARC
  5
95
100
AcDbEntity
  8
0
100
AcDbCircle
370
25
 62
7
  6
CONTINUOUS
 10
-27.7835022769158
 20
-95.2262441437234
 30
0
 40
1.50000000000006
100
AcDbArc
 50
180
 51
270.000000000001
  0
LINE
  5
96
100
AcDbEntity
  8
0
100
AcDbLine
370
25
 62
7
  6
CONTINUOUS
 10
-29.2835022769158
 20
-59.1162441437235
 30
0
 11
-29.2835022769158
 21
-95.2262441437234
 31
0
  0
ARC
  5
97
100
AcDbEntity
  8
0
100
AcDbCircle
370
25
 62
7
  6
CONTINUOUS
 10
-27.7835022769158
 20
-59.1162441437235
 30
0
 40
1.50000000000006
100
AcDbArc
 50
90
 51
180
  0
LINE
  5
98
100
AcDbEntity
  8
0
100
AcDbLine
370
25
 62
7
  6
CONTINUOUS
 10
-25.1135022769158
 20
-57.6162441437235
 30
0
 11
-27.7835022769158
 21
-57.6162441437235
 31
0
  0
CIRCLE
  5
99
100
AcDbEntity
  8
0
100
AcDbCircle
370
25
 62
7
  6
CONTINUOUS
 10
64.4660810564182
 20
6.17375585627552
 30
0
 40
1.6
  0
LINE
  5
11C
100
AcDbEntity
  8
0
100
AcDbLine
370
-1
  6
BYLAYER
 10
21.3511664763752
 20
-112.240551301759
 30
0
 11
121.64490059865
 21
-132.608921035253
 31
0
  0
LINE
  5
128
100
AcDbEntity
  8
0
100
AcDbLine
370
-1
  6
BYLAYER
 10
-59.1335022769158
 20
8.67375585627649
 30
0
 11
-59.1335022769158
 21
-110.240551301759
 31
0
  0
LINE
  5
12E
100
AcDbEntity
  8
0
100
AcDbLine
370
-1
  6
BYLAYER
 10
302.165247723084
 20
8.67375585627649
 30
0
 11
302.165247723084
 21
-110.240551301759
 31
0
  0
LINE
  5
142
100
AcDbEntity
  8
0
100
AcDbLine
370
-1
  6
BYLAYER
 10
-57.1335022769158
 20
10.6737558562765
 30
0
 11
300.165247723084
 21
10.6737558562765
 31
0
  0
LINE
  5
147
100
AcDbEntity
  8
0
100
AcDbLine
370
-1
  6
BYLAYER
 10
-57.1335022769158
 20
-112.240551301759
 30
0
 11
21.3511664763752
 21
-112.240551301759
 31
0
  0
LINE
  5
14A
100
AcDbEntity
  8
0
100
AcDbLine
370
-1
  6
BYLAYER
 10
300.165247723084
 20
-112.240551301759
 30
0
 11
221.680578970084
 21
-112.240551301759
 31
0
  0
LINE
  5
17C
100
AcDbEntity
  8
0
100
AcDbLine
370
-1
  6
BYLAYER
 10
221.680578970084
 20
-112.240551301759
 30
0
 11
121.64490059865
 21
-132.608921035253
 31
0
  0
LINE
  5
183
100
AcDbEntity
  8
0
100
AcDbLine
370
25
 62
7
  6
CONTINUOUS
 10
280.423921053
 20
-200.383114674854
 30
0
 11
245.735099042
 21
-200.383114674854
 31
0
  0
LINE
  5
194
100
AcDbEntity
  8
0
100
AcDbLine
370
25
 62
7
  6
CONTINUOUS
 10
9.17596073741502
 20
-185.688117137717
 30
0
 11
9.17596073741502
 21
-197.688117137717
 31
0
  0
ARC
  5
195
100
AcDbEntity
  8
0
100
AcDbCircle
370
25
 62
7
  6
CONTINUOUS
 10
10.175960737415
 20
-197.688117137717
 30
0
 40
1.00000000000006
100
AcDbArc
 50
180
 51
270.000000000001
  0
LINE
  5
196
100
AcDbEntity
  8
0
100
AcDbLine
370
25
 62
7
  6
CONTINUOUS
 10
10.175960737415
 20
-198.688117137717
 30
0
 11
22.175960737415
 21
-198.688117137717
 31
0
  0
ARC
  5
197
100
AcDbEntity
  8
0
100
AcDbCircle
370
25
 62
7
  6
CONTINUOUS
 10
22.175960737415
 20
-197.688117137717
 30
0
 40
1.00000000000006
100
AcDbArc
 50
270.000000000001
 51
0
  0
LINE
  5
198
100
AcDbEntity
  8
0
100
AcDbLine
370
25
 62
7
  6
CONTINUOUS
 10
23.175960737415
 20
-197.688117137717
 30
0
 11
23.175960737415
 21
-185.688117137717
 31
0
  0
ARC
  5
199
100
AcDbEntity
  8
0
100
AcDbCircle
370
25
 62
7
  6
CONTINUOUS
 10
22.175960737415
 20
-185.688117137717
 30
0
 40
1
100
AcDbArc
 50
0
 51
90
  0
LINE
  5
19A
100
AcDbEntity
  8
0
100
AcDbLine
370
25
 62
7
  6
CONTINUOUS
 10
22.175960737415
 20
-184.688117137717
 30
0
 11
10.175960737415
 21
-184.688117137717
 31
0
  0
ARC
  5
19B
100
AcDbEntity
  8
0
100
AcDbCircle
370
25
 62
7
  6
CONTINUOUS
 10
10.175960737415
 20
-185.688117137717
 30
0
 40
1.00000000000006
100
AcDbArc
 50
90
 51
180
  0
LINE
  5
19C
100
AcDbEntity
  8
0
100
AcDbLine
370
25
 62
7
  6
CONTINUOUS
 10
181.821457387372
 20
-168.064613369039
 30
0
 11
184.316397677185
 21
-179.802384577845
 31
0
  0
ARC
  5
19D
100
AcDbEntity
  8
0
100
AcDbCircle
370
25
 62
7
  6
CONTINUOUS
 10
185.294545277918
 20
-179.594472887027
 30
0
 40
1.00000000000005
100
AcDbArc
 50
192.000000000005
 51
282.000000000003
  0
LINE
  5
19E
100
AcDbEntity
  8
0
100
AcDbLine
370
25
 62
7
  6
CONTINUOUS
 10
185.502456968736
 20
-180.572620487761
 30
0
 11
197.240228177542
 21
-178.077680197948
 31
0
  0
ARC
  5
19F
100
AcDbEntity
  8
0
100
AcDbCircle
370
25
 62
7
  6
CONTINUOUS
 10
197.032316486724
 20
-177.099532597214
 30
0
 40
1.00000000000005
100
AcDbArc
 50
282.000000000003
 51
11.9999999999998
  0
LINE
  5
1A0
100
AcDbEntity
  8
0
100
AcDbLine
370
25
 62
7
  6
CONTINUOUS
 10
198.010464087458
 20
-176.891620906396
 30
0
 11
195.515523797645
 21
-165.15384969759
 31
0
  0
ARC
  5
1A1
100
AcDbEntity
  8
0
100
AcDbCircle
370
25
 62
7
  6
CONTINUOUS
 10
194.537376196911
 20
-165.361761388408
 30
0
 40
1.00000000000001
100
AcDbArc
 50
12.0000000000062
 51
101.999999999997
  0
LINE
  5
1A2
100
AcDbEntity
  8
0
100
AcDbLine
370
25
 62
7
  6
CONTINUOUS
 10
194.329464506093
 20
-164.383613787674
 30
0
 11
182.591693297288
 21
-166.878554077487
 31
0
  0
ARC
  5
1A3
100
AcDbEntity
  8
0
100
AcDbCircle
370
25
 62
7
  6
CONTINUOUS
 10
182.799604988105
 20
-167.856701678221
 30
0
 40
1.00000000000005
100
AcDbArc
 50
102.000000000002
 51
191.999999999997
  0
LINE
  5
1A4
100
AcDbEntity
  8
0
100
AcDbLine
370
25
 62
7
  6
CONTINUOUS
 10
185.081457387372
 20
-206.324613369039
 30
0
 11
187.576397677185
 21
-218.062384577845
 31
0
  0
ARC
  5
1A5
100
AcDbEntity
  8
0
100
AcDbCircle
370
25
 62
7
  6
CONTINUOUS
 10
188.554545277919
 20
-217.854472887027
 30
0
 40
1.0000000000001
100
AcDbArc
 50
192.000000000001
 51
282.000000000003
  0
LINE
  5
1A6
100
AcDbEntity
  8
0
100
AcDbLine
370
25
 62
7
  6
CONTINUOUS
 10
188.762456968736
 20
-218.832620487761
 30
0
 11
200.500228177542
 21
-216.337680197948
 31
0
  0
ARC
  5
1A7
100
AcDbEntity
  8
0
100
AcDbCircle
370
25
 62
7
  6
CONTINUOUS
 10
200.292316486724
 20
-215.359532597214
 30
0
 40
1.00000000000011
100
AcDbArc
 50
282.000000000002
 51
11.999999999995
  0
LINE
  5
1A8
100
AcDbEntity
  8
0
100
AcDbLine
370
25
 62
7
  6
CONTINUOUS
 10
201.270464087458
 20
-215.151620906396
 30
0
 11
198.775523797645
 21
-203.41384969759
 31
0
  0
ARC
  5
1A9
100
AcDbEntity
  8
0
100
AcDbCircle
370
25
 62
7
  6
CONTINUOUS
 10
197.797376196911
 20
-203.621761388408
 30
0
 40
1.00000000000016
100
AcDbArc
 50
12.0000000000125
 51
102.000000000001
  0
LINE
  5
1AA
100
AcDbEntity
  8
0
100
AcDbLine
370
25
 62
7
  6
CONTINUOUS
 10
197.589464506093
 20
-202.643613787674
 30
0
 11
185.851693297288
 21
-205.138554077487
 31
0
  0
ARC
  5
1AB
100
AcDbEntity
  8
0
100
AcDbCircle
370
25
 62
7
  6
CONTINUOUS
 10
186.059604988105
 20
-206.116701678221
 30
0
 40
0.999999999999997
100
AcDbArc
 50
102.000000000003
 51
192.000000000001
  0
LINE
  5
1AC
100
AcDbEntity
  8
0
100
AcDbLine
370
25
 62
7
  6
CONTINUOUS
 10
3.81596073741501
 20
-166.638117137717
 30
0
 11
3.81596073741501
 21
-178.638117137717
 31
0
  0
ARC
  5
1AD
100
AcDbEntity
  8
0
100
AcDbCircle
370
25
 62
7
  6
CONTINUOUS
 10
4.81596073741501
 20
-178.638117137717
 30
0
 40
1
100
AcDbArc
 50
180
 51
270.000000000001
  0
LINE
  5
1AE
100
AcDbEntity
  8
0
100
AcDbLine
370
25
 62
7
  6
CONTINUOUS
 10
4.81596073741501
 20
-179.638117137717
 30
0
 11
16.815960737415
 21
-179.638117137717
 31
0
  0
ARC
  5
1AF
100
AcDbEntity
  8
0
100
AcDbCircle
370
25
 62
7
  6
CONTINUOUS
 10
16.815960737415
 20
-178.638117137717
 30
0
 40
1
100
AcDbArc
 50
270.000000000001
 51
0
  0
LINE
  5
1B0
100
AcDbEntity
  8
0
100
AcDbLine
370
25
 62
7
  6
CONTINUOUS
 10
17.815960737415
 20
-178.638117137717
 30
0
 11
17.815960737415
 21
-166.638117137717
 31
0
  0
ARC
  5
1B1
100
AcDbEntity
  8
0
100
AcDbCircle
370
25
 62
7
  6
CONTINUOUS
 10
16.815960737415
 20
-166.638117137717
 30
0
 40
0.999999999999943
100
AcDbArc
 50
359.999999999998
 51
90.0000000000065
  0
LINE
  5
1B2
100
AcDbEntity
  8
0
100
AcDbLine
370
25
 62
7
  6
CONTINUOUS
 10
16.815960737415
 20
-165.638117137717
 30
0
 11
4.81596073741501
 21
-165.638117137717
 31
0
  0
ARC
  5
1B3
100
AcDbEntity
  8
0
100
AcDbCircle
370
25
 62
7
  6
CONTINUOUS
 10
4.81596073741501
 20
-166.638117137717
 30
0
 40
1
100
AcDbArc
 50
90
 51
180
  0
LINE
  5
1B4
100
AcDbEntity
  8
0
100
AcDbLine
370
25
 62
7
  6
CONTINUOUS
 10
22.4559607374151
 20
-164.498117137717
 30
0
 11
22.4559607374151
 21
-176.498117137717
 31
0
  0
ARC
  5
1B5
100
AcDbEntity
  8
0
100
AcDbCircle
370
25
 62
7
  6
CONTINUOUS
 10
23.4559607374151
 20
-176.498117137717
 30
0
 40
1
100
AcDbArc
 50
180
 51
270.000000000001
  0
LINE
  5
1B6
100
AcDbEntity
  8
0
100
AcDbLine
370
25
 62
7
  6
CONTINUOUS
 10
23.4559607374151
 20
-177.498117137717
 30
0
 11
35.4559607374151
 21
-177.498117137717
 31
0
  0
ARC
  5
1B7
100
AcDbEntity
  8
0
100
AcDbCircle
370
25
 62
7
  6
CONTINUOUS
 10
35.4559607374151
 20
-176.498117137717
 30
0
 40
1
100
AcDbArc
 50
270.000000000007
 51
0
  0
LINE
  5
1B8
100
AcDbEntity
  8
0
100
AcDbLine
370
25
 62
7
  6
CONTINUOUS
 10
36.4559607374151
 20
-176.498117137717
 30
0
 11
36.4559607374151
 21
-164.498117137717
 31
0
  0
ARC
  5
1B9
100
AcDbEntity
  8
0
100
AcDbCircle
370
25
 62
7
  6
CONTINUOUS
 10
35.4559607374151
 20
-164.498117137717
 30
0
 40
1
100
AcDbArc
 50
0
 51
89.9999999999935
  0
LINE
  5
1BA
100
AcDbEntity
  8
0
100
AcDbLine
370
25
 62
7
  6
CONTINUOUS
 10
35.4559607374151
 20
-163.498117137717
 30
0
 11
23.4559607374151
 21
-163.498117137717
 31
0
  0
ARC
  5
1BB
100
AcDbEntity
  8
0
100
AcDbCircle
370
25
 62
7
  6
CONTINUOUS
 10
23.4559607374151
 20
-164.498117137717
 30
0
 40
1
100
AcDbArc
 50
90
 51
180
  0
LINE
  5
1BC
100
AcDbEntity
  8
0
100
AcDbLine
370
25
 62
7
  6
CONTINUOUS
 10
176.461457387372
 20
-188.674613369039
 30
0
 11
178.956397677185
 21
-200.412384577845
 31
0
  0
ARC
  5
1BD
100
AcDbEntity
  8
0
100
AcDbCircle
370
25
 62
7
  6
CONTINUOUS
 10
179.934545277918
 20
-200.204472887027
 30
0
 40
0.999999999999997
100
AcDbArc
 50
192.000000000004
 51
282.000000000004
  0
LINE
  5
1BE
100
AcDbEntity
  8
0
100
AcDbLine
370
25
 62
7
  6
CONTINUOUS
 10
180.142456968736
 20
-201.182620487761
 30
0
 11
191.880228177542
 21
-198.687680197947
 31
0
  0
ARC
  5
1BF
100
AcDbEntity
  8
0
100
AcDbCircle
370
25
 62
7
  6
CONTINUOUS
 10
191.672316486724
 20
-197.709532597213
 30
0
 40
1.00000000000024
100
AcDbArc
 50
282.000000000007
 51
11.9999999999843
  0
LINE
  5
1C0
100
AcDbEntity
  8
0
100
AcDbLine
370
25
 62
7
  6
CONTINUOUS
 10
192.650464087458
 20
-197.501620906396
 30
0
 11
190.155523797645
 21
-185.76384969759
 31
0
  0
ARC
  5
1C1
100
AcDbEntity
  8
0
100
AcDbCircle
370
25
 62
7
  6
CONTINUOUS
 10
189.177376196911
 20
-185.971761388408
 30
0
 40
1.00000000000023
100
AcDbArc
 50
12.0000000000034
 51
101.999999999988
  0
LINE
  5
1C2
100
AcDbEntity
  8
0
100
AcDbLine
370
25
 62
7
  6
CONTINUOUS
 10
188.969464506093
 20
-184.993613787674
 30
0
 11
177.231693297288
 21
-187.488554077487
 31
0
  0
ARC
  5
1C3
100
AcDbEntity
  8
0
100
AcDbCircle
370
25
 62
7
  6
CONTINUOUS
 10
177.439604988105
 20
-188.466701678221
 30
0
 40
1.00000000000013
100
AcDbArc
 50
102.000000000008
 51
191.999999999996
  0
LINE
  5
1C4
100
AcDbEntity
  8
0
100
AcDbLine
370
25
 62
7
  6
CONTINUOUS
 10
-15.234039262585
 20
-166.638117137717
 30
0
 11
-15.234039262585
 21
-178.638117137717
 31
0
  0
ARC
  5
1C5
100
AcDbEntity
  8
0
100
AcDbCircle
370
25
 62
7
  6
CONTINUOUS
 10
-14.234039262585
 20
-178.638117137717
 30
0
 40
1.00000000000011
100
AcDbArc
 50
180
 51
270.000000000001
  0
LINE
  5
1C6
100
AcDbEntity
  8
0
100
AcDbLine
370
25
 62
7
  6
CONTINUOUS
 10
-14.234039262585
 20
-179.638117137717
 30
0
 11
-2.23403926258495
 21
-179.638117137717
 31
0
  0
ARC
  5
1C7
100
AcDbEntity
  8
0
100
AcDbCircle
370
25
 62
7
  6
CONTINUOUS
 10
-2.23403926258495
 20
-178.638117137717
 30
0
 40
1
100
AcDbArc
 50
270.000000000001
 51
0
  0
LINE
  5
1C8
100
AcDbEntity
  8
0
100
AcDbLine
370
25
 62
7
  6
CONTINUOUS
 10
-1.23403926258495
 20
-178.638117137717
 30
0
 11
-1.23403926258495
 21
-166.638117137717
 31
0
  0
ARC
  5
1C9
100
AcDbEntity
  8
0
100
AcDbCircle
370
25
 62
7
  6
CONTINUOUS
 10
-2.23403926258495
 20
-166.638117137717
 30
0
 40
1
100
AcDbArc
 50
0
 51
90
  0
LINE
  5
1CA
100
AcDbEntity
  8
0
100
AcDbLine
370
25
 62
7
  6
CONTINUOUS
 10
-2.23403926258495
 20
-165.638117137717
 30
0
 11
-14.234039262585
 21
-165.638117137717
 31
0
  0
ARC
  5
1CB
100
AcDbEntity
  8
0
100
AcDbCircle
370
25
 62
7
  6
CONTINUOUS
 10
-14.234039262585
 20
-166.638117137717
 30
0
 40
1.00000000000011
100
AcDbArc
 50
90
 51
180
  0
LINE
  5
1CC
100
AcDbEntity
  8
0
100
AcDbLine
370
25
 62
7
  6
CONTINUOUS
 10
93.0275330591221
 20
-235.906002827825
 30
0
 11
90.5325927693091
 21
-247.643774036631
 31
0
  0
ARC
  5
1CD
100
AcDbEntity
  8
0
100
AcDbCircle
370
25
 62
7
  6
CONTINUOUS
 10
91.5107403700421
 20
-247.851685727449
 30
0
 40
1.00000000000011
100
AcDbArc
 50
168.000000000005
 51
257.999999999999
  0
LINE
  5
1CE
100
AcDbEntity
  8
0
100
AcDbLine
370
25
 62
7
  6
CONTINUOUS
 10
91.3028286792251
 20
-248.829833328182
 30
0
 11
103.04059988803
 21
-251.324773617996
 31
0
  0
ARC
  5
1CF
100
AcDbEntity
  8
0
100
AcDbCircle
370
25
 62
7
  6
CONTINUOUS
 10
103.248511578848
 20
-250.346626017262
 30
0
 40
1
100
AcDbArc
 50
258.000000000005
 51
348.000000000003
  0
LINE
  5
1D0
100
AcDbEntity
  8
0
100
AcDbLine
370
25
 62
7
  6
CONTINUOUS
 10
104.226659179582
 20
-250.554537708079
 30
0
 11
106.721599469395
 21
-238.816766499274
 31
0
  0
ARC
  5
1D1
100
AcDbEntity
  8
0
100
AcDbCircle
370
25
 62
7
  6
CONTINUOUS
 10
105.743451868661
 20
-238.608854808456
 30
0
 40
0.999999999999997
100
AcDbArc
 50
347.999999999998
 51
77.9999999999967
  0
LINE
  5
1D2
100
AcDbEntity
  8
0
100
AcDbLine
370
25
 62
7
  6
CONTINUOUS
 10
105.951363559479
 20
-237.630707207722
 30
0
 11
94.213592350673
 21
-235.135766917909
 31
0
  0
ARC
  5
1D3
100
AcDbEntity
  8
0
100
AcDbCircle
370
25
 62
7
  6
CONTINUOUS
 10
94.0056806598551
 20
-236.113914518643
 30
0
 40
0.999999999999909
100
AcDbArc
 50
77.9999999999893
 51
168.000000000005
  0
LINE
  5
1D4
100
AcDbEntity
  8
0
100
AcDbLine
370
25
 62
7
  6
CONTINUOUS
 10
15.2259607374151
 20
-223.788117137717
 30
0
 11
15.2259607374151
 21
-235.788117137717
 31
0
  0
ARC
  5
1D5
100
AcDbEntity
  8
0
100
AcDbCircle
370
25
 62
7
  6
CONTINUOUS
 10
16.2259607374151
 20
-235.788117137717
 30
0
 40
1.00000000000003
100
AcDbArc
 50
180.000000000004
 51
270.000000000001
  0
LINE
  5
1D6
100
AcDbEntity
  8
0
100
AcDbLine
370
25
 62
7
  6
CONTINUOUS
 10
16.2259607374151
 20
-236.788117137717
 30
0
 11
28.2259607374151
 21
-236.788117137717
 31
0
  0
ARC
  5
1D7
100
AcDbEntity
  8
0
100
AcDbCircle
370
25
 62
7
  6
CONTINUOUS
 10
28.2259607374151
 20
-235.788117137717
 30
0
 40
1
100
AcDbArc
 50
270.000000000001
 51
0
  0
LINE
  5
1D8
100
AcDbEntity
  8
0
100
AcDbLine
370
25
 62
7
  6
CONTINUOUS
 10
29.2259607374151
 20
-235.788117137717
 30
0
 11
29.2259607374151
 21
-223.788117137717
 31
0
  0
ARC
  5
1D9
100
AcDbEntity
  8
0
100
AcDbCircle
370
25
 62
7
  6
CONTINUOUS
 10
28.2259607374151
 20
-223.788117137717
 30
0
 40
1
100
AcDbArc
 50
0
 51
90
  0
LINE
  5
1DA
100
AcDbEntity
  8
0
100
AcDbLine
370
25
 62
7
  6
CONTINUOUS
 10
28.2259607374151
 20
-222.788117137717
 30
0
 11
16.2259607374151
 21
-222.788117137717
 31
0
  0
ARC
  5
1DB
100
AcDbEntity
  8
0
100
AcDbCircle
370
25
 62
7
  6
CONTINUOUS
 10
16.2259607374151
 20
-223.788117137717
 30
0
 40
1
100
AcDbArc
 50
90
 51
180
  0
LINE
  5
1DC
100
AcDbEntity
  8
0
100
AcDbLine
370
25
 62
7
  6
CONTINUOUS
 10
86.977533059122
 20
-195.666002827825
 30
0
 11
84.4825927693081
 21
-207.403774036631
 31
0
  0
ARC
  5
1DD
100
AcDbEntity
  8
0
100
AcDbCircle
370
25
 62
7
  6
CONTINUOUS
 10
85.4607403700421
 20
-207.611685727449
 30
0
 40
1.00000000000008
100
AcDbArc
 50
168.000000000005
 51
257.999999999991
  0
LINE
  5
1DE
100
AcDbEntity
  8
0
100
AcDbLine
370
25
 62
7
  6
CONTINUOUS
 10
85.2528286792241
 20
-208.589833328182
 30
0
 11
96.99059988803
 21
-211.084773617996
 31
0
  0
ARC
  5
1DF
100
AcDbEntity
  8
0
100
AcDbCircle
370
25
 62
7
  6
CONTINUOUS
 10
97.1985115788481
 20
-210.106626017262
 30
0
 40
0.999999999999973
100
AcDbArc
 50
257.999999999997
 51
348.000000000004
  0
LINE
  5
1E0
100
AcDbEntity
  8
0
100
AcDbLine
370
25
 62
7
  6
CONTINUOUS
 10
98.1766591795821
 20
-210.314537708079
 30
0
 11
100.671599469395
 21
-198.576766499274
 31
0
  0
ARC
  5
1E1
100
AcDbEntity
  8
0
100
AcDbCircle
370
25
 62
7
  6
CONTINUOUS
 10
99.6934518686611
 20
-198.368854808456
 30
0
 40
0.999999999999909
100
AcDbArc
 50
347.99999999999
 51
78.000000000002
  0
LINE
  5
1E2
100
AcDbEntity
  8
0
100
AcDbLine
370
25
 62
7
  6
CONTINUOUS
 10
99.901363559479
 20
-197.390707207722
 30
0
 11
88.1635923506731
 21
-194.895766917909
 31
0
  0
ARC
  5
1E3
100
AcDbEntity
  8
0
100
AcDbCircle
370
25
 62
7
  6
CONTINUOUS
 10
87.955680659855
 20
-195.873914518643
 30
0
 40
0.999999999999997
100
AcDbArc
 50
77.999999999997
 51
168.000000000003
  0
LINE
  5
1E4
100
AcDbEntity
  8
0
100
AcDbLine
370
25
 62
7
  6
CONTINUOUS
 10
87.6775330591221
 20
-215.296002827825
 30
0
 11
85.1825927693091
 21
-227.033774036631
 31
0
  0
ARC
  5
1E5
100
AcDbEntity
  8
0
100
AcDbCircle
370
25
 62
7
  6
CONTINUOUS
 10
86.160740370042
 20
-227.241685727449
 30
0
 40
0.999999999999997
100
AcDbArc
 50
168
 51
257.999999999998
  0
LINE
  5
1E6
100
AcDbEntity
  8
0
100
AcDbLine
370
25
 62
7
  6
CONTINUOUS
 10
85.952828679225
 20
-228.219833328182
 30
0
 11
97.6905998880301
 21
-230.714773617996
 31
0
  0
ARC
  5
1E7
100
AcDbEntity
  8
0
100
AcDbCircle
370
25
 62
7
  6
CONTINUOUS
 10
97.8985115788481
 20
-229.736626017262
 30
0
 40
1.00000000000003
100
AcDbArc
 50
258.000000000005
 51
347.999999999998
  0
LINE
  5
1E8
100
AcDbEntity
  8
0
100
AcDbLine
370
25
 62
7
  6
CONTINUOUS
 10
98.876659179582
 20
-229.944537708079
 30
0
 11
101.371599469395
 21
-218.206766499274
 31
0
  0
ARC
  5
1E9
100
AcDbEntity
  8
0
100
AcDbCircle
370
25
 62
7
  6
CONTINUOUS
 10
100.393451868661
 20
-217.998854808456
 30
0
 40
1.00000000000001
100
AcDbArc
 50
347.999999999995
 51
77.999999999996
  0
LINE
  5
1EA
100
AcDbEntity
  8
0
100
AcDbLine
370
25
 62
7
  6
CONTINUOUS
 10
100.601363559479
 20
-217.020707207722
 30
0
 11
88.8635923506731
 21
-214.525766917909
 31
0
  0
ARC
  5
1EB
100
AcDbEntity
  8
0
100
AcDbCircle
370
25
 62
7
  6
CONTINUOUS
 10
88.6556806598551
 20
-215.503914518643
 30
0
 40
0.999999999999973
100
AcDbArc
 50
78.0000000000027
 51
168.000000000003
  0
LINE
  5
1EC
100
AcDbEntity
  8
0
100
AcDbLine
370
25
 62
7
  6
CONTINUOUS
 10
222.045960737415
 20
-166.638117137717
 30
0
 11
222.045960737415
 21
-178.638117137717
 31
0
  0
ARC
  5
1ED
100
AcDbEntity
  8
0
100
AcDbCircle
370
25
 62
7
  6
CONTINUOUS
 10
223.045960737415
 20
-178.638117137717
 30
0
 40
1.00000000000006
100
AcDbArc
 50
180.000000000004
 51
270.000000000001
  0
LINE
  5
1EE
100
AcDbEntity
  8
0
100
AcDbLine
370
25
 62
7
  6
CONTINUOUS
 10
223.045960737415
 20
-179.638117137717
 30
0
 11
235.045960737415
 21
-179.638117137717
 31
0
  0
ARC
  5
1EF
100
AcDbEntity
  8
0
100
AcDbCircle
370
25
 62
7
  6
CONTINUOUS
 10
235.045960737415
 20
-178.638117137718
 30
0
 40
1
100
AcDbArc
 50
270.000000000001
 51
0
  0
LINE
  5
1F0
100
AcDbEntity
  8
0
100
AcDbLine
370
25
 62
7
  6
CONTINUOUS
 10
236.045960737415
 20
-178.638117137718
 30
0
 11
236.045960737415
 21
-166.638117137717
 31
0
  0
ARC
  5
1F1
100
AcDbEntity
  8
0
100
AcDbCircle
370
25
 62
7
  6
CONTINUOUS
 10
235.045960737415
 20
-166.638117137717
 30
0
 40
1
100
AcDbArc
 50
359.999999999998
 51
90
  0
LINE
  5
1F2
100
AcDbEntity
  8
0
100
AcDbLine
370
25
 62
7
  6
CONTINUOUS
 10
235.045960737415
 20
-165.638117137717
 30
0
 11
223.045960737415
 21
-165.638117137717
 31
0
  0
ARC
  5
1F3
100
AcDbEntity
  8
0
100
AcDbCircle
370
25
 62
7
  6
CONTINUOUS
 10
223.045960737415
 20
-166.638117137717
 30
0
 40
1.00000000000006
100
AcDbArc
 50
90
 51
179.999999999997
  0
LINE
  5
1F4
100
AcDbEntity
  8
0
100
AcDbLine
370
25
 62
7
  6
CONTINUOUS
 10
203.415960737415
 20
-164.498117137717
 30
0
 11
203.415960737415
 21
-176.498117137717
 31
0
  0
ARC
  5
1F5
100
AcDbEntity
  8
0
100
AcDbCircle
370
25
 62
7
  6
CONTINUOUS
 10
204.415960737415
 20
-176.498117137717
 30
0
 40
1.00000000000011
100
AcDbArc
 50
180
 51
270.000000000001
  0
LINE
  5
1F6
100
AcDbEntity
  8
0
100
AcDbLine
370
25
 62
7
  6
CONTINUOUS
 10
204.415960737415
 20
-177.498117137717
 30
0
 11
216.415960737415
 21
-177.498117137717
 31
0
  0
ARC
  5
1F7
100
AcDbEntity
  8
0
100
AcDbCircle
370
25
 62
7
  6
CONTINUOUS
 10
216.415960737415
 20
-176.498117137717
 30
0
 40
1.00000000000006
100
AcDbArc
 50
270.000000000007
 51
0
  0
LINE
  5
1F8
100
AcDbEntity
  8
0
100
AcDbLine
370
25
 62
7
  6
CONTINUOUS
 10
217.415960737415
 20
-176.498117137717
 30
0
 11
217.415960737415
 21
-164.498117137717
 31
0
  0
ARC
  5
1F9
100
AcDbEntity
  8
0
100
AcDbCircle
370
25
 62
7
  6
CONTINUOUS
 10
216.415960737415
 20
-164.498117137717
 30
0
 40
1
100
AcDbArc
 50
0
 51
90
  0
LINE
  5
1FA
100
AcDbEntity
  8
0
100
AcDbLine
370
25
 62
7
  6
CONTINUOUS
 10
216.415960737415
 20
-163.498117137717
 30
0
 11
204.415960737415
 21
-163.498117137717
 31
0
  0
ARC
  5
1FB
100
AcDbEntity
  8
0
100
AcDbCircle
370
25
 62
7
  6
CONTINUOUS
 10
204.415960737415
 20
-164.498117137717
 30
0
 40
1.00000000000011
100
AcDbArc
 50
90
 51
180
  0
LINE
  5
1FC
100
AcDbEntity
  8
0
100
AcDbLine
370
25
 62
7
  6
CONTINUOUS
 10
100.257533059122
 20
-179.016002827825
 30
0
 11
97.7625927693091
 21
-190.753774036631
 31
0
  0
ARC
  5
1FD
100
AcDbEntity
  8
0
100
AcDbCircle
370
25
 62
7
  6
CONTINUOUS
 10
98.7407403700421
 20
-190.961685727449
 30
0
 40
0.999999999999997
100
AcDbArc
 50
168
 51
257.999999999998
  0
LINE
  5
1FE
100
AcDbEntity
  8
0
100
AcDbLine
370
25
 62
7
  6
CONTINUOUS
 10
98.5328286792251
 20
-191.939833328182
 30
0
 11
110.27059988803
 21
-194.434773617996
 31
0
  0
ARC
  5
1FF
100
AcDbEntity
  8
0
100
AcDbCircle
370
25
 62
7
  6
CONTINUOUS
 10
110.478511578848
 20
-193.456626017262
 30
0
 40
0.999999999999973
100
AcDbArc
 50
258.000000000004
 51
348.000000000003
  0
LINE
  5
200
100
AcDbEntity
  8
0
100
AcDbLine
370
25
 62
7
  6
CONTINUOUS
 10
111.456659179582
 20
-193.664537708079
 30
0
 11
113.951599469395
 21
-181.926766499274
 31
0
  0
ARC
  5
201
100
AcDbEntity
  8
0
100
AcDbCircle
370
25
 62
7
  6
CONTINUOUS
 10
112.973451868661
 20
-181.718854808456
 30
0
 40
0.999999999999917
100
AcDbArc
 50
347.999999999993
 51
78.0000000000027
  0
LINE
  5
202
100
AcDbEntity
  8
0
100
AcDbLine
370
25
 62
7
  6
CONTINUOUS
 10
113.181363559479
 20
-180.740707207722
 30
0
 11
101.443592350673
 21
-178.245766917909
 31
0
  0
ARC
  5
203
100
AcDbEntity
  8
0
100
AcDbCircle
370
25
 62
7
  6
CONTINUOUS
 10
101.235680659855
 20
-179.223914518643
 30
0
 40
0.999999999999941
100
AcDbArc
 50
77.9999999999963
 51
168.000000000002
  0
LINE
  5
204
100
AcDbEntity
  8
0
100
AcDbLine
370
25
 62
7
  6
CONTINUOUS
 10
259.555960737415
 20
-185.688117137717
 30
0
 11
259.555960737415
 21
-197.688117137717
 31
0
  0
ARC
  5
205
100
AcDbEntity
  8
0
100
AcDbCircle
370
25
 62
7
  6
CONTINUOUS
 10
260.555960737415
 20
-197.688117137717
 30
0
 40
1.00000000000011
100
AcDbArc
 50
180
 51
269.999999999994
  0
LINE
  5
206
100
AcDbEntity
  8
0
100
AcDbLine
370
25
 62
7
  6
CONTINUOUS
 10
260.555960737415
 20
-198.688117137717
 30
0
 11
272.555960737415
 21
-198.688117137717
 31
0
  0
ARC
  5
207
100
AcDbEntity
  8
0
100
AcDbCircle
370
25
 62
7
  6
CONTINUOUS
 10
272.555960737415
 20
-197.688117137718
 30
0
 40
0.999999999999943
100
AcDbArc
 50
269.999999999994
 51
0
  0
LINE
  5
208
100
AcDbEntity
  8
0
100
AcDbLine
370
25
 62
7
  6
CONTINUOUS
 10
273.555960737415
 20
-197.688117137718
 30
0
 11
273.555960737415
 21
-185.688117137717
 31
0
  0
ARC
  5
209
100
AcDbEntity
  8
0
100
AcDbCircle
370
25
 62
7
  6
CONTINUOUS
 10
272.555960737415
 20
-185.688117137717
 30
0
 40
1.00000000000006
100
AcDbArc
 50
0
 51
90.0000000000065
  0
LINE
  5
20A
100
AcDbEntity
  8
0
100
AcDbLine
370
25
 62
7
  6
CONTINUOUS
 10
272.555960737415
 20
-184.688117137717
 30
0
 11
260.555960737415
 21
-184.688117137717
 31
0
  0
ARC
  5
20B
100
AcDbEntity
  8
0
100
AcDbCircle
370
25
 62
7
  6
CONTINUOUS
 10
260.555960737415
 20
-185.688117137717
 30
0
 40
1.00000000000011
100
AcDbArc
 50
90.0000000000065
 51
179.999999999997
  0
LINE
  5
20C
100
AcDbEntity
  8
0
100
AcDbLine
370
25
 62
7
  6
CONTINUOUS
 10
74.3938212651431
 20
-231.945285117747
 30
0
 11
71.89888097533
 21
-243.683056326553
 31
0
  0
ARC
  5
20D
100
AcDbEntity
  8
0
100
AcDbCircle
370
25
 62
7
  6
CONTINUOUS
 10
72.877028576063
 20
-243.89096801737
 30
0
 40
1.0000000000001
100
AcDbArc
 50
168.000000000002
 51
257.999999999998
  0
LINE
  5
20E
100
AcDbEntity
  8
0
100
AcDbLine
370
25
 62
7
  6
CONTINUOUS
 10
72.6691168852461
 20
-244.869115618104
 30
0
 11
84.4068880940511
 21
-247.364055907917
 31
0
  0
ARC
  5
20F
100
AcDbEntity
  8
0
100
AcDbCircle
370
25
 62
7
  6
CONTINUOUS
 10
84.6147997848691
 20
-246.385908307184
 30
0
 40
0.999999999999913
100
AcDbArc
 50
257.999999999997
 51
348.000000000006
  0
LINE
  5
210
100
AcDbEntity
  8
0
100
AcDbLine
370
25
 62
7
  6
CONTINUOUS
 10
85.5929473856031
 20
-246.593819998001
 30
0
 11
88.087887675416
 21
-234.856048789196
 31
0
  0
ARC
  5
211
100
AcDbEntity
  8
0
100
AcDbCircle
370
25
 62
7
  6
CONTINUOUS
 10
87.1097400746821
 20
-234.648137098378
 30
0
 40
0.999999999999997
100
AcDbArc
 50
347.999999999999
 51
77.999999999997
  0
LINE
  5
212
100
AcDbEntity
  8
0
100
AcDbLine
370
25
 62
7
  6
CONTINUOUS
 10
87.3176517655
 20
-233.669989497644
 30
0
 11
75.5798805566941
 21
-231.175049207831
 31
0
  0
ARC
  5
213
100
AcDbEntity
  8
0
100
AcDbCircle
370
25
 62
7
  6
CONTINUOUS
 10
75.3719688658761
 20
-232.153196808565
 30
0
 40
0.999999999999985
100
AcDbArc
 50
78.0000000000034
 51
168
  0
LINE
  5
214
100
AcDbEntity
  8
0
100
AcDbLine
370
25
 62
7
  6
CONTINUOUS
 10
123.820322005435
 20
-238.816766499274
 30
0
 11
126.315262295248
 21
-250.55453770808
 31
0
  0
ARC
  5
215
100
AcDbEntity
  8
0
100
AcDbCircle
370
25
 62
7
  6
CONTINUOUS
 10
127.293409895981
 20
-250.346626017262
 30
0
 40
1.00000000000005
100
AcDbArc
 50
192.000000000004
 51
282.000000000003
  0
LINE
  5
216
100
AcDbEntity
  8
0
100
AcDbLine
370
25
 62
7
  6
CONTINUOUS
 10
127.501321586799
 20
-251.324773617996
 30
0
 11
139.239092795605
 21
-248.829833328183
 31
0
  0
ARC
  5
217
100
AcDbEntity
  8
0
100
AcDbCircle
370
25
 62
7
  6
CONTINUOUS
 10
139.031181104787
 20
-247.851685727449
 30
0
 40
1.00000000000009
100
AcDbArc
 50
282.000000000003
 51
11.9999999999968
  0
LINE
  5
218
100
AcDbEntity
  8
0
100
AcDbLine
370
25
 62
7
  6
CONTINUOUS
 10
140.009328705521
 20
-247.643774036631
 30
0
 11
137.514388415708
 21
-235.906002827825
 31
0
  0
ARC
  5
219
100
AcDbEntity
  8
0
100
AcDbCircle
370
25
 62
7
  6
CONTINUOUS
 10
136.536240814974
 20
-236.113914518643
 30
0
 40
1.00000000000013
100
AcDbArc
 50
12.0000000000064
 51
102.000000000002
  0
LINE
  5
21A
100
AcDbEntity
  8
0
100
AcDbLine
370
25
 62
7
  6
CONTINUOUS
 10
136.328329124156
 20
-235.135766917909
 30
0
 11
124.590557915351
 21
-237.630707207722
 31
0
  0
ARC
  5
21B
100
AcDbEntity
  8
0
100
AcDbCircle
370
25
 62
7
  6
CONTINUOUS
 10
124.798469606168
 20
-238.608854808456
 30
0
 40
0.999999999999945
100
AcDbArc
 50
101.999999999997
 51
192.000000000004
  0
LINE
  5
21C
100
AcDbEntity
  8
0
100
AcDbLine
370
25
 62
7
  6
CONTINUOUS
 10
198.055960737415
 20
-184.628117137717
 30
0
 11
198.055960737415
 21
-196.628117137717
 31
0
  0
ARC
  5
21D
100
AcDbEntity
  8
0
100
AcDbCircle
370
25
 62
7
  6
CONTINUOUS
 10
199.055960737415
 20
-196.628117137717
 30
0
 40
1.00000000000011
100
AcDbArc
 50
180.000000000004
 51
270.000000000001
  0
LINE
  5
21E
100
AcDbEntity
  8
0
100
AcDbLine
370
25
 62
7
  6
CONTINUOUS
 10
199.055960737415
 20
-197.628117137717
 30
0
 11
211.055960737415
 21
-197.628117137717
 31
0
  0
ARC
  5
21F
100
AcDbEntity
  8
0
100
AcDbCircle
370
25
 62
7
  6
CONTINUOUS
 10
211.055960737415
 20
-196.628117137717
 30
0
 40
1
100
AcDbArc
 50
270.000000000007
 51
0
  0
LINE
  5
220
100
AcDbEntity
  8
0
100
AcDbLine
370
25
 62
7
  6
CONTINUOUS
 10
212.055960737415
 20
-196.628117137717
 30
0
 11
212.055960737415
 21
-184.628117137717
 31
0
  0
ARC
  5
221
100
AcDbEntity
  8
0
100
AcDbCircle
370
25
 62
7
  6
CONTINUOUS
 10
211.055960737415
 20
-184.628117137717
 30
0
 40
1
100
AcDbArc
 50
0
 51
90
  0
LINE
  5
222
100
AcDbEntity
  8
0
100
AcDbLine
370
25
 62
7
  6
CONTINUOUS
 10
211.055960737415
 20
-183.628117137717
 30
0
 11
199.055960737415
 21
-183.628117137717
 31
0
  0
ARC
  5
223
100
AcDbEntity
  8
0
100
AcDbCircle
370
25
 62
7
  6
CONTINUOUS
 10
199.055960737415
 20
-184.628117137717
 30
0
 40
1.00000000000011
100
AcDbArc
 50
90
 51
179.999999999997
  0
LINE
  5
224
100
AcDbEntity
  8
0
100
AcDbLine
370
25
 62
7
  6
CONTINUOUS
 10
68.3438212651431
 20
-191.705285117747
 30
0
 11
65.8488809753291
 21
-203.443056326553
 31
0
  0
ARC
  5
225
100
AcDbEntity
  8
0
100
AcDbCircle
370
25
 62
7
  6
CONTINUOUS
 10
66.8270285760631
 20
-203.65096801737
 30
0
 40
1.00000000000005
100
AcDbArc
 50
168.000000000003
 51
257.999999999999
  0
LINE
  5
226
100
AcDbEntity
  8
0
100
AcDbLine
370
25
 62
7
  6
CONTINUOUS
 10
66.619116885245
 20
-204.629115618104
 30
0
 11
78.3568880940511
 21
-207.124055907917
 31
0
  0
ARC
  5
227
100
AcDbEntity
  8
0
100
AcDbCircle
370
25
 62
7
  6
CONTINUOUS
 10
78.564799784869
 20
-206.145908307183
 30
0
 40
0.999999999999997
100
AcDbArc
 50
257.999999999998
 51
348.000000000003
  0
LINE
  5
228
100
AcDbEntity
  8
0
100
AcDbLine
370
25
 62
7
  6
CONTINUOUS
 10
79.542947385603
 20
-206.353819998001
 30
0
 11
82.0378876754161
 21
-194.616048789196
 31
0
  0
ARC
  5
229
100
AcDbEntity
  8
0
100
AcDbCircle
370
25
 62
7
  6
CONTINUOUS
 10
81.0597400746821
 20
-194.408137098378
 30
0
 40
0.999999999999917
100
AcDbArc
 50
347.999999999996
 51
78.0000000000027
  0
LINE
  5
22A
100
AcDbEntity
  8
0
100
AcDbLine
370
25
 62
7
  6
CONTINUOUS
 10
81.2676517655001
 20
-193.429989497644
 30
0
 11
69.529880556694
 21
-190.935049207831
 31
0
  0
ARC
  5
22B
100
AcDbEntity
  8
0
100
AcDbCircle
370
25
 62
7
  6
CONTINUOUS
 10
69.3219688658761
 20
-191.913196808565
 30
0
 40
0.999999999999973
100
AcDbArc
 50
77.9999999999963
 51
168.000000000003
  0
LINE
  5
22C
100
AcDbEntity
  8
0
100
AcDbLine
370
25
 62
7
  6
CONTINUOUS
 10
69.043821265143
 20
-211.335285117747
 30
0
 11
66.5488809753291
 21
-223.073056326553
 31
0
  0
ARC
  5
22D
100
AcDbEntity
  8
0
100
AcDbCircle
370
25
 62
7
  6
CONTINUOUS
 10
67.5270285760631
 20
-223.28096801737
 30
0
 40
1
100
AcDbArc
 50
167.999999999995
 51
258.00000000001
  0
LINE
  5
22E
100
AcDbEntity
  8
0
100
AcDbLine
370
25
 62
7
  6
CONTINUOUS
 10
67.3191168852461
 20
-224.259115618104
 30
0
 11
79.056888094051
 21
-226.754055907917
 31
0
  0
ARC
  5
22F
100
AcDbEntity
  8
0
100
AcDbCircle
370
25
 62
7
  6
CONTINUOUS
 10
79.2647997848691
 20
-225.775908307184
 30
0
 40
0.999999999999967
100
AcDbArc
 50
257.999999999997
 51
348.000000000006
  0
LINE
  5
230
100
AcDbEntity
  8
0
100
AcDbLine
370
25
 62
7
  6
CONTINUOUS
 10
80.2429473856031
 20
-225.983819998001
 30
0
 11
82.7378876754161
 21
-214.246048789196
 31
0
  0
ARC
  5
231
100
AcDbEntity
  8
0
100
AcDbCircle
370
25
 62
7
  6
CONTINUOUS
 10
81.7597400746821
 20
-214.038137098378
 30
0
 40
0.999999999999997
100
AcDbArc
 50
347.999999999998
 51
77.9999999999967
  0
LINE
  5
232
100
AcDbEntity
  8
0
100
AcDbLine
370
25
 62
7
  6
CONTINUOUS
 10
81.9676517655
 20
-213.059989497644
 30
0
 11
70.2298805566941
 21
-210.565049207831
 31
0
  0
ARC
  5
233
100
AcDbEntity
  8
0
100
AcDbCircle
370
25
 62
7
  6
CONTINUOUS
 10
70.021968865876
 20
-211.543196808565
 30
0
 40
1.00000000000008
100
AcDbArc
 50
78.0000000000031
 51
168.000000000006
  0
LINE
  5
234
100
AcDbEntity
  8
0
100
AcDbLine
370
25
 62
7
  6
CONTINUOUS
 10
129.180322005435
 20
-218.206766499274
 30
0
 11
131.675262295248
 21
-229.94453770808
 31
0
  0
ARC
  5
235
100
AcDbEntity
  8
0
100
AcDbCircle
370
25
 62
7
  6
CONTINUOUS
 10
132.653409895981
 20
-229.736626017262
 30
0
 40
1.00000000000013
100
AcDbArc
 50
192.000000000007
 51
281.999999999996
  0
LINE
  5
236
100
AcDbEntity
  8
0
100
AcDbLine
370
25
 62
7
  6
CONTINUOUS
 10
132.861321586799
 20
-230.714773617996
 30
0
 11
144.599092795605
 21
-228.219833328183
 31
0
  0
ARC
  5
237
100
AcDbEntity
  8
0
100
AcDbCircle
370
25
 62
7
  6
CONTINUOUS
 10
144.391181104787
 20
-227.241685727449
 30
0
 40
1.00000000000008
100
AcDbArc
 50
282.000000000003
 51
11.9999999999982
  0
LINE
  5
238
100
AcDbEntity
  8
0
100
AcDbLine
370
25
 62
7
  6
CONTINUOUS
 10
145.369328705521
 20
-227.033774036631
 30
0
 11
142.874388415708
 21
-215.296002827825
 31
0
  0
ARC
  5
239
100
AcDbEntity
  8
0
100
AcDbCircle
370
25
 62
7
  6
CONTINUOUS
 10
141.896240814974
 20
-215.503914518643
 30
0
 40
1.00000000000011
100
AcDbArc
 50
12.0000000000093
 51
102.000000000002
  0
LINE
  5
23A
100
AcDbEntity
  8
0
100
AcDbLine
370
25
 62
7
  6
CONTINUOUS
 10
141.688329124156
 20
-214.525766917909
 30
0
 11
129.950557915351
 21
-217.020707207722
 31
0
  0
ARC
  5
23B
100
AcDbEntity
  8
0
100
AcDbCircle
370
25
 62
7
  6
CONTINUOUS
 10
130.158469606168
 20
-217.998854808456
 30
0
 40
1.00000000000009
100
AcDbArc
 50
102.000000000002
 51
191.999999999998
  0
LINE
  5
23C
100
AcDbEntity
  8
0
100
AcDbLine
370
25
 62
7
  6
CONTINUOUS
 10
206.675960737415
 20
-204.738117137717
 30
0
 11
206.675960737415
 21
-216.738117137717
 31
0
  0
ARC
  5
23D
100
AcDbEntity
  8
0
100
AcDbCircle
370
25
 62
7
  6
CONTINUOUS
 10
207.675960737415
 20
-216.738117137717
 30
0
 40
1.00000000000003
100
AcDbArc
 50
180
 51
270.000000000001
  0
LINE
  5
23E
100
AcDbEntity
  8
0
100
AcDbLine
370
25
 62
7
  6
CONTINUOUS
 10
207.675960737415
 20
-217.738117137717
 30
0
 11
219.675960737415
 21
-217.738117137717
 31
0
  0
ARC
  5
23F
100
AcDbEntity
  8
0
100
AcDbCircle
370
25
 62
7
  6
CONTINUOUS
 10
219.675960737415
 20
-216.738117137717
 30
0
 40
1.00000000000003
100
AcDbArc
 50
270.000000000001
 51
0
  0
LINE
  5
240
100
AcDbEntity
  8
0
100
AcDbLine
370
25
 62
7
  6
CONTINUOUS
 10
220.675960737415
 20
-216.738117137717
 30
0
 11
220.675960737415
 21
-204.738117137717
 31
0
  0
ARC
  5
241
100
AcDbEntity
  8
0
100
AcDbCircle
370
25
 62
7
  6
CONTINUOUS
 10
219.675960737415
 20
-204.738117137717
 30
0
 40
1.00000000000006
100
AcDbArc
 50
6.51377598763728E-12
 51
90
  0
LINE
  5
242
100
AcDbEntity
  8
0
100
AcDbLine
370
25
 62
7
  6
CONTINUOUS
 10
219.675960737415
 20
-203.738117137717
 30
0
 11
207.675960737415
 21
-203.738117137717
 31
0
  0
ARC
  5
243
100
AcDbEntity
  8
0
100
AcDbCircle
370
25
 62
7
  6
CONTINUOUS
 10
207.675960737415
 20
-204.738117137717
 30
0
 40
1
100
AcDbArc
 50
90
 51
180
  0
LINE
  5
244
100
AcDbEntity
  8
0
100
AcDbLine
370
25
 62
7
  6
CONTINUOUS
 10
235.735960737415
 20
-185.688117137717
 30
0
 11
235.735960737415
 21
-197.688117137717
 31
0
  0
ARC
  5
245
100
AcDbEntity
  8
0
100
AcDbCircle
370
25
 62
7
  6
CONTINUOUS
 10
236.735960737415
 20
-197.688117137717
 30
0
 40
1
100
AcDbArc
 50
179.999999999997
 51
270.000000000001
  0
LINE
  5
246
100
AcDbEntity
  8
0
100
AcDbLine
370
25
 62
7
  6
CONTINUOUS
 10
236.735960737415
 20
-198.688117137717
 30
0
 11
248.735960737415
 21
-198.688117137717
 31
0
  0
ARC
  5
247
100
AcDbEntity
  8
0
100
AcDbCircle
370
25
 62
7
  6
CONTINUOUS
 10
248.735960737415
 20
-197.688117137717
 30
0
 40
1.00000000000011
100
AcDbArc
 50
270.000000000001
 51
0
  0
LINE
  5
248
100
AcDbEntity
  8
0
100
AcDbLine
370
25
 62
7
  6
CONTINUOUS
 10
249.735960737415
 20
-197.688117137717
 30
0
 11
249.735960737415
 21
-185.688117137717
 31
0
  0
ARC
  5
249
100
AcDbEntity
  8
0
100
AcDbCircle
370
25
 62
7
  6
CONTINUOUS
 10
248.735960737415
 20
-185.688117137717
 30
0
 40
1.00000000000011
100
AcDbArc
 50
3.25688799381827E-12
 51
90
  0
LINE
  5
24A
100
AcDbEntity
  8
0
100
AcDbLine
370
25
 62
7
  6
CONTINUOUS
 10
248.735960737415
 20
-184.688117137717
 30
0
 11
236.735960737415
 21
-184.688117137717
 31
0
  0
ARC
  5
24B
100
AcDbEntity
  8
0
100
AcDbCircle
370
25
 62
7
  6
CONTINUOUS
 10
236.735960737415
 20
-185.688117137717
 30
0
 40
1.00000000000006
100
AcDbArc
 50
90
 51
180
  0
LINE
  5
24C
100
AcDbEntity
  8
0
100
AcDbLine
370
25
 62
7
  6
CONTINUOUS
 10
81.6238212651431
 20
-175.055285117747
 30
0
 11
79.128880975329
 21
-186.793056326552
 31
0
  0
ARC
  5
24D
100
AcDbEntity
  8
0
100
AcDbCircle
370
25
 62
7
  6
CONTINUOUS
 10
80.107028576063
 20
-187.00096801737
 30
0
 40
1.0000000000001
100
AcDbArc
 50
168.000000000002
 51
257.999999999999
  0
LINE
  5
24E
100
AcDbEntity
  8
0
100
AcDbLine
370
25
 62
7
  6
CONTINUOUS
 10
79.899116885246
 20
-187.979115618104
 30
0
 11
91.6368880940511
 21
-190.474055907917
 31
0
  0
ARC
  5
24F
100
AcDbEntity
  8
0
100
AcDbCircle
370
25
 62
7
  6
CONTINUOUS
 10
91.8447997848691
 20
-189.495908307183
 30
0
 40
0.999999999999997
100
AcDbArc
 50
257.999999999998
 51
348.000000000001
  0
LINE
  5
250
100
AcDbEntity
  8
0
100
AcDbLine
370
25
 62
7
  6
CONTINUOUS
 10
92.8229473856031
 20
-189.703819998001
 30
0
 11
95.317887675416
 21
-177.966048789196
 31
0
  0
ARC
  5
251
100
AcDbEntity
  8
0
100
AcDbCircle
370
25
 62
7
  6
CONTINUOUS
 10
94.339740074682
 20
-177.758137098378
 30
0
 40
0.999999999999997
100
AcDbArc
 50
347.999999999998
 51
78.0000000000034
  0
LINE
  5
252
100
AcDbEntity
  8
0
100
AcDbLine
370
25
 62
7
  6
CONTINUOUS
 10
94.5476517655001
 20
-176.779989497644
 30
0
 11
82.8098805566941
 21
-174.285049207831
 31
0
  0
ARC
  5
253
100
AcDbEntity
  8
0
100
AcDbCircle
370
25
 62
7
  6
CONTINUOUS
 10
82.6019688658761
 20
-175.263196808565
 30
0
 40
0.999999999999961
100
AcDbArc
 50
77.9999999999957
 51
168.000000000007
  0
LINE
  5
254
100
AcDbEntity
  8
0
100
AcDbLine
370
25
 62
7
  6
CONTINUOUS
 10
120.560322005435
 20
-200.556766499274
 30
0
 11
123.055262295248
 21
-212.29453770808
 31
0
  0
ARC
  5
255
100
AcDbEntity
  8
0
100
AcDbCircle
370
25
 62
7
  6
CONTINUOUS
 10
124.033409895981
 20
-212.086626017262
 30
0
 40
0.999999999999991
100
AcDbArc
 50
192.000000000002
 51
282.000000000004
  0
LINE
  5
256
100
AcDbEntity
  8
0
100
AcDbLine
370
25
 62
7
  6
CONTINUOUS
 10
124.241321586799
 20
-213.064773617996
 30
0
 11
135.979092795605
 21
-210.569833328183
 31
0
  0
ARC
  5
257
100
AcDbEntity
  8
0
100
AcDbCircle
370
25
 62
7
  6
CONTINUOUS
 10
135.771181104787
 20
-209.591685727449
 30
0
 40
1
100
AcDbArc
 50
281.99999999999
 51
11.9999999999998
  0
LINE
  5
258
100
AcDbEntity
  8
0
100
AcDbLine
370
25
 62
7
  6
CONTINUOUS
 10
136.749328705521
 20
-209.383774036631
 30
0
 11
134.254388415708
 21
-197.646002827825
 31
0
  0
ARC
  5
259
100
AcDbEntity
  8
0
100
AcDbCircle
370
25
 62
7
  6
CONTINUOUS
 10
133.276240814974
 20
-197.853914518643
 30
0
 40
1.00000000000011
100
AcDbArc
 50
12.0000000000016
 51
102.000000000002
  0
LINE
  5
25A
100
AcDbEntity
  8
0
100
AcDbLine
370
25
 62
7
  6
CONTINUOUS
 10
133.068329124156
 20
-196.875766917909
 30
0
 11
121.330557915351
 21
-199.370707207722
 31
0
  0
ARC
  5
25B
100
AcDbEntity
  8
0
100
AcDbCircle
370
25
 62
7
  6
CONTINUOUS
 10
121.538469606168
 20
-200.348854808456
 30
0
 40
0.999999999999997
100
AcDbArc
 50
101.999999999997
 51
192.000000000004
  0
LINE
  5
25C
100
AcDbEntity
  8
0
100
AcDbLine
370
25
 62
7
  6
CONTINUOUS
 10
216.685960737415
 20
-185.688117137717
 30
0
 11
216.685960737415
 21
-197.688117137717
 31
0
  0
ARC
  5
25D
100
AcDbEntity
  8
0
100
AcDbCircle
370
25
 62
7
  6
CONTINUOUS
 10
217.685960737415
 20
-197.688117137717
 30
0
 40
1
100
AcDbArc
 50
179.999999999997
 51
270.000000000001
  0
LINE
  5
25E
100
AcDbEntity
  8
0
100
AcDbLine
370
25
 62
7
  6
CONTINUOUS
 10
217.685960737415
 20
-198.688117137717
 30
0
 11
229.685960737415
 21
-198.688117137717
 31
0
  0
ARC
  5
25F
100
AcDbEntity
  8
0
100
AcDbCircle
370
25
 62
7
  6
CONTINUOUS
 10
229.685960737415
 20
-197.688117137717
 30
0
 40
1.00000000000011
100
AcDbArc
 50
270.000000000001
 51
0
  0
LINE
  5
260
100
AcDbEntity
  8
0
100
AcDbLine
370
25
 62
7
  6
CONTINUOUS
 10
230.685960737415
 20
-197.688117137717
 30
0
 11
230.685960737415
 21
-185.688117137717
 31
0
  0
ARC
  5
261
100
AcDbEntity
  8
0
100
AcDbCircle
370
25
 62
7
  6
CONTINUOUS
 10
229.685960737415
 20
-185.688117137717
 30
0
 40
1.00000000000011
100
AcDbArc
 50
3.25688799381827E-12
 51
90
  0
LINE
  5
262
100
AcDbEntity
  8
0
100
AcDbLine
370
25
 62
7
  6
CONTINUOUS
 10
229.685960737415
 20
-184.688117137717
 30
0
 11
217.685960737415
 21
-184.688117137717
 31
0
  0
ARC
  5
263
100
AcDbEntity
  8
0
100
AcDbCircle
370
25
 62
7
  6
CONTINUOUS
 10
217.685960737415
 20
-185.688117137717
 30
0
 40
1.00000000000006
100
AcDbArc
 50
90
 51
180
  0
LINE
  5
264
100
AcDbEntity
  8
0
100
AcDbLine
370
25
 62
7
  6
CONTINUOUS
 10
55.7601094711631
 20
-227.984567407669
 30
0
 11
53.2651691813501
 21
-239.722338616474
 31
0
  0
ARC
  5
265
100
AcDbEntity
  8
0
100
AcDbCircle
370
25
 62
7
  6
CONTINUOUS
 10
54.2433167820841
 20
-239.930250307292
 30
0
 40
1.0000000000002
100
AcDbArc
 50
168.000000000005
 51
257.999999999992
  0
LINE
  5
266
100
AcDbEntity
  8
0
100
AcDbLine
370
25
 62
7
  6
CONTINUOUS
 10
54.0354050912661
 20
-240.908397908026
 30
0
 11
65.7731763000721
 21
-243.403338197839
 31
0
  0
ARC
  5
267
100
AcDbEntity
  8
0
100
AcDbCircle
370
25
 62
7
  6
CONTINUOUS
 10
65.98108799089
 20
-242.425190597105
 30
0
 40
0.999999999999973
100
AcDbArc
 50
257.999999999997
 51
348.000000000004
  0
LINE
  5
268
100
AcDbEntity
  8
0
100
AcDbLine
370
25
 62
7
  6
CONTINUOUS
 10
66.9592355916241
 20
-242.633102287923
 30
0
 11
69.4541758814371
 21
-230.895331079117
 31
0
  0
ARC
  5
269
100
AcDbEntity
  8
0
100
AcDbCircle
370
25
 62
7
  6
CONTINUOUS
 10
68.4760282807031
 20
-230.687419388299
 30
0
 40
1.00000000000005
100
AcDbArc
 50
348.000000000001
 51
77.9999999999977
  0
LINE
  5
26A
100
AcDbEntity
  8
0
100
AcDbLine
370
25
 62
7
  6
CONTINUOUS
 10
68.6839399715211
 20
-229.709271787566
 30
0
 11
56.946168762715
 21
-227.214331497753
 31
0
  0
ARC
  5
26B
100
AcDbEntity
  8
0
100
AcDbCircle
370
25
 62
7
  6
CONTINUOUS
 10
56.7382570718971
 20
-228.192479098486
 30
0
 40
0.999999999999997
100
AcDbArc
 50
77.999999999997
 51
168
  0
LINE
  5
26C
100
AcDbEntity
  8
0
100
AcDbLine
370
25
 62
7
  6
CONTINUOUS
 10
142.454033799414
 20
-234.856048789196
 30
0
 11
144.948974089227
 21
-246.593819998001
 31
0
  0
ARC
  5
26D
100
AcDbEntity
  8
0
100
AcDbCircle
370
25
 62
7
  6
CONTINUOUS
 10
145.927121689961
 20
-246.385908307183
 30
0
 40
1.00000000000014
100
AcDbArc
 50
192.000000000007
 51
282.000000000002
  0
LINE
  5
26E
100
AcDbEntity
  8
0
100
AcDbLine
370
25
 62
7
  6
CONTINUOUS
 10
146.135033380778
 20
-247.364055907917
 30
0
 11
157.872804589584
 21
-244.869115618104
 31
0
  0
ARC
  5
26F
100
AcDbEntity
  8
0
100
AcDbCircle
370
25
 62
7
  6
CONTINUOUS
 10
157.664892898766
 20
-243.89096801737
 30
0
 40
1.0000000000001
100
AcDbArc
 50
282.000000000003
 51
12
  0
LINE
  5
270
100
AcDbEntity
  8
0
100
AcDbLine
370
25
 62
7
  6
CONTINUOUS
 10
158.6430404995
 20
-243.683056326553
 30
0
 11
156.148100209687
 21
-231.945285117747
 31
0
  0
ARC
  5
271
100
AcDbEntity
  8
0
100
AcDbCircle
370
25
 62
7
  6
CONTINUOUS
 10
155.169952608953
 20
-232.153196808565
 30
0
 40
1.00000000000011
100
AcDbArc
 50
12.0000000000016
 51
101.999999999996
  0
LINE
  5
272
100
AcDbEntity
  8
0
100
AcDbLine
370
25
 62
7
  6
CONTINUOUS
 10
154.962040918135
 20
-231.175049207831
 30
0
 11
143.22426970933
 21
-233.669989497644
 31
0
  0
ARC
  5
273
100
AcDbEntity
  8
0
100
AcDbCircle
370
25
 62
7
  6
CONTINUOUS
 10
143.432181400147
 20
-234.648137098378
 30
0
 40
0.999999999999997
100
AcDbArc
 50
102.000000000003
 51
191.999999999999
  0
LINE
  5
274
100
AcDbEntity
  8
0
100
AcDbLine
370
25
 62
7
  6
CONTINUOUS
 10
125.920322005435
 20
-179.946766499274
 30
0
 11
128.415262295248
 21
-191.68453770808
 31
0
  0
ARC
  5
275
100
AcDbEntity
  8
0
100
AcDbCircle
370
25
 62
7
  6
CONTINUOUS
 10
129.393409895981
 20
-191.476626017262
 30
0
 40
1.0000000000001
100
AcDbArc
 50
191.999999999999
 51
282.000000000003
  0
LINE
  5
276
100
AcDbEntity
  8
0
100
AcDbLine
370
25
 62
7
  6
CONTINUOUS
 10
129.601321586799
 20
-192.454773617996
 30
0
 11
141.339092795605
 21
-189.959833328183
 31
0
  0
ARC
  5
277
100
AcDbEntity
  8
0
100
AcDbCircle
370
25
 62
7
  6
CONTINUOUS
 10
141.131181104787
 20
-188.981685727449
 30
0
 40
1.0000000000001
100
AcDbArc
 50
282.000000000003
 51
11.9999999999984
  0
LINE
  5
278
100
AcDbEntity
  8
0
100
AcDbLine
370
25
 62
7
  6
CONTINUOUS
 10
142.109328705521
 20
-188.773774036631
 30
0
 11
139.614388415708
 21
-177.036002827825
 31
0
  0
ARC
  5
279
100
AcDbEntity
  8
0
100
AcDbCircle
370
25
 62
7
  6
CONTINUOUS
 10
138.636240814974
 20
-177.243914518643
 30
0
 40
1.00000000000011
100
AcDbArc
 50
12.0000000000016
 51
102.000000000002
  0
LINE
  5
27A
100
AcDbEntity
  8
0
100
AcDbLine
370
25
 62
7
  6
CONTINUOUS
 10
138.428329124156
 20
-176.265766917909
 30
0
 11
126.690557915351
 21
-178.760707207722
 31
0
  0
ARC
  5
27B
100
AcDbEntity
  8
0
100
AcDbCircle
370
25
 62
7
  6
CONTINUOUS
 10
126.898469606168
 20
-179.738854808456
 30
0
 40
1.00000000000011
100
AcDbArc
 50
102.000000000002
 51
191.999999999997
  0
LINE
  5
27C
100
AcDbEntity
  8
0
100
AcDbLine
370
25
 62
7
  6
CONTINUOUS
 10
201.315960737415
 20
-223.788117137717
 30
0
 11
201.315960737415
 21
-235.788117137717
 31
0
  0
ARC
  5
27D
100
AcDbEntity
  8
0
100
AcDbCircle
370
25
 62
7
  6
CONTINUOUS
 10
202.315960737415
 20
-235.788117137717
 30
0
 40
1.00000000000011
100
AcDbArc
 50
180.000000000004
 51
270.000000000001
  0
LINE
  5
27E
100
AcDbEntity
  8
0
100
AcDbLine
370
25
 62
7
  6
CONTINUOUS
 10
202.315960737415
 20
-236.788117137717
 30
0
 11
214.315960737415
 21
-236.788117137717
 31
0
  0
ARC
  5
27F
100
AcDbEntity
  8
0
100
AcDbCircle
370
25
 62
7
  6
CONTINUOUS
 10
214.315960737414
 20
-235.788117137717
 30
0
 40
1.00000000000011
100
AcDbArc
 50
270.000000000014
 51
0
  0
LINE
  5
280
100
AcDbEntity
  8
0
100
AcDbLine
370
25
 62
7
  6
CONTINUOUS
 10
215.315960737415
 20
-235.788117137717
 30
0
 11
215.315960737415
 21
-223.788117137717
 31
0
  0
ARC
  5
281
100
AcDbEntity
  8
0
100
AcDbCircle
370
25
 62
7
  6
CONTINUOUS
 10
214.315960737415
 20
-223.788117137717
 30
0
 40
1.00000000000006
100
AcDbArc
 50
3.25688799381864E-12
 51
89.9999999999935
  0
LINE
  5
282
100
AcDbEntity
  8
0
100
AcDbLine
370
25
 62
7
  6
CONTINUOUS
 10
214.315960737415
 20
-222.788117137717
 30
0
 11
202.315960737415
 21
-222.788117137717
 31
0
  0
ARC
  5
283
100
AcDbEntity
  8
0
100
AcDbCircle
370
25
 62
7
  6
CONTINUOUS
 10
202.315960737415
 20
-223.788117137717
 30
0
 40
1.00000000000011
100
AcDbArc
 50
90
 51
179.999999999998
  0
LINE
  5
284
100
AcDbEntity
  8
0
100
AcDbLine
370
25
 62
7
  6
CONTINUOUS
 10
49.7101094711641
 20
-187.744567407669
 30
0
 11
47.215169181351
 21
-199.482338616474
 31
0
  0
ARC
  5
285
100
AcDbEntity
  8
0
100
AcDbCircle
370
25
 62
7
  6
CONTINUOUS
 10
48.193316782084
 20
-199.690250307292
 30
0
 40
1.00000000000003
100
AcDbArc
 50
168
 51
258.000000000005
  0
LINE
  5
286
100
AcDbEntity
  8
0
100
AcDbLine
370
25
 62
7
  6
CONTINUOUS
 10
47.9854050912671
 20
-200.668397908026
 30
0
 11
59.7231763000721
 21
-203.163338197839
 31
0
  0
ARC
  5
287
100
AcDbEntity
  8
0
100
AcDbCircle
370
25
 62
7
  6
CONTINUOUS
 10
59.9310879908901
 20
-202.185190597105
 30
0
 40
0.999999999999941
100
AcDbArc
 50
257.999999999997
 51
348.000000000006
  0
LINE
  5
288
100
AcDbEntity
  8
0
100
AcDbLine
370
25
 62
7
  6
CONTINUOUS
 10
60.9092355916241
 20
-202.393102287923
 30
0
 11
63.404175881437
 21
-190.655331079117
 31
0
  0
ARC
  5
289
100
AcDbEntity
  8
0
100
AcDbCircle
370
25
 62
7
  6
CONTINUOUS
 10
62.4260282807031
 20
-190.447419388299
 30
0
 40
0.999999999999909
100
AcDbArc
 50
347.99999999999
 51
78.000000000002
  0
LINE
  5
28A
100
AcDbEntity
  8
0
100
AcDbLine
370
25
 62
7
  6
CONTINUOUS
 10
62.633939971521
 20
-189.469271787566
 30
0
 11
50.8961687627151
 21
-186.974331497753
 31
0
  0
ARC
  5
28B
100
AcDbEntity
  8
0
100
AcDbCircle
370
25
 62
7
  6
CONTINUOUS
 10
50.6882570718971
 20
-187.952479098486
 30
0
 40
0.999999999999985
100
AcDbArc
 50
77.9999999999963
 51
168
  0
LINE
  5
28C
100
AcDbEntity
  8
0
100
AcDbLine
370
25
 62
7
  6
CONTINUOUS
 10
50.4101094711641
 20
-207.374567407669
 30
0
 11
47.9151691813511
 21
-219.112338616474
 31
0
  0
ARC
  5
28D
100
AcDbEntity
  8
0
100
AcDbCircle
370
25
 62
7
  6
CONTINUOUS
 10
48.8933167820841
 20
-219.320250307292
 30
0
 40
1.0000000000001
100
AcDbArc
 50
168.000000000005
 51
257.999999999992
  0
LINE
  5
28E
100
AcDbEntity
  8
0
100
AcDbLine
370
25
 62
7
  6
CONTINUOUS
 10
48.6854050912671
 20
-220.298397908026
 30
0
 11
60.4231763000721
 21
-222.793338197839
 31
0
  0
ARC
  5
28F
100
AcDbEntity
  8
0
100
AcDbCircle
370
25
 62
7
  6
CONTINUOUS
 10
60.63108799089
 20
-221.815190597105
 30
0
 40
0.999999999999913
100
AcDbArc
 50
257.999999999997
 51
348.000000000004
  0
LINE
  5
290
100
AcDbEntity
  8
0
100
AcDbLine
370
25
 62
7
  6
CONTINUOUS
 10
61.609235591624
 20
-222.023102287923
 30
0
 11
64.1041758814371
 21
-210.285331079117
 31
0
  0
ARC
  5
291
100
AcDbEntity
  8
0
100
AcDbCircle
370
25
 62
7
  6
CONTINUOUS
 10
63.1260282807031
 20
-210.077419388299
 30
0
 40
0.999999999999997
100
AcDbArc
 50
347.999999999998
 51
77.999999999997
  0
LINE
  5
292
100
AcDbEntity
  8
0
100
AcDbLine
370
25
 62
7
  6
CONTINUOUS
 10
63.3339399715211
 20
-209.099271787566
 30
0
 11
51.596168762715
 21
-206.604331497753
 31
0
  0
ARC
  5
293
100
AcDbEntity
  8
0
100
AcDbCircle
370
25
 62
7
  6
CONTINUOUS
 10
51.3882570718971
 20
-207.582479098486
 30
0
 40
0.999999999999917
100
AcDbArc
 50
78.0000000000027
 51
168.000000000005
  0
LINE
  5
294
100
AcDbEntity
  8
0
100
AcDbLine
370
25
 62
7
  6
CONTINUOUS
 10
147.814033799413
 20
-214.246048789196
 30
0
 11
150.308974089227
 21
-225.983819998001
 31
0
  0
ARC
  5
295
100
AcDbEntity
  8
0
100
AcDbCircle
370
25
 62
7
  6
CONTINUOUS
 10
151.287121689961
 20
-225.775908307184
 30
0
 40
0.999999999999985
100
AcDbArc
 50
192.000000000001
 51
281.999999999998
  0
LINE
  5
296
100
AcDbEntity
  8
0
100
AcDbLine
370
25
 62
7
  6
CONTINUOUS
 10
151.495033380778
 20
-226.754055907917
 30
0
 11
163.232804589584
 21
-224.259115618104
 31
0
  0
ARC
  5
297
100
AcDbEntity
  8
0
100
AcDbCircle
370
25
 62
7
  6
CONTINUOUS
 10
163.024892898766
 20
-223.28096801737
 30
0
 40
1.00000000000002
100
AcDbArc
 50
282.000000000003
 51
11.9999999999982
  0
LINE
  5
298
100
AcDbEntity
  8
0
100
AcDbLine
370
25
 62
7
  6
CONTINUOUS
 10
164.0030404995
 20
-223.073056326553
 30
0
 11
161.508100209687
 21
-211.335285117747
 31
0
  0
ARC
  5
299
100
AcDbEntity
  8
0
100
AcDbCircle
370
25
 62
7
  6
CONTINUOUS
 10
160.529952608953
 20
-211.543196808565
 30
0
 40
1.00000000000008
100
AcDbArc
 50
12.0000000000078
 51
102.000000000002
  0
LINE
  5
29A
100
AcDbEntity
  8
0
100
AcDbLine
370
25
 62
7
  6
CONTINUOUS
 10
160.322040918135
 20
-210.565049207831
 30
0
 11
148.58426970933
 21
-213.059989497644
 31
0
  0
ARC
  5
29B
100
AcDbEntity
  8
0
100
AcDbCircle
370
25
 62
7
  6
CONTINUOUS
 10
148.792181400147
 20
-214.038137098378
 30
0
 40
1.00000000000008
100
AcDbArc
 50
102.000000000002
 51
191.999999999996
  0
LINE
  5
29C
100
AcDbEntity
  8
0
100
AcDbLine
370
25
 62
7
  6
CONTINUOUS
 10
225.725960737415
 20
-204.738117137717
 30
0
 11
225.725960737415
 21
-216.738117137717
 31
0
  0
ARC
  5
29D
100
AcDbEntity
  8
0
100
AcDbCircle
370
25
 62
7
  6
CONTINUOUS
 10
226.725960737415
 20
-216.738117137717
 30
0
 40
1.00000000000011
100
AcDbArc
 50
180
 51
269.999999999994
  0
LINE
  5
29E
100
AcDbEntity
  8
0
100
AcDbLine
370
25
 62
7
  6
CONTINUOUS
 10
226.725960737415
 20
-217.738117137717
 30
0
 11
238.725960737415
 21
-217.738117137717
 31
0
  0
ARC
  5
29F
100
AcDbEntity
  8
0
100
AcDbCircle
370
25
 62
7
  6
CONTINUOUS
 10
238.725960737415
 20
-216.738117137717
 30
0
 40
1.00000000000003
100
AcDbArc
 50
270.000000000001
 51
0
  0
LINE
  5
2A0
100
AcDbEntity
  8
0
100
AcDbLine
370
25
 62
7
  6
CONTINUOUS
 10
239.725960737415
 20
-216.738117137717
 30
0
 11
239.725960737415
 21
-204.738117137717
 31
0
  0
ARC
  5
2A1
100
AcDbEntity
  8
0
100
AcDbCircle
370
25
 62
7
  6
CONTINUOUS
 10
238.725960737415
 20
-204.738117137717
 30
0
 40
1.00000000000006
100
AcDbArc
 50
6.51377598763728E-12
 51
90
  0
LINE
  5
2A2
100
AcDbEntity
  8
0
100
AcDbLine
370
25
 62
7
  6
CONTINUOUS
 10
238.725960737415
 20
-203.738117137717
 30
0
 11
226.725960737415
 21
-203.738117137717
 31
0
  0
ARC
  5
2A3
100
AcDbEntity
  8
0
100
AcDbCircle
370
25
 62
7
  6
CONTINUOUS
 10
226.725960737415
 20
-204.738117137717
 30
0
 40
1.00000000000011
100
AcDbArc
 50
90.0000000000065
 51
179.999999999993
  0
LINE
  5
2A4
100
AcDbEntity
  8
0
100
AcDbLine
370
25
 62
7
  6
CONTINUOUS
 10
62.990109471164
 20
-171.094567407669
 30
0
 11
60.4951691813501
 21
-182.832338616474
 31
0
  0
ARC
  5
2A5
100
AcDbEntity
  8
0
100
AcDbCircle
370
25
 62
7
  6
CONTINUOUS
 10
61.4733167820841
 20
-183.040250307292
 30
0
 40
1.00000000000003
100
AcDbArc
 50
168
 51
258.000000000005
  0
LINE
  5
2A6
100
AcDbEntity
  8
0
100
AcDbLine
370
25
 62
7
  6
CONTINUOUS
 10
61.2654050912671
 20
-184.018397908026
 30
0
 11
73.003176300072
 21
-186.513338197839
 31
0
  0
ARC
  5
2A7
100
AcDbEntity
  8
0
100
AcDbCircle
370
25
 62
7
  6
CONTINUOUS
 10
73.2110879908901
 20
-185.535190597105
 30
0
 40
0.999999999999985
100
AcDbArc
 50
258.000000000004
 51
348.000000000001
  0
LINE
  5
2A8
100
AcDbEntity
  8
0
100
AcDbLine
370
25
 62
7
  6
CONTINUOUS
 10
74.1892355916241
 20
-185.743102287923
 30
0
 11
76.6841758814371
 21
-174.005331079117
 31
0
  0
ARC
  5
2A9
100
AcDbEntity
  8
0
100
AcDbCircle
370
25
 62
7
  6
CONTINUOUS
 10
75.7060282807031
 20
-173.797419388299
 30
0
 40
0.999999999999997
100
AcDbArc
 50
347.999999999998
 51
78.0000000000034
  0
LINE
  5
2AA
100
AcDbEntity
  8
0
100
AcDbLine
370
25
 62
7
  6
CONTINUOUS
 10
75.9139399715211
 20
-172.819271787566
 30
0
 11
64.1761687627151
 21
-170.324331497752
 31
0
  0
ARC
  5
2AB
100
AcDbEntity
  8
0
100
AcDbCircle
370
25
 62
7
  6
CONTINUOUS
 10
63.968257071897
 20
-171.302479098486
 30
0
 40
0.999999999999997
100
AcDbArc
 50
77.999999999997
 51
168.000000000002
  0
LINE
  5
2AC
100
AcDbEntity
  8
0
100
AcDbLine
370
25
 62
7
  6
CONTINUOUS
 10
139.194033799414
 20
-196.596048789196
 30
0
 11
141.688974089227
 21
-208.333819998001
 31
0
  0
ARC
  5
2AD
100
AcDbEntity
  8
0
100
AcDbCircle
370
25
 62
7
  6
CONTINUOUS
 10
142.66712168996
 20
-208.125908307183
 30
0
 40
0.999999999999997
100
AcDbArc
 50
192.000000000004
 51
282.000000000004
  0
LINE
  5
2AE
100
AcDbEntity
  8
0
100
AcDbLine
370
25
 62
7
  6
CONTINUOUS
 10
142.875033380778
 20
-209.104055907917
 30
0
 11
154.612804589584
 21
-206.609115618104
 31
0
  0
ARC
  5
2AF
100
AcDbEntity
  8
0
100
AcDbCircle
370
25
 62
7
  6
CONTINUOUS
 10
154.404892898766
 20
-205.63096801737
 30
0
 40
1.00000000000021
100
AcDbArc
 50
282.000000000009
 51
11.9999999999971
  0
LINE
  5
2B0
100
AcDbEntity
  8
0
100
AcDbLine
370
25
 62
7
  6
CONTINUOUS
 10
155.3830404995
 20
-205.423056326553
 30
0
 11
152.888100209687
 21
-193.685285117747
 31
0
  0
ARC
  5
2B1
100
AcDbEntity
  8
0
100
AcDbCircle
370
25
 62
7
  6
CONTINUOUS
 10
151.909952608953
 20
-193.893196808565
 30
0
 40
1.00000000000012
100
AcDbArc
 50
12.0000000000048
 51
102.000000000002
  0
LINE
  5
2B2
100
AcDbEntity
  8
0
100
AcDbLine
370
25
 62
7
  6
CONTINUOUS
 10
151.702040918135
 20
-192.915049207831
 30
0
 11
139.96426970933
 21
-195.409989497644
 31
0
  0
ARC
  5
2B3
100
AcDbEntity
  8
0
100
AcDbCircle
370
25
 62
7
  6
CONTINUOUS
 10
140.172181400147
 20
-196.388137098378
 30
0
 40
1.00000000000011
100
AcDbArc
 50
102.000000000002
 51
191.999999999997
  0
LINE
  5
2B4
100
AcDbEntity
  8
0
100
AcDbLine
370
25
 62
7
  6
CONTINUOUS
 10
95.8384063874381
 20
-255.979019873444
 30
0
 11
93.3434660976251
 21
-267.71679108225
 31
0
  0
ARC
  5
2B5
100
AcDbEntity
  8
0
100
AcDbCircle
370
25
 62
7
  6
CONTINUOUS
 10
94.3216136983591
 20
-267.924702773067
 30
0
 40
1
100
AcDbArc
 50
168.000000000002
 51
258.000000000005
  0
LINE
  5
2B6
100
AcDbEntity
  8
0
100
AcDbLine
370
25
 62
7
  6
CONTINUOUS
 10
94.1137020075411
 20
-268.902850373801
 30
0
 11
108.179464506093
 21
-271.892620487761
 31
0
  0
ARC
  5
2B7
100
AcDbEntity
  8
0
100
AcDbCircle
370
25
 62
7
  6
CONTINUOUS
 10
108.387376196911
 20
-270.914472887027
 30
0
 40
0.999999999999979
100
AcDbArc
 50
257.999999999997
 51
348.000000000003
  0
LINE
  5
2B8
100
AcDbEntity
  8
0
100
AcDbLine
370
25
 62
7
  6
CONTINUOUS
 10
109.365523797645
 20
-271.122384577845
 30
0
 11
111.860464087458
 21
-259.384613369039
 31
0
  0
ARC
  5
2B9
100
AcDbEntity
  8
0
100
AcDbCircle
370
25
 62
7
  6
CONTINUOUS
 10
110.882316486724
 20
-259.176701678221
 30
0
 40
0.999999999999997
100
AcDbArc
 50
348.000000000001
 51
77.999999999997
  0
LINE
  5
2BA
100
AcDbEntity
  8
0
100
AcDbLine
370
25
 62
7
  6
CONTINUOUS
 10
111.090228177542
 20
-258.198554077487
 30
0
 11
97.0244656789901
 21
-255.208783963528
 31
0
  0
ARC
  5
2BB
100
AcDbEntity
  8
0
100
AcDbCircle
370
25
 62
7
  6
CONTINUOUS
 10
96.8165539881721
 20
-256.186931564262
 30
0
 40
1.00000000000011
100
AcDbArc
 50
78.0000000000044
 51
167.999999999997
  0
LINE
  5
2BC
100
AcDbEntity
  8
0
100
AcDbLine
370
25
 62
7
  6
CONTINUOUS
 10
264.311560737415
 20
-242.886117137717
 30
0
 11
264.311560737415
 21
-254.886117137717
 31
0
  0
ARC
  5
2BD
100
AcDbEntity
  8
0
100
AcDbCircle
370
25
 62
7
  6
CONTINUOUS
 10
265.311560737415
 20
-254.886117137717
 30
0
 40
1.00000000000011
100
AcDbArc
 50
180.000000000004
 51
269.999999999994
  0
LINE
  5
2BE
100
AcDbEntity
  8
0
100
AcDbLine
370
25
 62
7
  6
CONTINUOUS
 10
265.311560737415
 20
-255.886117137717
 30
0
 11
277.311560737415
 21
-255.886117137717
 31
0
  0
ARC
  5
2BF
100
AcDbEntity
  8
0
100
AcDbCircle
370
25
 62
7
  6
CONTINUOUS
 10
277.311560737415
 20
-254.886117137717
 30
0
 40
1.00000000000006
100
AcDbArc
 50
270.000000000001
 51
0
  0
LINE
  5
2C0
100
AcDbEntity
  8
0
100
AcDbLine
370
25
 62
7
  6
CONTINUOUS
 10
278.311560737415
 20
-254.886117137717
 30
0
 11
278.311560737415
 21
-242.886117137717
 31
0
  0
ARC
  5
2C1
100
AcDbEntity
  8
0
100
AcDbCircle
370
25
 62
7
  6
CONTINUOUS
 10
277.311560737415
 20
-242.886117137717
 30
0
 40
1.00000000000006
100
AcDbArc
 50
3.25688799381864E-12
 51
90
  0
LINE
  5
2C2
100
AcDbEntity
  8
0
100
AcDbLine
370
25
 62
7
  6
CONTINUOUS
 10
277.311560737415
 20
-241.886117137717
 30
0
 11
265.311560737415
 21
-241.886117137717
 31
0
  0
ARC
  5
2C3
100
AcDbEntity
  8
0
100
AcDbCircle
370
25
 62
7
  6
CONTINUOUS
 10
265.311560737415
 20
-242.886117137718
 30
0
 40
1.00000000000011
100
AcDbArc
 50
90.0000000000065
 51
179.999999999993
  0
LINE
  5
2C4
100
AcDbEntity
  8
0
100
AcDbLine
370
25
 62
7
  6
CONTINUOUS
 10
31.776397677185
 20
-203.41384969759
 30
0
 11
29.2814573873711
 21
-215.151620906396
 31
0
  0
ARC
  5
2C5
100
AcDbEntity
  8
0
100
AcDbCircle
370
25
 62
7
  6
CONTINUOUS
 10
30.259604988105
 20
-215.359532597214
 30
0
 40
1.00000000000011
100
AcDbArc
 50
168.000000000006
 51
257.999999999999
  0
LINE
  5
2C6
100
AcDbEntity
  8
0
100
AcDbLine
370
25
 62
7
  6
CONTINUOUS
 10
30.0516932972871
 20
-216.337680197948
 30
0
 11
41.7894645060931
 21
-218.832620487761
 31
0
  0
ARC
  5
2C7
100
AcDbEntity
  8
0
100
AcDbCircle
370
25
 62
7
  6
CONTINUOUS
 10
41.9973761969111
 20
-217.854472887027
 30
0
 40
0.999999999999973
100
AcDbArc
 50
257.999999999997
 51
348.000000000004
  0
LINE
  5
2C8
100
AcDbEntity
  8
0
100
AcDbLine
370
25
 62
7
  6
CONTINUOUS
 10
42.9755237976451
 20
-218.062384577845
 30
0
 11
45.470464087458
 21
-206.324613369039
 31
0
  0
ARC
  5
2C9
100
AcDbEntity
  8
0
100
AcDbCircle
370
25
 62
7
  6
CONTINUOUS
 10
44.4923164867241
 20
-206.116701678221
 30
0
 40
0.999999999999997
100
AcDbArc
 50
347.999999999998
 51
78.0000000000034
  0
LINE
  5
2CA
100
AcDbEntity
  8
0
100
AcDbLine
370
25
 62
7
  6
CONTINUOUS
 10
44.700228177542
 20
-205.138554077487
 30
0
 11
32.9624569687361
 21
-202.643613787674
 31
0
  0
ARC
  5
2CB
100
AcDbEntity
  8
0
100
AcDbCircle
370
25
 62
7
  6
CONTINUOUS
 10
32.754545277918
 20
-203.621761388408
 30
0
 40
0.999999999999997
100
AcDbArc
 50
78.0000000000034
 51
167.999999999997
  0
LINE
  5
2CC
100
AcDbEntity
  8
0
100
AcDbLine
370
25
 62
7
  6
CONTINUOUS
 10
161.087745593393
 20
-230.895331079117
 30
0
 11
163.582685883206
 21
-242.633102287923
 31
0
  0
ARC
  5
2CD
100
AcDbEntity
  8
0
100
AcDbCircle
370
25
 62
7
  6
CONTINUOUS
 10
164.560833483939
 20
-242.425190597105
 30
0
 40
1.00000000000002
100
AcDbArc
 50
192.000000000005
 51
282.000000000003
  0
LINE
  5
2CE
100
AcDbEntity
  8
0
100
AcDbLine
370
25
 62
7
  6
CONTINUOUS
 10
164.768745174757
 20
-243.403338197839
 30
0
 11
176.506516383563
 21
-240.908397908026
 31
0
  0
ARC
  5
2CF
100
AcDbEntity
  8
0
100
AcDbCircle
370
25
 62
7
  6
CONTINUOUS
 10
176.298604692745
 20
-239.930250307292
 30
0
 40
1.00000000000005
100
AcDbArc
 50
282.000000000003
 51
11.9999999999998
  0
LINE
  5
2D0
100
AcDbEntity
  8
0
100
AcDbLine
370
25
 62
7
  6
CONTINUOUS
 10
177.276752293479
 20
-239.722338616474
 30
0
 11
174.781812003666
 21
-227.984567407669
 31
0
  0
ARC
  5
2D1
100
AcDbEntity
  8
0
100
AcDbCircle
370
25
 62
7
  6
CONTINUOUS
 10
173.803664402932
 20
-228.192479098486
 30
0
 40
1.00000000000011
100
AcDbArc
 50
12.0000000000046
 51
101.999999999995
  0
LINE
  5
2D2
100
AcDbEntity
  8
0
100
AcDbLine
370
25
 62
7
  6
CONTINUOUS
 10
173.595752712114
 20
-227.214331497753
 30
0
 11
161.857981503308
 21
-229.709271787566
 31
0
  0
ARC
  5
2D3
100
AcDbEntity
  8
0
100
AcDbCircle
370
25
 62
7
  6
CONTINUOUS
 10
162.065893194126
 20
-230.687419388299
 30
0
 40
0.999999999999997
100
AcDbArc
 50
102.000000000003
 51
192.000000000004
  0
LINE
  5
2D4
100
AcDbEntity
  8
0
100
AcDbLine
370
25
 62
7
  6
CONTINUOUS
 10
144.554033799414
 20
-175.986048789196
 30
0
 11
147.048974089227
 21
-187.723819998001
 31
0
  0
ARC
  5
2D5
100
AcDbEntity
  8
0
100
AcDbCircle
370
25
 62
7
  6
CONTINUOUS
 10
148.02712168996
 20
-187.515908307183
 30
0
 40
1.00000000000011
100
AcDbArc
 50
192.000000000004
 51
282.000000000002
  0
LINE
  5
2D6
100
AcDbEntity
  8
0
100
AcDbLine
370
25
 62
7
  6
CONTINUOUS
 10
148.235033380778
 20
-188.494055907917
 30
0
 11
159.972804589584
 21
-185.999115618104
 31
0
  0
ARC
  5
2D7
100
AcDbEntity
  8
0
100
AcDbCircle
370
25
 62
7
  6
CONTINUOUS
 10
159.764892898766
 20
-185.02096801737
 30
0
 40
1.00000000000011
100
AcDbArc
 50
282.000000000002
 51
11.9999999999984
  0
LINE
  5
2D8
100
AcDbEntity
  8
0
100
AcDbLine
370
25
 62
7
  6
CONTINUOUS
 10
160.7430404995
 20
-184.813056326553
 30
0
 11
158.248100209687
 21
-173.075285117747
 31
0
  0
ARC
  5
2D9
100
AcDbEntity
  8
0
100
AcDbCircle
370
25
 62
7
  6
CONTINUOUS
 10
157.269952608953
 20
-173.283196808565
 30
0
 40
1.00000000000012
100
AcDbArc
 50
12.0000000000048
 51
101.999999999989
  0
LINE
  5
2DA
100
AcDbEntity
  8
0
100
AcDbLine
370
25
 62
7
  6
CONTINUOUS
 10
157.062040918135
 20
-172.305049207831
 30
0
 11
145.32426970933
 21
-174.799989497644
 31
0
  0
ARC
  5
2DB
100
AcDbEntity
  8
0
100
AcDbCircle
370
25
 62
7
  6
CONTINUOUS
 10
145.532181400147
 20
-175.778137098378
 30
0
 40
0.999999999999997
100
AcDbArc
 50
102.000000000003
 51
192.000000000001
  0
LINE
  5
2DC
100
AcDbEntity
  8
0
100
AcDbLine
370
25
 62
7
  6
CONTINUOUS
 10
220.365960737415
 20
-223.788117137717
 30
0
 11
220.365960737415
 21
-235.788117137717
 31
0
  0
ARC
  5
2DD
100
AcDbEntity
  8
0
100
AcDbCircle
370
25
 62
7
  6
CONTINUOUS
 10
221.365960737415
 20
-235.788117137717
 30
0
 40
1.00000000000011
100
AcDbArc
 50
180.000000000006
 51
270.000000000001
  0
LINE
  5
2DE
100
AcDbEntity
  8
0
100
AcDbLine
370
25
 62
7
  6
CONTINUOUS
 10
221.365960737415
 20
-236.788117137717
 30
0
 11
233.365960737415
 21
-236.788117137717
 31
0
  0
ARC
  5
2DF
100
AcDbEntity
  8
0
100
AcDbCircle
370
25
 62
7
  6
CONTINUOUS
 10
233.365960737415
 20
-235.788117137717
 30
0
 40
0.999999999999943
100
AcDbArc
 50
270.000000000001
 51
0
  0
LINE
  5
2E0
100
AcDbEntity
  8
0
100
AcDbLine
370
25
 62
7
  6
CONTINUOUS
 10
234.365960737415
 20
-235.788117137717
 30
0
 11
234.365960737415
 21
-223.788117137717
 31
0
  0
ARC
  5
2E1
100
AcDbEntity
  8
0
100
AcDbCircle
370
25
 62
7
  6
CONTINUOUS
 10
233.365960737415
 20
-223.788117137717
 30
0
 40
0.999999999999943
100
AcDbArc
 50
359.999999999998
 51
90
  0
LINE
  5
2E2
100
AcDbEntity
  8
0
100
AcDbLine
370
25
 62
7
  6
CONTINUOUS
 10
233.365960737415
 20
-222.788117137717
 30
0
 11
221.365960737415
 21
-222.788117137717
 31
0
  0
ARC
  5
2E3
100
AcDbEntity
  8
0
100
AcDbCircle
370
25
 62
7
  6
CONTINUOUS
 10
221.365960737415
 20
-223.788117137717
 30
0
 40
1.00000000000011
100
AcDbArc
 50
90
 51
179.999999999997
  0
LINE
  5
2E4
100
AcDbEntity
  8
0
100
AcDbLine
370
25
 62
7
  6
CONTINUOUS
 10
32.316397677185
 20
-244.01384969759
 30
0
 11
29.8214573873721
 21
-255.751620906396
 31
0
  0
ARC
  5
2E5
100
AcDbEntity
  8
0
100
AcDbCircle
370
25
 62
7
  6
CONTINUOUS
 10
30.7996049881051
 20
-255.959532597214
 30
0
 40
1.00000000000008
100
AcDbArc
 50
168.000000000005
 51
257.999999999999
  0
LINE
  5
2E6
100
AcDbEntity
  8
0
100
AcDbLine
370
25
 62
7
  6
CONTINUOUS
 10
30.5916932972881
 20
-256.937680197948
 30
0
 11
42.3294645060931
 21
-259.432620487761
 31
0
  0
ARC
  5
2E7
100
AcDbEntity
  8
0
100
AcDbCircle
370
25
 62
7
  6
CONTINUOUS
 10
42.5373761969111
 20
-258.454472887027
 30
0
 40
0.999999999999973
100
AcDbArc
 50
257.999999999997
 51
348.000000000004
  0
LINE
  5
2E8
100
AcDbEntity
  8
0
100
AcDbLine
370
25
 62
7
  6
CONTINUOUS
 10
43.5155237976451
 20
-258.662384577845
 30
0
 11
46.0104640874581
 21
-246.924613369039
 31
0
  0
ARC
  5
2E9
100
AcDbEntity
  8
0
100
AcDbCircle
370
25
 62
7
  6
CONTINUOUS
 10
45.0323164867241
 20
-246.716701678221
 30
0
 40
0.999999999999997
100
AcDbArc
 50
347.999999999998
 51
78.0000000000027
  0
LINE
  5
2EA
100
AcDbEntity
  8
0
100
AcDbLine
370
25
 62
7
  6
CONTINUOUS
 10
45.2402281775421
 20
-245.738554077487
 30
0
 11
33.502456968736
 21
-243.243613787674
 31
0
  0
ARC
  5
2EB
100
AcDbEntity
  8
0
100
AcDbCircle
370
25
 62
7
  6
CONTINUOUS
 10
33.294545277918
 20
-244.221761388408
 30
0
 40
0.999999999999909
100
AcDbArc
 50
77.9999999999893
 51
168.000000000004
  0
LINE
  5
2EC
100
AcDbEntity
  8
0
100
AcDbLine
370
25
 62
7
  6
CONTINUOUS
 10
37.1263976771851
 20
-224.02384969759
 30
0
 11
34.631457387372
 21
-235.761620906396
 31
0
  0
ARC
  5
2ED
100
AcDbEntity
  8
0
100
AcDbCircle
370
25
 62
7
  6
CONTINUOUS
 10
35.609604988105
 20
-235.969532597214
 30
0
 40
1.00000000000013
100
AcDbArc
 50
168.000000000006
 51
257.999999999993
  0
LINE
  5
2EE
100
AcDbEntity
  8
0
100
AcDbLine
370
25
 62
7
  6
CONTINUOUS
 10
35.401693297288
 20
-236.947680197948
 30
0
 11
47.1394645060931
 21
-239.442620487761
 31
0
  0
ARC
  5
2EF
100
AcDbEntity
  8
0
100
AcDbCircle
370
25
 62
7
  6
CONTINUOUS
 10
47.3473761969111
 20
-238.464472887027
 30
0
 40
0.999999999999997
100
AcDbArc
 50
257.999999999998
 51
348
  0
LINE
  5
2F0
100
AcDbEntity
  8
0
100
AcDbLine
370
25
 62
7
  6
CONTINUOUS
 10
48.325523797645
 20
-238.672384577845
 30
0
 11
50.820464087458
 21
-226.934613369039
 31
0
  0
ARC
  5
2F1
100
AcDbEntity
  8
0
100
AcDbCircle
370
25
 62
7
  6
CONTINUOUS
 10
49.842316486724
 20
-226.726701678221
 30
0
 40
0.999999999999991
100
AcDbArc
 50
347.999999999999
 51
77.9999999999963
  0
LINE
  5
2F2
100
AcDbEntity
  8
0
100
AcDbLine
370
25
 62
7
  6
CONTINUOUS
 10
50.0502281775421
 20
-225.748554077487
 30
0
 11
38.3124569687361
 21
-223.253613787674
 31
0
  0
ARC
  5
2F3
100
AcDbEntity
  8
0
100
AcDbCircle
370
25
 62
7
  6
CONTINUOUS
 10
38.1045452779181
 20
-224.231761388408
 30
0
 40
0.999999999999979
100
AcDbArc
 50
78.0000000000091
 51
168.000000000002
  0
LINE
  5
2F4
100
AcDbEntity
  8
0
100
AcDbLine
370
25
 62
7
  6
CONTINUOUS
 10
166.447745593393
 20
-210.285331079117
 30
0
 11
168.942685883206
 21
-222.023102287923
 31
0
  0
ARC
  5
2F5
100
AcDbEntity
  8
0
100
AcDbCircle
370
25
 62
7
  6
CONTINUOUS
 10
169.920833483939
 20
-221.815190597105
 30
0
 40
0.999999999999997
100
AcDbArc
 50
191.999999999999
 51
282.000000000004
  0
LINE
  5
2F6
100
AcDbEntity
  8
0
100
AcDbLine
370
25
 62
7
  6
CONTINUOUS
 10
170.128745174757
 20
-222.793338197839
 30
0
 11
181.866516383563
 21
-220.298397908026
 31
0
  0
ARC
  5
2F7
100
AcDbEntity
  8
0
100
AcDbCircle
370
25
 62
7
  6
CONTINUOUS
 10
181.658604692745
 20
-219.320250307292
 30
0
 40
1.00000000000005
100
AcDbArc
 50
282.000000000003
 51
11.9999999999982
  0
LINE
  5
2F8
100
AcDbEntity
  8
0
100
AcDbLine
370
25
 62
7
  6
CONTINUOUS
 10
182.636752293479
 20
-219.112338616474
 30
0
 11
180.141812003666
 21
-207.374567407669
 31
0
  0
ARC
  5
2F9
100
AcDbEntity
  8
0
100
AcDbCircle
370
25
 62
7
  6
CONTINUOUS
 10
179.163664402932
 20
-207.582479098486
 30
0
 40
1.00000000000011
100
AcDbArc
 50
12.0000000000062
 51
102.000000000002
  0
LINE
  5
2FA
100
AcDbEntity
  8
0
100
AcDbLine
370
25
 62
7
  6
CONTINUOUS
 10
178.955752712114
 20
-206.604331497753
 30
0
 11
167.217981503309
 21
-209.099271787566
 31
0
  0
ARC
  5
2FB
100
AcDbEntity
  8
0
100
AcDbCircle
370
25
 62
7
  6
CONTINUOUS
 10
167.425893194126
 20
-210.0774193883
 30
0
 40
1.0000000000001
100
AcDbArc
 50
102.000000000002
 51
191.999999999999
  0
LINE
  5
2FC
100
AcDbEntity
  8
0
100
AcDbLine
370
25
 62
7
  6
CONTINUOUS
 10
-38.2540392625849
 20
-164.498117137717
 30
0
 11
-38.2540392625849
 21
-176.498117137717
 31
0
  0
ARC
  5
2FD
100
AcDbEntity
  8
0
100
AcDbCircle
370
25
 62
7
  6
CONTINUOUS
 10
-37.2540392625849
 20
-176.498117137717
 30
0
 40
1
100
AcDbArc
 50
180
 51
270.000000000001
  0
LINE
  5
2FE
100
AcDbEntity
  8
0
100
AcDbLine
370
25
 62
7
  6
CONTINUOUS
 10
-37.2540392625849
 20
-177.498117137717
 30
0
 11
-25.2540392625849
 21
-177.498117137717
 31
0
  0
LINE
  5
300
100
AcDbEntity
  8
0
100
AcDbLine
370
25
 62
7
  6
CONTINUOUS
 10
-24.2540392625849
 20
-176.498117137717
 30
0
 11
-24.2540392625849
 21
-164.498117137717
 31
0
  0
ARC
  5
301
100
AcDbEntity
  8
0
100
AcDbCircle
370
25
 62
7
  6
CONTINUOUS
 10
-25.2540392625849
 20
-164.498117137717
 30
0
 40
1
100
AcDbArc
 50
0
 51
90
  0
LINE
  5
302
100
AcDbEntity
  8
0
100
AcDbLine
370
25
 62
7
  6
CONTINUOUS
 10
-25.2540392625849
 20
-163.498117137717
 30
0
 11
-37.2540392625849
 21
-163.498117137717
 31
0
  0
ARC
  5
303
100
AcDbEntity
  8
0
100
AcDbCircle
370
25
 62
7
  6
CONTINUOUS
 10
-37.2540392625849
 20
-164.498117137717
 30
0
 40
1
100
AcDbArc
 50
90
 51
180
  0
LINE
  5
304
100
AcDbEntity
  8
0
100
AcDbLine
370
25
 62
7
  6
CONTINUOUS
 10
-22.8640392625849
 20
-242.838117137717
 30
0
 11
-22.8640392625849
 21
-254.838117137717
 31
0
  0
ARC
  5
305
100
AcDbEntity
  8
0
100
AcDbCircle
370
25
 62
7
  6
CONTINUOUS
 10
-21.8640392625849
 20
-254.838117137717
 30
0
 40
1.00000000000006
100
AcDbArc
 50
180.000000000004
 51
270.000000000001
  0
LINE
  5
306
100
AcDbEntity
  8
0
100
AcDbLine
370
25
 62
7
  6
CONTINUOUS
 10
-21.8640392625849
 20
-255.838117137717
 30
0
 11
-9.86403926258495
 21
-255.838117137717
 31
0
  0
ARC
  5
307
100
AcDbEntity
  8
0
100
AcDbCircle
370
25
 62
7
  6
CONTINUOUS
 10
-9.86403926258495
 20
-254.838117137717
 30
0
 40
1.00000000000006
100
AcDbArc
 50
270.000000000001
 51
0
  0
LINE
  5
308
100
AcDbEntity
  8
0
100
AcDbLine
370
25
 62
7
  6
CONTINUOUS
 10
-8.86403926258495
 20
-254.838117137717
 30
0
 11
-8.86403926258495
 21
-242.838117137717
 31
0
  0
ARC
  5
309
100
AcDbEntity
  8
0
100
AcDbCircle
370
25
 62
7
  6
CONTINUOUS
 10
-9.86403926258495
 20
-242.838117137717
 30
0
 40
1
100
AcDbArc
 50
0
 51
90
  0
LINE
  5
30A
100
AcDbEntity
  8
0
100
AcDbLine
370
25
 62
7
  6
CONTINUOUS
 10
-9.86403926258495
 20
-241.838117137717
 30
0
 11
-21.8640392625849
 21
-241.838117137717
 31
0
  0
ARC
  5
30B
100
AcDbEntity
  8
0
100
AcDbCircle
370
25
 62
7
  6
CONTINUOUS
 10
-21.8640392625849
 20
-242.838117137717
 30
0
 40
1
100
AcDbArc
 50
90
 51
180
  0
LINE
  5
30C
100
AcDbEntity
  8
0
100
AcDbLine
370
25
 62
7
  6
CONTINUOUS
 10
31.0763976771851
 20
-183.78384969759
 30
0
 11
28.5814573873711
 21
-195.521620906396
 31
0
  0
ARC
  5
30D
100
AcDbEntity
  8
0
100
AcDbCircle
370
25
 62
7
  6
CONTINUOUS
 10
29.5596049881051
 20
-195.729532597214
 30
0
 40
0.999999999999997
100
AcDbArc
 50
167.999999999997
 51
257.999999999998
  0
LINE
  5
30E
100
AcDbEntity
  8
0
100
AcDbLine
370
25
 62
7
  6
CONTINUOUS
 10
29.351693297287
 20
-196.707680197948
 30
0
 11
41.0894645060931
 21
-199.202620487761
 31
0
  0
ARC
  5
30F
100
AcDbEntity
  8
0
100
AcDbCircle
370
25
 62
7
  6
CONTINUOUS
 10
41.297376196911
 20
-198.224472887027
 30
0
 40
0.999999999999973
100
AcDbArc
 50
258.000000000003
 51
348.000000000004
  0
LINE
  5
310
100
AcDbEntity
  8
0
100
AcDbLine
370
25
 62
7
  6
CONTINUOUS
 10
42.2755237976451
 20
-198.432384577845
 30
0
 11
44.7704640874581
 21
-186.694613369039
 31
0
  0
ARC
  5
311
100
AcDbEntity
  8
0
100
AcDbCircle
370
25
 62
7
  6
CONTINUOUS
 10
43.7923164867241
 20
-186.486701678221
 30
0
 40
0.999999999999917
100
AcDbArc
 50
347.999999999993
 51
78.0000000000027
  0
LINE
  5
312
100
AcDbEntity
  8
0
100
AcDbLine
370
25
 62
7
  6
CONTINUOUS
 10
44.0002281775421
 20
-185.508554077487
 30
0
 11
32.262456968736
 21
-183.013613787674
 31
0
  0
ARC
  5
313
100
AcDbEntity
  8
0
100
AcDbCircle
370
25
 62
7
  6
CONTINUOUS
 10
32.0545452779181
 20
-183.991761388408
 30
0
 40
0.999999999999997
100
AcDbArc
 50
77.999999999997
 51
168
  0
LINE
  5
314
100
AcDbEntity
  8
0
100
AcDbLine
370
25
 62
7
  6
CONTINUOUS
 10
157.827745593393
 20
-192.635331079117
 30
0
 11
160.322685883206
 21
-204.373102287923
 31
0
  0
ARC
  5
315
100
AcDbEntity
  8
0
100
AcDbCircle
370
25
 62
7
  6
CONTINUOUS
 10
161.300833483939
 20
-204.165190597105
 30
0
 40
1.00000000000005
100
AcDbArc
 50
192.000000000004
 51
282.000000000003
  0
LINE
  5
316
100
AcDbEntity
  8
0
100
AcDbLine
370
25
 62
7
  6
CONTINUOUS
 10
161.508745174757
 20
-205.143338197839
 30
0
 11
173.246516383563
 21
-202.648397908026
 31
0
  0
ARC
  5
317
100
AcDbEntity
  8
0
100
AcDbCircle
370
25
 62
7
  6
CONTINUOUS
 10
173.038604692745
 20
-201.670250307292
 30
0
 40
1.00000000000011
100
AcDbArc
 50
282.000000000002
 51
11.9999999999952
  0
LINE
  5
318
100
AcDbEntity
  8
0
100
AcDbLine
370
25
 62
7
  6
CONTINUOUS
 10
174.016752293479
 20
-201.462338616474
 30
0
 11
171.521812003666
 21
-189.724567407669
 31
0
  0
ARC
  5
319
100
AcDbEntity
  8
0
100
AcDbCircle
370
25
 62
7
  6
CONTINUOUS
 10
170.543664402932
 20
-189.932479098486
 30
0
 40
1.00000000000011
100
AcDbArc
 50
12.0000000000016
 51
102.000000000002
  0
LINE
  5
31A
100
AcDbEntity
  8
0
100
AcDbLine
370
25
 62
7
  6
CONTINUOUS
 10
170.335752712114
 20
-188.954331497753
 30
0
 11
158.597981503308
 21
-191.449271787566
 31
0
  0
ARC
  5
31B
100
AcDbEntity
  8
0
100
AcDbCircle
370
25
 62
7
  6
CONTINUOUS
 10
158.805893194126
 20
-192.4274193883
 30
0
 40
1.00000000000008
100
AcDbArc
 50
102.000000000009
 51
191.999999999996
  0
LINE
  5
31C
100
AcDbEntity
  8
0
100
AcDbLine
370
25
 62
7
  6
CONTINUOUS
 10
-42.4140392625849
 20
-183.548117137717
 30
0
 11
-42.4140392625849
 21
-195.548117137717
 31
0
  0
ARC
  5
31D
100
AcDbEntity
  8
0
100
AcDbCircle
370
25
 62
7
  6
CONTINUOUS
 10
-41.4140392625849
 20
-195.548117137717
 30
0
 40
1.00000000000011
100
AcDbArc
 50
180
 51
270.000000000001
  0
LINE
  5
31E
100
AcDbEntity
  8
0
100
AcDbLine
370
25
 62
7
  6
CONTINUOUS
 10
-41.4140392625849
 20
-196.548117137717
 30
0
 11
-29.4140392625849
 21
-196.548117137717
 31
0
  0
ARC
  5
31F
100
AcDbEntity
  8
0
100
AcDbCircle
370
25
 62
7
  6
CONTINUOUS
 10
-29.4140392625849
 20
-195.548117137717
 30
0
 40
1
100
AcDbArc
 50
270.000000000001
 51
0
  0
LINE
  5
320
100
AcDbEntity
  8
0
100
AcDbLine
370
25
 62
7
  6
CONTINUOUS
 10
-28.4140392625849
 20
-195.548117137717
 30
0
 11
-28.4140392625849
 21
-183.548117137717
 31
0
  0
LINE
  5
322
100
AcDbEntity
  8
0
100
AcDbLine
370
25
 62
7
  6
CONTINUOUS
 10
-29.4140392625849
 20
-182.548117137717
 30
0
 11
-41.4140392625849
 21
-182.548117137717
 31
0
  0
ARC
  5
323
100
AcDbEntity
  8
0
100
AcDbCircle
370
25
 62
7
  6
CONTINUOUS
 10
-41.4140392625849
 20
-183.548117137717
 30
0
 40
1.00000000000011
100
AcDbArc
 50
90
 51
180
  0
LINE
  5
324
100
AcDbEntity
  8
0
100
AcDbLine
370
25
 62
7
  6
CONTINUOUS
 10
44.3563976771851
 20
-167.13384969759
 30
0
 11
41.861457387371
 21
-178.871620906396
 31
0
  0
ARC
  5
325
100
AcDbEntity
  8
0
100
AcDbCircle
370
25
 62
7
  6
CONTINUOUS
 10
42.8396049881051
 20
-179.079532597214
 30
0
 40
1.00000000000003
100
AcDbArc
 50
168.000000000003
 51
258.000000000005
  0
LINE
  5
326
100
AcDbEntity
  8
0
100
AcDbLine
370
25
 62
7
  6
CONTINUOUS
 10
42.6316932972881
 20
-180.057680197948
 30
0
 11
54.3694645060931
 21
-182.552620487761
 31
0
  0
ARC
  5
327
100
AcDbEntity
  8
0
100
AcDbCircle
370
25
 62
7
  6
CONTINUOUS
 10
54.5773761969111
 20
-181.574472887027
 30
0
 40
0.999999999999997
100
AcDbArc
 50
257.999999999998
 51
348.000000000003
  0
LINE
  5
328
100
AcDbEntity
  8
0
100
AcDbLine
370
25
 62
7
  6
CONTINUOUS
 10
55.555523797645
 20
-181.782384577845
 30
0
 11
58.0504640874581
 21
-170.044613369039
 31
0
  0
ARC
  5
329
100
AcDbEntity
  8
0
100
AcDbCircle
370
25
 62
7
  6
CONTINUOUS
 10
57.072316486724
 20
-169.836701678221
 30
0
 40
0.999999999999897
100
AcDbArc
 50
347.999999999993
 51
78.000000000002
  0
LINE
  5
32A
100
AcDbEntity
  8
0
100
AcDbLine
370
25
 62
7
  6
CONTINUOUS
 10
57.2802281775421
 20
-168.858554077487
 30
0
 11
45.542456968736
 21
-166.363613787674
 31
0
  0
ARC
  5
32B
100
AcDbEntity
  8
0
100
AcDbCircle
370
25
 62
7
  6
CONTINUOUS
 10
45.3345452779181
 20
-167.341761388408
 30
0
 40
0.999999999999973
100
AcDbArc
 50
77.9999999999963
 51
168.000000000003
  0
LINE
  5
32C
100
AcDbEntity
  8
0
100
AcDbLine
370
25
 62
7
  6
CONTINUOUS
 10
163.187745593392
 20
-172.025331079117
 30
0
 11
165.682685883206
 21
-183.763102287923
 31
0
  0
ARC
  5
32D
100
AcDbEntity
  8
0
100
AcDbCircle
370
25
 62
7
  6
CONTINUOUS
 10
166.660833483939
 20
-183.555190597105
 30
0
 40
1.0000000000001
100
AcDbArc
 50
191.999999999999
 51
282.000000000003
  0
LINE
  5
32E
100
AcDbEntity
  8
0
100
AcDbLine
370
25
 62
7
  6
CONTINUOUS
 10
166.868745174757
 20
-184.533338197839
 30
0
 11
178.606516383563
 21
-182.038397908026
 31
0
  0
ARC
  5
32F
100
AcDbEntity
  8
0
100
AcDbCircle
370
25
 62
7
  6
CONTINUOUS
 10
178.398604692745
 20
-181.060250307292
 30
0
 40
1.0000000000002
100
AcDbArc
 50
282.000000000002
 51
11.9999999999939
  0
LINE
  5
330
100
AcDbEntity
  8
0
100
AcDbLine
370
25
 62
7
  6
CONTINUOUS
 10
179.376752293479
 20
-180.852338616474
 30
0
 11
176.881812003666
 21
-169.114567407669
 31
0
  0
ARC
  5
331
100
AcDbEntity
  8
0
100
AcDbCircle
370
25
 62
7
  6
CONTINUOUS
 10
175.903664402932
 20
-169.322479098487
 30
0
 40
1.00000000000024
100
AcDbArc
 50
12.0000000000066
 51
102
  0
LINE
  5
332
100
AcDbEntity
  8
0
100
AcDbLine
370
25
 62
7
  6
CONTINUOUS
 10
175.695752712114
 20
-168.344331497753
 30
0
 11
163.957981503309
 21
-170.839271787566
 31
0
  0
ARC
  5
333
100
AcDbEntity
  8
0
100
AcDbCircle
370
25
 62
7
  6
CONTINUOUS
 10
164.165893194126
 20
-171.8174193883
 30
0
 40
1.00000000000008
100
AcDbArc
 50
102.000000000002
 51
191.999999999996
  0
LINE
  5
334
100
AcDbEntity
  8
0
100
AcDbLine
370
25
 62
7
  6
CONTINUOUS
 10
-45.484039262585
 20
-215.598117137717
 30
0
 11
-33.484039262585
 21
-215.598117137717
 31
0
  0
ARC
  5
335
100
AcDbEntity
  8
0
100
AcDbCircle
370
25
 62
7
  6
CONTINUOUS
 10
-33.484039262585
 20
-214.598117137717
 30
0
 40
1.00000000000006
100
AcDbArc
 50
270.000000000007
 51
0
  0
LINE
  5
336
100
AcDbEntity
  8
0
100
AcDbLine
370
25
 62
7
  6
CONTINUOUS
 10
-32.484039262585
 20
-214.598117137717
 30
0
 11
-32.484039262585
 21
-202.598117137717
 31
0
  0
ARC
  5
337
100
AcDbEntity
  8
0
100
AcDbCircle
370
25
 62
7
  6
CONTINUOUS
 10
-33.484039262585
 20
-202.598117137717
 30
0
 40
1
100
AcDbArc
 50
0
 51
89.9999999999935
  0
LINE
  5
338
100
AcDbEntity
  8
0
100
AcDbLine
370
25
 62
7
  6
CONTINUOUS
 10
-33.484039262585
 20
-201.598117137717
 30
0
 11
-45.484039262585
 21
-201.598117137717
 31
0
  0
ARC
  5
339
100
AcDbEntity
  8
0
100
AcDbCircle
370
25
 62
7
  6
CONTINUOUS
 10
-45.484039262585
 20
-202.598117137717
 30
0
 40
1.00000000000011
100
AcDbArc
 50
90
 51
180.000000000004
  0
LINE
  5
33A
100
AcDbEntity
  8
0
100
AcDbLine
370
25
 62
7
  6
CONTINUOUS
 10
-46.484039262585
 20
-202.598117137717
 30
0
 11
-46.484039262585
 21
-214.598117137717
 31
0
  0
ARC
  5
33B
100
AcDbEntity
  8
0
100
AcDbCircle
370
25
 62
7
  6
CONTINUOUS
 10
-45.484039262585
 20
-214.598117137717
 30
0
 40
1.00000000000011
100
AcDbArc
 50
180.000000000004
 51
270.000000000001
  0
ARC
  5
33C
100
AcDbEntity
  8
0
100
AcDbCircle
370
25
 62
7
  6
CONTINUOUS
 10
-3.08403926258497
 20
-216.738117137717
 30
0
 40
1.00000000000011
100
AcDbArc
 50
270.000000000007
 51
0
  0
LINE
  5
33D
100
AcDbEntity
  8
0
100
AcDbLine
370
25
 62
7
  6
CONTINUOUS
 10
-2.08403926258497
 20
-216.738117137717
 30
0
 11
-2.08403926258497
 21
-204.738117137717
 31
0
  0
ARC
  5
33E
100
AcDbEntity
  8
0
100
AcDbCircle
370
25
 62
7
  6
CONTINUOUS
 10
-3.08403926258497
 20
-204.738117137717
 30
0
 40
1.00000000000011
100
AcDbArc
 50
3.25688799381827E-12
 51
89.9999999999935
  0
ARC
  5
33F
100
AcDbEntity
  8
0
100
AcDbCircle
370
25
 62
7
  6
CONTINUOUS
 10
-20.084039262585
 20
-204.738117137717
 30
0
 40
1.00000000000006
100
AcDbArc
 50
90
 51
179.999999999993
  0
LINE
  5
340
100
AcDbEntity
  8
0
100
AcDbLine
370
25
 62
7
  6
CONTINUOUS
 10
-21.084039262585
 20
-204.738117137717
 30
0
 11
-21.084039262585
 21
-216.738117137717
 31
0
  0
ARC
  5
341
100
AcDbEntity
  8
0
100
AcDbCircle
370
25
 62
7
  6
CONTINUOUS
 10
-20.084039262585
 20
-216.738117137717
 30
0
 40
1.00000000000003
100
AcDbArc
 50
180
 51
270.000000000001
  0
LINE
  5
342
100
AcDbEntity
  8
0
100
AcDbLine
370
25
 62
7
  6
CONTINUOUS
 10
-14.6340392625849
 20
-185.688117137717
 30
0
 11
-14.6340392625849
 21
-197.688117137717
 31
0
  0
ARC
  5
343
100
AcDbEntity
  8
0
100
AcDbCircle
370
25
 62
7
  6
CONTINUOUS
 10
-13.6340392625849
 20
-197.688117137717
 30
0
 40
1
100
AcDbArc
 50
179.999999999997
 51
270.000000000001
  0
LINE
  5
344
100
AcDbEntity
  8
0
100
AcDbLine
370
25
 62
7
  6
CONTINUOUS
 10
-13.6340392625849
 20
-198.688117137717
 30
0
 11
-1.63403926258493
 21
-198.688117137717
 31
0
  0
ARC
  5
345
100
AcDbEntity
  8
0
100
AcDbCircle
370
25
 62
7
  6
CONTINUOUS
 10
-1.63403926258493
 20
-197.688117137717
 30
0
 40
1
100
AcDbArc
 50
270.000000000001
 51
0
  0
LINE
  5
346
100
AcDbEntity
  8
0
100
AcDbLine
370
25
 62
7
  6
CONTINUOUS
 10
-0.634039262584928
 20
-197.688117137717
 30
0
 11
-0.634039262584928
 21
-185.688117137717
 31
0
  0
ARC
  5
347
100
AcDbEntity
  8
0
100
AcDbCircle
370
25
 62
7
  6
CONTINUOUS
 10
-1.63403926258493
 20
-185.688117137717
 30
0
 40
1
100
AcDbArc
 50
0
 51
90
  0
LINE
  5
348
100
AcDbEntity
  8
0
100
AcDbLine
370
25
 62
7
  6
CONTINUOUS
 10
-1.63403926258493
 20
-184.688117137717
 30
0
 11
-13.6340392625849
 21
-184.688117137717
 31
0
  0
ARC
  5
349
100
AcDbEntity
  8
0
100
AcDbCircle
370
25
 62
7
  6
CONTINUOUS
 10
-13.6340392625849
 20
-185.688117137717
 30
0
 40
1.00000000000006
100
AcDbArc
 50
90
 51
180
  0
LINE
  5
34A
100
AcDbEntity
  8
0
100
AcDbLine
370
25
 62
7
  6
CONTINUOUS
 10
9.87596073741507
 20
-204.738117137717
 30
0
 11
9.87596073741507
 21
-216.738117137717
 31
0
  0
ARC
  5
34B
100
AcDbEntity
  8
0
100
AcDbCircle
370
25
 62
7
  6
CONTINUOUS
 10
10.8759607374151
 20
-216.738117137717
 30
0
 40
1.00000000000003
100
AcDbArc
 50
180
 51
270.000000000001
  0
LINE
  5
34C
100
AcDbEntity
  8
0
100
AcDbLine
370
25
 62
7
  6
CONTINUOUS
 10
10.8759607374151
 20
-217.738117137717
 30
0
 11
22.8759607374151
 21
-217.738117137717
 31
0
  0
ARC
  5
34D
100
AcDbEntity
  8
0
100
AcDbCircle
370
25
 62
7
  6
CONTINUOUS
 10
22.8759607374151
 20
-216.738117137717
 30
0
 40
1.00000000000003
100
AcDbArc
 50
270.000000000001
 51
0
  0
LINE
  5
34E
100
AcDbEntity
  8
0
100
AcDbLine
370
25
 62
7
  6
CONTINUOUS
 10
23.8759607374151
 20
-216.738117137717
 30
0
 11
23.8759607374151
 21
-204.738117137717
 31
0
  0
ARC
  5
34F
100
AcDbEntity
  8
0
100
AcDbCircle
370
25
 62
7
  6
CONTINUOUS
 10
22.8759607374151
 20
-204.738117137717
 30
0
 40
1
100
AcDbArc
 50
0
 51
90
  0
ARC
  5
350
100
AcDbEntity
  8
0
100
AcDbCircle
370
25
 62
7
  6
CONTINUOUS
 10
10.8759607374151
 20
-204.738117137717
 30
0
 40
1
100
AcDbArc
 50
90
 51
179.999999999997
  0
LINE
  5
351
100
AcDbEntity
  8
0
100
AcDbLine
370
25
 62
7
  6
CONTINUOUS
 10
183.402456968736
 20
-239.442620487761
 30
0
 11
195.140228177542
 21
-236.947680197948
 31
0
  0
ARC
  5
352
100
AcDbEntity
  8
0
100
AcDbCircle
370
25
 62
7
  6
CONTINUOUS
 10
194.932316486724
 20
-235.969532597214
 30
0
 40
1.00000000000003
100
AcDbArc
 50
281.999999999997
 51
12.0000000000011
  0
LINE
  5
353
100
AcDbEntity
  8
0
100
AcDbLine
370
25
 62
7
  6
CONTINUOUS
 10
195.910464087458
 20
-235.761620906396
 30
0
 11
193.415523797645
 21
-224.02384969759
 31
0
  0
ARC
  5
354
100
AcDbEntity
  8
0
100
AcDbCircle
370
25
 62
7
  6
CONTINUOUS
 10
192.437376196911
 20
-224.231761388408
 30
0
 40
0.999999999999991
100
AcDbArc
 50
12.0000000000014
 51
101.999999999997
  0
LINE
  5
355
100
AcDbEntity
  8
0
100
AcDbLine
370
25
 62
7
  6
CONTINUOUS
 10
192.229464506093
 20
-223.253613787674
 30
0
 11
180.491693297288
 21
-225.748554077487
 31
0
  0
ARC
  5
356
100
AcDbEntity
  8
0
100
AcDbCircle
370
25
 62
7
  6
CONTINUOUS
 10
180.699604988105
 20
-226.726701678221
 30
0
 40
1.00000000000005
100
AcDbArc
 50
102.000000000002
 51
191.999999999999
  0
LINE
  5
357
100
AcDbEntity
  8
0
100
AcDbLine
370
25
 62
7
  6
CONTINUOUS
 10
179.721457387372
 20
-226.934613369039
 30
0
 11
182.216397677185
 21
-238.672384577845
 31
0
  0
ARC
  5
358
100
AcDbEntity
  8
0
100
AcDbCircle
370
25
 62
7
  6
CONTINUOUS
 10
183.194545277918
 20
-238.464472887027
 30
0
 40
1.00000000000005
100
AcDbArc
 50
192.000000000005
 51
282.000000000003
  0
LINE
  5
359
100
AcDbEntity
  8
0
100
AcDbLine
370
25
 62
7
  6
CONTINUOUS
 10
184.531457387371
 20
-246.924613369039
 30
0
 11
187.026397677185
 21
-258.662384577845
 31
0
  0
ARC
  5
35A
100
AcDbEntity
  8
0
100
AcDbCircle
370
25
 62
7
  6
CONTINUOUS
 10
188.004545277918
 20
-258.454472887027
 30
0
 40
1.00000000000005
100
AcDbArc
 50
192.000000000001
 51
282.000000000003
  0
LINE
  5
35B
100
AcDbEntity
  8
0
100
AcDbLine
370
25
 62
7
  6
CONTINUOUS
 10
188.212456968736
 20
-259.432620487761
 30
0
 11
199.950228177542
 21
-256.937680197947
 31
0
  0
ARC
  5
35C
100
AcDbEntity
  8
0
100
AcDbCircle
370
25
 62
7
  6
CONTINUOUS
 10
199.742316486724
 20
-255.959532597214
 30
0
 40
1.00000000000008
100
AcDbArc
 50
282.000000000009
 51
11.9999999999982
  0
LINE
  5
35D
100
AcDbEntity
  8
0
100
AcDbLine
370
25
 62
7
  6
CONTINUOUS
 10
200.720464087458
 20
-255.751620906396
 30
0
 11
198.225523797645
 21
-244.01384969759
 31
0
  0
ARC
  5
35E
100
AcDbEntity
  8
0
100
AcDbCircle
370
25
 62
7
  6
CONTINUOUS
 10
197.247376196911
 20
-244.221761388408
 30
0
 40
0.999999999999979
100
AcDbArc
 50
11.9999999999982
 51
102.000000000003
  0
LINE
  5
35F
100
AcDbEntity
  8
0
100
AcDbLine
370
25
 62
7
  6
CONTINUOUS
 10
197.039464506093
 20
-243.243613787674
 30
0
 11
185.301693297287
 21
-245.738554077487
 31
0
  0
ARC
  5
360
100
AcDbEntity
  8
0
100
AcDbCircle
370
25
 62
7
  6
CONTINUOUS
 10
185.509604988105
 20
-246.716701678221
 30
0
 40
1.0000000000002
100
AcDbArc
 50
102.000000000009
 51
191.999999999996
  0
ARC
  5
362
100
AcDbEntity
  8
0
100
AcDbCircle
370
25
 62
7
  6
CONTINUOUS
 10
-24.1332183479638
 20
-240.231828743569
 30
0
 40
1.00000000000217
100
AcDbArc
 50
179.999883886905
 51
270.000009391504
  0
ARC
  5
364
100
AcDbEntity
  8
0
100
AcDbCircle
370
25
 62
7
  6
CONTINUOUS
 10
6.71096385667017
 20
-240.257813069633
 30
0
 40
1.00000000000308
100
AcDbArc
 50
269.999883886844
 51
0.000116113158894399
  0
ARC
  5
366
100
AcDbEntity
  8
0
100
AcDbCircle
370
25
 62
7
  6
CONTINUOUS
 10
6.7109638566712
 20
-222.294138223449
 30
0
 40
1.00000000000262
100
AcDbArc
 50
359.999883886817
 51
90.0001161131312
  0
ARC
  5
374
100
AcDbEntity
  8
0
100
AcDbCircle
370
25
 62
7
  6
CONTINUOUS
 10
-24.1332183479608
 20
-222.268153897391
 30
0
 40
1.00000000000479
100
AcDbArc
 50
89.9999906086462
 51
180.00011611293
  0
LINE
  5
380
100
AcDbEntity
  8
0
100
AcDbLine
370
25
 62
7
  6
CONTINUOUS
 10
278.523960737419
 20
-236.788117137717
 30
0
 11
287.254710737
 21
-236.788117137717
 31
0
  0
LINE
  5
384
100
AcDbEntity
  8
0
100
AcDbLine
370
25
 62
7
  6
CONTINUOUS
 10
287.254710737
 20
-222.788117137717
 30
0
 11
280.423921052972
 21
-222.788117137717
 31
0
  0
LINE
  5
392
100
AcDbEntity
  8
0
100
AcDbLine
370
25
 62
7
  6
CONTINUOUS
 10
170.542023332649
 20
-264.973578302028
 30
0
 11
166.22451082812
 21
-244.585797519188
 31
0
  0
LINE
  5
396
100
AcDbEntity
  8
0
100
AcDbLine
370
25
 62
7
  6
CONTINUOUS
 10
133.786832944579
 20
-251.49607977508
 30
0
 11
138.189530187316
 21
-272.112819236765
 31
0
  0
ARC
  5
3A8
100
AcDbEntity
  8
0
100
AcDbCircle
370
25
 62
7
  6
CONTINUOUS
 10
242.095960737415
 20
-166.638117137717
 30
0
 40
1.00000000000006
100
AcDbArc
 50
90
 51
179.999999999997
  0
LINE
  5
3A9
100
AcDbEntity
  8
0
100
AcDbLine
370
25
 62
7
  6
CONTINUOUS
 10
241.095960737415
 20
-166.638117137717
 30
0
 11
241.095960737415
 21
-178.638117137717
 31
0
  0
ARC
  5
3AA
100
AcDbEntity
  8
0
100
AcDbCircle
370
25
 62
7
  6
CONTINUOUS
 10
242.095960737415
 20
-178.638117137717
 30
0
 40
1.00000000000006
100
AcDbArc
 50
180.000000000004
 51
270.000000000001
  0
LINE
  5
3AB
100
AcDbEntity
  8
0
100
AcDbLine
370
25
 62
7
  6
CONTINUOUS
 10
242.095960737415
 20
-179.638117137717
 30
0
 11
242.18296073742
 21
-179.638117137717
 31
0
  0
LINE
  5
3AC
100
AcDbEntity
  8
0
100
AcDbLine
370
25
 62
7
  6
CONTINUOUS
 10
242.18296073742
 20
-179.638117137717
 30
0
 11
242.182959134527
 21
-181.993118289279
 31
0
  0
ARC
  5
3AD
100
AcDbEntity
  8
0
100
AcDbCircle
370
25
 62
7
  6
CONTINUOUS
 10
243.182959134527
 20
-181.993120315835
 30
0
 40
1.00000000000217
100
AcDbArc
 50
179.999883886908
 51
270.000009391517
  0
LINE
  5
3AE
100
AcDbEntity
  8
0
100
AcDbLine
370
25
 62
7
  6
CONTINUOUS
 10
243.18295929844
 20
-182.993120315837
 30
0
 11
272.0589584511
 21
-182.993120315837
 31
0
  0
ARC
  5
3AF
100
AcDbEntity
  8
0
100
AcDbCircle
370
25
 62
7
  6
CONTINUOUS
 10
272.058960477657
 20
-181.993120315836
 30
0
 40
1.00000000000308
100
AcDbArc
 50
269.999883886857
 51
0.000116113157265955
  0
LINE
  5
3B0
100
AcDbEntity
  8
0
100
AcDbLine
370
25
 62
7
  6
CONTINUOUS
 10
273.058960477658
 20
-181.993118289279
 30
0
 11
273.058960737419
 21
-179.638117137717
 31
0
  0
LINE
  5
3B1
100
AcDbEntity
  8
0
100
AcDbLine
370
25
 62
7
  6
CONTINUOUS
 10
273.058960737419
 20
-179.638117137717
 30
0
 11
273.145960737415
 21
-179.638117137717
 31
0
  0
ARC
  5
3B2
100
AcDbEntity
  8
0
100
AcDbCircle
370
25
 62
7
  6
CONTINUOUS
 10
273.145960737415
 20
-178.638117137718
 30
0
 40
1.00000000000011
100
AcDbArc
 50
270.000000000001
 51
0
  0
LINE
  5
3B3
100
AcDbEntity
  8
0
100
AcDbLine
370
25
 62
7
  6
CONTINUOUS
 10
274.145960737415
 20
-178.638117137718
 30
0
 11
274.145960737415
 21
-166.638117137717
 31
0
  0
ARC
  5
3B4
100
AcDbEntity
  8
0
100
AcDbCircle
370
25
 62
7
  6
CONTINUOUS
 10
273.145960737415
 20
-166.638117137717
 30
0
 40
1.00000000000011
100
AcDbArc
 50
359.999999999998
 51
90
  0
LINE
  5
3C6
100
AcDbEntity
  8
0
100
AcDbLine
370
25
 62
7
  6
CONTINUOUS
 10
56.1894092261105
 20
-243.612147832804
 30
0
 11
51.8848717724937
 21
-263.161916137726
 31
0
  0
CIRCLE
  5
3E1
100
AcDbEntity
  8
0
100
AcDbCircle
370
25
 62
7
  6
CONTINUOUS
 10
63.0855440707491
 20
-155.968117137717
 30
0
 40
1.75
  0
CIRCLE
  5
3E2
100
AcDbEntity
  8
0
100
AcDbCircle
370
25
 62
7
  6
CONTINUOUS
 10
177.185127404082
 20
-155.968117137717
 30
0
 40
1.75000000000011
  0
LINE
  5
3EB
100
AcDbEntity
  8
0
100
AcDbLine
370
25
 62
7
  6
CONTINUOUS
 10
22.8759607374151
 20
-203.738117137717
 30
0
 11
10.8759607374151
 21
-203.738117137717
 31
0
  0
LINE
  5
3EC
100
AcDbEntity
  8
0
100
AcDbLine
370
-1
  6
BYLAYER
 10
-20.084039262585
 20
-203.738117137717
 30
0
 11
-3.08403926258497
 21
-203.738117137717
 31
0
  0
LINE
  5
3ED
100
AcDbEntity
  8
0
100
AcDbLine
370
-1
  6
BYLAYER
 10
-20.084039262585
 20
-217.738117137717
 30
0
 11
-3.08403926258497
 21
-217.738117137717
 31
0
  0
ARC
  5
6ED
100
AcDbEntity
  8
0
100
AcDbCircle
370
25
 62
7
  6
CONTINUOUS
 10
-58.4500377289297
 20
-153.480746848436
 30
0
 40
2
100
AcDbArc
 50
90
 51
180
  0
ARC
  5
6EE
100
AcDbEntity
  8
0
100
AcDbCircle
370
25
 62
7
  6
CONTINUOUS
 10
298.84871227107
 20
-153.480746848436
 30
0
 40
2
100
AcDbArc
 50
0
 51
90
  0
ARC
  5
6EF
100
AcDbEntity
  8
0
100
AcDbCircle
370
25
 62
7
  6
CONTINUOUS
 10
298.84871227107
 20
-272.395054006472
 30
0
 40
2
100
AcDbArc
 50
270.000000000001
 51
0
  0
CIRCLE
  5
6FD
100
AcDbEntity
  8
0
100
AcDbCircle
370
25
 62
7
  6
CONTINUOUS
 10
-55.9500377289297
 20
-155.980746848437
 30
0
 40
1.6
  0
CIRCLE
  5
6FF
100
AcDbEntity
  8
0
100
AcDbCircle
370
25
 62
7
  6
CONTINUOUS
 10
63.1495456044043
 20
-274.895054006472
 30
0
 40
1.6
  0
CIRCLE
  5
700
100
AcDbEntity
  8
0
100
AcDbCircle
370
25
 62
7
  6
CONTINUOUS
 10
177.249128937737
 20
-274.895054006472
 30
0
 40
1.6
  0
CIRCLE
  5
701
100
AcDbEntity
  8
0
100
AcDbCircle
370
25
 62
7
  6
CONTINUOUS
 10
296.34871227107
 20
-269.895054006472
 30
0
 40
1.6
  0
CIRCLE
  5
702
100
AcDbEntity
  8
0
100
AcDbCircle
370
25
 62
7
  6
CONTINUOUS
 10
296.34871227107
 20
-155.980746848437
 30
0
 40
1.6
  0
CIRCLE
  5
703
100
AcDbEntity
  8
0
100
AcDbCircle
370
25
 62
7
  6
CONTINUOUS
 10
177.249128937737
 20
-155.980746848437
 30
0
 40
1.6
  0
CIRCLE
  5
753
100
AcDbEntity
  8
0
100
AcDbCircle
370
25
 62
7
  6
CONTINUOUS
 10
63.1495456044043
 20
-155.980746848437
 30
0
 40
1.6
  0
LINE
  5
754
100
AcDbEntity
  8
0
100
AcDbLine
370
-1
  6
BYLAYER
 10
20.0346310243612
 20
-274.395054006472
 30
0
 11
120.328365146636
 21
-294.763423739966
 31
0
  0
LINE
  5
755
100
AcDbEntity
  8
0
100
AcDbLine
370
-1
  6
BYLAYER
 10
-60.4500377289297
 20
-153.480746848436
 30
0
 11
-60.4500377289297
 21
-272.395054006472
 31
0
  0
LINE
  5
756
100
AcDbEntity
  8
0
100
AcDbLine
370
-1
  6
BYLAYER
 10
300.84871227107
 20
-153.480746848436
 30
0
 11
300.84871227107
 21
-272.395054006472
 31
0
  0
LINE
  5
757
100
AcDbEntity
  8
0
100
AcDbLine
370
-1
  6
BYLAYER
 10
-58.4500377289297
 20
-151.480746848436
 30
0
 11
298.84871227107
 21
-151.480746848436
 31
0
  0
LINE
  5
758
100
AcDbEntity
  8
0
100
AcDbLine
370
-1
  6
BYLAYER
 10
-58.4500377289297
 20
-274.395054006472
 30
0
 11
20.0346310243612
 21
-274.395054006472
 31
0
  0
LINE
  5
759
100
AcDbEntity
  8
0
100
AcDbLine
370
-1
  6
BYLAYER
 10
298.84871227107
 20
-274.395054006472
 30
0
 11
220.36404351807
 21
-274.395054006472
 31
0
  0
LINE
  5
75A
100
AcDbEntity
  8
0
100
AcDbLine
370
-1
  6
BYLAYER
 10
220.36404351807
 20
-274.395054006472
 30
0
 11
120.328365146636
 21
-294.763423739966
 31
0
  0
ARC
  5
2FF
100
AcDbEntity
  8
0
100
AcDbCircle
370
25
 62
7
  6
CONTINUOUS
 10
-25.2540392625849
 20
-176.498117137717
 30
0
 40
1
100
AcDbArc
 50
270.000000000001
 51
0
  0
ARC
  5
321
100
AcDbEntity
  8
0
100
AcDbCircle
370
25
 62
7
  6
CONTINUOUS
 10
-29.4140392625849
 20
-183.548117137717
 30
0
 40
1
100
AcDbArc
 50
0
 51
90
  0
CIRCLE
  5
1236
100
AcDbEntity
  8
0
100
AcDbCircle
370
25
 62
7
  6
CONTINUOUS
 10
63.7717644906065
 20
-325.958782001472
 30
0
 40
1.75
  0
CIRCLE
  5
1237
100
AcDbEntity
  8
0
100
AcDbCircle
370
25
 62
7
  6
CONTINUOUS
 10
177.871347823939
 20
-325.958782001472
 30
0
 40
1.75000000000011
  0
ARC
  5
1241
100
AcDbEntity
  8
0
100
AcDbCircle
370
25
 62
7
  6
CONTINUOUS
 10
-57.7638173090723
 20
-323.471411712191
 30
0
 40
2
100
AcDbArc
 50
90
 51
180
  0
ARC
  5
1242
100
AcDbEntity
  8
0
100
AcDbCircle
370
25
 62
7
  6
CONTINUOUS
 10
299.534932690927
 20
-323.471411712191
 30
0
 40
2
100
AcDbArc
 50
0
 51
90
  0
ARC
  5
1243
100
AcDbEntity
  8
0
100
AcDbCircle
370
25
 62
7
  6
CONTINUOUS
 10
299.534932690927
 20
-442.385718870227
 30
0
 40
2
100
AcDbArc
 50
270.000000000001
 51
0
  0
CIRCLE
  5
1244
100
AcDbEntity
  8
0
100
AcDbCircle
370
25
 62
7
  6
CONTINUOUS
 10
-55.2638173090723
 20
-325.971411712192
 30
0
 40
1.6
  0
CIRCLE
  5
1245
100
AcDbEntity
  8
0
100
AcDbCircle
370
25
 62
7
  6
CONTINUOUS
 10
63.8357660242617
 20
-444.885718870227
 30
0
 40
1.6
  0
CIRCLE
  5
1246
100
AcDbEntity
  8
0
100
AcDbCircle
370
25
 62
7
  6
CONTINUOUS
 10
177.935349357594
 20
-444.885718870227
 30
0
 40
1.6
  0
CIRCLE
  5
1247
100
AcDbEntity
  8
0
100
AcDbCircle
370
25
 62
7
  6
CONTINUOUS
 10
297.034932690927
 20
-439.885718870227
 30
0
 40
1.6
  0
CIRCLE
  5
1248
100
AcDbEntity
  8
0
100
AcDbCircle
370
25
 62
7
  6
CONTINUOUS
 10
297.034932690927
 20
-325.971411712192
 30
0
 40
1.6
  0
LINE
  5
124B
100
AcDbEntity
  8
0
100
AcDbLine
370
-1
  6
BYLAYER
 10
20.7208514442186
 20
-444.385718870227
 30
0
 11
121.014585566493
 21
-464.754088603721
 31
0
  0
LINE
  5
124C
100
AcDbEntity
  8
0
100
AcDbLine
370
-1
  6
BYLAYER
 10
-59.7638173090723
 20
-323.471411712191
 30
0
 11
-59.7638173090723
 21
-442.385718870227
 31
0
  0
LINE
  5
124D
100
AcDbEntity
  8
0
100
AcDbLine
370
-1
  6
BYLAYER
 10
301.534932690927
 20
-323.471411712191
 30
0
 11
301.534932690927
 21
-442.385718870227
 31
0
  0
LINE
  5
124F
100
AcDbEntity
  8
0
100
AcDbLine
370
-1
  6
BYLAYER
 10
-57.7638173090723
 20
-444.385718870227
 30
0
 11
20.7208514442186
 21
-444.385718870227
 31
0
  0
LINE
  5
1250
100
AcDbEntity
  8
0
100
AcDbLine
370
-1
  6
BYLAYER
 10
299.534932690927
 20
-444.385718870227
 30
0
 11
221.050263937927
 21
-444.385718870227
 31
0
  0
LINE
  5
1251
100
AcDbEntity
  8
0
100
AcDbLine
370
-1
  6
BYLAYER
 10
221.050263937927
 20
-444.385718870227
 30
0
 11
121.014585566493
 21
-464.754088603721
 31
0
  0
LINE
  5
1726
100
AcDbEntity
  8
0
100
AcDbLine
370
-1
  6
BYLAYER
 10
-49.4525674599492
 20
-331.401772927412
 30
0
 11
-49.4525674599492
 21
-430.989900451919
 31
0
  0
LINE
  5
1729
100
AcDbEntity
  8
0
100
AcDbLine
370
-1
  6
BYLAYER
 10
-49.4525674599492
 20
-331.401772927412
 30
0
 11
112.236182691
 21
-331.401772927412
 31
0
  0
LINE
  5
172F
100
AcDbEntity
  8
0
100
AcDbLine
370
-1
  6
BYLAYER
 10
290.833810779547
 20
-331.851933241
 30
0
 11
290.833810779547
 21
-429.525087089053
 31
0
  0
LINE
  5
1732
100
AcDbEntity
  8
0
100
AcDbLine
370
-1
  6
BYLAYER
 10
-49.4525674599492
 20
-430.989900451919
 30
0
 11
21.2531458387392
 21
-430.989900451919
 31
0
  0
LINE
  5
1735
100
AcDbEntity
  8
0
100
AcDbLine
370
-1
  6
BYLAYER
 10
290.833810779547
 20
-429.525087089053
 30
0
 11
222.318441946053
 21
-429.525087089053
 31
0
  0
LINE
  5
1738
100
AcDbEntity
  8
0
100
AcDbLine
370
-1
  6
BYLAYER
 10
21.2531458387392
 20
-430.989900451919
 30
0
 11
121.014585566493
 21
-451.25016802799
 31
0
  0
LINE
  5
173B
100
AcDbEntity
  8
0
100
AcDbLine
370
-1
  6
BYLAYER
 10
222.318441946053
 20
-429.525087089053
 30
0
 11
121.014585566493
 21
-451.25016802799
 31
0
  0
LINE
  5
1753
100
AcDbEntity
  8
0
100
AcDbLine
370
-1
  6
BYLAYER
 10
-57.7638173090723
 20
-321.471411712191
 30
0
 11
112.236182690928
 21
-321.471411712191
 31
0
  0
LINE
  5
1756
100
AcDbEntity
  8
0
100
AcDbLine
370
-1
  6
BYLAYER
 10
299.534932690927
 20
-321.471411712191
 30
0
 11
129.534932690927
 21
-321.471411712191
 31
0
  0
CIRCLE
  5
1C71
100
AcDbEntity
  8
0
100
AcDbCircle
370
25
 62
7
  6
CONTINUOUS
 10
63.4278587101087
 20
-491.735391282298
 30
0
 40
1.75
  0
CIRCLE
  5
1C72
100
AcDbEntity
  8
0
100
AcDbCircle
370
25
 62
7
  6
CONTINUOUS
 10
177.527442043442
 20
-491.735391282298
 30
0
 40
1.75000000000011
  0
ARC
  5
1C7C
100
AcDbEntity
  8
0
100
AcDbCircle
370
25
 62
7
  6
CONTINUOUS
 10
-58.1077230895701
 20
-489.248020993017
 30
0
 40
2
100
AcDbArc
 50
90
 51
180
  0
ARC
  5
1C7D
100
AcDbEntity
  8
0
100
AcDbCircle
370
25
 62
7
  6
CONTINUOUS
 10
299.19102691043
 20
-489.248020993017
 30
0
 40
2
100
AcDbArc
 50
0
 51
90
  0
ARC
  5
1C7E
100
AcDbEntity
  8
0
100
AcDbCircle
370
25
 62
7
  6
CONTINUOUS
 10
299.19102691043
 20
-608.162328151053
 30
0
 40
2
100
AcDbArc
 50
270.000000000001
 51
0
  0
CIRCLE
  5
1C7F
100
AcDbEntity
  8
0
100
AcDbCircle
370
25
 62
7
  6
CONTINUOUS
 10
-55.6077230895701
 20
-491.748020993018
 30
0
 40
1.6
  0
CIRCLE
  5
1C80
100
AcDbEntity
  8
0
100
AcDbCircle
370
25
 62
7
  6
CONTINUOUS
 10
63.4918602437639
 20
-610.662328151053
 30
0
 40
1.6
  0
CIRCLE
  5
1C81
100
AcDbEntity
  8
0
100
AcDbCircle
370
25
 62
7
  6
CONTINUOUS
 10
177.591443577097
 20
-610.662328151053
 30
0
 40
1.6
  0
CIRCLE
  5
1C82
100
AcDbEntity
  8
0
100
AcDbCircle
370
25
 62
7
  6
CONTINUOUS
 10
296.69102691043
 20
-605.662328151053
 30
0
 40
1.6
  0
CIRCLE
  5
1C83
100
AcDbEntity
  8
0
100
AcDbCircle
370
25
 62
7
  6
CONTINUOUS
 10
296.69102691043
 20
-491.748020993018
 30
0
 40
1.6
  0
CIRCLE
  5
1C84
100
AcDbEntity
  8
0
100
AcDbCircle
370
25
 62
7
  6
CONTINUOUS
 10
177.591443577097
 20
-491.748020993018
 30
0
 40
1.6
  0
CIRCLE
  5
1C85
100
AcDbEntity
  8
0
100
AcDbCircle
370
25
 62
7
  6
CONTINUOUS
 10
63.4918602437639
 20
-491.748020993018
 30
0
 40
1.6
  0
LINE
  5
1C86
100
AcDbEntity
  8
0
100
AcDbLine
370
-1
  6
BYLAYER
 10
20.3769456637208
 20
-610.162328151053
 30
0
 11
120.670679785996
 21
-630.530697884547
 31
0
  0
LINE
  5
1C87
100
AcDbEntity
  8
0
100
AcDbLine
370
-1
  6
BYLAYER
 10
-60.1077230895701
 20
-489.248020993017
 30
0
 11
-60.1077230895701
 21
-608.162328151053
 31
0
  0
LINE
  5
1C88
100
AcDbEntity
  8
0
100
AcDbLine
370
-1
  6
BYLAYER
 10
301.19102691043
 20
-489.248020993017
 30
0
 11
301.19102691043
 21
-608.162328151053
 31
0
  0
LINE
  5
1C8A
100
AcDbEntity
  8
0
100
AcDbLine
370
-1
  6
BYLAYER
 10
-58.1077230895701
 20
-610.162328151053
 30
0
 11
20.3769456637208
 21
-610.162328151053
 31
0
  0
LINE
  5
1C8B
100
AcDbEntity
  8
0
100
AcDbLine
370
-1
  6
BYLAYER
 10
299.19102691043
 20
-610.162328151053
 30
0
 11
220.70635815743
 21
-610.162328151053
 31
0
  0
LINE
  5
1C8C
100
AcDbEntity
  8
0
100
AcDbLine
370
-1
  6
BYLAYER
 10
220.70635815743
 20
-610.162328151053
 30
0
 11
120.670679785996
 21
-630.530697884547
 31
0
  0
ARC
  5
2396
100
AcDbEntity
  8
0
100
AcDbCircle
370
25
 62
7
  6
CONTINUOUS
 10
-57.7475793794333
 20
-442.276939832944
 30
0
 40
2
100
AcDbArc
 50
180
 51
270.000000000001
  0
CIRCLE
  5
2397
100
AcDbEntity
  8
0
100
AcDbCircle
370
25
 62
7
  6
CONTINUOUS
 10
-55.2475793794333
 20
-439.776939832944
 30
0
 40
1.6
  0
CIRCLE
  5
239C
100
AcDbEntity
  8
0
100
AcDbCircle
370
25
 62
7
  6
CONTINUOUS
 10
-54.7166970434662
 20
-107.763126919123
 30
0
 40
1.6
  0
CIRCLE
  5
23A8
100
AcDbEntity
  8
0
100
AcDbCircle
370
25
 62
7
  6
CONTINUOUS
 10
-55.672285248207
 20
-605.67766982266
 30
0
 40
1.6
  0
ARC
  5
1C7B
100
AcDbEntity
  8
0
100
AcDbCircle
370
25
 62
7
  6
CONTINUOUS
 10
-58.1077230895701
 20
-608.162328151053
 30
0
 40
2
100
AcDbArc
 50
180
 51
270.000000000001
  0
LINE
  5
23F0
100
AcDbEntity
  8
0
100
AcDbLine
370
-1
  6
BYLAYER
 10
92.3029172906715
 20
-251.417287104973
 30
0
 11
88.17837160547
 21
-270.910818775429
 31
0
  0
LINE
  5
246E
100
AcDbEntity
  8
0
100
AcDbLine
370
-1
  6
BYLAYER
 10
245.73509904249
 20
-240.259138461275
 30
0
 11
278.523960737
 21
-240.259138461275
 31
0
  0
LINE
  5
2473
100
AcDbEntity
  8
0
100
AcDbLine
370
-1
  6
BYLAYER
 10
278.523960737419
 20
-236.788117137717
 30
0
 11
278.523960737
 21
-240.259138461275
 31
0
  0
LINE
  5
247B
100
AcDbEntity
  8
0
100
AcDbLine
370
-1
  6
BYLAYER
 10
287.254710737
 20
-222.788117137717
 30
0
 11
287.254710737
 21
-236.788117137717
 31
0
  0
TEXT
  5
24DE
100
AcDbEntity
  8
0
100
AcDbText
370
-1
 10
351.656041234148
 20
-64.1315318472994
 30
0
 40
20
  1
3mm
 50
0
 41
1
 51
0
  7
STANDARD_Copy
 71
0
 72
0
 11
25.3144416878494
 21
-48.0974392069138
 31
0
100
AcDbText
 73
0
  0
TEXT
  5
24E1
100
AcDbEntity
  8
0
100
AcDbText
370
-1
 10
345.327430812186
 20
-215.842848136311
 30
0
 40
20
  1
3mm
 50
0
 41
1
 51
0
  7
STANDARD_Copy
 71
0
 72
0
 11
18.9858312658869
 21
-199.808755495926
 31
0
100
AcDbText
 73
0
  0
TEXT
  5
24E4
100
AcDbEntity
  8
0
100
AcDbText
370
-1
 10
361.781817909288
 20
-385.430672112341
 30
0
 40
20
  1
3mm
 50
0
 41
1
 51
0
  7
STANDARD_Copy
 71
0
 72
0
 11
35.4402183629886
 21
-369.396579471956
 31
0
100
AcDbText
 73
0
  0
TEXT
  5
24E6
100
AcDbEntity
  8
0
100
AcDbText
370
-1
 10
366.844706246858
 20
-548.392390477872
 30
0
 40
20
  1
3mm
 50
0
 41
1
 51
0
  7
STANDARD_Copy
 71
0
 72
0
 11
40.5031067005584
 21
-532.358297837486
 31
0
100
AcDbText
 73
0
  0
ARC
  5
30DC
100
AcDbEntity
  8
0
100
AcDbCircle
370
25
 62
7
  6
CONTINUOUS
 10
-58.4613034058611
 20
-272.448845608551
 30
0
 40
2
100
AcDbArc
 50
180
 51
270.000000000001
  0
CIRCLE
  5
30DD
100
AcDbEntity
  8
0
100
AcDbCircle
370
25
 62
7
  6
CONTINUOUS
 10
-55.9613034058611
 20
-269.948845608551
 30
0
 40
1.75
  0
CIRCLE
  5
30DE
100
AcDbEntity
  8
0
100
AcDbCircle
370
25
 62
7
  6
CONTINUOUS
 10
-46.910278680167
 20
-251.363219048605
 30
0
 40
2
  0
CIRCLE
  5
30DF
100
AcDbEntity
  8
0
100
AcDbCircle
370
25
 62
7
  6
CONTINUOUS
 10
-46.910278680167
 20
-255.863219048605
 30
0
 40
2
  0
CIRCLE
  5
30E0
100
AcDbEntity
  8
0
100
AcDbCircle
370
25
 62
7
  6
CONTINUOUS
 10
-46.910278680167
 20
-246.863219048605
 30
0
 40
2
  0
LINE
  5
3167
100
AcDbEntity
  8
0
100
AcDbLine
370
-1
  6
BYLAYER
 10
242.095960737415
 20
-165.638117137717
 30
0
 11
242.095960737415
 21
-162.522149137725
 31
0
  0
LINE
  5
316D
100
AcDbEntity
  8
0
100
AcDbLine
370
-1
  6
BYLAYER
 10
273.142002518684
 20
-165.635727250322
 30
0
 11
273.142002518684
 21
-162.51975925033
 31
0
  0
LINE
  5
3175
100
AcDbEntity
  8
0
100
AcDbLine
370
-1
  6
BYLAYER
 10
242.095960737415
 20
-162.522149137725
 30
0
 11
273.142002518684
 21
-162.51975925033
 31
0
  0
LINE
  5
325B
100
AcDbEntity
  8
0
100
AcDbLine
370
-1
  6
BYLAYER
 10
-58.1077230895701
 20
-487.248020993017
 30
0
 11
111.89227691043
 21
-487.248020993017
 31
0
  0
LINE
  5
325E
100
AcDbEntity
  8
0
100
AcDbLine
370
-1
  6
BYLAYER
 10
129.196593935677
 20
-487.248020993017
 30
0
 11
299.196593935677
 21
-487.248020993017
 31
0
  0
LINE
  5
326A
100
AcDbEntity
  8
0
100
AcDbLine
370
-1
  6
BYLAYER
 10
129.534932691
 20
-331.851933240929
 30
0
 11
290.833810779547
 21
-331.851933241
 31
0
  0
LINE
  5
3312
100
AcDbEntity
  8
0
100
AcDbLine
370
-1
  6
BYLAYER
 10
-25.1332183479636
 20
-222.268155923944
 30
0
 11
-25.133218347964
 21
-240.231826717013
 31
0
  0
LINE
  5
3315
100
AcDbEntity
  8
0
100
AcDbLine
370
-1
  6
BYLAYER
 10
7.71096385667176
 20
-222.294140250007
 30
0
 11
7.71096385667119
 21
-240.257811043076
 31
0
  0
LINE
  5
332A
100
AcDbEntity
  8
0
100
AcDbLine
370
-1
  6
BYLAYER
 10
-24.1332181840508
 20
-221.268153897386
 30
0
 11
6.71096183011475
 21
-221.294138223449
 31
0
  0
LINE
  5
332E
100
AcDbEntity
  8
0
100
AcDbLine
370
-1
  6
BYLAYER
 10
-24.1332181840512
 20
-241.231828743571
 30
0
 11
6.71096183011329
 21
-241.257813069634
 31
0
  0
LINE
  5
3347
100
AcDbEntity
  8
0
100
AcDbLine
370
-1
  6
BYLAYER
 10
245.735099042
 20
-200.383114674854
 30
0
 11
245.73509904249
 21
-240.259138461275
 31
0
  0
LINE
  5
334E
100
AcDbEntity
  8
0
100
AcDbLine
370
-1
  6
BYLAYER
 10
280.423921053
 20
-200.383114674854
 30
0
 11
280.423921052972
 21
-222.788117137717
 31
0
  0
LINE
  5
335A
100
AcDbEntity
  8
0
100
AcDbLine
370
-1
  6
BYLAYER
 10
51.8848717724937
 20
-263.161916137726
 30
0
 11
88.17837160547
 21
-270.910818775429
 31
0
  0
LINE
  5
3375
100
AcDbEntity
  8
0
100
AcDbLine
370
-1
  6
BYLAYER
 10
138.189530187316
 20
-272.112819236765
 30
0
 11
170.542023332649
 21
-264.973578302028
 31
0
  0
LINE
  5
3383
100
AcDbEntity
  8
0
100
AcDbLine
370
-1
  6
BYLAYER
 10
56.1894092261105
 20
-243.612147832804
 30
0
 11
92.3029172906715
 21
-251.417287104973
 31
0
  0
LINE
  5
3389
100
AcDbEntity
  8
0
100
AcDbLine
370
-1
  6
BYLAYER
 10
133.786832944579
 20
-251.49607977508
 30
0
 11
166.22451082812
 21
-244.585797519188
 31
0
  0
LINE
  5
340B
100
AcDbEntity
  8
0
100
AcDbLine
370
-1
  6
BYLAYER
 10
111.89227691043
 20
-487.248020993017
 30
0
 11
111.89227691043
 21
-502.248020993017
 31
0
  0
LINE
  5
3411
100
AcDbEntity
  8
0
100
AcDbLine
370
-1
  6
BYLAYER
 10
129.196593935677
 20
-487.248020993017
 30
0
 11
129.196593935677
 21
-502.248020993017
 31
0
  0
LINE
  5
3415
100
AcDbEntity
  8
0
100
AcDbLine
370
-1
  6
BYLAYER
 10
111.89227691043
 20
-502.248020993017
 30
0
 11
129.196593935677
 21
-502.248020993017
 31
0
  0
LINE
  5
3423
100
AcDbEntity
  8
0
100
AcDbLine
370
-1
  6
BYLAYER
 10
112.236182690928
 20
-321.471411712191
 30
0
 11
112.236182691
 21
-331.401772927412
 31
0
  0
LINE
  5
3426
100
AcDbEntity
  8
0
100
AcDbLine
370
-1
  6
BYLAYER
 10
129.534932690927
 20
-321.471411712191
 30
0
 11
129.534932691
 21
-331.851933240929
 31
0
  0
ENDSEC
  0
SECTION
  2
OBJECTS
  0
DICTIONARY
  5
3717
100
AcDbDictionary
  3
ACAD_GROUP
350
3718
  3
ACAD_MATERIAL
350
3719
  3
ACAD_WIPEOUT_VARS
350
371A
  3
ACAD_MLINESTYLE
350
371B
  3
ACAD_IMAGE_VARS
350
371C
  3
AcDbVariableDictionary
350
371D
  3
ACAD_LAYOUT
350
371E
  0
DICTIONARY
  5
3718
330
3717
100
AcDbDictionary
  0
DICTIONARY
  5
3719
330
3717
100
AcDbDictionary
  0
WIPEOUTVARIABLES
  5
371A
330
3717
100
AcDbWipeoutVariables
 70
1
  0
DICTIONARY
  5
371B
330
3717
100
AcDbDictionary
  3
STANDARD
350
233C
  0
MLINESTYLE
  5
233C
330
371B
100
AcDbMlineStyle
  2
STANDARD
 70
0
  3

 62
256
 51
90
 52
90
 71
2
 49
0.5
 62
256
  6
BYLAYER
 49
-0.5
 62
256
  6
BYLAYER
  0
DICTIONARY
  5
371E
100
AcDbDictionary
281
1
  3
Model
350
13
  0
LAYOUT
  5
13
102
{ACAD_REACTORS
330
371E
102
}
330
371E
100
AcDbPlotSettings
  1

  2
none_device
  4
A4
  6

 40
3.2
 41
3.2
 42
3.2
 43
3.2
 44
210
 45
297
 46
0
 47
0
 48
0
 49
0
 70
1712
 72
1
 73
1
 74
1
 75
0
 76
0
 77
0
 78
100
140
0
141
0
142
1
143
1.03143418467584
147
1
148
148.5
149
105
100
AcDbLayout
  1
Model
 70
1
 71
1
 10
-60.4613034058611
 20
-630.530697884547
 11
428.933120881004
 21
10.6737558562765
 12
0
 22
0
 32
0
 14
-60.4613034058611
 24
-630.530697884547
 34
0
 15
428.933120881004
 25
10.6737558562765
 35
0
146
0
 13
0
 23
0
 33
0
 16
1
 26
0
 36
0
 17
0
 27
1
 37
0
 76
0
330
20
  0
RASTERVARIABLES
  5
371C
330
3717
100
AcDbRasterVariables
 90
0
 70
1
 71
0
 72
0
  0
DICTIONARY
  5
371D
100
AcDbDictionary
281
1
  3
XCLIPFRAME
350
371F
  0
DICTIONARYVAR
  5
371F
330
371D
100
DictionaryVariables
280
0
  1
1
  0
DICTIONARY
  5
3720
100
AcDbDictionary
280
1
  3
XINFO
360
3721
  0
XRECORD
  5
3721
102
{ACAD_REACTORS
330
3720
102
}
330
3720
100
AcDbXrecord
280
0
310
0700000000000E00
311
1C26B9304B8BD074
  0
ENDSEC
  0
EOF
