999
The file was created in CADSoftTools software
999
CADEditorX 14; 
  0
SECTION
  2
HEADER
  9
$ACADVER
  1
AC1018
  9
$DWGCODEPAGE
  3
ANSI_1252
  9
$CLAYER
  8
0
  9
$CELTYPE
  6
BYLAYER
  9
$CELTSCALE
 40
1
  9
$CELWEIGHT
370
-1
  9
$DIMALT
 70
0
  9
$DIMALTF
 40
0.0393700787401575
  9
$DIMPOST
  1

  9
$DIMAPOST
  1

  9
$DIMSCALE
 40
1
  9
$DIMASZ
 40
3.556
  9
$DIMCLRD
 70
0
  9
$DIMCLRE
 70
0
  9
$DIMCLRT
 70
0
  9
$DIMEXE
 40
1
  9
$DIMEXO
 40
1
  9
$DIMGAP
 40
1.524
  9
$DIMLFAC
 40
5
  9
$DIMDEC
 70
2
  9
$DIMTAD
 70
1
  9
$DIMCEN
 40
0.09
  9
$DIMTIH
 70
1
  9
$DIMTIX
 70
0
  9
$DIMTOH
 70
1
  9
$DIMSE1
 70
0
  9
$DIMSE2
 70
0
  9
$DIMSD1
 70
0
  9
$DIMSD2
 70
0
  9
$DIMLWD
 70
-2
  9
$DIMLWE
 70
-2
  9
$DIMSAH
 70
0
  9
$DIMBLK
  1

  9
$DIMBLK1
  1

  9
$DIMBLK2
  1

  9
$DIMLDRBLK
  1

  9
$DIMSTYLE
  2
ISO-25
  9
$DIMTP
 40
0
  9
$DIMTM
 40
0
  9
$DIMTXT
 40
3.5
  9
$DIMLUNIT
 70
2
  9
$DIMDSEP
 70
44
  9
$DIMTXSTY
  7
STANDARD
  9
$TEXTSIZE
 40
3.5
  9
$TEXTSTYLE
  7
Standard
  9
$HANDSEED
  5
0000000000000A44
  9
$FILLETRAD
 40
10
  9
$INSUNITS
 70
4
  9
$LIMMIN
 10
536.369252513786
 20
-96.0893202767862
  9
$LIMMAX
 10
887.668002513786
 20
454.820692835358
  9
$FILLMODE
 70
1
  9
$LTSCALE
 40
1
  9
$MEASUREMENT
 70
1
  9
$ATTMODE
 70
1
  9
$PDMODE
 70
0
  9
$PDSIZE
 40
-1
  9
$TILEMODE
 70
1
  9
$UCSORG
 10
0
 20
0
 30
0
  9
$UCSXDIR
 10
1
 20
0
 30
0
  9
$UCSYDIR
 10
0
 20
1
 30
0
  9
$INSBASE
 10
0
 20
0
 30
0
  9
$XCLIPFRAME
290
1
  9
$DIMASSOC
280
2
  9
$TDCREATE
 40
2458384.42383615
  9
$TDINDWG
 40
0.0138285763888889
  9
$TDUPDATE
 40
2458997.35434878
  0
ENDSEC
  0
SECTION
  2
CLASSES
  0
CLASS
  1
IMAGE
  2
AcDbRasterImage
  3
ISM
 90
2175
 91
1
280
0
281
1
  0
CLASS
  1
IMAGEDEF
  2
AcDbRasterImageDef
  3
ISM
 90
0
 91
1
280
0
281
0
  0
CLASS
  1
WIPEOUT
  2
AcDbWipeout
  3
"WipeOut"
 90
2175
 91
1
280
0
281
1
  0
CLASS
  1
WIPEOUTVARIABLES
  2
AcDbWipeoutVariables
  3
"WipeOut"
 90
0
 91
1
280
0
281
0
  0
CLASS
  1
MPOLYGON
  2
AcDbMPolygon
  3
"AcMPolygonObj15"
 90
3071
 91
1
280
0
281
1
  0
ENDSEC
  0
SECTION
  2
TABLES
  0
TABLE
  2
APPID
  5
A2B
100
AcDbSymbolTable
  0
APPID
  5
12
100
AcDbSymbolTableRecord
100
AcDbRegAppTableRecord
  2
ACAD
 70
64
  0
APPID
  5
3E2
100
AcDbSymbolTableRecord
100
AcDbRegAppTableRecord
  2
CSTINVENTORY
 70
0
  0
APPID
  5
4B0
100
AcDbSymbolTableRecord
100
AcDbRegAppTableRecord
  2
AcDbAttr
 70
0
  0
APPID
  5
4B1
100
AcDbSymbolTableRecord
100
AcDbRegAppTableRecord
  2
PE_URL
 70
0
  0
ENDTAB
  0
TABLE
  2
BLOCK_RECORD
  5
A2C
100
AcDbSymbolTable
  0
BLOCK_RECORD
  5
1F
100
AcDbSymbolTableRecord
100
AcDbBlockTableRecord
  2
*MODEL_SPACE
  0
BLOCK_RECORD
  5
1B
100
AcDbSymbolTableRecord
100
AcDbBlockTableRecord
  2
*PAPER_SPACE
  0
BLOCK_RECORD
  5
3A1
100
AcDbSymbolTableRecord
100
AcDbBlockTableRecord
  2
SW_NOTE_0
  0
BLOCK_RECORD
  5
3A8
100
AcDbSymbolTableRecord
100
AcDbBlockTableRecord
  2
SW_NOTE_1
  0
BLOCK_RECORD
  5
3AE
100
AcDbSymbolTableRecord
100
AcDbBlockTableRecord
  2
SW_NOTE_2
  0
BLOCK_RECORD
  5
3E7
100
AcDbSymbolTableRecord
100
AcDbBlockTableRecord
  2
_CLOSEDFILLED
  0
BLOCK_RECORD
  5
3EB
100
AcDbSymbolTableRecord
100
AcDbBlockTableRecord
  2
ABViewer_RedLine
  0
ENDTAB
  0
TABLE
  2
STYLE
  5
3
100
AcDbSymbolTable
  0
STYLE
  5
11
100
AcDbSymbolTableRecord
100
AcDbTextStyleTableRecord
  2
Standard
 70
0
 40
0
 41
1
 50
0
 71
0
 42
3.5
  3
txt
  4

  0
STYLE
  5
73
100
AcDbSymbolTableRecord
100
AcDbTextStyleTableRecord
  2
SLDTEXTSTYLE0
 70
0
 40
0
 41
0.75
 50
0
 71
0
 42
3.5
  3
TXT
  4

  0
ENDTAB
  0
TABLE
  2
LTYPE
  5
5
100
AcDbSymbolTable
  0
LTYPE
  5
16
100
AcDbSymbolTableRecord
100
AcDbLinetypeTableRecord
  2
CONTINUOUS
 70
0
  3

 72
65
 73
0
 40
0
  0
LTYPE
  5
14
100
AcDbSymbolTableRecord
100
AcDbLinetypeTableRecord
  2
BYBLOCK
 70
0
  3

 72
65
 73
0
 40
0
  0
LTYPE
  5
15
100
AcDbSymbolTableRecord
100
AcDbLinetypeTableRecord
  2
BYLAYER
 70
0
  3

 72
65
 73
0
 40
0
  0
LTYPE
  5
6E
100
AcDbSymbolTableRecord
100
AcDbLinetypeTableRecord
  2
HIDDEN
 70
0
  3
_ 
 72
65
 73
2
 40
1.905
 49
1.27
 74
0
 49
-0.635
 74
0
  0
LTYPE
  5
6F
100
AcDbSymbolTableRecord
100
AcDbLinetypeTableRecord
  2
PHANTOM
 70
0
  3
_ _ _ 
 72
65
 73
6
 40
12.7
 49
6.35
 74
0
 49
-1.27
 74
0
 49
1.27
 74
0
 49
-1.27
 74
0
 49
1.27
 74
0
 49
-1.27
 74
0
  0
LTYPE
  5
70
100
AcDbSymbolTableRecord
100
AcDbLinetypeTableRecord
  2
CENTER
 70
0
  3
_ _ 
 72
65
 73
4
 40
10.16
 49
6.35
 74
0
 49
-1.27
 74
0
 49
1.27
 74
0
 49
-1.27
 74
0
  0
LTYPE
  5
71
100
AcDbSymbolTableRecord
100
AcDbLinetypeTableRecord
  2
CENTERX2
 70
0
  3
_ _ 
 72
65
 73
4
 40
20.32
 49
12.7
 74
0
 49
-2.54
 74
0
 49
2.54
 74
0
 49
-2.54
 74
0
  0
LTYPE
  5
72
100
AcDbSymbolTableRecord
100
AcDbLinetypeTableRecord
  2
DOT2
 70
0
  3
. 
 72
65
 73
2
 40
0.635
 49
0
 74
0
 49
-0.635
 74
0
  0
LTYPE
  5
3EC
100
AcDbSymbolTableRecord
100
AcDbLinetypeTableRecord
  2
ISO dash
 70
0
  3
_ 
 72
65
 73
2
 40
1.5
 49
1.2
 74
0
 49
-0.3
 74
0
  0
LTYPE
  5
3ED
100
AcDbSymbolTableRecord
100
AcDbLinetypeTableRecord
  2
ISO dot
 70
0
  3
. 
 72
65
 73
2
 40
0.3
 49
0
 74
0
 49
-0.3
 74
0
  0
LTYPE
  5
3EE
100
AcDbSymbolTableRecord
100
AcDbLinetypeTableRecord
  2
ISO dash dot
 70
0
  3
_ . 
 72
65
 73
4
 40
1.8
 49
1.2
 74
0
 49
-0.3
 74
0
 49
0
 74
0
 49
-0.3
 74
0
  0
LTYPE
  5
3EF
100
AcDbSymbolTableRecord
100
AcDbLinetypeTableRecord
  2
ISO dash double-dot
 70
0
  3
_ . . 
 72
65
 73
6
 40
2.1
 49
1.2
 74
0
 49
-0.3
 74
0
 49
0
 74
0
 49
-0.3
 74
0
 49
0
 74
0
 49
-0.3
 74
0
  0
LTYPE
  5
3F0
100
AcDbSymbolTableRecord
100
AcDbLinetypeTableRecord
  2
ISO dash triple-dot
 70
0
  3
_ . . . 
 72
65
 73
8
 40
2.4
 49
1.2
 74
0
 49
-0.3
 74
0
 49
0
 74
0
 49
-0.3
 74
0
 49
0
 74
0
 49
-0.3
 74
0
 49
0
 74
0
 49
-0.3
 74
0
  0
LTYPE
  5
3F1
100
AcDbSymbolTableRecord
100
AcDbLinetypeTableRecord
  2
ISO dash long gaps
 70
0
  3
_ 
 72
65
 73
2
 40
3
 49
1.2
 74
0
 49
-1.8
 74
0
  0
ENDTAB
  0
TABLE
  2
LAYER
  5
2
100
AcDbSymbolTable
  0
LAYER
  5
10
100
AcDbSymbolTableRecord
100
AcDbLayerTableRecord
  2
0
 70
0
 62
7
  6
CONTINUOUS
290
1
370
-3
390
0
  0
ENDTAB
  0
TABLE
  2
VPORT
  5
A2D
100
AcDbSymbolTable
  0
VPORT
  5
A2F
100
AcDbSymbolTableRecord
100
AcDbViewportTableRecord
  2
*ACTIVE
 70
0
 10
0
 20
0
 11
1
 21
1
 12
732.490294197398
 22
225.187618195262
 32
0
 13
0
 23
0
 14
1
 24
1
 15
1
 25
1
 16
0
 26
0
 36
1
 17
0
 27
0
 37
0
 40
74.0782647708294
 41
2.44198895027624
 42
50
 43
0
 44
0
 50
0
 51
0
 71
0
 72
100
 73
1
 74
1
 75
0
 76
0
 77
0
 78
0
  0
ENDTAB
  0
TABLE
  2
VIEW
  5
A30
100
AcDbSymbolTable
  0
ENDTAB
  0
TABLE
  2
UCS
  5
A31
100
AcDbSymbolTable
  0
ENDTAB
  0
TABLE
  2
DIMSTYLE
  5
A
100
AcDbSymbolTable
 70
3
100
AcDbDimStyleTable
 71
0
  0
DIMSTYLE
105
27
100
AcDbSymbolTableRecord
100
AcDbDimStyleTableRecord
  2
ISO-25
 70
0
  3

 40
1
 41
2.5
 42
0.625
 44
1.25
 47
0
 48
0
 73
0
 74
0
 75
0
 76
0
 77
1
140
2.5
141
2.5
144
1
147
0.625
173
0
174
0
176
0
177
0
178
0
277
2
278
44
281
0
282
0
271
2
340
11
371
-2
372
-2
  0
DIMSTYLE
105
3A6
100
AcDbSymbolTableRecord
100
AcDbDimStyleTableRecord
  2
SLDDIMSTYLE0
 70
0
  3

 40
1
 41
3.556
 42
0.0625
 44
0
 47
0
 48
0
 73
1
 74
1
 75
0
 76
0
 77
0
140
0.18
141
0.09
144
1
147
0
173
1
174
0
176
0
177
0
178
0
277
2
278
46
281
0
282
0
271
0
340
11
371
-2
372
-2
  0
DIMSTYLE
105
3B5
100
AcDbSymbolTableRecord
100
AcDbDimStyleTableRecord
  2
STANDARD
 70
0
  3

 40
1
 41
0.18
 42
0.0625
 44
0.18
 47
0
 48
0
 73
1
 74
1
 75
0
 76
0
 77
0
140
0.18
141
0.09
144
1
147
0.0625
173
0
174
0
176
0
177
0
178
0
277
2
278
46
281
0
282
0
271
4
371
-1
372
-1
  0
ENDTAB
  0
ENDSEC
  0
SECTION
  2
BLOCKS
  0
BLOCK
  5
A32
100
AcDbEntity
  8
0
100
AcDbBlockBegin
  2
*MODEL_SPACE
 70
0
 10
0
 20
0
  0
ENDBLK
  5
A33
100
AcDbEntity
  8
0
100
AcDbBlockEnd
  0
BLOCK
  5
A34
100
AcDbEntity
  8
0
100
AcDbBlockBegin
  2
*PAPER_SPACE
 70
0
 10
0
 20
0
  0
ENDBLK
  5
A35
100
AcDbEntity
  8
0
100
AcDbBlockEnd
  0
BLOCK
  5
3A2
100
AcDbEntity
  8
0
100
AcDbBlockBegin
  2
SW_NOTE_0
 70
64
 10
0
 20
0
 30
0
  3
SW_NOTE_0
  1

  0
MTEXT
  5
3A4
100
AcDbEntity
  8
0
100
AcDbMText
370
-1
 62
0
 10
0.580412095485872
 20
3.04769006777145
 30
0
 40
6.35
  1
m3 countersuck
 50
0
 41
0
  7
SLDTEXTSTYLE0
 71
1
 11
1
 21
0
 31
0
 73
1
 44
1
  0
ENDBLK
  5
A36
100
AcDbEntity
  8
0
100
AcDbBlockEnd
  0
BLOCK
  5
3A9
100
AcDbEntity
  8
0
100
AcDbBlockBegin
  2
SW_NOTE_1
 70
64
 10
0
 20
0
 30
0
  3
SW_NOTE_1
  1

  0
MTEXT
  5
3AB
100
AcDbEntity
  8
0
100
AcDbMText
370
-1
 62
0
 10
0.515285536234256
 20
2.94756707355597
 30
0
 40
6.35
  1
m3 countersuck
 50
0
 41
0
  7
SLDTEXTSTYLE0
 71
1
 11
1
 21
0
 31
0
 73
1
 44
1
  0
ENDBLK
  5
A37
100
AcDbEntity
  8
0
100
AcDbBlockEnd
  0
BLOCK
  5
3AF
100
AcDbEntity
  8
0
100
AcDbBlockBegin
  2
SW_NOTE_2
 70
64
 10
0
 20
0
 30
0
  3
SW_NOTE_2
  1

  0
MTEXT
  5
3B1
100
AcDbEntity
  8
0
100
AcDbMText
370
-1
 62
0
 10
0.515285536234256
 20
3.01044160361247
 30
0
 40
6.35
  1
m3 tapping
 50
0
 41
0
  7
SLDTEXTSTYLE0
 71
1
 11
1
 21
0
 31
0
 73
1
 44
1
  0
ENDBLK
  5
A38
100
AcDbEntity
  8
0
100
AcDbBlockEnd
  0
BLOCK
  5
3CE
100
AcDbEntity
  8
0
100
AcDbBlockBegin
  2
_CLOSEDFILLED
 70
0
 10
0
 20
0
 30
0
  3
_CLOSEDFILLED
  1

  0
SOLID
  5
3CC
100
AcDbEntity
  8
0
100
AcDbTrace
370
-2
 62
0
  6
BYLAYER
 10
-1
 20
0.166666666666667
 30
0
 11
0
 21
0
 31
0
 12
-1
 22
0.166666666666667
 32
0
 13
-1
 23
-0.166666666666667
 33
0
  0
LINE
  5
3CD
100
AcDbEntity
  8
0
100
AcDbLine
370
-2
 62
0
  6
BYLAYER
 10
-1
 20
0
 30
0
 11
-2
 21
0
 31
0
  0
ENDBLK
  5
A39
100
AcDbEntity
  8
0
100
AcDbBlockEnd
  0
BLOCK
  5
3EA
100
AcDbEntity
  8
0
100
AcDbBlockBegin
  2
ABViewer_RedLine
 70
1
 10
0
 20
0
 30
0
  3
ABViewer_RedLine
  1

  0
ENDBLK
  5
A3A
100
AcDbEntity
  8
0
100
AcDbBlockEnd
  0
ENDSEC
  0
SECTION
  2
ENTITIES
  0
LINE
  5
7A
100
AcDbEntity
  8
0
100
AcDbLine
370
25
 62
7
  6
CONTINUOUS
 10
874.47267823
 20
266.621249386547
 30
0
 11
837.597458439
 21
266.621249386547
 31
0
  0
LINE
  5
8B
100
AcDbEntity
  8
0
100
AcDbLine
370
25
 62
7
  6
CONTINUOUS
 10
601.059252513786
 20
281.316246923684
 30
0
 11
601.059252513786
 21
269.316246923684
 31
0
  0
ARC
  5
8C
100
AcDbEntity
  8
0
100
AcDbCircle
370
25
 62
7
  6
CONTINUOUS
 10
602.059252513786
 20
269.316246923684
 30
0
 40
1.00000000000006
100
AcDbArc
 50
180
 51
270.000000000001
  0
LINE
  5
8D
100
AcDbEntity
  8
0
100
AcDbLine
370
25
 62
7
  6
CONTINUOUS
 10
602.059252513786
 20
268.316246923684
 30
0
 11
614.059252513786
 21
268.316246923684
 31
0
  0
ARC
  5
8E
100
AcDbEntity
  8
0
100
AcDbCircle
370
25
 62
7
  6
CONTINUOUS
 10
614.059252513786
 20
269.316246923684
 30
0
 40
1.00000000000006
100
AcDbArc
 50
270.000000000001
 51
0
  0
LINE
  5
8F
100
AcDbEntity
  8
0
100
AcDbLine
370
25
 62
7
  6
CONTINUOUS
 10
615.059252513786
 20
269.316246923684
 30
0
 11
615.059252513786
 21
281.316246923684
 31
0
  0
ARC
  5
90
100
AcDbEntity
  8
0
100
AcDbCircle
370
25
 62
7
  6
CONTINUOUS
 10
614.059252513786
 20
281.316246923684
 30
0
 40
1
100
AcDbArc
 50
0
 51
90
  0
LINE
  5
91
100
AcDbEntity
  8
0
100
AcDbLine
370
25
 62
7
  6
CONTINUOUS
 10
614.059252513786
 20
282.316246923684
 30
0
 11
602.059252513786
 21
282.316246923684
 31
0
  0
ARC
  5
92
100
AcDbEntity
  8
0
100
AcDbCircle
370
25
 62
7
  6
CONTINUOUS
 10
602.059252513786
 20
281.316246923684
 30
0
 40
1.00000000000006
100
AcDbArc
 50
90
 51
180
  0
LINE
  5
93
100
AcDbEntity
  8
0
100
AcDbLine
370
25
 62
7
  6
CONTINUOUS
 10
773.704749163743
 20
298.939750692362
 30
0
 11
776.199689453556
 21
287.201979483556
 31
0
  0
ARC
  5
94
100
AcDbEntity
  8
0
100
AcDbCircle
370
25
 62
7
  6
CONTINUOUS
 10
777.177837054289
 20
287.409891174374
 30
0
 40
1.00000000000005
100
AcDbArc
 50
192.000000000005
 51
282.000000000003
  0
LINE
  5
95
100
AcDbEntity
  8
0
100
AcDbLine
370
25
 62
7
  6
CONTINUOUS
 10
777.385748745107
 20
286.43174357364
 30
0
 11
789.123519953913
 21
288.926683863453
 31
0
  0
ARC
  5
96
100
AcDbEntity
  8
0
100
AcDbCircle
370
25
 62
7
  6
CONTINUOUS
 10
788.915608263095
 20
289.904831464187
 30
0
 40
1.00000000000005
100
AcDbArc
 50
282.000000000003
 51
11.9999999999998
  0
LINE
  5
97
100
AcDbEntity
  8
0
100
AcDbLine
370
25
 62
7
  6
CONTINUOUS
 10
789.893755863829
 20
290.112743155005
 30
0
 11
787.398815574016
 21
301.850514363811
 31
0
  0
ARC
  5
98
100
AcDbEntity
  8
0
100
AcDbCircle
370
25
 62
7
  6
CONTINUOUS
 10
786.420667973282
 20
301.642602672993
 30
0
 40
1.00000000000001
100
AcDbArc
 50
12.0000000000062
 51
101.999999999997
  0
LINE
  5
99
100
AcDbEntity
  8
0
100
AcDbLine
370
25
 62
7
  6
CONTINUOUS
 10
786.212756282464
 20
302.620750273727
 30
0
 11
774.474985073659
 21
300.125809983914
 31
0
  0
ARC
  5
9A
100
AcDbEntity
  8
0
100
AcDbCircle
370
25
 62
7
  6
CONTINUOUS
 10
774.682896764476
 20
299.14766238318
 30
0
 40
1.00000000000005
100
AcDbArc
 50
102.000000000002
 51
191.999999999997
  0
LINE
  5
9B
100
AcDbEntity
  8
0
100
AcDbLine
370
25
 62
7
  6
CONTINUOUS
 10
776.964749163743
 20
260.679750692362
 30
0
 11
779.459689453556
 21
248.941979483556
 31
0
  0
ARC
  5
9C
100
AcDbEntity
  8
0
100
AcDbCircle
370
25
 62
7
  6
CONTINUOUS
 10
780.43783705429
 20
249.149891174374
 30
0
 40
1.0000000000001
100
AcDbArc
 50
192.000000000001
 51
282.000000000003
  0
LINE
  5
9D
100
AcDbEntity
  8
0
100
AcDbLine
370
25
 62
7
  6
CONTINUOUS
 10
780.645748745107
 20
248.17174357364
 30
0
 11
792.383519953913
 21
250.666683863453
 31
0
  0
ARC
  5
9E
100
AcDbEntity
  8
0
100
AcDbCircle
370
25
 62
7
  6
CONTINUOUS
 10
792.175608263095
 20
251.644831464187
 30
0
 40
1.00000000000011
100
AcDbArc
 50
282.000000000002
 51
11.999999999995
  0
LINE
  5
9F
100
AcDbEntity
  8
0
100
AcDbLine
370
25
 62
7
  6
CONTINUOUS
 10
793.153755863829
 20
251.852743155005
 30
0
 11
790.658815574016
 21
263.590514363811
 31
0
  0
ARC
  5
A0
100
AcDbEntity
  8
0
100
AcDbCircle
370
25
 62
7
  6
CONTINUOUS
 10
789.680667973282
 20
263.382602672993
 30
0
 40
1.00000000000016
100
AcDbArc
 50
12.0000000000125
 51
102.000000000001
  0
LINE
  5
A1
100
AcDbEntity
  8
0
100
AcDbLine
370
25
 62
7
  6
CONTINUOUS
 10
789.472756282464
 20
264.360750273727
 30
0
 11
777.734985073659
 21
261.865809983914
 31
0
  0
ARC
  5
A2
100
AcDbEntity
  8
0
100
AcDbCircle
370
25
 62
7
  6
CONTINUOUS
 10
777.942896764476
 20
260.88766238318
 30
0
 40
0.999999999999997
100
AcDbArc
 50
102.000000000003
 51
192.000000000001
  0
LINE
  5
A3
100
AcDbEntity
  8
0
100
AcDbLine
370
25
 62
7
  6
CONTINUOUS
 10
595.699252513786
 20
300.366246923684
 30
0
 11
595.699252513786
 21
288.366246923684
 31
0
  0
ARC
  5
A4
100
AcDbEntity
  8
0
100
AcDbCircle
370
25
 62
7
  6
CONTINUOUS
 10
596.699252513786
 20
288.366246923684
 30
0
 40
1
100
AcDbArc
 50
180
 51
270.000000000001
  0
LINE
  5
A5
100
AcDbEntity
  8
0
100
AcDbLine
370
25
 62
7
  6
CONTINUOUS
 10
596.699252513786
 20
287.366246923684
 30
0
 11
608.699252513786
 21
287.366246923684
 31
0
  0
ARC
  5
A6
100
AcDbEntity
  8
0
100
AcDbCircle
370
25
 62
7
  6
CONTINUOUS
 10
608.699252513786
 20
288.366246923684
 30
0
 40
1
100
AcDbArc
 50
270.000000000001
 51
0
  0
LINE
  5
A7
100
AcDbEntity
  8
0
100
AcDbLine
370
25
 62
7
  6
CONTINUOUS
 10
609.699252513786
 20
288.366246923684
 30
0
 11
609.699252513786
 21
300.366246923684
 31
0
  0
ARC
  5
A8
100
AcDbEntity
  8
0
100
AcDbCircle
370
25
 62
7
  6
CONTINUOUS
 10
608.699252513786
 20
300.366246923684
 30
0
 40
0.999999999999943
100
AcDbArc
 50
359.999999999998
 51
90.0000000000065
  0
LINE
  5
A9
100
AcDbEntity
  8
0
100
AcDbLine
370
25
 62
7
  6
CONTINUOUS
 10
608.699252513786
 20
301.366246923684
 30
0
 11
596.699252513786
 21
301.366246923684
 31
0
  0
ARC
  5
AA
100
AcDbEntity
  8
0
100
AcDbCircle
370
25
 62
7
  6
CONTINUOUS
 10
596.699252513786
 20
300.366246923684
 30
0
 40
1
100
AcDbArc
 50
90
 51
180
  0
LINE
  5
AB
100
AcDbEntity
  8
0
100
AcDbLine
370
25
 62
7
  6
CONTINUOUS
 10
614.339252513786
 20
302.506246923684
 30
0
 11
614.339252513786
 21
290.506246923684
 31
0
  0
ARC
  5
AC
100
AcDbEntity
  8
0
100
AcDbCircle
370
25
 62
7
  6
CONTINUOUS
 10
615.339252513786
 20
290.506246923684
 30
0
 40
1
100
AcDbArc
 50
180
 51
270.000000000001
  0
LINE
  5
AD
100
AcDbEntity
  8
0
100
AcDbLine
370
25
 62
7
  6
CONTINUOUS
 10
615.339252513786
 20
289.506246923684
 30
0
 11
627.339252513786
 21
289.506246923684
 31
0
  0
ARC
  5
AE
100
AcDbEntity
  8
0
100
AcDbCircle
370
25
 62
7
  6
CONTINUOUS
 10
627.339252513786
 20
290.506246923684
 30
0
 40
1
100
AcDbArc
 50
270.000000000007
 51
0
  0
LINE
  5
AF
100
AcDbEntity
  8
0
100
AcDbLine
370
25
 62
7
  6
CONTINUOUS
 10
628.339252513786
 20
290.506246923684
 30
0
 11
628.339252513786
 21
302.506246923684
 31
0
  0
ARC
  5
B0
100
AcDbEntity
  8
0
100
AcDbCircle
370
25
 62
7
  6
CONTINUOUS
 10
627.339252513786
 20
302.506246923684
 30
0
 40
1
100
AcDbArc
 50
0
 51
89.9999999999935
  0
LINE
  5
B1
100
AcDbEntity
  8
0
100
AcDbLine
370
25
 62
7
  6
CONTINUOUS
 10
627.339252513786
 20
303.506246923684
 30
0
 11
615.339252513786
 21
303.506246923684
 31
0
  0
ARC
  5
B2
100
AcDbEntity
  8
0
100
AcDbCircle
370
25
 62
7
  6
CONTINUOUS
 10
615.339252513786
 20
302.506246923684
 30
0
 40
1
100
AcDbArc
 50
90
 51
180
  0
LINE
  5
B3
100
AcDbEntity
  8
0
100
AcDbLine
370
25
 62
7
  6
CONTINUOUS
 10
768.344749163743
 20
278.329750692362
 30
0
 11
770.839689453556
 21
266.591979483556
 31
0
  0
ARC
  5
B4
100
AcDbEntity
  8
0
100
AcDbCircle
370
25
 62
7
  6
CONTINUOUS
 10
771.817837054289
 20
266.799891174374
 30
0
 40
0.999999999999997
100
AcDbArc
 50
192.000000000004
 51
282.000000000004
  0
LINE
  5
B5
100
AcDbEntity
  8
0
100
AcDbLine
370
25
 62
7
  6
CONTINUOUS
 10
772.025748745107
 20
265.82174357364
 30
0
 11
783.763519953913
 21
268.316683863454
 31
0
  0
ARC
  5
B6
100
AcDbEntity
  8
0
100
AcDbCircle
370
25
 62
7
  6
CONTINUOUS
 10
783.555608263095
 20
269.294831464188
 30
0
 40
1.00000000000024
100
AcDbArc
 50
282.000000000007
 51
11.9999999999843
  0
LINE
  5
B7
100
AcDbEntity
  8
0
100
AcDbLine
370
25
 62
7
  6
CONTINUOUS
 10
784.533755863829
 20
269.502743155005
 30
0
 11
782.038815574016
 21
281.240514363811
 31
0
  0
ARC
  5
B8
100
AcDbEntity
  8
0
100
AcDbCircle
370
25
 62
7
  6
CONTINUOUS
 10
781.060667973282
 20
281.032602672993
 30
0
 40
1.00000000000023
100
AcDbArc
 50
12.0000000000034
 51
101.999999999988
  0
LINE
  5
B9
100
AcDbEntity
  8
0
100
AcDbLine
370
25
 62
7
  6
CONTINUOUS
 10
780.852756282464
 20
282.010750273727
 30
0
 11
769.114985073659
 21
279.515809983914
 31
0
  0
ARC
  5
BA
100
AcDbEntity
  8
0
100
AcDbCircle
370
25
 62
7
  6
CONTINUOUS
 10
769.322896764476
 20
278.53766238318
 30
0
 40
1.00000000000013
100
AcDbArc
 50
102.000000000008
 51
191.999999999996
  0
LINE
  5
BB
100
AcDbEntity
  8
0
100
AcDbLine
370
25
 62
7
  6
CONTINUOUS
 10
576.649252513786
 20
300.366246923684
 30
0
 11
576.649252513786
 21
288.366246923684
 31
0
  0
ARC
  5
BC
100
AcDbEntity
  8
0
100
AcDbCircle
370
25
 62
7
  6
CONTINUOUS
 10
577.649252513786
 20
288.366246923684
 30
0
 40
1.00000000000011
100
AcDbArc
 50
180
 51
270.000000000001
  0
LINE
  5
BD
100
AcDbEntity
  8
0
100
AcDbLine
370
25
 62
7
  6
CONTINUOUS
 10
577.649252513786
 20
287.366246923684
 30
0
 11
589.649252513786
 21
287.366246923684
 31
0
  0
ARC
  5
BE
100
AcDbEntity
  8
0
100
AcDbCircle
370
25
 62
7
  6
CONTINUOUS
 10
589.649252513786
 20
288.366246923684
 30
0
 40
1
100
AcDbArc
 50
270.000000000001
 51
0
  0
LINE
  5
BF
100
AcDbEntity
  8
0
100
AcDbLine
370
25
 62
7
  6
CONTINUOUS
 10
590.649252513786
 20
288.366246923684
 30
0
 11
590.649252513786
 21
300.366246923684
 31
0
  0
ARC
  5
C0
100
AcDbEntity
  8
0
100
AcDbCircle
370
25
 62
7
  6
CONTINUOUS
 10
589.649252513786
 20
300.366246923684
 30
0
 40
1
100
AcDbArc
 50
0
 51
90
  0
LINE
  5
C1
100
AcDbEntity
  8
0
100
AcDbLine
370
25
 62
7
  6
CONTINUOUS
 10
589.649252513786
 20
301.366246923684
 30
0
 11
577.649252513786
 21
301.366246923684
 31
0
  0
ARC
  5
C2
100
AcDbEntity
  8
0
100
AcDbCircle
370
25
 62
7
  6
CONTINUOUS
 10
577.649252513786
 20
300.366246923684
 30
0
 40
1.00000000000011
100
AcDbArc
 50
90
 51
180
  0
LINE
  5
C3
100
AcDbEntity
  8
0
100
AcDbLine
370
25
 62
7
  6
CONTINUOUS
 10
684.910824835493
 20
231.098361233576
 30
0
 11
682.41588454568
 21
219.36059002477
 31
0
  0
ARC
  5
C4
100
AcDbEntity
  8
0
100
AcDbCircle
370
25
 62
7
  6
CONTINUOUS
 10
683.394032146413
 20
219.152678333952
 30
0
 40
1.00000000000011
100
AcDbArc
 50
168.000000000005
 51
257.999999999999
  0
LINE
  5
C5
100
AcDbEntity
  8
0
100
AcDbLine
370
25
 62
7
  6
CONTINUOUS
 10
683.186120455596
 20
218.174530733219
 30
0
 11
694.923891664401
 21
215.679590443405
 31
0
  0
ARC
  5
C6
100
AcDbEntity
  8
0
100
AcDbCircle
370
25
 62
7
  6
CONTINUOUS
 10
695.131803355219
 20
216.657738044139
 30
0
 40
1
100
AcDbArc
 50
258.000000000005
 51
348.000000000003
  0
LINE
  5
C7
100
AcDbEntity
  8
0
100
AcDbLine
370
25
 62
7
  6
CONTINUOUS
 10
696.109950955953
 20
216.449826353322
 30
0
 11
698.604891245766
 21
228.187597562127
 31
0
  0
ARC
  5
C8
100
AcDbEntity
  8
0
100
AcDbCircle
370
25
 62
7
  6
CONTINUOUS
 10
697.626743645032
 20
228.395509252945
 30
0
 40
0.999999999999997
100
AcDbArc
 50
347.999999999998
 51
77.9999999999967
  0
LINE
  5
C9
100
AcDbEntity
  8
0
100
AcDbLine
370
25
 62
7
  6
CONTINUOUS
 10
697.83465533585
 20
229.373656853679
 30
0
 11
686.096884127044
 21
231.868597143492
 31
0
  0
ARC
  5
CA
100
AcDbEntity
  8
0
100
AcDbCircle
370
25
 62
7
  6
CONTINUOUS
 10
685.888972436226
 20
230.890449542758
 30
0
 40
0.999999999999909
100
AcDbArc
 50
77.9999999999893
 51
168.000000000005
  0
LINE
  5
CB
100
AcDbEntity
  8
0
100
AcDbLine
370
25
 62
7
  6
CONTINUOUS
 10
607.109252513786
 20
243.216246923684
 30
0
 11
607.109252513786
 21
231.216246923684
 31
0
  0
ARC
  5
CC
100
AcDbEntity
  8
0
100
AcDbCircle
370
25
 62
7
  6
CONTINUOUS
 10
608.109252513786
 20
231.216246923684
 30
0
 40
1.00000000000003
100
AcDbArc
 50
180.000000000004
 51
270.000000000001
  0
LINE
  5
CD
100
AcDbEntity
  8
0
100
AcDbLine
370
25
 62
7
  6
CONTINUOUS
 10
608.109252513786
 20
230.216246923684
 30
0
 11
620.109252513786
 21
230.216246923684
 31
0
  0
ARC
  5
CE
100
AcDbEntity
  8
0
100
AcDbCircle
370
25
 62
7
  6
CONTINUOUS
 10
620.109252513786
 20
231.216246923684
 30
0
 40
1
100
AcDbArc
 50
270.000000000001
 51
0
  0
LINE
  5
CF
100
AcDbEntity
  8
0
100
AcDbLine
370
25
 62
7
  6
CONTINUOUS
 10
621.109252513786
 20
231.216246923684
 30
0
 11
621.109252513786
 21
243.216246923684
 31
0
  0
ARC
  5
D0
100
AcDbEntity
  8
0
100
AcDbCircle
370
25
 62
7
  6
CONTINUOUS
 10
620.109252513786
 20
243.216246923684
 30
0
 40
1
100
AcDbArc
 50
0
 51
90
  0
LINE
  5
D1
100
AcDbEntity
  8
0
100
AcDbLine
370
25
 62
7
  6
CONTINUOUS
 10
620.109252513786
 20
244.216246923684
 30
0
 11
608.109252513786
 21
244.216246923684
 31
0
  0
ARC
  5
D2
100
AcDbEntity
  8
0
100
AcDbCircle
370
25
 62
7
  6
CONTINUOUS
 10
608.109252513786
 20
243.216246923684
 30
0
 40
1
100
AcDbArc
 50
90
 51
180
  0
LINE
  5
D3
100
AcDbEntity
  8
0
100
AcDbLine
370
25
 62
7
  6
CONTINUOUS
 10
678.860824835493
 20
271.338361233576
 30
0
 11
676.365884545679
 21
259.60059002477
 31
0
  0
ARC
  5
D4
100
AcDbEntity
  8
0
100
AcDbCircle
370
25
 62
7
  6
CONTINUOUS
 10
677.344032146413
 20
259.392678333952
 30
0
 40
1.00000000000008
100
AcDbArc
 50
168.000000000005
 51
257.999999999991
  0
LINE
  5
D5
100
AcDbEntity
  8
0
100
AcDbLine
370
25
 62
7
  6
CONTINUOUS
 10
677.136120455595
 20
258.414530733219
 30
0
 11
688.873891664401
 21
255.919590443405
 31
0
  0
ARC
  5
D6
100
AcDbEntity
  8
0
100
AcDbCircle
370
25
 62
7
  6
CONTINUOUS
 10
689.081803355219
 20
256.897738044139
 30
0
 40
0.999999999999973
100
AcDbArc
 50
257.999999999997
 51
348.000000000004
  0
LINE
  5
D7
100
AcDbEntity
  8
0
100
AcDbLine
370
25
 62
7
  6
CONTINUOUS
 10
690.059950955953
 20
256.689826353322
 30
0
 11
692.554891245766
 21
268.427597562127
 31
0
  0
ARC
  5
D8
100
AcDbEntity
  8
0
100
AcDbCircle
370
25
 62
7
  6
CONTINUOUS
 10
691.576743645032
 20
268.635509252945
 30
0
 40
0.999999999999909
100
AcDbArc
 50
347.99999999999
 51
78.000000000002
  0
LINE
  5
D9
100
AcDbEntity
  8
0
100
AcDbLine
370
25
 62
7
  6
CONTINUOUS
 10
691.78465533585
 20
269.613656853679
 30
0
 11
680.046884127044
 21
272.108597143492
 31
0
  0
ARC
  5
DA
100
AcDbEntity
  8
0
100
AcDbCircle
370
25
 62
7
  6
CONTINUOUS
 10
679.838972436226
 20
271.130449542758
 30
0
 40
0.999999999999997
100
AcDbArc
 50
77.999999999997
 51
168.000000000003
  0
LINE
  5
DB
100
AcDbEntity
  8
0
100
AcDbLine
370
25
 62
7
  6
CONTINUOUS
 10
679.560824835493
 20
251.708361233576
 30
0
 11
677.06588454568
 21
239.97059002477
 31
0
  0
ARC
  5
DC
100
AcDbEntity
  8
0
100
AcDbCircle
370
25
 62
7
  6
CONTINUOUS
 10
678.044032146413
 20
239.762678333952
 30
0
 40
0.999999999999997
100
AcDbArc
 50
168
 51
257.999999999998
  0
LINE
  5
DD
100
AcDbEntity
  8
0
100
AcDbLine
370
25
 62
7
  6
CONTINUOUS
 10
677.836120455596
 20
238.784530733219
 30
0
 11
689.573891664401
 21
236.289590443405
 31
0
  0
ARC
  5
DE
100
AcDbEntity
  8
0
100
AcDbCircle
370
25
 62
7
  6
CONTINUOUS
 10
689.781803355219
 20
237.267738044139
 30
0
 40
1.00000000000003
100
AcDbArc
 50
258.000000000005
 51
347.999999999998
  0
LINE
  5
DF
100
AcDbEntity
  8
0
100
AcDbLine
370
25
 62
7
  6
CONTINUOUS
 10
690.759950955953
 20
237.059826353322
 30
0
 11
693.254891245766
 21
248.797597562127
 31
0
  0
ARC
  5
E0
100
AcDbEntity
  8
0
100
AcDbCircle
370
25
 62
7
  6
CONTINUOUS
 10
692.276743645032
 20
249.005509252945
 30
0
 40
1.00000000000001
100
AcDbArc
 50
347.999999999995
 51
77.999999999996
  0
LINE
  5
E1
100
AcDbEntity
  8
0
100
AcDbLine
370
25
 62
7
  6
CONTINUOUS
 10
692.48465533585
 20
249.983656853679
 30
0
 11
680.746884127044
 21
252.478597143492
 31
0
  0
ARC
  5
E2
100
AcDbEntity
  8
0
100
AcDbCircle
370
25
 62
7
  6
CONTINUOUS
 10
680.538972436226
 20
251.500449542758
 30
0
 40
0.999999999999973
100
AcDbArc
 50
78.0000000000027
 51
168.000000000003
  0
LINE
  5
E3
100
AcDbEntity
  8
0
100
AcDbLine
370
25
 62
7
  6
CONTINUOUS
 10
813.929252513786
 20
300.366246923684
 30
0
 11
813.929252513786
 21
288.366246923684
 31
0
  0
ARC
  5
E4
100
AcDbEntity
  8
0
100
AcDbCircle
370
25
 62
7
  6
CONTINUOUS
 10
814.929252513786
 20
288.366246923684
 30
0
 40
1.00000000000006
100
AcDbArc
 50
180.000000000004
 51
270.000000000001
  0
LINE
  5
E5
100
AcDbEntity
  8
0
100
AcDbLine
370
25
 62
7
  6
CONTINUOUS
 10
814.929252513786
 20
287.366246923684
 30
0
 11
826.929252513786
 21
287.366246923684
 31
0
  0
ARC
  5
E6
100
AcDbEntity
  8
0
100
AcDbCircle
370
25
 62
7
  6
CONTINUOUS
 10
826.929252513786
 20
288.366246923683
 30
0
 40
1
100
AcDbArc
 50
270.000000000001
 51
0
  0
LINE
  5
E7
100
AcDbEntity
  8
0
100
AcDbLine
370
25
 62
7
  6
CONTINUOUS
 10
827.929252513786
 20
288.366246923683
 30
0
 11
827.929252513786
 21
300.366246923684
 31
0
  0
ARC
  5
E8
100
AcDbEntity
  8
0
100
AcDbCircle
370
25
 62
7
  6
CONTINUOUS
 10
826.929252513786
 20
300.366246923684
 30
0
 40
1
100
AcDbArc
 50
359.999999999998
 51
90
  0
LINE
  5
E9
100
AcDbEntity
  8
0
100
AcDbLine
370
25
 62
7
  6
CONTINUOUS
 10
826.929252513786
 20
301.366246923684
 30
0
 11
814.929252513786
 21
301.366246923684
 31
0
  0
ARC
  5
EA
100
AcDbEntity
  8
0
100
AcDbCircle
370
25
 62
7
  6
CONTINUOUS
 10
814.929252513786
 20
300.366246923684
 30
0
 40
1.00000000000006
100
AcDbArc
 50
90
 51
179.999999999997
  0
LINE
  5
EB
100
AcDbEntity
  8
0
100
AcDbLine
370
25
 62
7
  6
CONTINUOUS
 10
795.299252513786
 20
302.506246923684
 30
0
 11
795.299252513786
 21
290.506246923684
 31
0
  0
ARC
  5
EC
100
AcDbEntity
  8
0
100
AcDbCircle
370
25
 62
7
  6
CONTINUOUS
 10
796.299252513786
 20
290.506246923684
 30
0
 40
1.00000000000011
100
AcDbArc
 50
180
 51
270.000000000001
  0
LINE
  5
ED
100
AcDbEntity
  8
0
100
AcDbLine
370
25
 62
7
  6
CONTINUOUS
 10
796.299252513786
 20
289.506246923684
 30
0
 11
808.299252513786
 21
289.506246923684
 31
0
  0
ARC
  5
EE
100
AcDbEntity
  8
0
100
AcDbCircle
370
25
 62
7
  6
CONTINUOUS
 10
808.299252513786
 20
290.506246923684
 30
0
 40
1.00000000000006
100
AcDbArc
 50
270.000000000007
 51
0
  0
LINE
  5
EF
100
AcDbEntity
  8
0
100
AcDbLine
370
25
 62
7
  6
CONTINUOUS
 10
809.299252513786
 20
290.506246923684
 30
0
 11
809.299252513786
 21
302.506246923684
 31
0
  0
ARC
  5
F0
100
AcDbEntity
  8
0
100
AcDbCircle
370
25
 62
7
  6
CONTINUOUS
 10
808.299252513786
 20
302.506246923684
 30
0
 40
1
100
AcDbArc
 50
0
 51
90
  0
LINE
  5
F1
100
AcDbEntity
  8
0
100
AcDbLine
370
25
 62
7
  6
CONTINUOUS
 10
808.299252513786
 20
303.506246923684
 30
0
 11
796.299252513786
 21
303.506246923684
 31
0
  0
ARC
  5
F2
100
AcDbEntity
  8
0
100
AcDbCircle
370
25
 62
7
  6
CONTINUOUS
 10
796.299252513786
 20
302.506246923684
 30
0
 40
1.00000000000011
100
AcDbArc
 50
90
 51
180
  0
LINE
  5
F3
100
AcDbEntity
  8
0
100
AcDbLine
370
25
 62
7
  6
CONTINUOUS
 10
692.140824835493
 20
287.988361233576
 30
0
 11
689.64588454568
 21
276.25059002477
 31
0
  0
ARC
  5
F4
100
AcDbEntity
  8
0
100
AcDbCircle
370
25
 62
7
  6
CONTINUOUS
 10
690.624032146413
 20
276.042678333952
 30
0
 40
0.999999999999997
100
AcDbArc
 50
168
 51
257.999999999998
  0
LINE
  5
F5
100
AcDbEntity
  8
0
100
AcDbLine
370
25
 62
7
  6
CONTINUOUS
 10
690.416120455596
 20
275.064530733219
 30
0
 11
702.153891664401
 21
272.569590443405
 31
0
  0
ARC
  5
F6
100
AcDbEntity
  8
0
100
AcDbCircle
370
25
 62
7
  6
CONTINUOUS
 10
702.361803355219
 20
273.547738044139
 30
0
 40
0.999999999999973
100
AcDbArc
 50
258.000000000004
 51
348.000000000003
  0
LINE
  5
F7
100
AcDbEntity
  8
0
100
AcDbLine
370
25
 62
7
  6
CONTINUOUS
 10
703.339950955953
 20
273.339826353322
 30
0
 11
705.834891245766
 21
285.077597562127
 31
0
  0
ARC
  5
F8
100
AcDbEntity
  8
0
100
AcDbCircle
370
25
 62
7
  6
CONTINUOUS
 10
704.856743645032
 20
285.285509252945
 30
0
 40
0.999999999999917
100
AcDbArc
 50
347.999999999993
 51
78.0000000000027
  0
LINE
  5
F9
100
AcDbEntity
  8
0
100
AcDbLine
370
25
 62
7
  6
CONTINUOUS
 10
705.06465533585
 20
286.263656853679
 30
0
 11
693.326884127044
 21
288.758597143492
 31
0
  0
ARC
  5
FA
100
AcDbEntity
  8
0
100
AcDbCircle
370
25
 62
7
  6
CONTINUOUS
 10
693.118972436226
 20
287.780449542758
 30
0
 40
0.999999999999941
100
AcDbArc
 50
77.9999999999963
 51
168.000000000002
  0
LINE
  5
FB
100
AcDbEntity
  8
0
100
AcDbLine
370
25
 62
7
  6
CONTINUOUS
 10
851.439252513786
 20
281.316246923684
 30
0
 11
851.439252513786
 21
269.316246923684
 31
0
  0
ARC
  5
FC
100
AcDbEntity
  8
0
100
AcDbCircle
370
25
 62
7
  6
CONTINUOUS
 10
852.439252513786
 20
269.316246923684
 30
0
 40
1.00000000000011
100
AcDbArc
 50
180
 51
269.999999999994
  0
LINE
  5
FD
100
AcDbEntity
  8
0
100
AcDbLine
370
25
 62
7
  6
CONTINUOUS
 10
852.439252513786
 20
268.316246923684
 30
0
 11
864.439252513786
 21
268.316246923684
 31
0
  0
ARC
  5
FE
100
AcDbEntity
  8
0
100
AcDbCircle
370
25
 62
7
  6
CONTINUOUS
 10
864.439252513786
 20
269.316246923683
 30
0
 40
0.999999999999943
100
AcDbArc
 50
269.999999999994
 51
0
  0
LINE
  5
FF
100
AcDbEntity
  8
0
100
AcDbLine
370
25
 62
7
  6
CONTINUOUS
 10
865.439252513786
 20
269.316246923683
 30
0
 11
865.439252513786
 21
281.316246923684
 31
0
  0
ARC
  5
100
100
AcDbEntity
  8
0
100
AcDbCircle
370
25
 62
7
  6
CONTINUOUS
 10
864.439252513786
 20
281.316246923684
 30
0
 40
1.00000000000006
100
AcDbArc
 50
0
 51
90.0000000000065
  0
LINE
  5
101
100
AcDbEntity
  8
0
100
AcDbLine
370
25
 62
7
  6
CONTINUOUS
 10
864.439252513786
 20
282.316246923684
 30
0
 11
852.439252513786
 21
282.316246923684
 31
0
  0
ARC
  5
102
100
AcDbEntity
  8
0
100
AcDbCircle
370
25
 62
7
  6
CONTINUOUS
 10
852.439252513786
 20
281.316246923684
 30
0
 40
1.00000000000011
100
AcDbArc
 50
90.0000000000065
 51
179.999999999997
  0
LINE
  5
103
100
AcDbEntity
  8
0
100
AcDbLine
370
25
 62
7
  6
CONTINUOUS
 10
666.277113041514
 20
235.059078943654
 30
0
 11
663.782172751701
 21
223.321307734848
 31
0
  0
ARC
  5
104
100
AcDbEntity
  8
0
100
AcDbCircle
370
25
 62
7
  6
CONTINUOUS
 10
664.760320352434
 20
223.113396044031
 30
0
 40
1.0000000000001
100
AcDbArc
 50
168.000000000002
 51
257.999999999998
  0
LINE
  5
105
100
AcDbEntity
  8
0
100
AcDbLine
370
25
 62
7
  6
CONTINUOUS
 10
664.552408661617
 20
222.135248443297
 30
0
 11
676.290179870422
 21
219.640308153484
 31
0
  0
ARC
  5
106
100
AcDbEntity
  8
0
100
AcDbCircle
370
25
 62
7
  6
CONTINUOUS
 10
676.49809156124
 20
220.618455754217
 30
0
 40
0.999999999999913
100
AcDbArc
 50
257.999999999997
 51
348.000000000006
  0
LINE
  5
107
100
AcDbEntity
  8
0
100
AcDbLine
370
25
 62
7
  6
CONTINUOUS
 10
677.476239161974
 20
220.4105440634
 30
0
 11
679.971179451787
 21
232.148315272205
 31
0
  0
ARC
  5
108
100
AcDbEntity
  8
0
100
AcDbCircle
370
25
 62
7
  6
CONTINUOUS
 10
678.993031851053
 20
232.356226963023
 30
0
 40
0.999999999999997
100
AcDbArc
 50
347.999999999999
 51
77.999999999997
  0
LINE
  5
109
100
AcDbEntity
  8
0
100
AcDbLine
370
25
 62
7
  6
CONTINUOUS
 10
679.200943541871
 20
233.334374563757
 30
0
 11
667.463172333065
 21
235.82931485357
 31
0
  0
ARC
  5
10A
100
AcDbEntity
  8
0
100
AcDbCircle
370
25
 62
7
  6
CONTINUOUS
 10
667.255260642247
 20
234.851167252836
 30
0
 40
0.999999999999985
100
AcDbArc
 50
78.0000000000034
 51
168
  0
LINE
  5
10B
100
AcDbEntity
  8
0
100
AcDbLine
370
25
 62
7
  6
CONTINUOUS
 10
715.703613781806
 20
228.187597562127
 30
0
 11
718.198554071619
 21
216.449826353321
 31
0
  0
ARC
  5
10C
100
AcDbEntity
  8
0
100
AcDbCircle
370
25
 62
7
  6
CONTINUOUS
 10
719.176701672352
 20
216.657738044139
 30
0
 40
1.00000000000005
100
AcDbArc
 50
192.000000000004
 51
282.000000000003
  0
LINE
  5
10D
100
AcDbEntity
  8
0
100
AcDbLine
370
25
 62
7
  6
CONTINUOUS
 10
719.38461336317
 20
215.679590443405
 30
0
 11
731.122384571976
 21
218.174530733218
 31
0
  0
ARC
  5
10E
100
AcDbEntity
  8
0
100
AcDbCircle
370
25
 62
7
  6
CONTINUOUS
 10
730.914472881158
 20
219.152678333952
 30
0
 40
1.00000000000009
100
AcDbArc
 50
282.000000000003
 51
11.9999999999968
  0
LINE
  5
10F
100
AcDbEntity
  8
0
100
AcDbLine
370
25
 62
7
  6
CONTINUOUS
 10
731.892620481892
 20
219.36059002477
 30
0
 11
729.397680192079
 21
231.098361233576
 31
0
  0
ARC
  5
110
100
AcDbEntity
  8
0
100
AcDbCircle
370
25
 62
7
  6
CONTINUOUS
 10
728.419532591345
 20
230.890449542758
 30
0
 40
1.00000000000013
100
AcDbArc
 50
12.0000000000064
 51
102.000000000002
  0
LINE
  5
111
100
AcDbEntity
  8
0
100
AcDbLine
370
25
 62
7
  6
CONTINUOUS
 10
728.211620900527
 20
231.868597143492
 30
0
 11
716.473849691722
 21
229.373656853679
 31
0
  0
ARC
  5
112
100
AcDbEntity
  8
0
100
AcDbCircle
370
25
 62
7
  6
CONTINUOUS
 10
716.681761382539
 20
228.395509252945
 30
0
 40
0.999999999999945
100
AcDbArc
 50
101.999999999997
 51
192.000000000004
  0
LINE
  5
113
100
AcDbEntity
  8
0
100
AcDbLine
370
25
 62
7
  6
CONTINUOUS
 10
789.939252513786
 20
282.376246923684
 30
0
 11
789.939252513786
 21
270.376246923684
 31
0
  0
ARC
  5
114
100
AcDbEntity
  8
0
100
AcDbCircle
370
25
 62
7
  6
CONTINUOUS
 10
790.939252513786
 20
270.376246923684
 30
0
 40
1.00000000000011
100
AcDbArc
 50
180.000000000004
 51
270.000000000001
  0
LINE
  5
115
100
AcDbEntity
  8
0
100
AcDbLine
370
25
 62
7
  6
CONTINUOUS
 10
790.939252513786
 20
269.376246923684
 30
0
 11
802.939252513786
 21
269.376246923684
 31
0
  0
ARC
  5
116
100
AcDbEntity
  8
0
100
AcDbCircle
370
25
 62
7
  6
CONTINUOUS
 10
802.939252513786
 20
270.376246923684
 30
0
 40
1
100
AcDbArc
 50
270.000000000007
 51
0
  0
LINE
  5
117
100
AcDbEntity
  8
0
100
AcDbLine
370
25
 62
7
  6
CONTINUOUS
 10
803.939252513786
 20
270.376246923684
 30
0
 11
803.939252513786
 21
282.376246923684
 31
0
  0
ARC
  5
118
100
AcDbEntity
  8
0
100
AcDbCircle
370
25
 62
7
  6
CONTINUOUS
 10
802.939252513786
 20
282.376246923684
 30
0
 40
1
100
AcDbArc
 50
0
 51
90
  0
LINE
  5
119
100
AcDbEntity
  8
0
100
AcDbLine
370
25
 62
7
  6
CONTINUOUS
 10
802.939252513786
 20
283.376246923684
 30
0
 11
790.939252513786
 21
283.376246923684
 31
0
  0
ARC
  5
11A
100
AcDbEntity
  8
0
100
AcDbCircle
370
25
 62
7
  6
CONTINUOUS
 10
790.939252513786
 20
282.376246923684
 30
0
 40
1.00000000000011
100
AcDbArc
 50
90
 51
179.999999999997
  0
LINE
  5
11B
100
AcDbEntity
  8
0
100
AcDbLine
370
25
 62
7
  6
CONTINUOUS
 10
660.227113041514
 20
275.299078943654
 30
0
 11
657.7321727517
 21
263.561307734848
 31
0
  0
ARC
  5
11C
100
AcDbEntity
  8
0
100
AcDbCircle
370
25
 62
7
  6
CONTINUOUS
 10
658.710320352434
 20
263.353396044031
 30
0
 40
1.00000000000005
100
AcDbArc
 50
168.000000000003
 51
257.999999999999
  0
LINE
  5
11D
100
AcDbEntity
  8
0
100
AcDbLine
370
25
 62
7
  6
CONTINUOUS
 10
658.502408661616
 20
262.375248443297
 30
0
 11
670.240179870422
 21
259.880308153484
 31
0
  0
ARC
  5
11E
100
AcDbEntity
  8
0
100
AcDbCircle
370
25
 62
7
  6
CONTINUOUS
 10
670.44809156124
 20
260.858455754218
 30
0
 40
0.999999999999997
100
AcDbArc
 50
257.999999999998
 51
348.000000000003
  0
LINE
  5
11F
100
AcDbEntity
  8
0
100
AcDbLine
370
25
 62
7
  6
CONTINUOUS
 10
671.426239161974
 20
260.6505440634
 30
0
 11
673.921179451787
 21
272.388315272205
 31
0
  0
ARC
  5
120
100
AcDbEntity
  8
0
100
AcDbCircle
370
25
 62
7
  6
CONTINUOUS
 10
672.943031851053
 20
272.596226963023
 30
0
 40
0.999999999999917
100
AcDbArc
 50
347.999999999996
 51
78.0000000000027
  0
LINE
  5
121
100
AcDbEntity
  8
0
100
AcDbLine
370
25
 62
7
  6
CONTINUOUS
 10
673.150943541871
 20
273.574374563757
 30
0
 11
661.413172333065
 21
276.06931485357
 31
0
  0
ARC
  5
122
100
AcDbEntity
  8
0
100
AcDbCircle
370
25
 62
7
  6
CONTINUOUS
 10
661.205260642247
 20
275.091167252836
 30
0
 40
0.999999999999973
100
AcDbArc
 50
77.9999999999963
 51
168.000000000003
  0
LINE
  5
123
100
AcDbEntity
  8
0
100
AcDbLine
370
25
 62
7
  6
CONTINUOUS
 10
660.927113041514
 20
255.669078943654
 30
0
 11
658.4321727517
 21
243.931307734848
 31
0
  0
ARC
  5
124
100
AcDbEntity
  8
0
100
AcDbCircle
370
25
 62
7
  6
CONTINUOUS
 10
659.410320352434
 20
243.723396044031
 30
0
 40
1
100
AcDbArc
 50
167.999999999995
 51
258.00000000001
  0
LINE
  5
125
100
AcDbEntity
  8
0
100
AcDbLine
370
25
 62
7
  6
CONTINUOUS
 10
659.202408661617
 20
242.745248443297
 30
0
 11
670.940179870422
 21
240.250308153484
 31
0
  0
ARC
  5
126
100
AcDbEntity
  8
0
100
AcDbCircle
370
25
 62
7
  6
CONTINUOUS
 10
671.14809156124
 20
241.228455754217
 30
0
 40
0.999999999999967
100
AcDbArc
 50
257.999999999997
 51
348.000000000006
  0
LINE
  5
127
100
AcDbEntity
  8
0
100
AcDbLine
370
25
 62
7
  6
CONTINUOUS
 10
672.126239161974
 20
241.0205440634
 30
0
 11
674.621179451787
 21
252.758315272205
 31
0
  0
ARC
  5
128
100
AcDbEntity
  8
0
100
AcDbCircle
370
25
 62
7
  6
CONTINUOUS
 10
673.643031851053
 20
252.966226963023
 30
0
 40
0.999999999999997
100
AcDbArc
 50
347.999999999998
 51
77.9999999999967
  0
LINE
  5
129
100
AcDbEntity
  8
0
100
AcDbLine
370
25
 62
7
  6
CONTINUOUS
 10
673.850943541871
 20
253.944374563757
 30
0
 11
662.113172333065
 21
256.43931485357
 31
0
  0
ARC
  5
12A
100
AcDbEntity
  8
0
100
AcDbCircle
370
25
 62
7
  6
CONTINUOUS
 10
661.905260642247
 20
255.461167252836
 30
0
 40
1.00000000000008
100
AcDbArc
 50
78.0000000000031
 51
168.000000000006
  0
LINE
  5
12B
100
AcDbEntity
  8
0
100
AcDbLine
370
25
 62
7
  6
CONTINUOUS
 10
721.063613781806
 20
248.797597562127
 30
0
 11
723.558554071619
 21
237.059826353321
 31
0
  0
ARC
  5
12C
100
AcDbEntity
  8
0
100
AcDbCircle
370
25
 62
7
  6
CONTINUOUS
 10
724.536701672352
 20
237.267738044139
 30
0
 40
1.00000000000013
100
AcDbArc
 50
192.000000000007
 51
281.999999999996
  0
LINE
  5
12D
100
AcDbEntity
  8
0
100
AcDbLine
370
25
 62
7
  6
CONTINUOUS
 10
724.74461336317
 20
236.289590443405
 30
0
 11
736.482384571976
 21
238.784530733218
 31
0
  0
ARC
  5
12E
100
AcDbEntity
  8
0
100
AcDbCircle
370
25
 62
7
  6
CONTINUOUS
 10
736.274472881158
 20
239.762678333952
 30
0
 40
1.00000000000008
100
AcDbArc
 50
282.000000000003
 51
11.9999999999982
  0
LINE
  5
12F
100
AcDbEntity
  8
0
100
AcDbLine
370
25
 62
7
  6
CONTINUOUS
 10
737.252620481892
 20
239.97059002477
 30
0
 11
734.757680192079
 21
251.708361233576
 31
0
  0
ARC
  5
130
100
AcDbEntity
  8
0
100
AcDbCircle
370
25
 62
7
  6
CONTINUOUS
 10
733.779532591345
 20
251.500449542758
 30
0
 40
1.00000000000011
100
AcDbArc
 50
12.0000000000093
 51
102.000000000002
  0
LINE
  5
131
100
AcDbEntity
  8
0
100
AcDbLine
370
25
 62
7
  6
CONTINUOUS
 10
733.571620900527
 20
252.478597143492
 30
0
 11
721.833849691722
 21
249.983656853679
 31
0
  0
ARC
  5
132
100
AcDbEntity
  8
0
100
AcDbCircle
370
25
 62
7
  6
CONTINUOUS
 10
722.041761382539
 20
249.005509252945
 30
0
 40
1.00000000000009
100
AcDbArc
 50
102.000000000002
 51
191.999999999998
  0
LINE
  5
133
100
AcDbEntity
  8
0
100
AcDbLine
370
25
 62
7
  6
CONTINUOUS
 10
798.559252513786
 20
262.266246923684
 30
0
 11
798.559252513786
 21
250.266246923684
 31
0
  0
ARC
  5
134
100
AcDbEntity
  8
0
100
AcDbCircle
370
25
 62
7
  6
CONTINUOUS
 10
799.559252513786
 20
250.266246923684
 30
0
 40
1.00000000000003
100
AcDbArc
 50
180
 51
270.000000000001
  0
LINE
  5
135
100
AcDbEntity
  8
0
100
AcDbLine
370
25
 62
7
  6
CONTINUOUS
 10
799.559252513786
 20
249.266246923684
 30
0
 11
811.559252513786
 21
249.266246923684
 31
0
  0
ARC
  5
136
100
AcDbEntity
  8
0
100
AcDbCircle
370
25
 62
7
  6
CONTINUOUS
 10
811.559252513786
 20
250.266246923684
 30
0
 40
1.00000000000003
100
AcDbArc
 50
270.000000000001
 51
0
  0
LINE
  5
137
100
AcDbEntity
  8
0
100
AcDbLine
370
25
 62
7
  6
CONTINUOUS
 10
812.559252513786
 20
250.266246923684
 30
0
 11
812.559252513786
 21
262.266246923684
 31
0
  0
ARC
  5
138
100
AcDbEntity
  8
0
100
AcDbCircle
370
25
 62
7
  6
CONTINUOUS
 10
811.559252513786
 20
262.266246923684
 30
0
 40
1.00000000000006
100
AcDbArc
 50
6.51377598763728E-12
 51
90
  0
LINE
  5
139
100
AcDbEntity
  8
0
100
AcDbLine
370
25
 62
7
  6
CONTINUOUS
 10
811.559252513786
 20
263.266246923684
 30
0
 11
799.559252513786
 21
263.266246923684
 31
0
  0
ARC
  5
13A
100
AcDbEntity
  8
0
100
AcDbCircle
370
25
 62
7
  6
CONTINUOUS
 10
799.559252513786
 20
262.266246923684
 30
0
 40
1
100
AcDbArc
 50
90
 51
180
  0
LINE
  5
13B
100
AcDbEntity
  8
0
100
AcDbLine
370
25
 62
7
  6
CONTINUOUS
 10
827.619252513786
 20
281.316246923684
 30
0
 11
827.619252513786
 21
269.316246923684
 31
0
  0
ARC
  5
13C
100
AcDbEntity
  8
0
100
AcDbCircle
370
25
 62
7
  6
CONTINUOUS
 10
828.619252513786
 20
269.316246923684
 30
0
 40
1
100
AcDbArc
 50
179.999999999997
 51
270.000000000001
  0
LINE
  5
13D
100
AcDbEntity
  8
0
100
AcDbLine
370
25
 62
7
  6
CONTINUOUS
 10
828.619252513786
 20
268.316246923684
 30
0
 11
840.619252513786
 21
268.316246923684
 31
0
  0
ARC
  5
13E
100
AcDbEntity
  8
0
100
AcDbCircle
370
25
 62
7
  6
CONTINUOUS
 10
840.619252513786
 20
269.316246923684
 30
0
 40
1.00000000000011
100
AcDbArc
 50
270.000000000001
 51
0
  0
LINE
  5
13F
100
AcDbEntity
  8
0
100
AcDbLine
370
25
 62
7
  6
CONTINUOUS
 10
841.619252513786
 20
269.316246923684
 30
0
 11
841.619252513786
 21
281.316246923684
 31
0
  0
ARC
  5
140
100
AcDbEntity
  8
0
100
AcDbCircle
370
25
 62
7
  6
CONTINUOUS
 10
840.619252513786
 20
281.316246923684
 30
0
 40
1.00000000000011
100
AcDbArc
 50
3.25688799381827E-12
 51
90
  0
LINE
  5
141
100
AcDbEntity
  8
0
100
AcDbLine
370
25
 62
7
  6
CONTINUOUS
 10
840.619252513786
 20
282.316246923684
 30
0
 11
828.619252513786
 21
282.316246923684
 31
0
  0
ARC
  5
142
100
AcDbEntity
  8
0
100
AcDbCircle
370
25
 62
7
  6
CONTINUOUS
 10
828.619252513786
 20
281.316246923684
 30
0
 40
1.00000000000006
100
AcDbArc
 50
90
 51
180
  0
LINE
  5
143
100
AcDbEntity
  8
0
100
AcDbLine
370
25
 62
7
  6
CONTINUOUS
 10
673.507113041514
 20
291.949078943654
 30
0
 11
671.0121727517
 21
280.211307734849
 31
0
  0
ARC
  5
144
100
AcDbEntity
  8
0
100
AcDbCircle
370
25
 62
7
  6
CONTINUOUS
 10
671.990320352434
 20
280.003396044031
 30
0
 40
1.0000000000001
100
AcDbArc
 50
168.000000000002
 51
257.999999999999
  0
LINE
  5
145
100
AcDbEntity
  8
0
100
AcDbLine
370
25
 62
7
  6
CONTINUOUS
 10
671.782408661617
 20
279.025248443297
 30
0
 11
683.520179870422
 21
276.530308153484
 31
0
  0
ARC
  5
146
100
AcDbEntity
  8
0
100
AcDbCircle
370
25
 62
7
  6
CONTINUOUS
 10
683.72809156124
 20
277.508455754218
 30
0
 40
0.999999999999997
100
AcDbArc
 50
257.999999999998
 51
348.000000000001
  0
LINE
  5
147
100
AcDbEntity
  8
0
100
AcDbLine
370
25
 62
7
  6
CONTINUOUS
 10
684.706239161974
 20
277.3005440634
 30
0
 11
687.201179451787
 21
289.038315272205
 31
0
  0
ARC
  5
148
100
AcDbEntity
  8
0
100
AcDbCircle
370
25
 62
7
  6
CONTINUOUS
 10
686.223031851053
 20
289.246226963023
 30
0
 40
0.999999999999997
100
AcDbArc
 50
347.999999999998
 51
78.0000000000034
  0
LINE
  5
149
100
AcDbEntity
  8
0
100
AcDbLine
370
25
 62
7
  6
CONTINUOUS
 10
686.430943541871
 20
290.224374563757
 30
0
 11
674.693172333065
 21
292.71931485357
 31
0
  0
ARC
  5
14A
100
AcDbEntity
  8
0
100
AcDbCircle
370
25
 62
7
  6
CONTINUOUS
 10
674.485260642247
 20
291.741167252836
 30
0
 40
0.999999999999961
100
AcDbArc
 50
77.9999999999957
 51
168.000000000007
  0
LINE
  5
14B
100
AcDbEntity
  8
0
100
AcDbLine
370
25
 62
7
  6
CONTINUOUS
 10
712.443613781806
 20
266.447597562127
 30
0
 11
714.938554071619
 21
254.709826353321
 31
0
  0
ARC
  5
14C
100
AcDbEntity
  8
0
100
AcDbCircle
370
25
 62
7
  6
CONTINUOUS
 10
715.916701672352
 20
254.917738044139
 30
0
 40
0.999999999999991
100
AcDbArc
 50
192.000000000002
 51
282.000000000004
  0
LINE
  5
14D
100
AcDbEntity
  8
0
100
AcDbLine
370
25
 62
7
  6
CONTINUOUS
 10
716.12461336317
 20
253.939590443405
 30
0
 11
727.862384571976
 21
256.434530733218
 31
0
  0
ARC
  5
14E
100
AcDbEntity
  8
0
100
AcDbCircle
370
25
 62
7
  6
CONTINUOUS
 10
727.654472881158
 20
257.412678333952
 30
0
 40
1
100
AcDbArc
 50
281.99999999999
 51
11.9999999999998
  0
LINE
  5
14F
100
AcDbEntity
  8
0
100
AcDbLine
370
25
 62
7
  6
CONTINUOUS
 10
728.632620481892
 20
257.62059002477
 30
0
 11
726.137680192079
 21
269.358361233576
 31
0
  0
ARC
  5
150
100
AcDbEntity
  8
0
100
AcDbCircle
370
25
 62
7
  6
CONTINUOUS
 10
725.159532591345
 20
269.150449542758
 30
0
 40
1.00000000000011
100
AcDbArc
 50
12.0000000000016
 51
102.000000000002
  0
LINE
  5
151
100
AcDbEntity
  8
0
100
AcDbLine
370
25
 62
7
  6
CONTINUOUS
 10
724.951620900527
 20
270.128597143492
 30
0
 11
713.213849691722
 21
267.633656853679
 31
0
  0
ARC
  5
152
100
AcDbEntity
  8
0
100
AcDbCircle
370
25
 62
7
  6
CONTINUOUS
 10
713.421761382539
 20
266.655509252945
 30
0
 40
0.999999999999997
100
AcDbArc
 50
101.999999999997
 51
192.000000000004
  0
LINE
  5
153
100
AcDbEntity
  8
0
100
AcDbLine
370
25
 62
7
  6
CONTINUOUS
 10
808.569252513786
 20
281.316246923684
 30
0
 11
808.569252513786
 21
269.316246923684
 31
0
  0
ARC
  5
154
100
AcDbEntity
  8
0
100
AcDbCircle
370
25
 62
7
  6
CONTINUOUS
 10
809.569252513786
 20
269.316246923684
 30
0
 40
1
100
AcDbArc
 50
179.999999999997
 51
270.000000000001
  0
LINE
  5
155
100
AcDbEntity
  8
0
100
AcDbLine
370
25
 62
7
  6
CONTINUOUS
 10
809.569252513786
 20
268.316246923684
 30
0
 11
821.569252513786
 21
268.316246923684
 31
0
  0
ARC
  5
156
100
AcDbEntity
  8
0
100
AcDbCircle
370
25
 62
7
  6
CONTINUOUS
 10
821.569252513786
 20
269.316246923684
 30
0
 40
1.00000000000011
100
AcDbArc
 50
270.000000000001
 51
0
  0
LINE
  5
157
100
AcDbEntity
  8
0
100
AcDbLine
370
25
 62
7
  6
CONTINUOUS
 10
822.569252513786
 20
269.316246923684
 30
0
 11
822.569252513786
 21
281.316246923684
 31
0
  0
ARC
  5
158
100
AcDbEntity
  8
0
100
AcDbCircle
370
25
 62
7
  6
CONTINUOUS
 10
821.569252513786
 20
281.316246923684
 30
0
 40
1.00000000000011
100
AcDbArc
 50
3.25688799381827E-12
 51
90
  0
LINE
  5
159
100
AcDbEntity
  8
0
100
AcDbLine
370
25
 62
7
  6
CONTINUOUS
 10
821.569252513786
 20
282.316246923684
 30
0
 11
809.569252513786
 21
282.316246923684
 31
0
  0
ARC
  5
15A
100
AcDbEntity
  8
0
100
AcDbCircle
370
25
 62
7
  6
CONTINUOUS
 10
809.569252513786
 20
281.316246923684
 30
0
 40
1.00000000000006
100
AcDbArc
 50
90
 51
180
  0
LINE
  5
15B
100
AcDbEntity
  8
0
100
AcDbLine
370
25
 62
7
  6
CONTINUOUS
 10
647.643401247534
 20
239.019796653732
 30
0
 11
645.148460957721
 21
227.282025444927
 31
0
  0
ARC
  5
15C
100
AcDbEntity
  8
0
100
AcDbCircle
370
25
 62
7
  6
CONTINUOUS
 10
646.126608558455
 20
227.074113754109
 30
0
 40
1.0000000000002
100
AcDbArc
 50
168.000000000005
 51
257.999999999992
  0
LINE
  5
15D
100
AcDbEntity
  8
0
100
AcDbLine
370
25
 62
7
  6
CONTINUOUS
 10
645.918696867637
 20
226.095966153375
 30
0
 11
657.656468076443
 21
223.601025863562
 31
0
  0
ARC
  5
15E
100
AcDbEntity
  8
0
100
AcDbCircle
370
25
 62
7
  6
CONTINUOUS
 10
657.864379767261
 20
224.579173464296
 30
0
 40
0.999999999999973
100
AcDbArc
 50
257.999999999997
 51
348.000000000004
  0
LINE
  5
15F
100
AcDbEntity
  8
0
100
AcDbLine
370
25
 62
7
  6
CONTINUOUS
 10
658.842527367995
 20
224.371261773478
 30
0
 11
661.337467657808
 21
236.109032982284
 31
0
  0
ARC
  5
160
100
AcDbEntity
  8
0
100
AcDbCircle
370
25
 62
7
  6
CONTINUOUS
 10
660.359320057074
 20
236.316944673102
 30
0
 40
1.00000000000005
100
AcDbArc
 50
348.000000000001
 51
77.9999999999977
  0
LINE
  5
161
100
AcDbEntity
  8
0
100
AcDbLine
370
25
 62
7
  6
CONTINUOUS
 10
660.567231747892
 20
237.295092273835
 30
0
 11
648.829460539086
 21
239.790032563648
 31
0
  0
ARC
  5
162
100
AcDbEntity
  8
0
100
AcDbCircle
370
25
 62
7
  6
CONTINUOUS
 10
648.621548848268
 20
238.811884962915
 30
0
 40
0.999999999999997
100
AcDbArc
 50
77.999999999997
 51
168
  0
LINE
  5
163
100
AcDbEntity
  8
0
100
AcDbLine
370
25
 62
7
  6
CONTINUOUS
 10
734.337325575785
 20
232.148315272205
 30
0
 11
736.832265865598
 21
220.4105440634
 31
0
  0
ARC
  5
164
100
AcDbEntity
  8
0
100
AcDbCircle
370
25
 62
7
  6
CONTINUOUS
 10
737.810413466332
 20
220.618455754218
 30
0
 40
1.00000000000014
100
AcDbArc
 50
192.000000000007
 51
282.000000000002
  0
LINE
  5
165
100
AcDbEntity
  8
0
100
AcDbLine
370
25
 62
7
  6
CONTINUOUS
 10
738.018325157149
 20
219.640308153484
 30
0
 11
749.756096365955
 21
222.135248443297
 31
0
  0
ARC
  5
166
100
AcDbEntity
  8
0
100
AcDbCircle
370
25
 62
7
  6
CONTINUOUS
 10
749.548184675137
 20
223.113396044031
 30
0
 40
1.0000000000001
100
AcDbArc
 50
282.000000000003
 51
12
  0
LINE
  5
167
100
AcDbEntity
  8
0
100
AcDbLine
370
25
 62
7
  6
CONTINUOUS
 10
750.526332275871
 20
223.321307734848
 30
0
 11
748.031391986058
 21
235.059078943654
 31
0
  0
ARC
  5
168
100
AcDbEntity
  8
0
100
AcDbCircle
370
25
 62
7
  6
CONTINUOUS
 10
747.053244385324
 20
234.851167252836
 30
0
 40
1.00000000000011
100
AcDbArc
 50
12.0000000000016
 51
101.999999999996
  0
LINE
  5
169
100
AcDbEntity
  8
0
100
AcDbLine
370
25
 62
7
  6
CONTINUOUS
 10
746.845332694506
 20
235.82931485357
 30
0
 11
735.107561485701
 21
233.334374563757
 31
0
  0
ARC
  5
16A
100
AcDbEntity
  8
0
100
AcDbCircle
370
25
 62
7
  6
CONTINUOUS
 10
735.315473176518
 20
232.356226963023
 30
0
 40
0.999999999999997
100
AcDbArc
 50
102.000000000003
 51
191.999999999999
  0
LINE
  5
16B
100
AcDbEntity
  8
0
100
AcDbLine
370
25
 62
7
  6
CONTINUOUS
 10
717.803613781806
 20
287.057597562127
 30
0
 11
720.298554071619
 21
275.319826353321
 31
0
  0
ARC
  5
16C
100
AcDbEntity
  8
0
100
AcDbCircle
370
25
 62
7
  6
CONTINUOUS
 10
721.276701672352
 20
275.527738044139
 30
0
 40
1.0000000000001
100
AcDbArc
 50
191.999999999999
 51
282.000000000003
  0
LINE
  5
16D
100
AcDbEntity
  8
0
100
AcDbLine
370
25
 62
7
  6
CONTINUOUS
 10
721.48461336317
 20
274.549590443405
 30
0
 11
733.222384571976
 21
277.044530733218
 31
0
  0
ARC
  5
16E
100
AcDbEntity
  8
0
100
AcDbCircle
370
25
 62
7
  6
CONTINUOUS
 10
733.014472881158
 20
278.022678333952
 30
0
 40
1.0000000000001
100
AcDbArc
 50
282.000000000003
 51
11.9999999999984
  0
LINE
  5
16F
100
AcDbEntity
  8
0
100
AcDbLine
370
25
 62
7
  6
CONTINUOUS
 10
733.992620481892
 20
278.23059002477
 30
0
 11
731.497680192079
 21
289.968361233576
 31
0
  0
ARC
  5
170
100
AcDbEntity
  8
0
100
AcDbCircle
370
25
 62
7
  6
CONTINUOUS
 10
730.519532591345
 20
289.760449542758
 30
0
 40
1.00000000000011
100
AcDbArc
 50
12.0000000000016
 51
102.000000000002
  0
LINE
  5
171
100
AcDbEntity
  8
0
100
AcDbLine
370
25
 62
7
  6
CONTINUOUS
 10
730.311620900527
 20
290.738597143492
 30
0
 11
718.573849691722
 21
288.243656853679
 31
0
  0
ARC
  5
172
100
AcDbEntity
  8
0
100
AcDbCircle
370
25
 62
7
  6
CONTINUOUS
 10
718.781761382539
 20
287.265509252945
 30
0
 40
1.00000000000011
100
AcDbArc
 50
102.000000000002
 51
191.999999999997
  0
LINE
  5
173
100
AcDbEntity
  8
0
100
AcDbLine
370
25
 62
7
  6
CONTINUOUS
 10
793.199252513786
 20
243.216246923684
 30
0
 11
793.199252513786
 21
231.216246923684
 31
0
  0
ARC
  5
174
100
AcDbEntity
  8
0
100
AcDbCircle
370
25
 62
7
  6
CONTINUOUS
 10
794.199252513786
 20
231.216246923684
 30
0
 40
1.00000000000011
100
AcDbArc
 50
180.000000000004
 51
270.000000000001
  0
LINE
  5
175
100
AcDbEntity
  8
0
100
AcDbLine
370
25
 62
7
  6
CONTINUOUS
 10
794.199252513786
 20
230.216246923684
 30
0
 11
806.199252513786
 21
230.216246923684
 31
0
  0
ARC
  5
176
100
AcDbEntity
  8
0
100
AcDbCircle
370
25
 62
7
  6
CONTINUOUS
 10
806.199252513785
 20
231.216246923684
 30
0
 40
1.00000000000011
100
AcDbArc
 50
270.000000000014
 51
0
  0
LINE
  5
177
100
AcDbEntity
  8
0
100
AcDbLine
370
25
 62
7
  6
CONTINUOUS
 10
807.199252513786
 20
231.216246923684
 30
0
 11
807.199252513786
 21
243.216246923684
 31
0
  0
ARC
  5
178
100
AcDbEntity
  8
0
100
AcDbCircle
370
25
 62
7
  6
CONTINUOUS
 10
806.199252513786
 20
243.216246923684
 30
0
 40
1.00000000000006
100
AcDbArc
 50
3.25688799381864E-12
 51
89.9999999999935
  0
LINE
  5
179
100
AcDbEntity
  8
0
100
AcDbLine
370
25
 62
7
  6
CONTINUOUS
 10
806.199252513786
 20
244.216246923684
 30
0
 11
794.199252513786
 21
244.216246923684
 31
0
  0
ARC
  5
17A
100
AcDbEntity
  8
0
100
AcDbCircle
370
25
 62
7
  6
CONTINUOUS
 10
794.199252513786
 20
243.216246923684
 30
0
 40
1.00000000000011
100
AcDbArc
 50
90
 51
179.999999999998
  0
LINE
  5
17B
100
AcDbEntity
  8
0
100
AcDbLine
370
25
 62
7
  6
CONTINUOUS
 10
641.593401247535
 20
279.259796653732
 30
0
 11
639.098460957722
 21
267.522025444927
 31
0
  0
ARC
  5
17C
100
AcDbEntity
  8
0
100
AcDbCircle
370
25
 62
7
  6
CONTINUOUS
 10
640.076608558455
 20
267.314113754109
 30
0
 40
1.00000000000003
100
AcDbArc
 50
168
 51
258.000000000005
  0
LINE
  5
17D
100
AcDbEntity
  8
0
100
AcDbLine
370
25
 62
7
  6
CONTINUOUS
 10
639.868696867638
 20
266.335966153375
 30
0
 11
651.606468076443
 21
263.841025863562
 31
0
  0
ARC
  5
17E
100
AcDbEntity
  8
0
100
AcDbCircle
370
25
 62
7
  6
CONTINUOUS
 10
651.814379767261
 20
264.819173464296
 30
0
 40
0.999999999999941
100
AcDbArc
 50
257.999999999997
 51
348.000000000006
  0
LINE
  5
17F
100
AcDbEntity
  8
0
100
AcDbLine
370
25
 62
7
  6
CONTINUOUS
 10
652.792527367995
 20
264.611261773478
 30
0
 11
655.287467657808
 21
276.349032982284
 31
0
  0
ARC
  5
180
100
AcDbEntity
  8
0
100
AcDbCircle
370
25
 62
7
  6
CONTINUOUS
 10
654.309320057074
 20
276.556944673102
 30
0
 40
0.999999999999909
100
AcDbArc
 50
347.99999999999
 51
78.000000000002
  0
LINE
  5
181
100
AcDbEntity
  8
0
100
AcDbLine
370
25
 62
7
  6
CONTINUOUS
 10
654.517231747892
 20
277.535092273835
 30
0
 11
642.779460539086
 21
280.030032563648
 31
0
  0
ARC
  5
182
100
AcDbEntity
  8
0
100
AcDbCircle
370
25
 62
7
  6
CONTINUOUS
 10
642.571548848268
 20
279.051884962915
 30
0
 40
0.999999999999985
100
AcDbArc
 50
77.9999999999963
 51
168
  0
LINE
  5
183
100
AcDbEntity
  8
0
100
AcDbLine
370
25
 62
7
  6
CONTINUOUS
 10
642.293401247535
 20
259.629796653732
 30
0
 11
639.798460957722
 21
247.892025444927
 31
0
  0
ARC
  5
184
100
AcDbEntity
  8
0
100
AcDbCircle
370
25
 62
7
  6
CONTINUOUS
 10
640.776608558455
 20
247.684113754109
 30
0
 40
1.0000000000001
100
AcDbArc
 50
168.000000000005
 51
257.999999999992
  0
LINE
  5
185
100
AcDbEntity
  8
0
100
AcDbLine
370
25
 62
7
  6
CONTINUOUS
 10
640.568696867638
 20
246.705966153375
 30
0
 11
652.306468076443
 21
244.211025863562
 31
0
  0
ARC
  5
186
100
AcDbEntity
  8
0
100
AcDbCircle
370
25
 62
7
  6
CONTINUOUS
 10
652.514379767261
 20
245.189173464296
 30
0
 40
0.999999999999913
100
AcDbArc
 50
257.999999999997
 51
348.000000000004
  0
LINE
  5
187
100
AcDbEntity
  8
0
100
AcDbLine
370
25
 62
7
  6
CONTINUOUS
 10
653.492527367995
 20
244.981261773478
 30
0
 11
655.987467657808
 21
256.719032982284
 31
0
  0
ARC
  5
188
100
AcDbEntity
  8
0
100
AcDbCircle
370
25
 62
7
  6
CONTINUOUS
 10
655.009320057074
 20
256.926944673102
 30
0
 40
0.999999999999997
100
AcDbArc
 50
347.999999999998
 51
77.999999999997
  0
LINE
  5
189
100
AcDbEntity
  8
0
100
AcDbLine
370
25
 62
7
  6
CONTINUOUS
 10
655.217231747892
 20
257.905092273835
 30
0
 11
643.479460539086
 21
260.400032563648
 31
0
  0
ARC
  5
18A
100
AcDbEntity
  8
0
100
AcDbCircle
370
25
 62
7
  6
CONTINUOUS
 10
643.271548848268
 20
259.421884962915
 30
0
 40
0.999999999999917
100
AcDbArc
 50
78.0000000000027
 51
168.000000000005
  0
LINE
  5
18B
100
AcDbEntity
  8
0
100
AcDbLine
370
25
 62
7
  6
CONTINUOUS
 10
739.697325575784
 20
252.758315272205
 30
0
 11
742.192265865598
 21
241.0205440634
 31
0
  0
ARC
  5
18C
100
AcDbEntity
  8
0
100
AcDbCircle
370
25
 62
7
  6
CONTINUOUS
 10
743.170413466332
 20
241.228455754217
 30
0
 40
0.999999999999985
100
AcDbArc
 50
192.000000000001
 51
281.999999999998
  0
LINE
  5
18D
100
AcDbEntity
  8
0
100
AcDbLine
370
25
 62
7
  6
CONTINUOUS
 10
743.378325157149
 20
240.250308153484
 30
0
 11
755.116096365955
 21
242.745248443297
 31
0
  0
ARC
  5
18E
100
AcDbEntity
  8
0
100
AcDbCircle
370
25
 62
7
  6
CONTINUOUS
 10
754.908184675137
 20
243.723396044031
 30
0
 40
1.00000000000002
100
AcDbArc
 50
282.000000000003
 51
11.9999999999982
  0
LINE
  5
18F
100
AcDbEntity
  8
0
100
AcDbLine
370
25
 62
7
  6
CONTINUOUS
 10
755.886332275871
 20
243.931307734848
 30
0
 11
753.391391986058
 21
255.669078943654
 31
0
  0
ARC
  5
190
100
AcDbEntity
  8
0
100
AcDbCircle
370
25
 62
7
  6
CONTINUOUS
 10
752.413244385324
 20
255.461167252836
 30
0
 40
1.00000000000008
100
AcDbArc
 50
12.0000000000078
 51
102.000000000002
  0
LINE
  5
191
100
AcDbEntity
  8
0
100
AcDbLine
370
25
 62
7
  6
CONTINUOUS
 10
752.205332694506
 20
256.43931485357
 30
0
 11
740.467561485701
 21
253.944374563757
 31
0
  0
ARC
  5
192
100
AcDbEntity
  8
0
100
AcDbCircle
370
25
 62
7
  6
CONTINUOUS
 10
740.675473176518
 20
252.966226963023
 30
0
 40
1.00000000000008
100
AcDbArc
 50
102.000000000002
 51
191.999999999996
  0
LINE
  5
193
100
AcDbEntity
  8
0
100
AcDbLine
370
25
 62
7
  6
CONTINUOUS
 10
817.609252513786
 20
262.266246923684
 30
0
 11
817.609252513786
 21
250.266246923684
 31
0
  0
ARC
  5
194
100
AcDbEntity
  8
0
100
AcDbCircle
370
25
 62
7
  6
CONTINUOUS
 10
818.609252513786
 20
250.266246923684
 30
0
 40
1.00000000000011
100
AcDbArc
 50
180
 51
269.999999999994
  0
LINE
  5
195
100
AcDbEntity
  8
0
100
AcDbLine
370
25
 62
7
  6
CONTINUOUS
 10
818.609252513786
 20
249.266246923684
 30
0
 11
830.609252513786
 21
249.266246923684
 31
0
  0
ARC
  5
196
100
AcDbEntity
  8
0
100
AcDbCircle
370
25
 62
7
  6
CONTINUOUS
 10
830.609252513786
 20
250.266246923684
 30
0
 40
1.00000000000003
100
AcDbArc
 50
270.000000000001
 51
0
  0
LINE
  5
197
100
AcDbEntity
  8
0
100
AcDbLine
370
25
 62
7
  6
CONTINUOUS
 10
831.609252513786
 20
250.266246923684
 30
0
 11
831.609252513786
 21
262.266246923684
 31
0
  0
ARC
  5
198
100
AcDbEntity
  8
0
100
AcDbCircle
370
25
 62
7
  6
CONTINUOUS
 10
830.609252513786
 20
262.266246923684
 30
0
 40
1.00000000000006
100
AcDbArc
 50
6.51377598763728E-12
 51
90
  0
LINE
  5
199
100
AcDbEntity
  8
0
100
AcDbLine
370
25
 62
7
  6
CONTINUOUS
 10
830.609252513786
 20
263.266246923684
 30
0
 11
818.609252513786
 21
263.266246923684
 31
0
  0
ARC
  5
19A
100
AcDbEntity
  8
0
100
AcDbCircle
370
25
 62
7
  6
CONTINUOUS
 10
818.609252513786
 20
262.266246923684
 30
0
 40
1.00000000000011
100
AcDbArc
 50
90.0000000000065
 51
179.999999999993
  0
LINE
  5
19B
100
AcDbEntity
  8
0
100
AcDbLine
370
25
 62
7
  6
CONTINUOUS
 10
654.873401247535
 20
295.909796653732
 30
0
 11
652.378460957721
 21
284.172025444927
 31
0
  0
ARC
  5
19C
100
AcDbEntity
  8
0
100
AcDbCircle
370
25
 62
7
  6
CONTINUOUS
 10
653.356608558455
 20
283.964113754109
 30
0
 40
1.00000000000003
100
AcDbArc
 50
168
 51
258.000000000005
  0
LINE
  5
19D
100
AcDbEntity
  8
0
100
AcDbLine
370
25
 62
7
  6
CONTINUOUS
 10
653.148696867638
 20
282.985966153375
 30
0
 11
664.886468076443
 21
280.491025863562
 31
0
  0
ARC
  5
19E
100
AcDbEntity
  8
0
100
AcDbCircle
370
25
 62
7
  6
CONTINUOUS
 10
665.094379767261
 20
281.469173464296
 30
0
 40
0.999999999999985
100
AcDbArc
 50
258.000000000004
 51
348.000000000001
  0
LINE
  5
19F
100
AcDbEntity
  8
0
100
AcDbLine
370
25
 62
7
  6
CONTINUOUS
 10
666.072527367995
 20
281.261261773478
 30
0
 11
668.567467657808
 21
292.999032982284
 31
0
  0
ARC
  5
1A0
100
AcDbEntity
  8
0
100
AcDbCircle
370
25
 62
7
  6
CONTINUOUS
 10
667.589320057074
 20
293.206944673102
 30
0
 40
0.999999999999997
100
AcDbArc
 50
347.999999999998
 51
78.0000000000034
  0
LINE
  5
1A1
100
AcDbEntity
  8
0
100
AcDbLine
370
25
 62
7
  6
CONTINUOUS
 10
667.797231747892
 20
294.185092273835
 30
0
 11
656.059460539086
 21
296.680032563649
 31
0
  0
ARC
  5
1A2
100
AcDbEntity
  8
0
100
AcDbCircle
370
25
 62
7
  6
CONTINUOUS
 10
655.851548848268
 20
295.701884962915
 30
0
 40
0.999999999999997
100
AcDbArc
 50
77.999999999997
 51
168.000000000002
  0
LINE
  5
1A3
100
AcDbEntity
  8
0
100
AcDbLine
370
25
 62
7
  6
CONTINUOUS
 10
731.077325575785
 20
270.408315272205
 30
0
 11
733.572265865598
 21
258.6705440634
 31
0
  0
ARC
  5
1A4
100
AcDbEntity
  8
0
100
AcDbCircle
370
25
 62
7
  6
CONTINUOUS
 10
734.550413466331
 20
258.878455754218
 30
0
 40
0.999999999999997
100
AcDbArc
 50
192.000000000004
 51
282.000000000004
  0
LINE
  5
1A5
100
AcDbEntity
  8
0
100
AcDbLine
370
25
 62
7
  6
CONTINUOUS
 10
734.758325157149
 20
257.900308153484
 30
0
 11
746.496096365955
 21
260.395248443297
 31
0
  0
ARC
  5
1A6
100
AcDbEntity
  8
0
100
AcDbCircle
370
25
 62
7
  6
CONTINUOUS
 10
746.288184675137
 20
261.373396044031
 30
0
 40
1.00000000000021
100
AcDbArc
 50
282.000000000009
 51
11.9999999999971
  0
LINE
  5
1A7
100
AcDbEntity
  8
0
100
AcDbLine
370
25
 62
7
  6
CONTINUOUS
 10
747.266332275871
 20
261.581307734848
 30
0
 11
744.771391986058
 21
273.319078943654
 31
0
  0
ARC
  5
1A8
100
AcDbEntity
  8
0
100
AcDbCircle
370
25
 62
7
  6
CONTINUOUS
 10
743.793244385324
 20
273.111167252836
 30
0
 40
1.00000000000012
100
AcDbArc
 50
12.0000000000048
 51
102.000000000002
  0
LINE
  5
1A9
100
AcDbEntity
  8
0
100
AcDbLine
370
25
 62
7
  6
CONTINUOUS
 10
743.585332694506
 20
274.08931485357
 30
0
 11
731.847561485701
 21
271.594374563757
 31
0
  0
ARC
  5
1AA
100
AcDbEntity
  8
0
100
AcDbCircle
370
25
 62
7
  6
CONTINUOUS
 10
732.055473176518
 20
270.616226963023
 30
0
 40
1.00000000000011
100
AcDbArc
 50
102.000000000002
 51
191.999999999997
  0
LINE
  5
1AB
100
AcDbEntity
  8
0
100
AcDbLine
370
25
 62
7
  6
CONTINUOUS
 10
687.721698163809
 20
211.025344187957
 30
0
 11
685.226757873996
 21
199.287572979151
 31
0
  0
ARC
  5
1AC
100
AcDbEntity
  8
0
100
AcDbCircle
370
25
 62
7
  6
CONTINUOUS
 10
686.20490547473
 20
199.079661288334
 30
0
 40
1
100
AcDbArc
 50
168.000000000002
 51
258.000000000005
  0
LINE
  5
1AD
100
AcDbEntity
  8
0
100
AcDbLine
370
25
 62
7
  6
CONTINUOUS
 10
685.996993783912
 20
198.1015136876
 30
0
 11
700.062756282464
 21
195.11174357364
 31
0
  0
ARC
  5
1AE
100
AcDbEntity
  8
0
100
AcDbCircle
370
25
 62
7
  6
CONTINUOUS
 10
700.270667973282
 20
196.089891174374
 30
0
 40
0.999999999999979
100
AcDbArc
 50
257.999999999997
 51
348.000000000003
  0
LINE
  5
1AF
100
AcDbEntity
  8
0
100
AcDbLine
370
25
 62
7
  6
CONTINUOUS
 10
701.248815574016
 20
195.881979483556
 30
0
 11
703.743755863829
 21
207.619750692362
 31
0
  0
ARC
  5
1B0
100
AcDbEntity
  8
0
100
AcDbCircle
370
25
 62
7
  6
CONTINUOUS
 10
702.765608263095
 20
207.82766238318
 30
0
 40
0.999999999999997
100
AcDbArc
 50
348.000000000001
 51
77.999999999997
  0
LINE
  5
1B1
100
AcDbEntity
  8
0
100
AcDbLine
370
25
 62
7
  6
CONTINUOUS
 10
702.973519953913
 20
208.805809983914
 30
0
 11
688.907757455361
 21
211.795580097873
 31
0
  0
ARC
  5
1B2
100
AcDbEntity
  8
0
100
AcDbCircle
370
25
 62
7
  6
CONTINUOUS
 10
688.699845764543
 20
210.817432497139
 30
0
 40
1.00000000000011
100
AcDbArc
 50
78.0000000000044
 51
167.999999999997
  0
LINE
  5
1B3
100
AcDbEntity
  8
0
100
AcDbLine
370
25
 62
7
  6
CONTINUOUS
 10
856.194852513786
 20
224.118246923684
 30
0
 11
856.194852513786
 21
212.118246923684
 31
0
  0
ARC
  5
1B4
100
AcDbEntity
  8
0
100
AcDbCircle
370
25
 62
7
  6
CONTINUOUS
 10
857.194852513786
 20
212.118246923684
 30
0
 40
1.00000000000011
100
AcDbArc
 50
180.000000000004
 51
269.999999999994
  0
LINE
  5
1B5
100
AcDbEntity
  8
0
100
AcDbLine
370
25
 62
7
  6
CONTINUOUS
 10
857.194852513786
 20
211.118246923684
 30
0
 11
869.194852513786
 21
211.118246923684
 31
0
  0
ARC
  5
1B6
100
AcDbEntity
  8
0
100
AcDbCircle
370
25
 62
7
  6
CONTINUOUS
 10
869.194852513786
 20
212.118246923684
 30
0
 40
1.00000000000006
100
AcDbArc
 50
270.000000000001
 51
0
  0
LINE
  5
1B7
100
AcDbEntity
  8
0
100
AcDbLine
370
25
 62
7
  6
CONTINUOUS
 10
870.194852513786
 20
212.118246923684
 30
0
 11
870.194852513786
 21
224.118246923684
 31
0
  0
ARC
  5
1B8
100
AcDbEntity
  8
0
100
AcDbCircle
370
25
 62
7
  6
CONTINUOUS
 10
869.194852513786
 20
224.118246923684
 30
0
 40
1.00000000000006
100
AcDbArc
 50
3.25688799381864E-12
 51
90
  0
LINE
  5
1B9
100
AcDbEntity
  8
0
100
AcDbLine
370
25
 62
7
  6
CONTINUOUS
 10
869.194852513786
 20
225.118246923684
 30
0
 11
857.194852513786
 21
225.118246923684
 31
0
  0
ARC
  5
1BA
100
AcDbEntity
  8
0
100
AcDbCircle
370
25
 62
7
  6
CONTINUOUS
 10
857.194852513786
 20
224.118246923683
 30
0
 40
1.00000000000011
100
AcDbArc
 50
90.0000000000065
 51
179.999999999993
  0
LINE
  5
1BB
100
AcDbEntity
  8
0
100
AcDbLine
370
25
 62
7
  6
CONTINUOUS
 10
623.659689453556
 20
263.590514363811
 30
0
 11
621.164749163742
 21
251.852743155005
 31
0
  0
ARC
  5
1BC
100
AcDbEntity
  8
0
100
AcDbCircle
370
25
 62
7
  6
CONTINUOUS
 10
622.142896764476
 20
251.644831464187
 30
0
 40
1.00000000000011
100
AcDbArc
 50
168.000000000006
 51
257.999999999999
  0
LINE
  5
1BD
100
AcDbEntity
  8
0
100
AcDbLine
370
25
 62
7
  6
CONTINUOUS
 10
621.934985073658
 20
250.666683863453
 30
0
 11
633.672756282464
 21
248.17174357364
 31
0
  0
ARC
  5
1BE
100
AcDbEntity
  8
0
100
AcDbCircle
370
25
 62
7
  6
CONTINUOUS
 10
633.880667973282
 20
249.149891174374
 30
0
 40
0.999999999999973
100
AcDbArc
 50
257.999999999997
 51
348.000000000004
  0
LINE
  5
1BF
100
AcDbEntity
  8
0
100
AcDbLine
370
25
 62
7
  6
CONTINUOUS
 10
634.858815574016
 20
248.941979483556
 30
0
 11
637.353755863829
 21
260.679750692362
 31
0
  0
ARC
  5
1C0
100
AcDbEntity
  8
0
100
AcDbCircle
370
25
 62
7
  6
CONTINUOUS
 10
636.375608263095
 20
260.88766238318
 30
0
 40
0.999999999999997
100
AcDbArc
 50
347.999999999998
 51
78.0000000000034
  0
LINE
  5
1C1
100
AcDbEntity
  8
0
100
AcDbLine
370
25
 62
7
  6
CONTINUOUS
 10
636.583519953913
 20
261.865809983914
 30
0
 11
624.845748745107
 21
264.360750273727
 31
0
  0
ARC
  5
1C2
100
AcDbEntity
  8
0
100
AcDbCircle
370
25
 62
7
  6
CONTINUOUS
 10
624.637837054289
 20
263.382602672993
 30
0
 40
0.999999999999997
100
AcDbArc
 50
78.0000000000034
 51
167.999999999997
  0
LINE
  5
1C3
100
AcDbEntity
  8
0
100
AcDbLine
370
25
 62
7
  6
CONTINUOUS
 10
752.971037369764
 20
236.109032982284
 30
0
 11
755.465977659577
 21
224.371261773478
 31
0
  0
ARC
  5
1C4
100
AcDbEntity
  8
0
100
AcDbCircle
370
25
 62
7
  6
CONTINUOUS
 10
756.44412526031
 20
224.579173464296
 30
0
 40
1.00000000000002
100
AcDbArc
 50
192.000000000005
 51
282.000000000003
  0
LINE
  5
1C5
100
AcDbEntity
  8
0
100
AcDbLine
370
25
 62
7
  6
CONTINUOUS
 10
756.652036951128
 20
223.601025863562
 30
0
 11
768.389808159934
 21
226.095966153375
 31
0
  0
ARC
  5
1C6
100
AcDbEntity
  8
0
100
AcDbCircle
370
25
 62
7
  6
CONTINUOUS
 10
768.181896469116
 20
227.074113754109
 30
0
 40
1.00000000000005
100
AcDbArc
 50
282.000000000003
 51
11.9999999999998
  0
LINE
  5
1C7
100
AcDbEntity
  8
0
100
AcDbLine
370
25
 62
7
  6
CONTINUOUS
 10
769.16004406985
 20
227.282025444927
 30
0
 11
766.665103780037
 21
239.019796653732
 31
0
  0
ARC
  5
1C8
100
AcDbEntity
  8
0
100
AcDbCircle
370
25
 62
7
  6
CONTINUOUS
 10
765.686956179303
 20
238.811884962915
 30
0
 40
1.00000000000011
100
AcDbArc
 50
12.0000000000046
 51
101.999999999995
  0
LINE
  5
1C9
100
AcDbEntity
  8
0
100
AcDbLine
370
25
 62
7
  6
CONTINUOUS
 10
765.479044488485
 20
239.790032563648
 30
0
 11
753.741273279679
 21
237.295092273835
 31
0
  0
ARC
  5
1CA
100
AcDbEntity
  8
0
100
AcDbCircle
370
25
 62
7
  6
CONTINUOUS
 10
753.949184970497
 20
236.316944673102
 30
0
 40
0.999999999999997
100
AcDbArc
 50
102.000000000003
 51
192.000000000004
  0
LINE
  5
1CB
100
AcDbEntity
  8
0
100
AcDbLine
370
25
 62
7
  6
CONTINUOUS
 10
736.437325575785
 20
291.018315272205
 30
0
 11
738.932265865598
 21
279.2805440634
 31
0
  0
ARC
  5
1CC
100
AcDbEntity
  8
0
100
AcDbCircle
370
25
 62
7
  6
CONTINUOUS
 10
739.910413466331
 20
279.488455754218
 30
0
 40
1.00000000000011
100
AcDbArc
 50
192.000000000004
 51
282.000000000002
  0
LINE
  5
1CD
100
AcDbEntity
  8
0
100
AcDbLine
370
25
 62
7
  6
CONTINUOUS
 10
740.118325157149
 20
278.510308153484
 30
0
 11
751.856096365955
 21
281.005248443297
 31
0
  0
ARC
  5
1CE
100
AcDbEntity
  8
0
100
AcDbCircle
370
25
 62
7
  6
CONTINUOUS
 10
751.648184675137
 20
281.983396044031
 30
0
 40
1.00000000000011
100
AcDbArc
 50
282.000000000002
 51
11.9999999999984
  0
LINE
  5
1CF
100
AcDbEntity
  8
0
100
AcDbLine
370
25
 62
7
  6
CONTINUOUS
 10
752.626332275871
 20
282.191307734848
 30
0
 11
750.131391986058
 21
293.929078943654
 31
0
  0
ARC
  5
1D0
100
AcDbEntity
  8
0
100
AcDbCircle
370
25
 62
7
  6
CONTINUOUS
 10
749.153244385324
 20
293.721167252836
 30
0
 40
1.00000000000012
100
AcDbArc
 50
12.0000000000048
 51
101.999999999989
  0
LINE
  5
1D1
100
AcDbEntity
  8
0
100
AcDbLine
370
25
 62
7
  6
CONTINUOUS
 10
748.945332694506
 20
294.69931485357
 30
0
 11
737.207561485701
 21
292.204374563757
 31
0
  0
ARC
  5
1D2
100
AcDbEntity
  8
0
100
AcDbCircle
370
25
 62
7
  6
CONTINUOUS
 10
737.415473176518
 20
291.226226963023
 30
0
 40
0.999999999999997
100
AcDbArc
 50
102.000000000003
 51
192.000000000001
  0
LINE
  5
1D3
100
AcDbEntity
  8
0
100
AcDbLine
370
25
 62
7
  6
CONTINUOUS
 10
812.249252513786
 20
243.216246923684
 30
0
 11
812.249252513786
 21
231.216246923684
 31
0
  0
ARC
  5
1D4
100
AcDbEntity
  8
0
100
AcDbCircle
370
25
 62
7
  6
CONTINUOUS
 10
813.249252513786
 20
231.216246923684
 30
0
 40
1.00000000000011
100
AcDbArc
 50
180.000000000006
 51
270.000000000001
  0
LINE
  5
1D5
100
AcDbEntity
  8
0
100
AcDbLine
370
25
 62
7
  6
CONTINUOUS
 10
813.249252513786
 20
230.216246923684
 30
0
 11
825.249252513786
 21
230.216246923684
 31
0
  0
ARC
  5
1D6
100
AcDbEntity
  8
0
100
AcDbCircle
370
25
 62
7
  6
CONTINUOUS
 10
825.249252513786
 20
231.216246923684
 30
0
 40
0.999999999999943
100
AcDbArc
 50
270.000000000001
 51
0
  0
LINE
  5
1D7
100
AcDbEntity
  8
0
100
AcDbLine
370
25
 62
7
  6
CONTINUOUS
 10
826.249252513786
 20
231.216246923684
 30
0
 11
826.249252513786
 21
243.216246923684
 31
0
  0
ARC
  5
1D8
100
AcDbEntity
  8
0
100
AcDbCircle
370
25
 62
7
  6
CONTINUOUS
 10
825.249252513786
 20
243.216246923684
 30
0
 40
0.999999999999943
100
AcDbArc
 50
359.999999999998
 51
90
  0
LINE
  5
1D9
100
AcDbEntity
  8
0
100
AcDbLine
370
25
 62
7
  6
CONTINUOUS
 10
825.249252513786
 20
244.216246923684
 30
0
 11
813.249252513786
 21
244.216246923684
 31
0
  0
ARC
  5
1DA
100
AcDbEntity
  8
0
100
AcDbCircle
370
25
 62
7
  6
CONTINUOUS
 10
813.249252513786
 20
243.216246923684
 30
0
 40
1.00000000000011
100
AcDbArc
 50
90
 51
179.999999999997
  0
LINE
  5
1DB
100
AcDbEntity
  8
0
100
AcDbLine
370
25
 62
7
  6
CONTINUOUS
 10
624.199689453556
 20
222.990514363811
 30
0
 11
621.704749163743
 21
211.252743155005
 31
0
  0
ARC
  5
1DC
100
AcDbEntity
  8
0
100
AcDbCircle
370
25
 62
7
  6
CONTINUOUS
 10
622.682896764476
 20
211.044831464187
 30
0
 40
1.00000000000008
100
AcDbArc
 50
168.000000000005
 51
257.999999999999
  0
LINE
  5
1DD
100
AcDbEntity
  8
0
100
AcDbLine
370
25
 62
7
  6
CONTINUOUS
 10
622.474985073659
 20
210.066683863453
 30
0
 11
634.212756282464
 21
207.57174357364
 31
0
  0
ARC
  5
1DE
100
AcDbEntity
  8
0
100
AcDbCircle
370
25
 62
7
  6
CONTINUOUS
 10
634.420667973282
 20
208.549891174374
 30
0
 40
0.999999999999973
100
AcDbArc
 50
257.999999999997
 51
348.000000000004
  0
LINE
  5
1DF
100
AcDbEntity
  8
0
100
AcDbLine
370
25
 62
7
  6
CONTINUOUS
 10
635.398815574016
 20
208.341979483556
 30
0
 11
637.893755863829
 21
220.079750692362
 31
0
  0
ARC
  5
1E0
100
AcDbEntity
  8
0
100
AcDbCircle
370
25
 62
7
  6
CONTINUOUS
 10
636.915608263095
 20
220.28766238318
 30
0
 40
0.999999999999997
100
AcDbArc
 50
347.999999999998
 51
78.0000000000027
  0
LINE
  5
1E1
100
AcDbEntity
  8
0
100
AcDbLine
370
25
 62
7
  6
CONTINUOUS
 10
637.123519953913
 20
221.265809983914
 30
0
 11
625.385748745107
 21
223.760750273727
 31
0
  0
ARC
  5
1E2
100
AcDbEntity
  8
0
100
AcDbCircle
370
25
 62
7
  6
CONTINUOUS
 10
625.177837054289
 20
222.782602672993
 30
0
 40
0.999999999999909
100
AcDbArc
 50
77.9999999999893
 51
168.000000000004
  0
LINE
  5
1E3
100
AcDbEntity
  8
0
100
AcDbLine
370
25
 62
7
  6
CONTINUOUS
 10
629.009689453556
 20
242.980514363811
 30
0
 11
626.514749163743
 21
231.242743155005
 31
0
  0
ARC
  5
1E4
100
AcDbEntity
  8
0
100
AcDbCircle
370
25
 62
7
  6
CONTINUOUS
 10
627.492896764476
 20
231.034831464187
 30
0
 40
1.00000000000013
100
AcDbArc
 50
168.000000000006
 51
257.999999999993
  0
LINE
  5
1E5
100
AcDbEntity
  8
0
100
AcDbLine
370
25
 62
7
  6
CONTINUOUS
 10
627.284985073659
 20
230.056683863453
 30
0
 11
639.022756282464
 21
227.56174357364
 31
0
  0
ARC
  5
1E6
100
AcDbEntity
  8
0
100
AcDbCircle
370
25
 62
7
  6
CONTINUOUS
 10
639.230667973282
 20
228.539891174374
 30
0
 40
0.999999999999997
100
AcDbArc
 50
257.999999999998
 51
348
  0
LINE
  5
1E7
100
AcDbEntity
  8
0
100
AcDbLine
370
25
 62
7
  6
CONTINUOUS
 10
640.208815574016
 20
228.331979483556
 30
0
 11
642.703755863829
 21
240.069750692362
 31
0
  0
ARC
  5
1E8
100
AcDbEntity
  8
0
100
AcDbCircle
370
25
 62
7
  6
CONTINUOUS
 10
641.725608263095
 20
240.27766238318
 30
0
 40
0.999999999999991
100
AcDbArc
 50
347.999999999999
 51
77.9999999999963
  0
LINE
  5
1E9
100
AcDbEntity
  8
0
100
AcDbLine
370
25
 62
7
  6
CONTINUOUS
 10
641.933519953913
 20
241.255809983914
 30
0
 11
630.195748745107
 21
243.750750273727
 31
0
  0
ARC
  5
1EA
100
AcDbEntity
  8
0
100
AcDbCircle
370
25
 62
7
  6
CONTINUOUS
 10
629.987837054289
 20
242.772602672993
 30
0
 40
0.999999999999979
100
AcDbArc
 50
78.0000000000091
 51
168.000000000002
  0
LINE
  5
1EB
100
AcDbEntity
  8
0
100
AcDbLine
370
25
 62
7
  6
CONTINUOUS
 10
758.331037369764
 20
256.719032982284
 30
0
 11
760.825977659577
 21
244.981261773478
 31
0
  0
ARC
  5
1EC
100
AcDbEntity
  8
0
100
AcDbCircle
370
25
 62
7
  6
CONTINUOUS
 10
761.80412526031
 20
245.189173464296
 30
0
 40
0.999999999999997
100
AcDbArc
 50
191.999999999999
 51
282.000000000004
  0
LINE
  5
1ED
100
AcDbEntity
  8
0
100
AcDbLine
370
25
 62
7
  6
CONTINUOUS
 10
762.012036951128
 20
244.211025863562
 30
0
 11
773.749808159934
 21
246.705966153375
 31
0
  0
ARC
  5
1EE
100
AcDbEntity
  8
0
100
AcDbCircle
370
25
 62
7
  6
CONTINUOUS
 10
773.541896469116
 20
247.684113754109
 30
0
 40
1.00000000000005
100
AcDbArc
 50
282.000000000003
 51
11.9999999999982
  0
LINE
  5
1EF
100
AcDbEntity
  8
0
100
AcDbLine
370
25
 62
7
  6
CONTINUOUS
 10
774.52004406985
 20
247.892025444927
 30
0
 11
772.025103780037
 21
259.629796653732
 31
0
  0
ARC
  5
1F0
100
AcDbEntity
  8
0
100
AcDbCircle
370
25
 62
7
  6
CONTINUOUS
 10
771.046956179303
 20
259.421884962915
 30
0
 40
1.00000000000011
100
AcDbArc
 50
12.0000000000062
 51
102.000000000002
  0
LINE
  5
1F1
100
AcDbEntity
  8
0
100
AcDbLine
370
25
 62
7
  6
CONTINUOUS
 10
770.839044488485
 20
260.400032563648
 30
0
 11
759.10127327968
 21
257.905092273835
 31
0
  0
ARC
  5
1F2
100
AcDbEntity
  8
0
100
AcDbCircle
370
25
 62
7
  6
CONTINUOUS
 10
759.309184970497
 20
256.926944673101
 30
0
 40
1.0000000000001
100
AcDbArc
 50
102.000000000002
 51
191.999999999999
  0
LINE
  5
1F3
100
AcDbEntity
  8
0
100
AcDbLine
370
25
 62
7
  6
CONTINUOUS
 10
553.629252513786
 20
302.506246923684
 30
0
 11
553.629252513786
 21
290.506246923684
 31
0
  0
ARC
  5
1F4
100
AcDbEntity
  8
0
100
AcDbCircle
370
25
 62
7
  6
CONTINUOUS
 10
554.629252513786
 20
290.506246923684
 30
0
 40
1
100
AcDbArc
 50
180
 51
270.000000000001
  0
LINE
  5
1F5
100
AcDbEntity
  8
0
100
AcDbLine
370
25
 62
7
  6
CONTINUOUS
 10
554.629252513786
 20
289.506246923684
 30
0
 11
566.629252513786
 21
289.506246923684
 31
0
  0
ARC
  5
1F6
100
AcDbEntity
  8
0
100
AcDbCircle
370
25
 62
7
  6
CONTINUOUS
 10
566.629252513786
 20
290.506246923684
 30
0
 40
1
100
AcDbArc
 50
270.000000000001
 51
0
  0
LINE
  5
1F7
100
AcDbEntity
  8
0
100
AcDbLine
370
25
 62
7
  6
CONTINUOUS
 10
567.629252513786
 20
290.506246923684
 30
0
 11
567.629252513786
 21
302.506246923684
 31
0
  0
ARC
  5
1F8
100
AcDbEntity
  8
0
100
AcDbCircle
370
25
 62
7
  6
CONTINUOUS
 10
566.629252513786
 20
302.506246923684
 30
0
 40
1
100
AcDbArc
 50
0
 51
90
  0
LINE
  5
1F9
100
AcDbEntity
  8
0
100
AcDbLine
370
25
 62
7
  6
CONTINUOUS
 10
566.629252513786
 20
303.506246923684
 30
0
 11
554.629252513786
 21
303.506246923684
 31
0
  0
ARC
  5
1FA
100
AcDbEntity
  8
0
100
AcDbCircle
370
25
 62
7
  6
CONTINUOUS
 10
554.629252513786
 20
302.506246923684
 30
0
 40
1
100
AcDbArc
 50
90
 51
180
  0
LINE
  5
1FB
100
AcDbEntity
  8
0
100
AcDbLine
370
25
 62
7
  6
CONTINUOUS
 10
569.019252513786
 20
224.166246923684
 30
0
 11
569.019252513786
 21
212.166246923684
 31
0
  0
ARC
  5
1FC
100
AcDbEntity
  8
0
100
AcDbCircle
370
25
 62
7
  6
CONTINUOUS
 10
570.019252513786
 20
212.166246923684
 30
0
 40
1.00000000000006
100
AcDbArc
 50
180.000000000004
 51
270.000000000001
  0
LINE
  5
1FD
100
AcDbEntity
  8
0
100
AcDbLine
370
25
 62
7
  6
CONTINUOUS
 10
570.019252513786
 20
211.166246923684
 30
0
 11
582.019252513786
 21
211.166246923684
 31
0
  0
ARC
  5
1FE
100
AcDbEntity
  8
0
100
AcDbCircle
370
25
 62
7
  6
CONTINUOUS
 10
582.019252513786
 20
212.166246923684
 30
0
 40
1.00000000000006
100
AcDbArc
 50
270.000000000001
 51
0
  0
LINE
  5
1FF
100
AcDbEntity
  8
0
100
AcDbLine
370
25
 62
7
  6
CONTINUOUS
 10
583.019252513786
 20
212.166246923684
 30
0
 11
583.019252513786
 21
224.166246923684
 31
0
  0
ARC
  5
200
100
AcDbEntity
  8
0
100
AcDbCircle
370
25
 62
7
  6
CONTINUOUS
 10
582.019252513786
 20
224.166246923684
 30
0
 40
1
100
AcDbArc
 50
0
 51
90
  0
LINE
  5
201
100
AcDbEntity
  8
0
100
AcDbLine
370
25
 62
7
  6
CONTINUOUS
 10
582.019252513786
 20
225.166246923684
 30
0
 11
570.019252513786
 21
225.166246923684
 31
0
  0
ARC
  5
202
100
AcDbEntity
  8
0
100
AcDbCircle
370
25
 62
7
  6
CONTINUOUS
 10
570.019252513786
 20
224.166246923684
 30
0
 40
1
100
AcDbArc
 50
90
 51
180
  0
LINE
  5
203
100
AcDbEntity
  8
0
100
AcDbLine
370
25
 62
7
  6
CONTINUOUS
 10
622.959689453556
 20
283.220514363811
 30
0
 11
620.464749163742
 21
271.482743155005
 31
0
  0
ARC
  5
204
100
AcDbEntity
  8
0
100
AcDbCircle
370
25
 62
7
  6
CONTINUOUS
 10
621.442896764476
 20
271.274831464187
 30
0
 40
0.999999999999997
100
AcDbArc
 50
167.999999999997
 51
257.999999999998
  0
LINE
  5
205
100
AcDbEntity
  8
0
100
AcDbLine
370
25
 62
7
  6
CONTINUOUS
 10
621.234985073658
 20
270.296683863453
 30
0
 11
632.972756282464
 21
267.80174357364
 31
0
  0
ARC
  5
206
100
AcDbEntity
  8
0
100
AcDbCircle
370
25
 62
7
  6
CONTINUOUS
 10
633.180667973282
 20
268.779891174374
 30
0
 40
0.999999999999973
100
AcDbArc
 50
258.000000000003
 51
348.000000000004
  0
LINE
  5
207
100
AcDbEntity
  8
0
100
AcDbLine
370
25
 62
7
  6
CONTINUOUS
 10
634.158815574016
 20
268.571979483556
 30
0
 11
636.653755863829
 21
280.309750692362
 31
0
  0
ARC
  5
208
100
AcDbEntity
  8
0
100
AcDbCircle
370
25
 62
7
  6
CONTINUOUS
 10
635.675608263095
 20
280.51766238318
 30
0
 40
0.999999999999917
100
AcDbArc
 50
347.999999999993
 51
78.0000000000027
  0
LINE
  5
209
100
AcDbEntity
  8
0
100
AcDbLine
370
25
 62
7
  6
CONTINUOUS
 10
635.883519953913
 20
281.495809983914
 30
0
 11
624.145748745107
 21
283.990750273727
 31
0
  0
ARC
  5
20A
100
AcDbEntity
  8
0
100
AcDbCircle
370
25
 62
7
  6
CONTINUOUS
 10
623.937837054289
 20
283.012602672993
 30
0
 40
0.999999999999997
100
AcDbArc
 50
77.999999999997
 51
168
  0
LINE
  5
20B
100
AcDbEntity
  8
0
100
AcDbLine
370
25
 62
7
  6
CONTINUOUS
 10
749.711037369764
 20
274.369032982284
 30
0
 11
752.205977659577
 21
262.631261773478
 31
0
  0
ARC
  5
20C
100
AcDbEntity
  8
0
100
AcDbCircle
370
25
 62
7
  6
CONTINUOUS
 10
753.18412526031
 20
262.839173464296
 30
0
 40
1.00000000000005
100
AcDbArc
 50
192.000000000004
 51
282.000000000003
  0
LINE
  5
20D
100
AcDbEntity
  8
0
100
AcDbLine
370
25
 62
7
  6
CONTINUOUS
 10
753.392036951128
 20
261.861025863562
 30
0
 11
765.129808159934
 21
264.355966153375
 31
0
  0
ARC
  5
20E
100
AcDbEntity
  8
0
100
AcDbCircle
370
25
 62
7
  6
CONTINUOUS
 10
764.921896469116
 20
265.334113754109
 30
0
 40
1.00000000000011
100
AcDbArc
 50
282.000000000002
 51
11.9999999999952
  0
LINE
  5
20F
100
AcDbEntity
  8
0
100
AcDbLine
370
25
 62
7
  6
CONTINUOUS
 10
765.90004406985
 20
265.542025444927
 30
0
 11
763.405103780037
 21
277.279796653732
 31
0
  0
ARC
  5
210
100
AcDbEntity
  8
0
100
AcDbCircle
370
25
 62
7
  6
CONTINUOUS
 10
762.426956179303
 20
277.071884962915
 30
0
 40
1.00000000000011
100
AcDbArc
 50
12.0000000000016
 51
102.000000000002
  0
LINE
  5
211
100
AcDbEntity
  8
0
100
AcDbLine
370
25
 62
7
  6
CONTINUOUS
 10
762.219044488485
 20
278.050032563648
 30
0
 11
750.481273279679
 21
275.555092273835
 31
0
  0
ARC
  5
212
100
AcDbEntity
  8
0
100
AcDbCircle
370
25
 62
7
  6
CONTINUOUS
 10
750.689184970497
 20
274.576944673101
 30
0
 40
1.00000000000008
100
AcDbArc
 50
102.000000000009
 51
191.999999999996
  0
LINE
  5
213
100
AcDbEntity
  8
0
100
AcDbLine
370
25
 62
7
  6
CONTINUOUS
 10
549.469252513786
 20
283.456246923684
 30
0
 11
549.469252513786
 21
271.456246923684
 31
0
  0
ARC
  5
214
100
AcDbEntity
  8
0
100
AcDbCircle
370
25
 62
7
  6
CONTINUOUS
 10
550.469252513786
 20
271.456246923684
 30
0
 40
1.00000000000011
100
AcDbArc
 50
180
 51
270.000000000001
  0
LINE
  5
215
100
AcDbEntity
  8
0
100
AcDbLine
370
25
 62
7
  6
CONTINUOUS
 10
550.469252513786
 20
270.456246923684
 30
0
 11
562.469252513786
 21
270.456246923684
 31
0
  0
ARC
  5
216
100
AcDbEntity
  8
0
100
AcDbCircle
370
25
 62
7
  6
CONTINUOUS
 10
562.469252513786
 20
271.456246923684
 30
0
 40
1
100
AcDbArc
 50
270.000000000001
 51
0
  0
LINE
  5
217
100
AcDbEntity
  8
0
100
AcDbLine
370
25
 62
7
  6
CONTINUOUS
 10
563.469252513786
 20
271.456246923684
 30
0
 11
563.469252513786
 21
283.456246923684
 31
0
  0
ARC
  5
218
100
AcDbEntity
  8
0
100
AcDbCircle
370
25
 62
7
  6
CONTINUOUS
 10
562.469252513786
 20
283.456246923684
 30
0
 40
1
100
AcDbArc
 50
0
 51
90
  0
LINE
  5
219
100
AcDbEntity
  8
0
100
AcDbLine
370
25
 62
7
  6
CONTINUOUS
 10
562.469252513786
 20
284.456246923684
 30
0
 11
550.469252513786
 21
284.456246923684
 31
0
  0
ARC
  5
21A
100
AcDbEntity
  8
0
100
AcDbCircle
370
25
 62
7
  6
CONTINUOUS
 10
550.469252513786
 20
283.456246923684
 30
0
 40
1.00000000000011
100
AcDbArc
 50
90
 51
180
  0
LINE
  5
21B
100
AcDbEntity
  8
0
100
AcDbLine
370
25
 62
7
  6
CONTINUOUS
 10
636.239689453556
 20
299.870514363811
 30
0
 11
633.744749163742
 21
288.132743155005
 31
0
  0
ARC
  5
21C
100
AcDbEntity
  8
0
100
AcDbCircle
370
25
 62
7
  6
CONTINUOUS
 10
634.722896764476
 20
287.924831464187
 30
0
 40
1.00000000000003
100
AcDbArc
 50
168.000000000003
 51
258.000000000005
  0
LINE
  5
21D
100
AcDbEntity
  8
0
100
AcDbLine
370
25
 62
7
  6
CONTINUOUS
 10
634.514985073659
 20
286.946683863453
 30
0
 11
646.252756282464
 21
284.45174357364
 31
0
  0
ARC
  5
21E
100
AcDbEntity
  8
0
100
AcDbCircle
370
25
 62
7
  6
CONTINUOUS
 10
646.460667973282
 20
285.429891174374
 30
0
 40
0.999999999999997
100
AcDbArc
 50
257.999999999998
 51
348.000000000003
  0
LINE
  5
21F
100
AcDbEntity
  8
0
100
AcDbLine
370
25
 62
7
  6
CONTINUOUS
 10
647.438815574016
 20
285.221979483556
 30
0
 11
649.933755863829
 21
296.959750692362
 31
0
  0
ARC
  5
220
100
AcDbEntity
  8
0
100
AcDbCircle
370
25
 62
7
  6
CONTINUOUS
 10
648.955608263095
 20
297.16766238318
 30
0
 40
0.999999999999897
100
AcDbArc
 50
347.999999999993
 51
78.000000000002
  0
LINE
  5
221
100
AcDbEntity
  8
0
100
AcDbLine
370
25
 62
7
  6
CONTINUOUS
 10
649.163519953913
 20
298.145809983914
 30
0
 11
637.425748745107
 21
300.640750273727
 31
0
  0
ARC
  5
222
100
AcDbEntity
  8
0
100
AcDbCircle
370
25
 62
7
  6
CONTINUOUS
 10
637.217837054289
 20
299.662602672993
 30
0
 40
0.999999999999973
100
AcDbArc
 50
77.9999999999963
 51
168.000000000003
  0
LINE
  5
223
100
AcDbEntity
  8
0
100
AcDbLine
370
25
 62
7
  6
CONTINUOUS
 10
755.071037369763
 20
294.979032982284
 30
0
 11
757.565977659577
 21
283.241261773478
 31
0
  0
ARC
  5
224
100
AcDbEntity
  8
0
100
AcDbCircle
370
25
 62
7
  6
CONTINUOUS
 10
758.54412526031
 20
283.449173464296
 30
0
 40
1.0000000000001
100
AcDbArc
 50
191.999999999999
 51
282.000000000003
  0
LINE
  5
225
100
AcDbEntity
  8
0
100
AcDbLine
370
25
 62
7
  6
CONTINUOUS
 10
758.752036951128
 20
282.471025863562
 30
0
 11
770.489808159934
 21
284.965966153375
 31
0
  0
ARC
  5
226
100
AcDbEntity
  8
0
100
AcDbCircle
370
25
 62
7
  6
CONTINUOUS
 10
770.281896469116
 20
285.944113754109
 30
0
 40
1.0000000000002
100
AcDbArc
 50
282.000000000002
 51
11.9999999999939
  0
LINE
  5
227
100
AcDbEntity
  8
0
100
AcDbLine
370
25
 62
7
  6
CONTINUOUS
 10
771.26004406985
 20
286.152025444927
 30
0
 11
768.765103780037
 21
297.889796653732
 31
0
  0
ARC
  5
228
100
AcDbEntity
  8
0
100
AcDbCircle
370
25
 62
7
  6
CONTINUOUS
 10
767.786956179303
 20
297.681884962914
 30
0
 40
1.00000000000024
100
AcDbArc
 50
12.0000000000066
 51
102
  0
LINE
  5
229
100
AcDbEntity
  8
0
100
AcDbLine
370
25
 62
7
  6
CONTINUOUS
 10
767.579044488485
 20
298.660032563648
 30
0
 11
755.84127327968
 21
296.165092273835
 31
0
  0
ARC
  5
22A
100
AcDbEntity
  8
0
100
AcDbCircle
370
25
 62
7
  6
CONTINUOUS
 10
756.049184970497
 20
295.186944673101
 30
0
 40
1.00000000000008
100
AcDbArc
 50
102.000000000002
 51
191.999999999996
  0
LINE
  5
22B
100
AcDbEntity
  8
0
100
AcDbLine
370
25
 62
7
  6
CONTINUOUS
 10
546.399252513786
 20
251.406246923684
 30
0
 11
558.399252513786
 21
251.406246923684
 31
0
  0
ARC
  5
22C
100
AcDbEntity
  8
0
100
AcDbCircle
370
25
 62
7
  6
CONTINUOUS
 10
558.399252513786
 20
252.406246923684
 30
0
 40
1.00000000000006
100
AcDbArc
 50
270.000000000007
 51
0
  0
LINE
  5
22D
100
AcDbEntity
  8
0
100
AcDbLine
370
25
 62
7
  6
CONTINUOUS
 10
559.399252513786
 20
252.406246923684
 30
0
 11
559.399252513786
 21
264.406246923684
 31
0
  0
ARC
  5
22E
100
AcDbEntity
  8
0
100
AcDbCircle
370
25
 62
7
  6
CONTINUOUS
 10
558.399252513786
 20
264.406246923684
 30
0
 40
1
100
AcDbArc
 50
0
 51
89.9999999999935
  0
LINE
  5
22F
100
AcDbEntity
  8
0
100
AcDbLine
370
25
 62
7
  6
CONTINUOUS
 10
558.399252513786
 20
265.406246923684
 30
0
 11
546.399252513786
 21
265.406246923684
 31
0
  0
ARC
  5
230
100
AcDbEntity
  8
0
100
AcDbCircle
370
25
 62
7
  6
CONTINUOUS
 10
546.399252513786
 20
264.406246923684
 30
0
 40
1.00000000000011
100
AcDbArc
 50
90
 51
180.000000000004
  0
LINE
  5
231
100
AcDbEntity
  8
0
100
AcDbLine
370
25
 62
7
  6
CONTINUOUS
 10
545.399252513786
 20
264.406246923684
 30
0
 11
545.399252513786
 21
252.406246923684
 31
0
  0
ARC
  5
232
100
AcDbEntity
  8
0
100
AcDbCircle
370
25
 62
7
  6
CONTINUOUS
 10
546.399252513786
 20
252.406246923684
 30
0
 40
1.00000000000011
100
AcDbArc
 50
180.000000000004
 51
270.000000000001
  0
ARC
  5
234
100
AcDbEntity
  8
0
100
AcDbCircle
370
25
 62
7
  6
CONTINUOUS
 10
588.799252513786
 20
250.266246923684
 30
0
 40
1.00000000000011
100
AcDbArc
 50
270.000000000007
 51
0
  0
LINE
  5
235
100
AcDbEntity
  8
0
100
AcDbLine
370
25
 62
7
  6
CONTINUOUS
 10
589.799252513786
 20
250.266246923684
 30
0
 11
589.799252513786
 21
262.266246923684
 31
0
  0
ARC
  5
236
100
AcDbEntity
  8
0
100
AcDbCircle
370
25
 62
7
  6
CONTINUOUS
 10
588.799252513786
 20
262.266246923684
 30
0
 40
1.00000000000011
100
AcDbArc
 50
3.25688799381827E-12
 51
89.9999999999935
  0
ARC
  5
238
100
AcDbEntity
  8
0
100
AcDbCircle
370
25
 62
7
  6
CONTINUOUS
 10
571.799252513786
 20
262.266246923684
 30
0
 40
1.00000000000006
100
AcDbArc
 50
90
 51
179.999999999993
  0
LINE
  5
239
100
AcDbEntity
  8
0
100
AcDbLine
370
25
 62
7
  6
CONTINUOUS
 10
570.799252513786
 20
262.266246923684
 30
0
 11
570.799252513786
 21
250.266246923684
 31
0
  0
ARC
  5
23A
100
AcDbEntity
  8
0
100
AcDbCircle
370
25
 62
7
  6
CONTINUOUS
 10
571.799252513786
 20
250.266246923684
 30
0
 40
1.00000000000003
100
AcDbArc
 50
180
 51
270.000000000001
  0
LINE
  5
23B
100
AcDbEntity
  8
0
100
AcDbLine
370
25
 62
7
  6
CONTINUOUS
 10
577.249252513786
 20
281.316246923684
 30
0
 11
577.249252513786
 21
269.316246923684
 31
0
  0
ARC
  5
23C
100
AcDbEntity
  8
0
100
AcDbCircle
370
25
 62
7
  6
CONTINUOUS
 10
578.249252513786
 20
269.316246923684
 30
0
 40
1
100
AcDbArc
 50
179.999999999997
 51
270.000000000001
  0
LINE
  5
23D
100
AcDbEntity
  8
0
100
AcDbLine
370
25
 62
7
  6
CONTINUOUS
 10
578.249252513786
 20
268.316246923684
 30
0
 11
590.249252513786
 21
268.316246923684
 31
0
  0
ARC
  5
23E
100
AcDbEntity
  8
0
100
AcDbCircle
370
25
 62
7
  6
CONTINUOUS
 10
590.249252513786
 20
269.316246923684
 30
0
 40
1
100
AcDbArc
 50
270.000000000001
 51
0
  0
LINE
  5
23F
100
AcDbEntity
  8
0
100
AcDbLine
370
25
 62
7
  6
CONTINUOUS
 10
591.249252513786
 20
269.316246923684
 30
0
 11
591.249252513786
 21
281.316246923684
 31
0
  0
ARC
  5
240
100
AcDbEntity
  8
0
100
AcDbCircle
370
25
 62
7
  6
CONTINUOUS
 10
590.249252513786
 20
281.316246923684
 30
0
 40
1
100
AcDbArc
 50
0
 51
90
  0
LINE
  5
241
100
AcDbEntity
  8
0
100
AcDbLine
370
25
 62
7
  6
CONTINUOUS
 10
590.249252513786
 20
282.316246923684
 30
0
 11
578.249252513786
 21
282.316246923684
 31
0
  0
ARC
  5
242
100
AcDbEntity
  8
0
100
AcDbCircle
370
25
 62
7
  6
CONTINUOUS
 10
578.249252513786
 20
281.316246923684
 30
0
 40
1.00000000000006
100
AcDbArc
 50
90
 51
180
  0
LINE
  5
243
100
AcDbEntity
  8
0
100
AcDbLine
370
25
 62
7
  6
CONTINUOUS
 10
601.759252513786
 20
262.266246923684
 30
0
 11
601.759252513786
 21
250.266246923684
 31
0
  0
ARC
  5
244
100
AcDbEntity
  8
0
100
AcDbCircle
370
25
 62
7
  6
CONTINUOUS
 10
602.759252513786
 20
250.266246923684
 30
0
 40
1.00000000000003
100
AcDbArc
 50
180
 51
270.000000000001
  0
LINE
  5
245
100
AcDbEntity
  8
0
100
AcDbLine
370
25
 62
7
  6
CONTINUOUS
 10
602.759252513786
 20
249.266246923684
 30
0
 11
614.759252513786
 21
249.266246923684
 31
0
  0
ARC
  5
246
100
AcDbEntity
  8
0
100
AcDbCircle
370
25
 62
7
  6
CONTINUOUS
 10
614.759252513786
 20
250.266246923684
 30
0
 40
1.00000000000003
100
AcDbArc
 50
270.000000000001
 51
0
  0
LINE
  5
247
100
AcDbEntity
  8
0
100
AcDbLine
370
25
 62
7
  6
CONTINUOUS
 10
615.759252513786
 20
250.266246923684
 30
0
 11
615.759252513786
 21
262.266246923684
 31
0
  0
ARC
  5
248
100
AcDbEntity
  8
0
100
AcDbCircle
370
25
 62
7
  6
CONTINUOUS
 10
614.759252513786
 20
262.266246923684
 30
0
 40
1
100
AcDbArc
 50
0
 51
90
  0
ARC
  5
249
100
AcDbEntity
  8
0
100
AcDbCircle
370
25
 62
7
  6
CONTINUOUS
 10
602.759252513786
 20
262.266246923684
 30
0
 40
1
100
AcDbArc
 50
90
 51
179.999999999997
  0
LINE
  5
24A
100
AcDbEntity
  8
0
100
AcDbLine
370
25
 62
7
  6
CONTINUOUS
 10
775.285748745107
 20
227.56174357364
 30
0
 11
787.023519953913
 21
230.056683863453
 31
0
  0
ARC
  5
24B
100
AcDbEntity
  8
0
100
AcDbCircle
370
25
 62
7
  6
CONTINUOUS
 10
786.815608263095
 20
231.034831464187
 30
0
 40
1.00000000000003
100
AcDbArc
 50
281.999999999997
 51
12.0000000000011
  0
LINE
  5
24C
100
AcDbEntity
  8
0
100
AcDbLine
370
25
 62
7
  6
CONTINUOUS
 10
787.793755863829
 20
231.242743155005
 30
0
 11
785.298815574016
 21
242.980514363811
 31
0
  0
ARC
  5
24D
100
AcDbEntity
  8
0
100
AcDbCircle
370
25
 62
7
  6
CONTINUOUS
 10
784.320667973282
 20
242.772602672993
 30
0
 40
0.999999999999991
100
AcDbArc
 50
12.0000000000014
 51
101.999999999997
  0
LINE
  5
24E
100
AcDbEntity
  8
0
100
AcDbLine
370
25
 62
7
  6
CONTINUOUS
 10
784.112756282464
 20
243.750750273727
 30
0
 11
772.374985073659
 21
241.255809983914
 31
0
  0
ARC
  5
24F
100
AcDbEntity
  8
0
100
AcDbCircle
370
25
 62
7
  6
CONTINUOUS
 10
772.582896764476
 20
240.27766238318
 30
0
 40
1.00000000000005
100
AcDbArc
 50
102.000000000002
 51
191.999999999999
  0
LINE
  5
250
100
AcDbEntity
  8
0
100
AcDbLine
370
25
 62
7
  6
CONTINUOUS
 10
771.604749163743
 20
240.069750692362
 30
0
 11
774.099689453556
 21
228.331979483556
 31
0
  0
ARC
  5
251
100
AcDbEntity
  8
0
100
AcDbCircle
370
25
 62
7
  6
CONTINUOUS
 10
775.077837054289
 20
228.539891174374
 30
0
 40
1.00000000000005
100
AcDbArc
 50
192.000000000005
 51
282.000000000003
  0
LINE
  5
252
100
AcDbEntity
  8
0
100
AcDbLine
370
25
 62
7
  6
CONTINUOUS
 10
776.414749163742
 20
220.079750692362
 30
0
 11
778.909689453556
 21
208.341979483556
 31
0
  0
ARC
  5
253
100
AcDbEntity
  8
0
100
AcDbCircle
370
25
 62
7
  6
CONTINUOUS
 10
779.887837054289
 20
208.549891174374
 30
0
 40
1.00000000000005
100
AcDbArc
 50
192.000000000001
 51
282.000000000003
  0
LINE
  5
254
100
AcDbEntity
  8
0
100
AcDbLine
370
25
 62
7
  6
CONTINUOUS
 10
780.095748745107
 20
207.57174357364
 30
0
 11
791.833519953913
 21
210.066683863454
 31
0
  0
ARC
  5
255
100
AcDbEntity
  8
0
100
AcDbCircle
370
25
 62
7
  6
CONTINUOUS
 10
791.625608263095
 20
211.044831464187
 30
0
 40
1.00000000000008
100
AcDbArc
 50
282.000000000009
 51
11.9999999999982
  0
LINE
  5
256
100
AcDbEntity
  8
0
100
AcDbLine
370
25
 62
7
  6
CONTINUOUS
 10
792.603755863829
 20
211.252743155005
 30
0
 11
790.108815574016
 21
222.990514363811
 31
0
  0
ARC
  5
257
100
AcDbEntity
  8
0
100
AcDbCircle
370
25
 62
7
  6
CONTINUOUS
 10
789.130667973282
 20
222.782602672993
 30
0
 40
0.999999999999979
100
AcDbArc
 50
11.9999999999982
 51
102.000000000003
  0
LINE
  5
258
100
AcDbEntity
  8
0
100
AcDbLine
370
25
 62
7
  6
CONTINUOUS
 10
788.922756282464
 20
223.760750273727
 30
0
 11
777.184985073658
 21
221.265809983914
 31
0
  0
ARC
  5
259
100
AcDbEntity
  8
0
100
AcDbCircle
370
25
 62
7
  6
CONTINUOUS
 10
777.392896764476
 20
220.28766238318
 30
0
 40
1.0000000000002
100
AcDbArc
 50
102.000000000009
 51
191.999999999996
  0
LINE
  5
25A
100
AcDbEntity
  8
0
100
AcDbLine
370
25
 62
7
  6
CONTINUOUS
 10
567.721251790066
 20
244.801244160412
 30
0
 11
567.721251790066
 21
226.5
 31
0
  0
LINE
  5
25E
100
AcDbEntity
  8
0
100
AcDbLine
370
25
 62
7
  6
CONTINUOUS
 10
598.597253133197
 20
226.5
 30
0
 11
598.597253133197
 21
244.801244160412
 31
0
  0
ARC
  5
25F
100
AcDbEntity
  8
0
100
AcDbCircle
370
25
 62
7
  6
CONTINUOUS
 10
597.597253133197
 20
244.80124618697
 30
0
 40
1.00000000000262
100
AcDbArc
 50
359.999883886817
 51
90.0001161131312
  0
ARC
  5
26D
100
AcDbEntity
  8
0
100
AcDbCircle
370
25
 62
7
  6
CONTINUOUS
 10
568.721251790069
 20
244.801246186965
 30
0
 40
1.00000000000479
100
AcDbArc
 50
89.9999906086462
 51
180.00011611293
  0
LINE
  5
28D
100
AcDbEntity
  8
0
100
AcDbLine
370
25
 62
7
  6
CONTINUOUS
 10
757.869321038753
 20
222.219239001409
 30
0
 11
725.318357837005
 21
215.30882945685
 31
9.90363376702052E-216
  0
LINE
  5
2A2
100
AcDbEntity
  8
0
100
AcDbLine
370
25
 62
7
  6
CONTINUOUS
 10
832.979252513786
 20
300.366246923684
 30
0
 11
832.979252513786
 21
288.366246923684
 31
0
  0
LINE
  5
2AC
100
AcDbEntity
  8
0
100
AcDbLine
370
25
 62
7
  6
CONTINUOUS
 10
866.029252513786
 20
288.366246923683
 30
0
 11
866.029252513786
 21
300.366246923684
 31
0
  0
ARC
  5
2D8
100
AcDbEntity
  8
0
100
AcDbCircle
370
25
 62
7
  6
CONTINUOUS
 10
885.668002513786
 20
313.536246923684
 30
0
 40
2
100
AcDbArc
 50
0
 51
90
  0
LINE
  5
2D9
100
AcDbEntity
  8
0
100
AcDbLine
370
25
 62
7
  6
CONTINUOUS
 10
887.668002513786
 20
184.621939765648
 30
0
 11
887.668002513786
 21
313.536246923684
 31
0
  0
ARC
  5
2DA
100
AcDbEntity
  8
0
100
AcDbCircle
370
25
 62
7
  6
CONTINUOUS
 10
885.668002513786
 20
184.621939765648
 30
0
 40
2
100
AcDbArc
 50
270.000000000001
 51
0
  0
LINE
  5
2DB
100
AcDbEntity
  8
0
100
AcDbLine
370
25
 62
7
  6
CONTINUOUS
 10
538.369252513786
 20
182.621939765648
 30
0
 11
885.668002513786
 21
182.621939765648
 31
0
  0
ARC
  5
2DC
100
AcDbEntity
  8
0
100
AcDbCircle
370
25
 62
7
  6
CONTINUOUS
 10
538.369252513786
 20
184.621939765648
 30
0
 40
2
100
AcDbArc
 50
180
 51
270.000000000001
  0
LINE
  5
2DD
100
AcDbEntity
  8
0
100
AcDbLine
370
25
 62
7
  6
CONTINUOUS
 10
536.369252513786
 20
313.536246923684
 30
0
 11
536.369252513786
 21
184.621939765648
 31
0
  0
ARC
  5
2DE
100
AcDbEntity
  8
0
100
AcDbCircle
370
25
 62
7
  6
CONTINUOUS
 10
538.369252513786
 20
313.536246923684
 30
0
 40
2
100
AcDbArc
 50
90
 51
180
  0
CIRCLE
  5
2E1
100
AcDbEntity
  8
0
100
AcDbCircle
370
25
 62
7
  6
CONTINUOUS
 10
883.168002513786
 20
187.121939765648
 30
0
 40
1.75000000000011
  0
CIRCLE
  5
2E2
100
AcDbEntity
  8
0
100
AcDbCircle
370
25
 62
7
  6
CONTINUOUS
 10
540.869252513786
 20
311.036246923684
 30
0
 40
1.75
  0
CIRCLE
  5
2E3
100
AcDbEntity
  8
0
100
AcDbCircle
370
25
 62
7
  6
CONTINUOUS
 10
654.96883584712
 20
311.036246923684
 30
0
 40
1.75
  0
CIRCLE
  5
2E4
100
AcDbEntity
  8
0
100
AcDbCircle
370
25
 62
7
  6
CONTINUOUS
 10
769.068419180453
 20
311.036246923684
 30
0
 40
1.75000000000011
  0
CIRCLE
  5
2E5
100
AcDbEntity
  8
0
100
AcDbCircle
370
25
 62
7
  6
CONTINUOUS
 10
769.068419180453
 20
187.121939765648
 30
0
 40
1.75
  0
CIRCLE
  5
2E6
100
AcDbEntity
  8
0
100
AcDbCircle
370
25
 62
7
  6
CONTINUOUS
 10
654.96883584712
 20
187.121939765648
 30
0
 40
1.6
  0
CIRCLE
  5
2E7
100
AcDbEntity
  8
0
100
AcDbCircle
370
25
 62
7
  6
CONTINUOUS
 10
540.869252513786
 20
187.121939765648
 30
0
 40
1.75
  0
CIRCLE
  5
2E8
100
AcDbEntity
  8
0
100
AcDbCircle
370
25
 62
7
  6
CONTINUOUS
 10
883.168002513786
 20
311.036246923684
 30
0
 40
1.75
  0
CIRCLE
  5
2E9
100
AcDbEntity
  8
0
100
AcDbCircle
370
25
 62
7
  6
CONTINUOUS
 10
547.014617468528
 20
215.378426952663
 30
1.02658998035354E-299
 40
2
  0
CIRCLE
  5
2EA
100
AcDbEntity
  8
0
100
AcDbCircle
370
25
 62
7
  6
CONTINUOUS
 10
547.014617468528
 20
210.878426952663
 30
1.02658998035354E-299
 40
2
  0
CIRCLE
  5
2EB
100
AcDbEntity
  8
0
100
AcDbCircle
370
25
 62
7
  6
CONTINUOUS
 10
547.014617468528
 20
219.878426952663
 30
1.02658998035354E-299
 40
2
  0
LINE
  5
2ED
100
AcDbEntity
  8
0
100
AcDbLine
370
25
 62
7
  6
CONTINUOUS
 10
614.759252513786
 20
263.266246923684
 30
0
 11
602.759252513786
 21
263.266246923684
 31
0
  0
ARC
  5
2EE
100
AcDbEntity
  8
0
100
AcDbCircle
370
25
 62
7
  6
CONTINUOUS
 10
538.369252513786
 20
34.8249868812493
 30
0
 40
2
100
AcDbArc
 50
90
 51
180
  0
ARC
  5
2F0
100
AcDbEntity
  8
0
100
AcDbCircle
370
25
 62
7
  6
CONTINUOUS
 10
885.668002513786
 20
34.8249868812493
 30
0
 40
2
100
AcDbArc
 50
0
 51
90
  0
LINE
  5
2F1
100
AcDbEntity
  8
0
100
AcDbLine
370
25
 62
7
  6
CONTINUOUS
 10
887.668002513786
 20
34.8249868812493
 30
0
 11
887.668002513786
 21
-94.0893202767862
 31
0
  0
ARC
  5
2F2
100
AcDbEntity
  8
0
100
AcDbCircle
370
25
 62
7
  6
CONTINUOUS
 10
885.668002513786
 20
-94.0893202767862
 30
0
 40
2
100
AcDbArc
 50
270.000000000001
 51
0
  0
ARC
  5
2F3
100
AcDbEntity
  8
0
100
AcDbCircle
370
25
 62
7
  6
CONTINUOUS
 10
538.369252513786
 20
-94.0893202767862
 30
0
 40
2
100
AcDbArc
 50
180
 51
270.000000000001
  0
CIRCLE
  5
2F6
100
AcDbEntity
  8
0
100
AcDbCircle
370
25
 62
7
  6
CONTINUOUS
 10
883.168002513786
 20
32.3249868812493
 30
0
 40
1.75
  0
LINE
  5
2F7
100
AcDbEntity
  8
0
100
AcDbLine
370
25
 62
7
  6
CONTINUOUS
 10
536.369252513786
 20
-94.0893202767862
 30
0
 11
536.369252513786
 21
34.8249868812493
 31
0
  0
CIRCLE
  5
2F8
100
AcDbEntity
  8
0
100
AcDbCircle
370
25
 62
7
  6
CONTINUOUS
 10
883.168002513786
 20
-91.5893202767862
 30
0
 40
1.75
  0
CIRCLE
  5
2F9
100
AcDbEntity
  8
0
100
AcDbCircle
370
25
 62
7
  6
CONTINUOUS
 10
540.869252513786
 20
32.3249868812493
 30
0
 40
1.75
  0
CIRCLE
  5
2FA
100
AcDbEntity
  8
0
100
AcDbCircle
370
25
 62
7
  6
CONTINUOUS
 10
654.96883584712
 20
32.3249868812493
 30
0
 40
1.75
  0
CIRCLE
  5
2FB
100
AcDbEntity
  8
0
100
AcDbCircle
370
25
 62
7
  6
CONTINUOUS
 10
769.068419180453
 20
32.3249868812493
 30
0
 40
1.75
  0
CIRCLE
  5
2FC
100
AcDbEntity
  8
0
100
AcDbCircle
370
25
 62
7
  6
CONTINUOUS
 10
769.068419180453
 20
-91.5893202767862
 30
0
 40
1.75
  0
CIRCLE
  5
2FD
100
AcDbEntity
  8
0
100
AcDbCircle
370
25
 62
7
  6
CONTINUOUS
 10
654.96883584712
 20
-91.5893202767862
 30
0
 40
1.75
  0
CIRCLE
  5
2FE
100
AcDbEntity
  8
0
100
AcDbCircle
370
25
 62
7
  6
CONTINUOUS
 10
540.869252513786
 20
-91.5893202767862
 30
0
 40
1.75
  0
LINE
  5
2FF
100
AcDbEntity
  8
0
100
AcDbLine
370
25
 62
7
  6
CONTINUOUS
 10
885.668002513786
 20
-96.0893202767862
 30
0
 11
538.369252513786
 21
-96.0893202767862
 31
0
  0
LINE
  5
301
100
AcDbEntity
  8
0
100
AcDbLine
370
25
 62
7
  6
CONTINUOUS
 10
542.899252513786
 20
69.3937063490721
 30
0
 11
542.899252513786
 21
163.733706349072
 31
0
  0
LINE
  5
302
100
AcDbEntity
  8
0
100
AcDbLine
370
25
 62
7
  6
CONTINUOUS
 10
617.039187005064
 20
67.8937063490721
 30
0
 11
544.399252513786
 21
67.8937063490721
 31
0
  0
LINE
  5
303
100
AcDbEntity
  8
0
100
AcDbLine
370
25
 62
7
  6
CONTINUOUS
 10
879.638002513786
 20
67.8937063490721
 30
0
 11
806.499318022505
 21
67.8937063490721
 31
0
  0
LINE
  5
304
100
AcDbEntity
  8
0
100
AcDbLine
370
25
 62
7
  6
CONTINUOUS
 10
881.138002513786
 20
163.733706349072
 30
0
 11
881.138002513786
 21
69.3937063490721
 31
0
  0
LINE
  5
305
100
AcDbEntity
  8
0
100
AcDbLine
370
25
 62
7
  6
CONTINUOUS
 10
722.119252514
 20
165.233706349072
 30
0
 11
879.638002513786
 21
165.233706349072
 31
0
  0
LINE
  5
306
100
AcDbEntity
  8
0
100
AcDbLine
370
25
 62
7
  6
CONTINUOUS
 10
722.119252513788
 20
174.763706349072
 30
0
 11
885.668002513786
 21
174.763706349072
 31
0
  0
LINE
  5
307
100
AcDbEntity
  8
0
100
AcDbLine
370
25
 62
7
  6
CONTINUOUS
 10
887.668002513786
 20
172.763706349072
 30
0
 11
887.668002513786
 21
43.8493991910366
 31
0
  0
ARC
  5
308
100
AcDbEntity
  8
0
100
AcDbCircle
370
25
 62
7
  6
CONTINUOUS
 10
885.668002513786
 20
43.8493991910366
 30
0
 40
2.00000000000001
100
AcDbArc
 50
270.000000000001
 51
0
  0
LINE
  5
309
100
AcDbEntity
  8
0
100
AcDbLine
370
25
 62
7
  6
CONTINUOUS
 10
885.668002513786
 20
41.8493991910366
 30
0
 11
538.369252513786
 21
41.8493991910366
 31
0
  0
CIRCLE
  5
30B
100
AcDbEntity
  8
0
100
AcDbCircle
370
25
 62
7
  6
CONTINUOUS
 10
540.869252513786
 20
46.3493991910365
 30
0
 40
1.75
  0
CIRCLE
  5
30C
100
AcDbEntity
  8
0
100
AcDbCircle
370
25
 62
7
  6
CONTINUOUS
 10
883.168002513786
 20
170.263706349072
 30
0
 40
1.75
  0
CIRCLE
  5
30D
100
AcDbEntity
  8
0
100
AcDbCircle
370
25
 62
7
  6
CONTINUOUS
 10
769.068419180453
 20
170.263706349072
 30
0
 40
1.75000000000011
  0
CIRCLE
  5
30E
100
AcDbEntity
  8
0
100
AcDbCircle
370
25
 62
7
  6
CONTINUOUS
 10
654.96883584712
 20
170.263706349072
 30
0
 40
1.6
  0
CIRCLE
  5
30F
100
AcDbEntity
  8
0
100
AcDbCircle
370
25
 62
7
  6
CONTINUOUS
 10
654.96883584712
 20
46.3493991910365
 30
0
 40
1.75
  0
CIRCLE
  5
310
100
AcDbEntity
  8
0
100
AcDbCircle
370
25
 62
7
  6
CONTINUOUS
 10
769.068419180453
 20
46.3493991910365
 30
0
 40
1.75
  0
CIRCLE
  5
311
100
AcDbEntity
  8
0
100
AcDbCircle
370
25
 62
7
  6
CONTINUOUS
 10
883.168002513786
 20
46.3493991910365
 30
0
 40
1.75000000000011
  0
ARC
  5
312
100
AcDbEntity
  8
0
100
AcDbCircle
370
25
 62
7
  6
CONTINUOUS
 10
885.668002513786
 20
172.763706349072
 30
0
 40
2
100
AcDbArc
 50
0
 51
90
  0
LINE
  5
313
100
AcDbEntity
  8
0
100
AcDbLine
370
25
 62
7
  6
CONTINUOUS
 10
544.399252513786
 20
165.233706349072
 30
0
 11
702.369252514
 21
165.233706349072
 31
0
  0
LINE
  5
31A
100
AcDbEntity
  8
0
100
AcDbLine
370
25
 62
7
  6
CONTINUOUS
 10
538.369252513786
 20
174.763706349072
 30
0
 11
702.369252513786
 21
174.763706349072
 31
0
  0
ARC
  5
31B
100
AcDbEntity
  8
0
100
AcDbCircle
370
25
 62
7
  6
CONTINUOUS
 10
538.369252513786
 20
172.763706349072
 30
0
 40
2
100
AcDbArc
 50
90
 51
180
  0
LINE
  5
31C
100
AcDbEntity
  8
0
100
AcDbLine
370
25
 62
7
  6
CONTINUOUS
 10
536.369252513786
 20
43.8493991910366
 30
0
 11
536.369252513786
 21
172.763706349072
 31
0
  0
ARC
  5
31D
100
AcDbEntity
  8
0
100
AcDbCircle
370
25
 62
7
  6
CONTINUOUS
 10
538.369252513786
 20
43.8493991910366
 30
0
 40
2.00000000000001
100
AcDbArc
 50
180
 51
270.000000000001
  0
ARC
  5
31E
100
AcDbEntity
  8
0
100
AcDbCircle
370
25
 62
7
  6
CONTINUOUS
 10
879.638002513786
 20
69.3937063490721
 30
0
 40
1.5
100
AcDbArc
 50
270.000000000001
 51
0
  0
LINE
  5
31F
100
AcDbEntity
  8
0
100
AcDbLine
370
25
 62
7
  6
CONTINUOUS
 10
711.769252513784
 20
47.7582093377628
 30
0
 11
806.499318022505
 21
67.8937063490721
 31
0
  0
LINE
  5
320
100
AcDbEntity
  8
0
100
AcDbLine
370
25
 62
7
  6
CONTINUOUS
 10
617.039187005064
 20
67.8937063490721
 30
0
 11
711.769252513784
 21
47.7582093377628
 31
0
  0
ARC
  5
321
100
AcDbEntity
  8
0
100
AcDbCircle
370
25
 62
7
  6
CONTINUOUS
 10
544.399252513786
 20
69.3937063490721
 30
0
 40
1.50000000000011
100
AcDbArc
 50
180
 51
270.000000000001
  0
ARC
  5
322
100
AcDbEntity
  8
0
100
AcDbCircle
370
25
 62
7
  6
CONTINUOUS
 10
544.399252513786
 20
163.733706349072
 30
0
 40
1.50000000000011
100
AcDbArc
 50
90
 51
180
  0
CIRCLE
  5
323
100
AcDbEntity
  8
0
100
AcDbCircle
370
25
 62
7
  6
CONTINUOUS
 10
540.869252513786
 20
170.263706349072
 30
0
 40
1.6
  0
ARC
  5
324
100
AcDbEntity
  8
0
100
AcDbCircle
370
25
 62
7
  6
CONTINUOUS
 10
879.638002513786
 20
163.733706349072
 30
0
 40
1.5
100
AcDbArc
 50
0
 51
90
  0
LINE
  5
325
100
AcDbEntity
  8
0
100
AcDbLine
370
25
 62
7
  6
CONTINUOUS
 10
631.369252513786
 20
444.312147999893
 30
0
 11
631.369252513786
 21
444.320692835358
 31
0
  0
ARC
  5
326
100
AcDbEntity
  8
0
100
AcDbCircle
370
25
 62
7
  6
CONTINUOUS
 10
629.869252513786
 20
444.320692835358
 30
0
 40
1.5
100
AcDbArc
 50
0
 51
90
  0
LINE
  5
327
100
AcDbEntity
  8
0
100
AcDbLine
370
25
 62
7
  6
CONTINUOUS
 10
629.869252513786
 20
445.820692835358
 30
0
 11
612.809252513786
 21
445.820692835358
 31
0
  0
ARC
  5
328
100
AcDbEntity
  8
0
100
AcDbCircle
370
25
 62
7
  6
CONTINUOUS
 10
612.809252513786
 20
444.320692835358
 30
0
 40
1.50000000000011
100
AcDbArc
 50
90
 51
180
  0
LINE
  5
329
100
AcDbEntity
  8
0
100
AcDbLine
370
25
 62
7
  6
CONTINUOUS
 10
611.309252513786
 20
444.320692835358
 30
0
 11
611.309252513786
 21
443.680692835357
 31
0
  0
LINE
  5
32A
100
AcDbEntity
  8
0
100
AcDbLine
370
25
 62
7
  6
CONTINUOUS
 10
611.309252513786
 20
443.680692835357
 30
0
 11
575.119252513786
 21
443.680692835357
 31
0
  0
ARC
  5
32B
100
AcDbEntity
  8
0
100
AcDbCircle
370
25
 62
7
  6
CONTINUOUS
 10
575.119252513786
 20
442.180692835358
 30
0
 40
1.5
100
AcDbArc
 50
90
 51
180
  0
LINE
  5
32C
100
AcDbEntity
  8
0
100
AcDbLine
370
25
 62
7
  6
CONTINUOUS
 10
573.619252513786
 20
442.180692835358
 30
0
 11
573.619252513786
 21
424.630692835357
 31
0
  0
LINE
  5
32D
100
AcDbEntity
  8
0
100
AcDbLine
370
25
 62
7
  6
CONTINUOUS
 10
573.619252513786
 20
424.630692835357
 30
0
 11
570.959252513786
 21
424.630692835357
 31
0
  0
ARC
  5
32E
100
AcDbEntity
  8
0
100
AcDbCircle
370
25
 62
7
  6
CONTINUOUS
 10
570.959252513786
 20
423.130692835358
 30
0
 40
1.49999999999994
100
AcDbArc
 50
90
 51
180
  0
LINE
  5
32F
100
AcDbEntity
  8
0
100
AcDbLine
370
25
 62
7
  6
CONTINUOUS
 10
569.459252513786
 20
423.130692835358
 30
0
 11
569.459252513786
 21
405.580692835358
 31
0
  0
LINE
  5
330
100
AcDbEntity
  8
0
100
AcDbLine
370
25
 62
7
  6
CONTINUOUS
 10
569.459252513786
 20
405.580692835358
 30
0
 11
566.889252513786
 21
405.580692835358
 31
0
  0
ARC
  5
331
100
AcDbEntity
  8
0
100
AcDbCircle
370
25
 62
7
  6
CONTINUOUS
 10
566.889252513786
 20
404.080692835358
 30
0
 40
1.50000000000011
100
AcDbArc
 50
90
 51
180
  0
LINE
  5
332
100
AcDbEntity
  8
0
100
AcDbLine
370
25
 62
7
  6
CONTINUOUS
 10
565.389252513786
 20
404.080692835358
 30
0
 11
565.389252513786
 21
386.530692835358
 31
0
  0
ARC
  5
333
100
AcDbEntity
  8
0
100
AcDbCircle
370
25
 62
7
  6
CONTINUOUS
 10
707.856338270721
 20
426.520805146941
 30
0
 40
1.49999999999999
100
AcDbArc
 50
347.999999999998
 51
78.0000000000008
  0
LINE
  5
334
100
AcDbEntity
  8
0
100
AcDbLine
370
25
 62
7
  6
CONTINUOUS
 10
708.168205806948
 20
427.988026548042
 30
0
 11
631.369252513786
 21
444.312147999893
 31
0
  0
ARC
  5
335
100
AcDbEntity
  8
0
100
AcDbCircle
370
25
 62
7
  6
CONTINUOUS
 10
538.369252513786
 20
323.906385677322
 30
0
 40
2
100
AcDbArc
 50
180
 51
270.000000000001
  0
LINE
  5
336
100
AcDbEntity
  8
0
100
AcDbLine
370
25
 62
7
  6
CONTINUOUS
 10
536.369252513786
 20
452.820692835358
 30
0
 11
536.369252513786
 21
323.906385677322
 31
0
  0
ARC
  5
337
100
AcDbEntity
  8
0
100
AcDbCircle
370
25
 62
7
  6
CONTINUOUS
 10
538.369252513786
 20
452.820692835358
 30
0
 40
2
100
AcDbArc
 50
90
 51
180
  0
LINE
  5
338
100
AcDbEntity
  8
0
100
AcDbLine
370
25
 62
7
  6
CONTINUOUS
 10
885.668002513786
 20
454.820692835358
 30
0
 11
538.369252513786
 21
454.820692835358
 31
0
  0
ARC
  5
339
100
AcDbEntity
  8
0
100
AcDbCircle
370
25
 62
7
  6
CONTINUOUS
 10
885.668002513786
 20
452.820692835358
 30
0
 40
2
100
AcDbArc
 50
0
 51
90
  0
LINE
  5
33A
100
AcDbEntity
  8
0
100
AcDbLine
370
25
 62
7
  6
CONTINUOUS
 10
887.668002513786
 20
323.906385677322
 30
0
 11
887.668002513786
 21
452.820692835358
 31
0
  0
ARC
  5
33B
100
AcDbEntity
  8
0
100
AcDbCircle
370
25
 62
7
  6
CONTINUOUS
 10
885.668002513786
 20
323.906385677322
 30
0
 40
2
100
AcDbArc
 50
270.000000000001
 51
0
  0
LINE
  5
33C
100
AcDbEntity
  8
0
100
AcDbLine
370
25
 62
7
  6
CONTINUOUS
 10
538.369252513786
 20
321.906385677322
 30
0
 11
885.668002513786
 21
321.906385677322
 31
0
  0
ARC
  5
33D
100
AcDbEntity
  8
0
100
AcDbCircle
370
25
 62
7
  6
CONTINUOUS
 10
867.559252513786
 20
442.180692835358
 30
0
 40
1.49999999999994
100
AcDbArc
 50
0
 51
90
  0
LINE
  5
33E
100
AcDbEntity
  8
0
100
AcDbLine
370
25
 62
7
  6
CONTINUOUS
 10
867.559252513786
 20
443.680692835357
 30
0
 11
812.329252513786
 21
443.680692835357
 31
0
  0
LINE
  5
33F
100
AcDbEntity
  8
0
100
AcDbLine
370
25
 62
7
  6
CONTINUOUS
 10
812.329252513786
 20
443.680692835357
 30
0
 11
812.329252513786
 21
444.320692835357
 31
0
  0
ARC
  5
340
100
AcDbEntity
  8
0
100
AcDbCircle
370
25
 62
7
  6
CONTINUOUS
 10
810.829252513786
 20
444.320692835357
 30
0
 40
1.50000000000006
100
AcDbArc
 50
0
 51
90
  0
LINE
  5
341
100
AcDbEntity
  8
0
100
AcDbLine
370
25
 62
7
  6
CONTINUOUS
 10
810.829252513786
 20
445.820692835358
 30
0
 11
792.299280980772
 21
445.820692835358
 31
0
  0
ARC
  5
342
100
AcDbEntity
  8
0
100
AcDbCircle
370
25
 62
7
  6
CONTINUOUS
 10
792.299280980772
 20
444.320692835357
 30
0
 40
1.50000000000006
100
AcDbArc
 50
90
 51
92.2936995235174
  0
LINE
  5
343
100
AcDbEntity
  8
0
100
AcDbLine
370
25
 62
7
  6
CONTINUOUS
 10
792.239248105544
 20
445.81949103855
 30
0
 11
789.651155488576
 21
445.715827556153
 31
0
  0
LINE
  5
344
100
AcDbEntity
  8
0
100
AcDbLine
370
25
 62
7
  6
CONTINUOUS
 10
848.394852513786
 20
366.470692835358
 30
0
 11
848.394852513786
 21
348.872692835357
 31
0
  0
ARC
  5
345
100
AcDbEntity
  8
0
100
AcDbCircle
370
25
 62
7
  6
CONTINUOUS
 10
849.894852513786
 20
348.872692835357
 30
0
 40
1.50000000000011
100
AcDbArc
 50
180
 51
270.000000000001
  0
ARC
  5
346
100
AcDbEntity
  8
0
100
AcDbCircle
370
25
 62
7
  6
CONTINUOUS
 10
876.494852513786
 20
348.872692835357
 30
0
 40
1.5
100
AcDbArc
 50
270.000000000001
 51
0
  0
LINE
  5
347
100
AcDbEntity
  8
0
100
AcDbLine
370
25
 62
7
  6
CONTINUOUS
 10
877.994852513786
 20
366.470692835358
 30
0
 11
877.994852513786
 21
348.872692835357
 31
0
  0
LINE
  5
348
100
AcDbEntity
  8
0
100
AcDbLine
370
25
 62
7
  6
CONTINUOUS
 10
877.994852513786
 20
366.470692835358
 30
0
 11
880.168002513786
 21
366.470692835358
 31
0
  0
ARC
  5
349
100
AcDbEntity
  8
0
100
AcDbCircle
370
25
 62
7
  6
CONTINUOUS
 10
880.168002513786
 20
367.970692835358
 30
0
 40
1.50000000000006
100
AcDbArc
 50
270.000000000001
 51
0
  0
CIRCLE
  5
34A
100
AcDbEntity
  8
0
100
AcDbCircle
370
25
 62
7
  6
CONTINUOUS
 10
540.869252513786
 20
450.320692835357
 30
0
 40
1.6
  0
CIRCLE
  5
34B
100
AcDbEntity
  8
0
100
AcDbCircle
370
25
 62
7
  6
CONTINUOUS
 10
540.869252513786
 20
326.406385677322
 30
0
 40
1.6
  0
CIRCLE
  5
34C
100
AcDbEntity
  8
0
100
AcDbCircle
370
25
 62
7
  6
CONTINUOUS
 10
654.96883584712
 20
326.406385677322
 30
0
 40
1.6
  0
CIRCLE
  5
34D
100
AcDbEntity
  8
0
100
AcDbCircle
370
25
 62
7
  6
CONTINUOUS
 10
769.068419180453
 20
326.406385677322
 30
0
 40
1.6
  0
CIRCLE
  5
34E
100
AcDbEntity
  8
0
100
AcDbCircle
370
25
 62
7
  6
CONTINUOUS
 10
883.168002513786
 20
326.406385677322
 30
0
 40
1.6
  0
CIRCLE
  5
34F
100
AcDbEntity
  8
0
100
AcDbCircle
370
25
 62
7
  6
CONTINUOUS
 10
883.168002513786
 20
450.320692835357
 30
0
 40
1.6
  0
CIRCLE
  5
350
100
AcDbEntity
  8
0
100
AcDbCircle
370
25
 62
7
  6
CONTINUOUS
 10
769.068419180453
 20
450.320692835357
 30
0
 40
1.6
  0
LINE
  5
351
100
AcDbEntity
  8
0
100
AcDbLine
370
25
 62
7
  6
CONTINUOUS
 10
881.668002513786
 20
367.970692835358
 30
0
 11
881.668002513786
 21
385.030692835358
 31
0
  0
LINE
  5
352
100
AcDbEntity
  8
0
100
AcDbLine
370
25
 62
7
  6
CONTINUOUS
 10
869.059252513786
 20
424.630692835358
 30
0
 11
869.059252513786
 21
442.180692835358
 31
0
  0
LINE
  5
353
100
AcDbEntity
  8
0
100
AcDbLine
370
25
 62
7
  6
CONTINUOUS
 10
871.729252513786
 20
424.630692835358
 30
0
 11
869.059252513786
 21
424.630692835358
 31
0
  0
ARC
  5
354
100
AcDbEntity
  8
0
100
AcDbCircle
370
25
 62
7
  6
CONTINUOUS
 10
871.729252513786
 20
423.130692835358
 30
0
 40
1.50000000000011
100
AcDbArc
 50
0
 51
90
  0
LINE
  5
355
100
AcDbEntity
  8
0
100
AcDbLine
370
25
 62
7
  6
CONTINUOUS
 10
873.229252513786
 20
405.580692835358
 30
0
 11
873.229252513786
 21
423.130692835358
 31
0
  0
LINE
  5
356
100
AcDbEntity
  8
0
100
AcDbLine
370
25
 62
7
  6
CONTINUOUS
 10
875.989252513786
 20
405.580692835358
 30
0
 11
873.229252513786
 21
405.580692835358
 31
0
  0
ARC
  5
357
100
AcDbEntity
  8
0
100
AcDbCircle
370
25
 62
7
  6
CONTINUOUS
 10
875.989252513786
 20
404.080692835358
 30
0
 40
1.50000000000006
100
AcDbArc
 50
0
 51
90
  0
LINE
  5
358
100
AcDbEntity
  8
0
100
AcDbLine
370
25
 62
7
  6
CONTINUOUS
 10
877.489252513786
 20
386.530692835358
 30
0
 11
877.489252513786
 21
404.080692835358
 31
0
  0
LINE
  5
359
100
AcDbEntity
  8
0
100
AcDbLine
370
25
 62
7
  6
CONTINUOUS
 10
880.168002513786
 20
386.530692835358
 30
0
 11
877.489252513786
 21
386.530692835358
 31
0
  0
ARC
  5
35A
100
AcDbEntity
  8
0
100
AcDbCircle
370
25
 62
7
  6
CONTINUOUS
 10
880.168002513786
 20
385.030692835358
 30
0
 40
1.50000000000006
100
AcDbArc
 50
0
 51
90
  0
LINE
  5
35B
100
AcDbEntity
  8
0
100
AcDbLine
370
25
 62
7
  6
CONTINUOUS
 10
849.894852513786
 20
347.372692835358
 30
0
 11
876.494852513786
 21
347.372692835358
 31
0
  0
LINE
  5
35C
100
AcDbEntity
  8
0
100
AcDbLine
370
25
 62
7
  6
CONTINUOUS
 10
797.181018321401
 20
366.470692835358
 30
0
 11
848.394852513786
 21
366.470692835358
 31
0
  0
LINE
  5
35D
100
AcDbEntity
  8
0
100
AcDbLine
370
25
 62
7
  6
CONTINUOUS
 10
800.749542251315
 20
349.682107708293
 30
0
 11
797.181018321401
 21
366.470692835358
 31
0
  0
ARC
  5
35E
100
AcDbEntity
  8
0
100
AcDbCircle
370
25
 62
7
  6
CONTINUOUS
 10
799.282320850214
 20
349.370240172066
 30
0
 40
1.50000000000008
100
AcDbArc
 50
281.999999999999
 51
11.9999999999987
  0
LINE
  5
35F
100
AcDbEntity
  8
0
100
AcDbLine
370
25
 62
7
  6
CONTINUOUS
 10
773.595019914362
 20
342.376724914261
 30
0
 11
799.594188386441
 21
347.903018770965
 31
0
  0
ARC
  5
360
100
AcDbEntity
  8
0
100
AcDbCircle
370
25
 62
7
  6
CONTINUOUS
 10
773.283152378135
 20
343.843946315361
 30
0
 40
1.49999999999997
100
AcDbArc
 50
192.153195163947
 51
282
  0
LINE
  5
361
100
AcDbEntity
  8
0
100
AcDbLine
370
25
 62
7
  6
CONTINUOUS
 10
721.503618781087
 20
332.833766453884
 30
0
 11
771.816770079562
 21
343.528156900671
 31
0
  0
ARC
  5
362
100
AcDbEntity
  8
0
100
AcDbCircle
370
25
 62
7
  6
CONTINUOUS
 10
721.19175124486
 20
334.300987854984
 30
0
 40
1.49999999999999
100
AcDbArc
 50
192.000000000004
 51
282.000000000004
  0
LINE
  5
363
100
AcDbEntity
  8
0
100
AcDbLine
370
25
 62
7
  6
CONTINUOUS
 10
712.21533415477
 20
369.317108455143
 30
0
 11
719.724529843759
 21
333.989120318758
 31
0
  0
ARC
  5
364
100
AcDbEntity
  8
0
100
AcDbCircle
370
25
 62
7
  6
CONTINUOUS
 10
713.68255555587
 20
369.62897599137
 30
0
 40
1.49999999999997
100
AcDbArc
 50
101.999999999999
 51
192.000000000003
  0
LINE
  5
365
100
AcDbEntity
  8
0
100
AcDbLine
370
25
 62
7
  6
CONTINUOUS
 10
721.223189551921
 20
372.76529811868
 30
0
 11
713.370688019644
 21
371.09619739247
 31
0
  0
LINE
  5
366
100
AcDbEntity
  8
0
100
AcDbLine
370
25
 62
7
  6
CONTINUOUS
 10
717.473750067839
 20
390.40502400916
 30
0
 11
721.223189551921
 21
372.76529811868
 31
0
  0
LINE
  5
367
100
AcDbEntity
  8
0
100
AcDbLine
370
25
 62
7
  6
CONTINUOUS
 10
714.281007738429
 20
389.726385677322
 30
0
 11
717.473750067839
 21
390.40502400916
 31
0
  0
ARC
  5
368
100
AcDbEntity
  8
0
100
AcDbCircle
370
25
 62
7
  6
CONTINUOUS
 10
713.969140202202
 20
391.193607078423
 30
0
 40
1.49999999999997
100
AcDbArc
 50
192
 51
282
  0
LINE
  5
369
100
AcDbEntity
  8
0
100
AcDbLine
370
25
 62
7
  6
CONTINUOUS
 10
708.954945355751
 20
407.568937610715
 30
0
 11
712.501918801102
 21
390.881739542196
 31
0
  0
ARC
  5
36A
100
AcDbEntity
  8
0
100
AcDbCircle
370
25
 62
7
  6
CONTINUOUS
 10
710.422166756851
 20
407.880805146941
 30
0
 40
1.49999999999997
100
AcDbArc
 50
102.000000000003
 51
192
  0
LINE
  5
36B
100
AcDbEntity
  8
0
100
AcDbLine
370
25
 62
7
  6
CONTINUOUS
 10
717.95526670883
 20
411.015525863748
 30
0
 11
710.110299220625
 21
409.348026548042
 31
0
  0
LINE
  5
36C
100
AcDbEntity
  8
0
100
AcDbLine
370
25
 62
7
  6
CONTINUOUS
 10
714.304945355751
 20
428.188937610715
 30
0
 11
717.95526670883
 21
411.015525863748
 31
0
  0
ARC
  5
36D
100
AcDbEntity
  8
0
100
AcDbCircle
370
25
 62
7
  6
CONTINUOUS
 10
715.772166756851
 20
428.500805146941
 30
0
 40
1.49999999999997
100
AcDbArc
 50
101.999999999999
 51
192
  0
LINE
  5
36E
100
AcDbEntity
  8
0
100
AcDbLine
370
25
 62
7
  6
CONTINUOUS
 10
789.399320827577
 20
445.684250754062
 30
0
 11
715.460299220625
 21
429.968026548042
 31
0
  0
ARC
  5
36F
100
AcDbEntity
  8
0
100
AcDbCircle
370
25
 62
7
  6
CONTINUOUS
 10
789.711188363804
 20
444.217029352961
 30
0
 40
1.50000000000006
100
AcDbArc
 50
92.2936995235174
 51
101.999999999994
  0
ARC
  5
370
100
AcDbEntity
  8
0
100
AcDbCircle
370
25
 62
7
  6
CONTINUOUS
 10
564.999252513786
 20
408.210692835357
 30
0
 40
1.49999999999994
100
AcDbArc
 50
270.000000000001
 51
0
  0
LINE
  5
371
100
AcDbEntity
  8
0
100
AcDbLine
370
25
 62
7
  6
CONTINUOUS
 10
562.429252513786
 20
406.710692835358
 30
0
 11
564.999252513786
 21
406.710692835358
 31
0
  0
LINE
  5
372
100
AcDbEntity
  8
0
100
AcDbLine
370
25
 62
7
  6
CONTINUOUS
 10
562.429252513786
 20
389.160692835358
 30
0
 11
562.429252513786
 21
406.710692835358
 31
0
  0
ARC
  5
373
100
AcDbEntity
  8
0
100
AcDbCircle
370
25
 62
7
  6
CONTINUOUS
 10
560.929252513786
 20
389.160692835358
 30
0
 40
1.5
100
AcDbArc
 50
270.000000000001
 51
0
  0
LINE
  5
374
100
AcDbEntity
  8
0
100
AcDbLine
370
25
 62
7
  6
CONTINUOUS
 10
543.869252513786
 20
387.660692835358
 30
0
 11
560.929252513786
 21
387.660692835358
 31
0
  0
ARC
  5
375
100
AcDbEntity
  8
0
100
AcDbCircle
370
25
 62
7
  6
CONTINUOUS
 10
543.869252513786
 20
389.160692835358
 30
0
 40
1.5
100
AcDbArc
 50
180
 51
270.000000000001
  0
LINE
  5
376
100
AcDbEntity
  8
0
100
AcDbLine
370
25
 62
7
  6
CONTINUOUS
 10
542.369252513786
 20
406.220692835358
 30
0
 11
542.369252513786
 21
389.160692835358
 31
0
  0
ARC
  5
377
100
AcDbEntity
  8
0
100
AcDbCircle
370
25
 62
7
  6
CONTINUOUS
 10
543.869252513786
 20
406.220692835358
 30
0
 40
1.5
100
AcDbArc
 50
90
 51
180
  0
LINE
  5
378
100
AcDbEntity
  8
0
100
AcDbLine
370
25
 62
7
  6
CONTINUOUS
 10
546.439252513786
 20
407.720692835358
 30
0
 11
543.869252513786
 21
407.720692835358
 31
0
  0
LINE
  5
379
100
AcDbEntity
  8
0
100
AcDbLine
370
25
 62
7
  6
CONTINUOUS
 10
546.439252513786
 20
425.270692835357
 30
0
 11
546.439252513786
 21
407.720692835358
 31
0
  0
ARC
  5
37A
100
AcDbEntity
  8
0
100
AcDbCircle
370
25
 62
7
  6
CONTINUOUS
 10
547.939252513786
 20
425.270692835357
 30
0
 40
1.50000000000011
100
AcDbArc
 50
90
 51
180
  0
LINE
  5
37B
100
AcDbEntity
  8
0
100
AcDbLine
370
25
 62
7
  6
CONTINUOUS
 10
550.599252513786
 20
426.770692835358
 30
0
 11
547.939252513786
 21
426.770692835358
 31
0
  0
LINE
  5
37C
100
AcDbEntity
  8
0
100
AcDbLine
370
25
 62
7
  6
CONTINUOUS
 10
550.599252513786
 20
444.320692835358
 30
0
 11
550.599252513786
 21
426.770692835358
 31
0
  0
ARC
  5
37D
100
AcDbEntity
  8
0
100
AcDbCircle
370
25
 62
7
  6
CONTINUOUS
 10
552.099252513786
 20
444.320692835358
 30
0
 40
1.5
100
AcDbArc
 50
90
 51
180
  0
LINE
  5
37E
100
AcDbEntity
  8
0
100
AcDbLine
370
25
 62
7
  6
CONTINUOUS
 10
569.159252513786
 20
445.820692835358
 30
0
 11
552.099252513786
 21
445.820692835358
 31
0
  0
ARC
  5
37F
100
AcDbEntity
  8
0
100
AcDbCircle
370
25
 62
7
  6
CONTINUOUS
 10
569.159252513786
 20
444.320692835358
 30
0
 40
1.49999999999994
100
AcDbArc
 50
0
 51
90
  0
LINE
  5
380
100
AcDbEntity
  8
0
100
AcDbLine
370
25
 62
7
  6
CONTINUOUS
 10
570.659252513786
 20
427.260692835358
 30
0
 11
570.659252513786
 21
444.320692835358
 31
0
  0
ARC
  5
381
100
AcDbEntity
  8
0
100
AcDbCircle
370
25
 62
7
  6
CONTINUOUS
 10
569.159252513786
 20
427.260692835358
 30
0
 40
1.5
100
AcDbArc
 50
270.000000000001
 51
0
  0
LINE
  5
382
100
AcDbEntity
  8
0
100
AcDbLine
370
25
 62
7
  6
CONTINUOUS
 10
566.499252513786
 20
425.760692835358
 30
0
 11
569.159252513786
 21
425.760692835358
 31
0
  0
LINE
  5
383
100
AcDbEntity
  8
0
100
AcDbLine
370
25
 62
7
  6
CONTINUOUS
 10
566.499252513786
 20
408.210692835357
 30
0
 11
566.499252513786
 21
425.760692835358
 31
0
  0
LINE
  5
384
100
AcDbEntity
  8
0
100
AcDbLine
370
25
 62
7
  6
CONTINUOUS
 10
705.776586226471
 20
409.521739542196
 30
0
 11
709.323559671822
 21
426.208937610715
 31
0
  0
ARC
  5
385
100
AcDbEntity
  8
0
100
AcDbCircle
370
25
 62
7
  6
CONTINUOUS
 10
704.30936482537
 20
409.833607078423
 30
0
 40
1.49999999999994
100
AcDbArc
 50
257.999999999997
 51
348.000000000003
  0
LINE
  5
386
100
AcDbEntity
  8
0
100
AcDbLine
370
25
 62
7
  6
CONTINUOUS
 10
696.146893088319
 20
410.035083113282
 30
0
 11
703.997497289144
 21
408.366385677322
 31
0
  0
LINE
  5
387
100
AcDbEntity
  8
0
100
AcDbLine
370
25
 62
7
  6
CONTINUOUS
 10
692.3955998293
 20
392.386635897418
 30
0
 11
696.146893088319
 21
410.035083113282
 31
0
  0
LINE
  5
388
100
AcDbEntity
  8
0
100
AcDbLine
370
25
 62
7
  6
CONTINUOUS
 10
695.588205806948
 20
391.708026548042
 30
0
 11
692.3955998293
 21
392.386635897418
 31
0
  0
ARC
  5
389
100
AcDbEntity
  8
0
100
AcDbCircle
370
25
 62
7
  6
CONTINUOUS
 10
695.276338270721
 20
390.240805146941
 30
0
 40
1.50000000000003
100
AcDbArc
 50
348.000000000002
 51
78.0000000000017
  0
LINE
  5
38A
100
AcDbEntity
  8
0
100
AcDbLine
370
25
 62
7
  6
CONTINUOUS
 10
693.095272001958
 20
372.765093591036
 30
0
 11
696.743559671822
 21
389.928937610715
 31
0
  0
LINE
  5
38B
100
AcDbEntity
  8
0
100
AcDbLine
370
25
 62
7
  6
CONTINUOUS
 10
700.938205806948
 20
371.098026548042
 30
0
 11
693.095272001958
 21
372.765093591036
 31
0
  0
ARC
  5
38C
100
AcDbEntity
  8
0
100
AcDbCircle
370
25
 62
7
  6
CONTINUOUS
 10
700.626338270721
 20
369.630805146941
 30
0
 40
1.50000000000009
100
AcDbArc
 50
348.000000000001
 51
77.999999999997
  0
LINE
  5
38D
100
AcDbEntity
  8
0
100
AcDbLine
370
25
 62
7
  6
CONTINUOUS
 10
698.444329007873
 20
352.150657152666
 30
0
 11
702.093559671822
 21
369.318937610715
 31
0
  0
LINE
  5
38E
100
AcDbEntity
  8
0
100
AcDbLine
370
25
 62
7
  6
CONTINUOUS
 10
706.078205806948
 20
350.528026548042
 30
0
 11
698.444329007873
 21
352.150657152666
 31
0
  0
ARC
  5
38F
100
AcDbEntity
  8
0
100
AcDbCircle
370
25
 62
7
  6
CONTINUOUS
 10
705.766338270721
 20
349.060805146942
 30
0
 40
1.50000000000003
100
AcDbArc
 50
348.000000000002
 51
78.0000000000017
  0
LINE
  5
390
100
AcDbEntity
  8
0
100
AcDbLine
370
25
 62
7
  6
CONTINUOUS
 10
703.686586226471
 20
332.061739542196
 30
0
 11
707.233559671822
 21
348.748937610715
 31
0
  0
ARC
  5
391
100
AcDbEntity
  8
0
100
AcDbCircle
370
25
 62
7
  6
CONTINUOUS
 10
702.21936482537
 20
332.373607078423
 30
0
 40
1.50000000000009
100
AcDbArc
 50
258.000000000007
 51
348.000000000001
  0
LINE
  5
392
100
AcDbEntity
  8
0
100
AcDbLine
370
25
 62
7
  6
CONTINUOUS
 10
642.493247790492
 20
343.53527426496
 30
0
 11
701.907497289144
 21
330.906385677322
 31
0
  0
LINE
  5
393
100
AcDbEntity
  8
0
100
AcDbLine
370
25
 62
7
  6
CONTINUOUS
 10
642.492568805964
 20
343.532079893903
 30
0
 11
642.493247790492
 21
343.53527426496
 31
0
  0
ARC
  5
394
100
AcDbEntity
  8
0
100
AcDbCircle
370
25
 62
7
  6
CONTINUOUS
 10
641.025347404863
 20
343.84394743013
 30
0
 40
1.50000000000011
100
AcDbArc
 50
258.000000000003
 51
347.999999999999
  0
LINE
  5
395
100
AcDbEntity
  8
0
100
AcDbLine
370
25
 62
7
  6
CONTINUOUS
 10
614.714316641132
 20
347.903018770965
 30
0
 11
640.713479868636
 21
342.376726029029
 31
0
  0
ARC
  5
396
100
AcDbEntity
  8
0
100
AcDbCircle
370
25
 62
7
  6
CONTINUOUS
 10
615.026184177359
 20
349.370240172066
 30
0
 40
1.49999999999999
100
AcDbArc
 50
168.000000000001
 51
257.999999999998
  0
LINE
  5
397
100
AcDbEntity
  8
0
100
AcDbLine
370
25
 62
7
  6
CONTINUOUS
 10
617.127486706171
 20
366.470692835358
 30
0
 11
613.558962776258
 21
349.682107708293
 31
0
  0
LINE
  5
398
100
AcDbEntity
  8
0
100
AcDbLine
370
25
 62
7
  6
CONTINUOUS
 10
590.819252513786
 20
366.470692835358
 30
0
 11
617.127486706171
 21
366.470692835358
 31
0
  0
LINE
  5
399
100
AcDbEntity
  8
0
100
AcDbLine
370
25
 62
7
  6
CONTINUOUS
 10
590.819252513786
 20
348.920692835358
 30
0
 11
590.819252513786
 21
366.470692835358
 31
0
  0
ARC
  5
39A
100
AcDbEntity
  8
0
100
AcDbCircle
370
25
 62
7
  6
CONTINUOUS
 10
589.319252513786
 20
348.920692835358
 30
0
 40
1.50000000000006
100
AcDbArc
 50
270.000000000001
 51
0
  0
LINE
  5
39B
100
AcDbEntity
  8
0
100
AcDbLine
370
25
 62
7
  6
CONTINUOUS
 10
562.719252513786
 20
347.420692835357
 30
0
 11
589.319252513786
 21
347.420692835357
 31
0
  0
ARC
  5
39C
100
AcDbEntity
  8
0
100
AcDbCircle
370
25
 62
7
  6
CONTINUOUS
 10
562.719252513786
 20
348.920692835358
 30
0
 40
1.50000000000006
100
AcDbArc
 50
180
 51
270.000000000001
  0
LINE
  5
39D
100
AcDbEntity
  8
0
100
AcDbLine
370
25
 62
7
  6
CONTINUOUS
 10
561.219252513786
 20
385.030692835358
 30
0
 11
561.219252513786
 21
348.920692835358
 31
0
  0
ARC
  5
39E
100
AcDbEntity
  8
0
100
AcDbCircle
370
25
 62
7
  6
CONTINUOUS
 10
562.719252513786
 20
385.030692835358
 30
0
 40
1.50000000000006
100
AcDbArc
 50
90
 51
180
  0
LINE
  5
39F
100
AcDbEntity
  8
0
100
AcDbLine
370
25
 62
7
  6
CONTINUOUS
 10
565.389252513786
 20
386.530692835358
 30
0
 11
562.719252513786
 21
386.530692835358
 31
0
  0
CIRCLE
  5
3A0
100
AcDbEntity
  8
0
100
AcDbCircle
370
25
 62
7
  6
CONTINUOUS
 10
654.96883584712
 20
450.320692835357
 30
0
 40
1.6
  0
LINE
  5
50E
100
AcDbEntity
  8
0
100
AcDbLine
370
-1
  6
BYLAYER
 10
702.369252513786
 20
174.763706349072
 30
0
 11
702.369252514
 21
165.233706349072
 31
0
  0
LINE
  5
511
100
AcDbEntity
  8
0
100
AcDbLine
370
-1
  6
BYLAYER
 10
722.119252513788
 20
174.763706349072
 30
0
 11
722.119252514
 21
165.233706349072
 31
0
  0
LINE
  5
79C
100
AcDbEntity
  8
0
100
AcDbLine
370
-1
  6
BYLAYER
 10
571.799252513786
 20
263.266246923684
 30
0
 11
588.799252513786
 21
263.266246923684
 31
0
  0
LINE
  5
79F
100
AcDbEntity
  8
0
100
AcDbLine
370
-1
  6
BYLAYER
 10
571.799252513786
 20
249.266246923684
 30
0
 11
588.799252513786
 21
249.266246923684
 31
0
  0
LINE
  5
7AE
100
AcDbEntity
  8
0
100
AcDbLine
370
-1
  6
BYLAYER
 10
538.369252513786
 20
315.536246923684
 30
0
 11
885.668002513786
 21
315.536246923684
 31
0
  0
LINE
  5
7C4
100
AcDbEntity
  8
0
100
AcDbLine
370
-1
  6
BYLAYER
 10
538.369252513786
 20
36.8249868812493
 30
0
 11
700.701019560735
 21
36.8249868812493
 31
0
  0
LINE
  5
7C7
100
AcDbEntity
  8
0
100
AcDbLine
370
-1
  6
BYLAYER
 10
885.668002513786
 20
36.8249868812493
 30
0
 11
721.684044497539
 21
36.8249868812493
 31
0
  0
LINE
  5
7CA
100
AcDbEntity
  8
0
100
AcDbLine
370
-1
  6
BYLAYER
 10
700.701019560735
 20
36.8249868812493
 30
0
 11
700.701019560735
 21
21.8249868812493
 31
0
  0
LINE
  5
7CC
100
AcDbEntity
  8
0
100
AcDbLine
370
-1
  6
BYLAYER
 10
721.684044497539
 20
36.8249868812493
 30
0
 11
721.684044497539
 21
21.8249868812493
 31
0
  0
LINE
  5
7D9
100
AcDbEntity
  8
0
100
AcDbLine
370
-1
  6
BYLAYER
 10
700.701019560735
 20
21.8249868812493
 30
0
 11
721.684044497539
 21
21.8249868812493
 31
0
  0
LINE
  5
823
100
AcDbEntity
  8
0
100
AcDbLine
370
25
 62
7
  6
CONTINUOUS
 10
832.986929492596
 20
304.267075997612
 30
3.62474603229896E-118
 11
832.986929492596
 21
283.912072819612
 31
3.62474603229896E-118
  0
LINE
  5
824
100
AcDbEntity
  8
0
100
AcDbLine
370
25
 62
7
  6
CONTINUOUS
 10
866.036929492596
 20
283.912072819612
 30
3.62474603229896E-118
 11
866.036929492596
 21
304.267075997612
 31
3.62474603229896E-118
  0
LINE
  5
825
100
AcDbEntity
  8
0
100
AcDbLine
370
-1
  6
BYLAYER
 10
832.986929492596
 20
304.267075997612
 30
3.62474603229896E-118
 11
866.036929492596
 21
304.267075997612
 31
3.62474603229896E-118
  0
LINE
  5
826
100
AcDbEntity
  8
0
100
AcDbLine
370
-1
  6
BYLAYER
 10
832.986929492596
 20
283.912072819612
 30
3.62474603229896E-118
 11
866.036929492596
 21
283.912072819612
 31
3.62474603229896E-118
  0
LINE
  5
857
100
AcDbEntity
  8
0
100
AcDbLine
370
25
 62
7
  6
CONTINUOUS
 10
870.386320133693
 20
230.178749412001
 30
0
 11
879.117070133274
 21
230.178749412001
 31
0
  0
LINE
  5
85E
100
AcDbEntity
  8
0
100
AcDbLine
370
-1
  6
BYLAYER
 10
837.597458438764
 20
226.707728088443
 30
0
 11
870.386320133274
 21
226.707728088443
 31
0
  0
LINE
  5
85F
100
AcDbEntity
  8
0
100
AcDbLine
370
-1
  6
BYLAYER
 10
870.386320133693
 20
230.178749412001
 30
0
 11
870.386320133274
 21
226.707728088443
 31
0
  0
LINE
  5
860
100
AcDbEntity
  8
0
100
AcDbLine
370
-1
  6
BYLAYER
 10
879.117070133274
 20
244.178749412001
 30
0
 11
879.117070133274
 21
230.178749412001
 31
0
  0
LINE
  5
95E
100
AcDbEntity
  8
0
100
AcDbLine
370
-1
  6
BYLAYER
 10
568.721251953979
 20
245.80124618697
 30
0
 11
597.597251106641
 21
245.801246186971
 31
0
  0
LINE
  5
9D4
100
AcDbEntity
  8
0
100
AcDbLine
370
25
 62
7
  6
CONTINUOUS
 10
648.06781737964
 20
223.399610644
 30
-6.40009168153167E-149
 11
643.8368564404
 21
203.184002240048
 31
-6.40009168153167E-149
  0
LINE
  5
9D5
100
AcDbEntity
  8
0
100
AcDbLine
370
-1
  6
BYLAYER
 10
643.8368564404
 20
203.184002240048
 30
-6.40009168153167E-149
 11
680.130356273377
 21
195.435099602345
 31
-6.40009168153167E-149
  0
LINE
  5
9D7
100
AcDbEntity
  8
0
100
AcDbLine
370
-1
  6
BYLAYER
 10
684.254901958578
 20
215.928631273
 30
-6.40009168153167E-149
 11
680.130356273377
 21
195.435099602345
 31
-6.40009168153167E-149
  0
LINE
  5
9E7
100
AcDbEntity
  8
0
100
AcDbLine
370
-1
  6
BYLAYER
 10
648.06781737964
 20
223.399610644
 30
-6.40009168153167E-149
 11
684.254901958578
 21
215.928631273
 31
-6.40009168153167E-149
  0
LINE
  5
9F0
100
AcDbEntity
  8
0
100
AcDbLine
370
-1
  6
BYLAYER
 10
725.318357837005
 20
215.30882945685
 30
9.90363376702052E-216
 11
729.761812990369
 21
194.696840706716
 31
0
  0
LINE
  5
9F3
100
AcDbEntity
  8
0
100
AcDbLine
370
-1
  6
BYLAYER
 10
757.869321038753
 20
222.219239001409
 30
0
 11
762.640011535065
 21
202.063739965694
 31
0
  0
LINE
  5
9FD
100
AcDbEntity
  8
0
100
AcDbLine
370
-1
  6
BYLAYER
 10
567.721251790066
 20
226.5
 30
0
 11
598.597253133197
 21
226.5
 31
0
  0
LINE
  5
A0D
100
AcDbEntity
  8
0
100
AcDbLine
370
-1
  6
BYLAYER
 10
837.597458439
 20
266.621249386547
 30
0
 11
837.597458438764
 21
226.707728088443
 31
0
  0
LINE
  5
A1D
100
AcDbEntity
  8
0
100
AcDbLine
370
-1
  6
BYLAYER
 10
879.117070133274
 20
244.178749412001
 30
0
 11
874.472678230466
 21
244.178749412001
 31
0
  0
LINE
  5
A22
100
AcDbEntity
  8
0
100
AcDbLine
370
-1
  6
BYLAYER
 10
874.47267823
 20
266.621249386547
 30
0
 11
874.472678230466
 21
244.178749412001
 31
0
  0
LINE
  5
A29
100
AcDbEntity
  8
0
100
AcDbLine
370
-1
  6
BYLAYER
 10
729.761812990369
 20
194.696840706716
 30
0
 11
762.640011535065
 21
202.063739965694
 31
0
  0
ENDSEC
  0
SECTION
  2
OBJECTS
  0
DICTIONARY
  5
A3B
100
AcDbDictionary
  3
ACAD_GROUP
350
A3C
  3
ACAD_MATERIAL
350
A3D
  3
ACAD_WIPEOUT_VARS
350
A3E
  3
ACAD_MLINESTYLE
350
A3F
  3
ACAD_IMAGE_VARS
350
A40
  3
ACAD_LAYOUT
350
A41
  0
DICTIONARY
  5
A3C
330
A3B
100
AcDbDictionary
  0
DICTIONARY
  5
A3D
330
A3B
100
AcDbDictionary
  0
WIPEOUTVARIABLES
  5
A3E
330
A3B
100
AcDbWipeoutVariables
 70
1
  0
DICTIONARY
  5
A3F
330
A3B
100
AcDbDictionary
  3
Standard
350
18
  0
MLINESTYLE
  5
18
330
A3F
100
AcDbMlineStyle
  2
Standard
 70
0
  3

 62
256
 51
90
 52
90
 71
2
 49
0.5
 62
256
  6
BYLAYER
 49
-0.5
 62
256
  6
BYLAYER
  0
DICTIONARY
  5
A41
100
AcDbDictionary
281
1
  3
Model
350
22
  0
LAYOUT
  5
22
102
{ACAD_REACTORS
330
A41
102
}
330
A41
100
AcDbPlotSettings
  1

  2
none_device
  4
Letter_(8.50_x_11.00_Inches)
  6

 40
6.35
 41
6.35
 42
6.35000508
 43
6.35000508
 44
215.9
 45
279.4
 46
0
 47
0
 48
0
 49
0
 70
1712
 72
1
 73
0
 74
0
 75
0
 76
0
 77
0
 78
100
140
0
141
0
142
1
143
1
147
1
148
0
149
0
100
AcDbLayout
  1
Model
 70
1
 71
1
 10
536.369252513786
 20
-96.0893202767862
 11
887.668002513786
 21
454.820692835358
 12
0
 22
0
 32
0
 14
536.369252513786
 24
-96.0893202767862
 34
-6.40009168153167E-149
 15
887.668002513786
 25
454.820692835358
 35
3.62474603229896E-118
146
0
 13
0
 23
0
 33
0
 16
1
 26
0
 36
0
 17
0
 27
1
 37
0
 76
0
330
1F
  0
RASTERVARIABLES
  5
A40
330
A3B
100
AcDbRasterVariables
 90
0
 70
1
 71
0
 72
0
  0
DICTIONARY
  5
A42
100
AcDbDictionary
280
1
  3
XINFO
360
A43
  0
XRECORD
  5
A43
102
{ACAD_REACTORS
330
A42
102
}
330
A42
100
AcDbXrecord
280
0
310
0700000000000E00
311
7903304D2406A9D8
  0
ENDSEC
  0
EOF
